<svg xmlns="http://www.w3.org/2000/svg" viewBox="0 0 146.59131 146.52197"><title>circle-text</title><path d="M28.58984,22.0166l.58594,1.63867-1.19141,1.00684-2.49023-6.915,1.21533-1.02588L33.103,20.33936l-1.17725.99268-1.51758-.85059Zm.64063-2.20215-2.10693-1.36279L28.1377,20.7373Z" style="fill:#dab679"/><path d="M36.73438,14.92969l-2.41846-3.7085,1.231-.80322,2.41846,3.70947a2.6713,2.6713,0,0,1-4.47168,2.915L31.0752,13.333l1.248-.8125L34.7417,16.229a1.18947,1.18947,0,0,0,1.99268-1.29932Z" style="fill:#dab679"/><path d="M46.73389,10.80029a3.42289,3.42289,0,0,1-1.95166,2.62256,3.46357,3.46357,0,0,1-4.65283-1.66846,3.45961,3.45961,0,0,1,1.5708-4.69287,3.42316,3.42316,0,0,1,3.21875.0625l-.71338,1.25635a2.01745,2.01745,0,0,0-1.90332-.07715,2.04145,2.04145,0,0,0-.84961,2.81055,2.03947,2.03947,0,0,0,2.72754,1.06738A2.07509,2.07509,0,0,0,45.314,10.57666Z" style="fill:#dab679"/><path d="M47.04053,4.80225l4.92041-1.689.42871,1.249-1.75977.60449,1.80859,5.27051-1.40039.48047L49.22949,5.44727l-1.76025.604Z" style="fill:#dab679"/><path d="M56.562,1.9292l1.63525,6.69092-1.418.34668L55.14453,2.27637Z" style="fill:#dab679"/><path d="M63.44141.58691A3.49875,3.49875,0,0,1,67.38184,3.625a3.49355,3.49355,0,1,1-6.92383.93555A3.49724,3.49724,0,0,1,63.44141.58691Zm.752,5.56641a2.04989,2.04989,0,0,0,1.7417-2.3335,2.03446,2.03446,0,1,0-4.03076.54541A2.04144,2.04144,0,0,0,64.19336,6.15332Z" style="fill:#dab679"/><path d="M75.748,6.88379l-1.30859.00293L72.03271,2.7251,72.042,6.8916,70.5835,6.895,70.56787.01025,71.90723.00781l2.36621,4.11133L74.26465.00293,75.7334,0Z" style="fill:#dab679"/><path d="M89.50049,1.75244,88.229,8.5249,86.77441,8.252l.51074-2.72363L84.877,5.07617,84.36621,7.7998l-1.43457-.26953,1.27-6.77295,1.436.27-.51855,2.76172,2.4082.45215.51855-2.76172Z" style="fill:#dab679"/><path d="M96.42334,3.63818A3.53671,3.53671,0,1,1,91.99463,5.8999,3.50143,3.50143,0,0,1,96.42334,3.63818ZM94.65283,8.97412a2.08666,2.08666,0,1,0-1.272-2.61377A2.05067,2.05067,0,0,0,94.65283,8.97412Z" style="fill:#dab679"/><path d="M104.55518,11.88818l1.94092-3.98584,1.32275.644-1.94092,3.98584a2.6742,2.6742,0,0,1-4.80469-2.33887L103.01367,6.207l1.34082.65234-1.94043,3.9873a1.19054,1.19054,0,0,0,2.14111,1.0415Z" style="fill:#dab679"/><path d="M109.49512,15.19336a.916.916,0,0,0,.416,1.25684c.49609.32031.99219.30762,1.24512-.06543.17627-.25537.20557-.55811-.27441-1.10547l-.57275-.644c-1.02295-1.22021-.75781-2.10937-.42139-2.63037a2.16633,2.16633,0,0,1,3.10986-.44482,2.1104,2.1104,0,0,1,.813,3.0376l-1.22705-.79248a.908.908,0,0,0-1.44678-1.0415c-.09766.15137-.21826.46631.2417.98975l.54834.66357c1.14258,1.30957.83447,2.23.46,2.77441a2.21683,2.21683,0,0,1-3.18164.35156,2.22941,2.22941,0,0,1-.94482-3.147Z" style="fill:#dab679"/><path d="M117.91992,15.08984l3.38281,2.752-.81445,1.001-2.25-1.83105L117.24756,18.23l1.97021,1.603-.80176.98535-1.97021-1.603-.92773,1.14063,2.31982,1.88721-.81445,1.001-3.45215-2.80957Z" style="fill:#dab679"/><path d="M127.16455,23.54053l2.84619,3.23682-.96826.85205-1.87646-2.1333L125.9873,26.5332l1.48584,1.68994-.96045.84521-1.48682-1.68994-2.06494,1.81592-.97021-1.104Z" style="fill:#dab679"/><path d="M133.93994,31.94873a3.53478,3.53478,0,1,1-4.8916-.88281A3.50051,3.50051,0,0,1,133.93994,31.94873Zm-4.63867,3.17188a2.0854,2.0854,0,1,0,.57129-2.84961A2.05194,2.05194,0,0,0,129.30127,35.12061Z" style="fill:#dab679"/><path d="M133.7959,45.71777l-.79541-1.5708,1.42725-2.45068-.14941-.29395L132.15479,42.478l-.66455-1.312,6.14844-3.11426,1.27441,2.5166a2.16635,2.16635,0,0,1-.981,3.06494,2.133,2.133,0,0,1-2.73242-.54492Zm3.35547-5.77148-1.731.87744.56055,1.10645a.979.979,0,0,0,1.749-.8418Z" style="fill:#dab679"/><path d="M136.31494,52.11572l6.61621-1.918.752,2.59375c.55127,1.90088-.57471,3.40381-2.457,3.94922-1.87207.543-3.60791-.13037-4.15967-2.03174Zm1.68408,1.03271.34521,1.19092c.30566,1.05566,1.39063,1.31445,2.47559.999,1.09473-.31738,1.89209-1.12061,1.58594-2.17676l-.34521-1.19092Z" style="fill:#dab679"/><path d="M145.50977,60.65234l-6.78027,1.249-.26465-1.43652,6.78027-1.249Z" style="fill:#dab679"/><path d="M144.5166,69.30957a2.00147,2.00147,0,0,0,.58057-1.56006,2.18887,2.18887,0,0,0-4.35693.33936c.05762.73828.58789,1.61914,1.31641,1.57324l-.144-1.84521,1.186-.09229.27588,3.52979c-2.57227.2002-3.81592-1.0874-3.97021-3.061a3.53486,3.53486,0,0,1,7.04834-.54932,3.404,3.404,0,0,1-.92529,2.66943Z" style="fill:#dab679"/><path d="M146.55469,75.81738l-6.8916-.1709.03662-1.46045,6.8916.1709Z" style="fill:#dab679"/><path d="M146.41064,79.07178l-.58936,5.16748-1.31152-.14941.21094-1.84863-5.53516-.63086.16748-1.47119,5.53516.63184.21094-1.84863Z" style="fill:#dab679"/><path d="M139.91846,87.16064l-1.45605-.9541.34375-1.52148,6.15674,4.01318-.3501,1.55127-7.28174.97021.33936-1.50146,1.72363-.23633Zm.81836,2.14258,2.50146-.18408-2.18652-1.21094Z" style="fill:#dab679"/><path d="M143.11475,95.70361l-.48193,1.38916-5.29346-1.8374-.84619,2.439-1.21924-.42334,1.32861-3.82764Z" style="fill:#dab679"/><path d="M133.62354,104.78564l-1.13916-1.31592.74707-1.37012,4.82471,5.54834-.76172,1.39648-7.27295-1.061.7373-1.35254,1.72461.24512Zm.2002,2.28613,2.45752.5083-1.772-1.76416Z" style="fill:#dab679"/><path d="M125.75586,114.07813l.76465-1.06348,4.78955.48486-3.38818-2.43506.85205-1.186,5.59814,4.022-.78271,1.08838-4.72461-.4873,3.34717,2.40479-.85791,1.19482Z" style="fill:#dab679"/><path d="M123.752,116.52734l5.04053,4.69873-1.84131,1.9751c-1.34961,1.44824-3.21826,1.25146-4.65234-.085-1.42578-1.3291-1.73877-3.16553-.38818-4.61377Zm-.02246,1.97559-.8457.90625c-.75.80469-.41553,1.86865.41113,2.63965.834.77734,1.93359,1.0498,2.68311.24463l.84619-.90674Z" style="fill:#dab679"/><path d="M118.71924,130.83545l-2.272,1.68506a2.25413,2.25413,0,1,1-2.686-3.62061l1.0918-.80957-1.41748-1.91064,1.18018-.87549Zm-1.94873-.16064-1.15479-1.55713-1.03662.76807a.97886.97886,0,0,0,1.12451,1.58154Z" style="fill:#dab679"/><path d="M107.05518,138.39893l-3.397-5.99951,1.28809-.73047,1.36621,2.41211,2.1333-1.20752-1.3667-2.4126,1.272-.71924,3.397,5.99854-1.271.72021-1.38623-2.44678-2.13281,1.208,1.38525,2.44678Z" style="fill:#dab679"/><path d="M99.24316,134.40723l1.18408,2.88818,3.89453,2.47949-1.61035.66113-2.5166-1.75781-.57568,3.02588-1.61133.66113,1.03271-4.52295-1.17676-2.86914Z" style="fill:#dab679"/><path d="M92.93506,138.82471a.91461.91461,0,0,0-1.2168-.51855c-.56787.16064-.88623.5415-.77393.97705.0752.30078.2832.52246,1.01123.5249l.86133-.00391c1.59082.03906,2.083.82422,2.251,1.4209a2.16475,2.16475,0,0,1-1.7207,2.627,2.10937,2.10937,0,0,1-2.81543-1.39648l1.40479-.397a.775.775,0,0,0,1.06885.5083c.49072-.13818.78027-.51172.66846-.90576-.04883-.17383-.20557-.47217-.90283-.47314l-.85937-.02734c-1.73779-.00732-2.22412-.84717-2.38477-1.4873a2.53264,2.53264,0,0,1,4.82275-1.24854Z" style="fill:#dab679"/><path d="M86.10059,145.43945l-1.26416-6.77979,1.437-.26807,1.26416,6.78076Z" style="fill:#dab679"/><path d="M75.87158,141.09619a3.42024,3.42024,0,0,1,2.75977-1.751,3.53391,3.53391,0,0,1,.60205,7.04053,3.42426,3.42426,0,0,1-2.98242-1.209l1.11523-.918a2.02,2.02,0,0,0,1.75.75293,2.161,2.161,0,0,0-.36768-4.29248A2.07256,2.07256,0,0,0,77.1167,141.812Z" style="fill:#dab679"/><path d="M71.80273,141.28125l.67285-1.60449,1.55811.06006L71.2085,146.522l-1.58838-.062-2.27979-6.98291,1.53809.05957.5459,1.65234Zm-1.958,1.19434.63672,2.42676.79248-2.37061Z" style="fill:#dab679"/><path d="M64.04443,145.978l-1.45312-.21875.83447-5.53467-2.55029-.38428.19189-1.2749,4.00244.603Z" style="fill:#dab679"/><path d="M53.36279,138.31592l1.085-1.36035,1.48291.48291-4.56738,5.75684-1.51123-.49268-.29-7.33887,1.46338.47705.0752,1.73828Zm-2.208.61621L51.105,141.439l1.4082-2.06445Z" style="fill:#dab679"/><path d="M42.80566,132.30762l1.59521.74463.38916,2.80811L45.08887,136l1.00635-2.15771,1.332.62207L44.51367,140.709,41.958,139.5166a2.16569,2.16569,0,0,1-1.11963-3.01709,2.13005,2.13005,0,0,1,2.48438-1.25781Zm.9209,6.61035.82129-1.75781-1.12451-.5249a.979.979,0,0,0-.85742,1.74121Z" style="fill:#dab679"/><path d="M37.17627,137.09131l-4.43213-2.72607.69189-1.12549,1.58545.9751,2.9209-4.748,1.26221.77686-2.9209,4.748,1.58545.9751Z" style="fill:#dab679"/><path d="M30.15137,126.28125a1.71064,1.71064,0,0,1-2.021.55713,1.37114,1.37114,0,0,1-.26074,1.60059,2.01971,2.01971,0,0,1-2.7832.10547,2.29352,2.29352,0,0,1-.87988-1.97363l1.35986.24658a.72935.72935,0,0,0,.24512.56641.66689.66689,0,0,0,.98242-.03613.75712.75712,0,0,0-.0791-1.11426l-.85107-.75732-.51855.582-.96338-.85693.519-.58252-.59814-.53174.74463-.83643.59717.53174.67822-.76123c.52539-.58984.48535-.78613-.08984-1.29785l.80469-.90332c.792.71875,1.20264,1.20459.87646,1.93115a1.946,1.946,0,0,1,1.81836.46777A2.13435,2.13435,0,0,1,30.15137,126.28125Zm-2.6626-.85791a.90647.90647,0,0,0,1.45508-.06934.93364.93364,0,0,0-.27148-1.25879,1.17378,1.17378,0,0,0-1.69873.13428l-.36523.41016Z" style="fill:#dab679"/><path d="M17.53564,111.95361A3.42119,3.42119,0,0,1,20.501,113.333a3.5365,3.5365,0,0,1-5.60645,4.30957,3.42708,3.42708,0,0,1-.5918-3.166l1.37549.44385a2.0207,2.0207,0,0,0,.31055,1.88086,2.04377,2.04377,0,0,0,2.92627.26123,2.04056,2.04056,0,0,0,.4917-2.88818,2.0755,2.0755,0,0,0-1.80225-.78564Z" style="fill:#dab679"/><path d="M9.665,109.77246a3.53707,3.53707,0,1,1,4.811,1.26318A3.50358,3.50358,0,0,1,9.665,109.77246Zm4.876-2.80078a2.08691,2.08691,0,1,0-.79248,2.79736A2.051,2.051,0,0,0,14.541,106.97168Z" style="fill:#dab679"/><path d="M6.5,103.43164l-.57227-1.35254,5.15479-2.18115-1.00537-2.37451,1.1875-.502,1.57764,3.72705Z" style="fill:#dab679"/><path d="M3.81348,96.56738l-.43311-1.40381L8.728,93.51416l-.76074-2.46387,1.23193-.38037,1.19287,3.86768Z" style="fill:#dab679"/><path d="M1.81152,89.45215l-.8374-4.28076,1.26709-.24756.55664,2.84766,1.5415-.30127-.4873-2.49414,1.24609-.24414.48828,2.49414,1.44336-.28223-.57471-2.936,1.26709-.24756.854,4.36865Z" style="fill:#dab679"/><path d="M5.47852,75.21191a3.41912,3.41912,0,0,1,1.72461,2.77637,3.46328,3.46328,0,0,1-3.25781,3.7168,3.46063,3.46063,0,0,1-3.791-3.18262,3.4276,3.4276,0,0,1,1.23926-2.9707l.90723,1.124a2.01928,2.01928,0,0,0-.77,1.74268,2.04341,2.04341,0,0,0,2.30371,1.82129,2.0402,2.0402,0,0,0,1.99316-2.14648,2.078,2.078,0,0,0-1.07715-1.64355Z" style="fill:#dab679"/><path d="M0,72.76074l.22461-5.19531,1.31836.05664L1.46338,69.481l5.56494.23975-.064,1.479L1.39941,70.959l-.08008,1.85938Z" style="fill:#dab679"/><path d="M.7876,62.855l6.82422.90723L7.41992,65.208.59521,64.30127Z" style="fill:#dab679"/><path d="M5.39355,55.99512a1.673,1.673,0,0,1,1.82275-.9126,2.07765,2.07765,0,0,1,1.55957,2.61914l-.667,2.88379L1.396,59.03174l.62256-2.689a1.84955,1.84955,0,0,1,2.33057-1.5542A1.35869,1.35869,0,0,1,5.39355,55.99512Zm-.75684,1.09766a.651.651,0,0,0-.54736-.78369.62985.62985,0,0,0-.84814.47119l-.25684,1.11035,1.39258.32227Zm.91943,1.39307,1.62744.37646.31787-1.37354a.78246.78246,0,0,0-.66162-.9126.77308.77308,0,0,0-.97266.56543Z" style="fill:#dab679"/><path d="M3.59131,50.62842l.4873-1.3877,5.28662,1.855.854-2.436,1.21826.42725-1.34131,3.82373Z" style="fill:#dab679"/><path d="M6.21436,43.73389l1.86719-3.9375,1.16553.55225L8.00488,42.96777l1.418.67285,1.0874-2.29443,1.147.54443-1.08789,2.29395L11.897,44.814l1.28027-2.7002,1.16553.55225-1.90625,4.01953Z" style="fill:#dab679"/><path d="M14.54395,38.22949a.91414.91414,0,0,0,1.24756-.44092c.31006-.50244.28711-.998-.09082-1.24316-.2583-.17139-.562-.19385-1.1001.29639l-.63184.58594c-1.19873,1.04736-2.09326.80029-2.62109.47461a2.16685,2.16685,0,0,1-.5083-3.1001,2.11164,2.11164,0,0,1,3.021-.87451l-.76807,1.24268a.908.908,0,0,0-1.01123,1.46826c.15283.09424.47119.2085.98486-.26221l.65186-.561c1.28613-1.16992,2.21289-.87988,2.76367-.5166a2.21583,2.21583,0,0,1,.417,3.17285,2.22906,2.22906,0,0,1-3.12793,1.00879Z" style="fill:#dab679"/><path d="M21.44434,29.37109a.8353.8353,0,1,1,.07715,1.19141A.83332.83332,0,0,1,21.44434,29.37109Z" style="fill:#dab679"/></svg>