<svg xmlns="http://www.w3.org/2000/svg" viewBox="0 0 71.22678 78.6314"><title>fancy-year-2017</title><line x1="18.39111" y1="0.575" x2="18.40967" y2="16.89456" style="fill:none;stroke:#dab679;stroke-miterlimit:10;stroke-width:1.1500000000000001px"/><line x1="7.9128" y1="16.89456" x2="7.93136" y2="33.21412" style="fill:none;stroke:#dab679;stroke-miterlimit:10;stroke-width:1.1500000000000001px"/><polyline points="0.575 0.575 25.729 0.575 25.747 16.858 0.575 16.858 0.575 16.895 0.594 33.141 25.747 33.141" style="fill:none;stroke:#dab679;stroke-miterlimit:10;stroke-width:1.1500000000000001px"/><line x1="50.27698" y1="0.575" x2="50.29554" y2="33.21412" style="fill:none;stroke:#dab679;stroke-miterlimit:10;stroke-width:1.1500000000000001px"/><rect x="42.93918" y="0.575" width="25.17246" height="32.56609" style="fill:none;stroke:#dab679;stroke-miterlimit:10;stroke-width:1.1500000000000001px"/><line x1="16.82086" y1="45.49031" x2="16.83942" y2="78.06115" style="fill:none;stroke:#dab679;stroke-miterlimit:10;stroke-width:1.1500000000000001px"/><line x1="6.31244" y1="78.0564" x2="20.01003" y2="78.0564" style="fill:none;stroke:#dab679;stroke-miterlimit:10;stroke-width:1.1500000000000001px"/><line x1="20.01003" y1="45.49031" x2="6.31244" y2="45.49031" style="fill:none;stroke:#dab679;stroke-miterlimit:10;stroke-width:1.1500000000000001px"/><line x1="9.48306" y1="45.49031" x2="9.50162" y2="78.06115" style="fill:none;stroke:#dab679;stroke-miterlimit:10;stroke-width:1.1500000000000001px"/><polyline points="42.939 50.002 42.939 45.49 68.093 45.49" style="fill:none;stroke:#dab679;stroke-miterlimit:10;stroke-width:1.1500000000000001px"/><line x1="68.03761" y1="45.49031" x2="59.19432" y2="78.06115" style="fill:none;stroke:#dab679;stroke-miterlimit:10;stroke-width:1.1500000000000001px"/><line x1="48.66734" y1="78.0564" x2="62.36493" y2="78.0564" style="fill:none;stroke:#dab679;stroke-miterlimit:10;stroke-width:1.1500000000000001px"/><line x1="71.22678" y1="45.49031" x2="57.52919" y2="45.49031" style="fill:none;stroke:#dab679;stroke-miterlimit:10;stroke-width:1.1500000000000001px"/><line x1="60.69982" y1="45.49031" x2="51.85652" y2="78.06115" style="fill:none;stroke:#dab679;stroke-miterlimit:10;stroke-width:1.1500000000000001px"/></svg>