<?xml version="1.0" encoding="utf-8"?>
<!-- Generator: Adobe Illustrator 21.0.2, SVG Export Plug-In . SVG Version: 6.00 Build 0)  -->
<svg version="1.1" id="Layer_1" xmlns="http://www.w3.org/2000/svg" xmlns:xlink="http://www.w3.org/1999/xlink" x="0px" y="0px"
	 viewBox="0 0 1204.3 120.6" style="enable-background:new 0 0 1204.3 120.6;" xml:space="preserve">
<style type="text/css">
	.st0{fill:none;stroke:#DAB679;stroke-width:1.5;stroke-miterlimit:10;}
</style>
<title>fancy-font-token</title>
<line class="st0" x1="373.5" y1="0.8" x2="423.7" y2="0.8"/>
<line class="st0" x1="404.5" y1="0.8" x2="404.5" y2="55.5"/>
<line class="st0" x1="387.6" y1="55.5" x2="409.6" y2="55.5"/>
<line class="st0" x1="392.7" y1="0.8" x2="392.7" y2="55.5"/>
<line class="st0" x1="528.9" y1="0.8" x2="528.9" y2="55.5"/>
<line class="st0" x1="512" y1="55.5" x2="534" y2="55.5"/>
<line class="st0" x1="517.1" y1="0.8" x2="517.1" y2="55.5"/>
<line class="st0" x1="512" y1="0.8" x2="534" y2="0.8"/>
<path class="st0" d="M139.2,25.8"/>
<line class="st0" x1="138.9" y1="0.8" x2="138.9" y2="55.5"/>
<path class="st0" d="M172.3,55.5"/>
<polygon class="st0" points="172.3,55.5 127.2,55.5 127.1,0.8 172.3,0.8 "/>
<line class="st0" x1="289.2" y1="55.5" x2="299.8" y2="55.5"/>
<path class="st0" d="M265.6,25.8"/>
<line class="st0" x1="265.3" y1="0.8" x2="265.3" y2="55.5"/>
<line class="st0" x1="253.6" y1="0.8" x2="253.6" y2="55.5"/>
<line class="st0" x1="248.5" y1="55.5" x2="270.4" y2="55.5"/>
<line class="st0" x1="253.6" y1="0.8" x2="253.6" y2="55.5"/>
<polyline class="st0" points="265.6,32 299,32 299,0.8 248.5,0.8 "/>
<line class="st0" x1="278.7" y1="32" x2="293.7" y2="55.5"/>
<line class="st0" x1="1030.5" y1="0.8" x2="1030.5" y2="55.6"/>
<path class="st0" d="M1063.9,0.8"/>
<line class="st0" x1="1018.7" y1="55.6" x2="1018.7" y2="0.8"/>
<path class="st0" d="M1063.9,55.6"/>
<line class="st0" x1="1063.9" y1="55.6" x2="1013.4" y2="55.6"/>
<line class="st0" x1="1013.3" y1="0.8" x2="1063.9" y2="0.8"/>
<line class="st0" x1="1030.5" y1="28.2" x2="1048.3" y2="28.2"/>
<path class="st0" d="M1151.8,26.9"/>
<polyline class="st0" points="1134.2,0.8 1151.8,0.8 1199.4,119.9 "/>
<path class="st0" d="M1151.8,55.6"/>
<line class="st0" x1="1134.2" y1="55.6" x2="1157.1" y2="55.6"/>
<line class="st0" x1="1139.5" y1="0.8" x2="1139.5" y2="55.6"/>
<line class="st0" x1="1199.4" y1="119.9" x2="1199.4" y2="0.8"/>
<line class="st0" x1="1193.2" y1="119.9" x2="1204.3" y2="119.9"/>
<line class="st0" x1="1193.2" y1="0.8" x2="1204.3" y2="0.8"/>
<line class="st0" x1="1151.8" y1="0.8" x2="1151.8" y2="55.6"/>
<line class="st0" x1="655.8" y1="0.8" x2="706.1" y2="0.8"/>
<line class="st0" x1="686.8" y1="0.9" x2="686.8" y2="55.6"/>
<line class="st0" x1="669.9" y1="55.6" x2="691.9" y2="55.6"/>
<line class="st0" x1="675" y1="0.9" x2="675.1" y2="55.6"/>
<path class="st0" d="M788.4,25.9"/>
<line class="st0" x1="788.1" y1="0.9" x2="788.1" y2="55.6"/>
<path class="st0" d="M821.5,55.6"/>
<polygon class="st0" points="821.5,55.6 776.3,55.6 776.3,0.9 821.5,0.8 "/>
<line class="st0" x1="932.5" y1="55.6" x2="943.1" y2="55.6"/>
<line class="st0" x1="932.5" y1="0.8" x2="943.1" y2="0.8"/>
<path class="st0" d="M908.9,25.9"/>
<line class="st0" x1="908.6" y1="0.9" x2="908.6" y2="55.6"/>
<line class="st0" x1="896.8" y1="0.9" x2="896.8" y2="55.6"/>
<line class="st0" x1="891.7" y1="55.6" x2="913.7" y2="55.6"/>
<line class="st0" x1="896.8" y1="0.9" x2="896.8" y2="55.6"/>
<line class="st0" x1="908.9" y1="32" x2="937.8" y2="0.9"/>
<line class="st0" x1="918.8" y1="21.4" x2="937" y2="55.6"/>
<line class="st0" x1="891.7" y1="0.9" x2="913.7" y2="0.9"/>
<line class="st0" x1="5.1" y1="0.8" x2="5.1" y2="119.9"/>
<path class="st0" d="M17.1,25.9"/>
<line class="st0" x1="16.9" y1="0.8" x2="16.9" y2="119.9"/>
<line class="st0" x1="0" y1="119.9" x2="22" y2="119.9"/>
<polyline class="st0" points="17.1,32 50.5,32 50.5,0.8 0,0.8 "/>
<circle class="st0" cx="603.4" cy="28.1" r="6.1"/>
</svg>
