<svg xmlns="http://www.w3.org/2000/svg" viewBox="0 0 499.0677 34.15564"><title>fancy-font-creator</title><path d="M244.67583,22.078" style="fill:none;stroke:#042a3d;stroke-miterlimit:10;stroke-width:1.1500000000000001px"/><line x1="244.54423" y1="11.5421" x2="244.55784" y2="33.57903" style="fill:none;stroke:#042a3d;stroke-miterlimit:10;stroke-width:1.1500000000000001px"/><line x1="239.15588" y1="11.5421" x2="239.16949" y2="33.57903" style="fill:none;stroke:#042a3d;stroke-miterlimit:10;stroke-width:1.1500000000000001px"/><line x1="239.16949" y1="33.57583" x2="239.15588" y2="11.5421" style="fill:none;stroke:#042a3d;stroke-miterlimit:10;stroke-width:1.1500000000000001px"/><polyline points="236.834 11.542 259.828 11.533 259.828 33.576" style="fill:none;stroke:#042a3d;stroke-miterlimit:10;stroke-width:1.1500000000000001px"/><line x1="236.83395" y1="33.57898" x2="246.87977" y2="33.57898" style="fill:none;stroke:#042a3d;stroke-miterlimit:10;stroke-width:1.1500000000000001px"/><line x1="257.3053" y1="33.58064" x2="262.15304" y2="33.57583" style="fill:none;stroke:#042a3d;stroke-miterlimit:10;stroke-width:1.1500000000000001px"/><line x1="244.67583" y1="22.07796" x2="259.9601" y2="22.07796" style="fill:none;stroke:#042a3d;stroke-miterlimit:10;stroke-width:1.1500000000000001px"/><path d="M8.80194,19.28287" style="fill:none;stroke:#042a3d;stroke-miterlimit:10;stroke-width:1.1500000000000001px"/><line y1="0.575" x2="32.423" y2="0.575" style="fill:none;stroke:#042a3d;stroke-miterlimit:10;stroke-width:1.1500000000000001px"/><line x1="8.78833" y1="0.575" x2="8.80194" y2="33.57721" style="fill:none;stroke:#042a3d;stroke-miterlimit:10;stroke-width:1.1500000000000001px"/><line x1="1.08144" y1="33.57372" x2="32.423" y2="33.57372" style="fill:none;stroke:#042a3d;stroke-miterlimit:10;stroke-width:1.1500000000000001px"/><line x1="3.40678" y1="0.575" x2="3.42039" y2="33.57721" style="fill:none;stroke:#042a3d;stroke-miterlimit:10;stroke-width:1.1500000000000001px"/><line x1="485.12282" y1="19.28287" x2="495.88116" y2="33.5746" style="fill:none;stroke:#042a3d;stroke-miterlimit:10;stroke-width:1.1500000000000001px"/><line x1="491.69493" y1="33.57721" x2="498.95119" y2="33.56937" style="fill:none;stroke:#042a3d;stroke-miterlimit:10;stroke-width:1.1500000000000001px"/><polyline points="466.07 0.575 498.493 0.575 498.493 19.283 474.872 19.283" style="fill:none;stroke:#042a3d;stroke-miterlimit:10;stroke-width:1.1500000000000001px"/><line x1="474.85802" y1="0.575" x2="474.87164" y2="33.57721" style="fill:none;stroke:#042a3d;stroke-miterlimit:10;stroke-width:1.1500000000000001px"/><line x1="467.15114" y1="33.57372" x2="477.19696" y2="33.57372" style="fill:none;stroke:#042a3d;stroke-miterlimit:10;stroke-width:1.1500000000000001px"/><line x1="469.47648" y1="0.575" x2="469.49009" y2="33.57721" style="fill:none;stroke:#042a3d;stroke-miterlimit:10;stroke-width:1.1500000000000001px"/><line x1="395.72502" y1="8.53905" x2="395.73863" y2="33.57917" style="fill:none;stroke:#042a3d;stroke-miterlimit:10;stroke-width:1.1500000000000001px"/><path d="M413.47362,8.52855" style="fill:none;stroke:#042a3d;stroke-miterlimit:10;stroke-width:1.1500000000000001px"/><path d="M413.47362,33.57547" style="fill:none;stroke:#042a3d;stroke-miterlimit:10;stroke-width:1.1500000000000001px"/><polygon points="390.357 33.576 390.343 8.539 390.344 8.539 413.474 8.529 413.474 33.575 390.357 33.575 390.357 33.576" style="fill:none;stroke:#042a3d;stroke-miterlimit:10;stroke-width:1.1500000000000001px"/><line x1="103.66408" y1="33.57678" x2="108.51182" y2="33.57154" style="fill:none;stroke:#042a3d;stroke-miterlimit:10;stroke-width:1.1500000000000001px"/><path d="M92.861,20.00091" style="fill:none;stroke:#042a3d;stroke-miterlimit:10;stroke-width:1.1500000000000001px"/><line x1="92.72937" y1="8.5371" x2="92.74298" y2="33.57678" style="fill:none;stroke:#042a3d;stroke-miterlimit:10;stroke-width:1.1500000000000001px"/><line x1="87.34102" y1="8.5371" x2="87.35463" y2="33.57678" style="fill:none;stroke:#042a3d;stroke-miterlimit:10;stroke-width:1.1500000000000001px"/><line x1="85.01909" y1="33.57672" x2="95.06491" y2="33.57672" style="fill:none;stroke:#042a3d;stroke-miterlimit:10;stroke-width:1.1500000000000001px"/><line x1="87.34102" y1="8.5371" x2="87.35463" y2="33.57329" style="fill:none;stroke:#042a3d;stroke-miterlimit:10;stroke-width:1.1500000000000001px"/><polyline points="92.861 22.003 108.145 22.003 108.014 8.527 85.019 8.537" style="fill:none;stroke:#042a3d;stroke-miterlimit:10;stroke-width:1.1500000000000001px"/><line x1="100.19012" y1="22.17065" x2="105.72137" y2="33.57242" style="fill:none;stroke:#042a3d;stroke-miterlimit:10;stroke-width:1.1500000000000001px"/><line x1="168.9468" y1="9.60922" x2="168.96041" y2="33.57896" style="fill:none;stroke:#042a3d;stroke-miterlimit:10;stroke-width:1.1500000000000001px"/><path d="M184.23787,9.59936" style="fill:none;stroke:#042a3d;stroke-miterlimit:10;stroke-width:1.1500000000000001px"/><line x1="163.57886" y1="33.57562" x2="163.56525" y2="9.60922" style="fill:none;stroke:#042a3d;stroke-miterlimit:10;stroke-width:1.1500000000000001px"/><path d="M184.23787,33.57562" style="fill:none;stroke:#042a3d;stroke-miterlimit:10;stroke-width:1.1500000000000001px"/><line x1="184.23787" y1="33.57562" x2="161.12151" y2="33.57562" style="fill:none;stroke:#042a3d;stroke-miterlimit:10;stroke-width:1.1500000000000001px"/><line x1="161.1079" y1="9.60922" x2="184.23787" y2="9.59936" style="fill:none;stroke:#042a3d;stroke-miterlimit:10;stroke-width:1.1500000000000001px"/><line x1="168.96041" y1="21.58916" x2="177.07694" y2="21.58916" style="fill:none;stroke:#042a3d;stroke-miterlimit:10;stroke-width:1.1500000000000001px"/><line x1="314.74912" y1="9.52673" x2="337.74739" y2="9.52673" style="fill:none;stroke:#042a3d;stroke-miterlimit:10;stroke-width:1.1500000000000001px"/><line x1="328.93223" y1="9.53796" x2="328.94584" y2="33.58064" style="fill:none;stroke:#042a3d;stroke-miterlimit:10;stroke-width:1.1500000000000001px"/><line x1="321.22534" y1="33.57684" x2="331.27117" y2="33.57684" style="fill:none;stroke:#042a3d;stroke-miterlimit:10;stroke-width:1.1500000000000001px"/><line x1="323.55068" y1="9.53796" x2="323.56429" y2="33.58064" style="fill:none;stroke:#042a3d;stroke-miterlimit:10;stroke-width:1.1500000000000001px"/></svg>