<svg xmlns="http://www.w3.org/2000/svg" viewBox="0 0 181.00362 42.85906"><title>fancy-year-mob-2018</title><line x1="23.39301" y1="0.575" x2="23.41677" y2="21.4763" style="fill:none;stroke:#dab679;stroke-miterlimit:10;stroke-width:1.1500000000000001px"/><line x1="9.9729" y1="21.4763" x2="9.99667" y2="42.37759" style="fill:none;stroke:#dab679;stroke-miterlimit:10;stroke-width:1.1500000000000001px"/><polyline points="0.575 0.575 32.791 0.575 32.815 21.43 0.575 21.43 0.575 21.476 0.599 42.284 32.815 42.284" style="fill:none;stroke:#dab679;stroke-miterlimit:10;stroke-width:1.1500000000000001px"/><line x1="176.50781" y1="21.42522" x2="152.0945" y2="21.4763" style="fill:none;stroke:#dab679;stroke-miterlimit:10;stroke-width:1.1500000000000001px"/><line x1="64.23089" y1="0.575" x2="64.25466" y2="42.37759" style="fill:none;stroke:#dab679;stroke-miterlimit:10;stroke-width:1.1500000000000001px"/><rect x="54.83299" y="0.575" width="32.23967" height="41.70906" style="fill:none;stroke:#dab679;stroke-miterlimit:10;stroke-width:1.1500000000000001px"/><line x1="122.54966" y1="0.575" x2="122.57343" y2="42.29015" style="fill:none;stroke:#dab679;stroke-miterlimit:10;stroke-width:1.1500000000000001px"/><line x1="109.09098" y1="42.28406" x2="126.6342" y2="42.28406" style="fill:none;stroke:#dab679;stroke-miterlimit:10;stroke-width:1.1500000000000001px"/><line x1="126.6342" y1="0.575" x2="109.09098" y2="0.575" style="fill:none;stroke:#dab679;stroke-miterlimit:10;stroke-width:1.1500000000000001px"/><line x1="113.15176" y1="0.575" x2="113.17553" y2="42.29015" style="fill:none;stroke:#dab679;stroke-miterlimit:10;stroke-width:1.1500000000000001px"/><polygon points="148.174 42.284 148.174 25.318 152.094 21.425 148.174 17.541 148.174 0.575 180.428 0.575 180.428 17.541 176.508 21.425 180.429 25.318 180.429 42.284 148.174 42.284" style="fill:none;stroke:#dab679;stroke-miterlimit:10;stroke-width:1.1500000000000001px"/></svg>