<svg xmlns="http://www.w3.org/2000/svg" viewBox="0 0 534.00307 146.95705"><title>fancy-font-token-mob</title><line x1="373.45525" y1="0.57526" x2="423.71776" y2="0.57526" style="fill:none;stroke:#dab679;stroke-miterlimit:10;stroke-width:1.1500000000000001px"/><line x1="404.46717" y1="0.59776" x2="404.46717" y2="55.34152" style="fill:none;stroke:#dab679;stroke-miterlimit:10;stroke-width:1.1500000000000001px"/><line x1="387.60897" y1="55.3339" x2="409.56403" y2="55.3339" style="fill:none;stroke:#dab679;stroke-miterlimit:10;stroke-width:1.1500000000000001px"/><line x1="392.70585" y1="0.59776" x2="392.70585" y2="55.34152" style="fill:none;stroke:#dab679;stroke-miterlimit:10;stroke-width:1.1500000000000001px"/><line x1="528.90559" y1="0.59776" x2="528.90559" y2="55.34152" style="fill:none;stroke:#dab679;stroke-miterlimit:10;stroke-width:1.1500000000000001px"/><line x1="512.04739" y1="55.3339" x2="534.00245" y2="55.3339" style="fill:none;stroke:#dab679;stroke-miterlimit:10;stroke-width:1.1500000000000001px"/><line x1="517.14427" y1="0.59776" x2="517.14427" y2="55.34152" style="fill:none;stroke:#dab679;stroke-miterlimit:10;stroke-width:1.1500000000000001px"/><line x1="512.04739" y1="0.59776" x2="534.00245" y2="0.59776" style="fill:none;stroke:#dab679;stroke-miterlimit:10;stroke-width:1.1500000000000001px"/><path d="M139.18356,25.66311" style="fill:none;stroke:#dab679;stroke-miterlimit:10;stroke-width:1.1500000000000001px"/><line x1="138.91083" y1="0.60901" x2="138.91083" y2="55.33402" style="fill:none;stroke:#dab679;stroke-miterlimit:10;stroke-width:1.1500000000000001px"/><path d="M172.29957,55.3264" style="fill:none;stroke:#dab679;stroke-miterlimit:10;stroke-width:1.1500000000000001px"/><polygon points="172.3 55.334 127.15 55.334 127.12 0.609 172.3 0.587 172.3 55.334" style="fill:none;stroke:#dab679;stroke-miterlimit:10;stroke-width:1.1500000000000001px"/><line x1="289.22498" y1="55.33402" x2="299.81966" y2="55.32257" style="fill:none;stroke:#dab679;stroke-miterlimit:10;stroke-width:1.1500000000000001px"/><path d="M265.61486,25.65186" style="fill:none;stroke:#dab679;stroke-miterlimit:10;stroke-width:1.1500000000000001px"/><line x1="265.34213" y1="0.59776" x2="265.34213" y2="55.33402" style="fill:none;stroke:#dab679;stroke-miterlimit:10;stroke-width:1.1500000000000001px"/><line x1="253.56594" y1="0.59776" x2="253.56594" y2="55.33402" style="fill:none;stroke:#dab679;stroke-miterlimit:10;stroke-width:1.1500000000000001px"/><line x1="248.47651" y1="55.3339" x2="270.43157" y2="55.3339" style="fill:none;stroke:#dab679;stroke-miterlimit:10;stroke-width:1.1500000000000001px"/><line x1="253.56594" y1="0.59776" x2="253.56594" y2="55.3264" style="fill:none;stroke:#dab679;stroke-miterlimit:10;stroke-width:1.1500000000000001px"/><polyline points="265.615 31.781 299.018 31.781 299.018 0.575 248.477 0.598" style="fill:none;stroke:#dab679;stroke-miterlimit:10;stroke-width:1.1500000000000001px"/><line x1="278.73895" y1="31.78058" x2="293.72116" y2="55.3245" style="fill:none;stroke:#dab679;stroke-miterlimit:10;stroke-width:1.1500000000000001px"/><line x1="372.36995" y1="91.59879" x2="372.36995" y2="146.37598" style="fill:none;stroke:#dab679;stroke-miterlimit:10;stroke-width:1.1500000000000001px"/><path d="M405.80546,91.57627" style="fill:none;stroke:#dab679;stroke-miterlimit:10;stroke-width:1.1500000000000001px"/><line x1="360.5974" y1="146.36835" x2="360.5974" y2="91.59879" style="fill:none;stroke:#dab679;stroke-miterlimit:10;stroke-width:1.1500000000000001px"/><path d="M405.80546,146.36835" style="fill:none;stroke:#dab679;stroke-miterlimit:10;stroke-width:1.1500000000000001px"/><line x1="405.80546" y1="146.36835" x2="355.23663" y2="146.36835" style="fill:none;stroke:#dab679;stroke-miterlimit:10;stroke-width:1.1500000000000001px"/><line x1="355.20686" y1="91.59879" x2="405.80546" y2="91.57627" style="fill:none;stroke:#dab679;stroke-miterlimit:10;stroke-width:1.1500000000000001px"/><line x1="372.38484" y1="118.97612" x2="390.14037" y2="118.97612" style="fill:none;stroke:#dab679;stroke-miterlimit:10;stroke-width:1.1500000000000001px"/><path d="M481.50544,117.712" style="fill:none;stroke:#dab679;stroke-miterlimit:10;stroke-width:1.1500000000000001px"/><polyline points="463.926 91.564 481.49 91.564 529.095 146.378" style="fill:none;stroke:#dab679;stroke-miterlimit:10;stroke-width:1.1500000000000001px"/><path d="M481.521,146.3698" style="fill:none;stroke:#dab679;stroke-miterlimit:10;stroke-width:1.1500000000000001px"/><line x1="463.92703" y1="146.36185" x2="486.82007" y2="146.36185" style="fill:none;stroke:#dab679;stroke-miterlimit:10;stroke-width:1.1500000000000001px"/><line x1="469.24166" y1="91.58751" x2="469.24166" y2="146.3698" style="fill:none;stroke:#dab679;stroke-miterlimit:10;stroke-width:1.1500000000000001px"/><line x1="529.09542" y1="146.37807" x2="529.09542" y2="91.56405" style="fill:none;stroke:#dab679;stroke-miterlimit:10;stroke-width:1.1500000000000001px"/><line x1="522.95513" y1="146.38205" x2="534.00245" y2="146.37011" style="fill:none;stroke:#dab679;stroke-miterlimit:10;stroke-width:1.1500000000000001px"/><line x1="522.95513" y1="91.60778" x2="534.00245" y2="91.59584" style="fill:none;stroke:#dab679;stroke-miterlimit:10;stroke-width:1.1500000000000001px"/><line x1="481.50546" y1="91.58751" x2="481.50546" y2="146.3698" style="fill:none;stroke:#dab679;stroke-miterlimit:10;stroke-width:1.1500000000000001px"/><line x1="0.00026" y1="91.60981" x2="50.26277" y2="91.60981" style="fill:none;stroke:#dab679;stroke-miterlimit:10;stroke-width:1.1500000000000001px"/><line x1="30.99731" y1="91.63231" x2="31.02706" y2="146.37608" style="fill:none;stroke:#dab679;stroke-miterlimit:10;stroke-width:1.1500000000000001px"/><line x1="14.15398" y1="146.36846" x2="36.10904" y2="146.36846" style="fill:none;stroke:#dab679;stroke-miterlimit:10;stroke-width:1.1500000000000001px"/><line x1="19.23599" y1="91.63231" x2="19.26574" y2="146.37608" style="fill:none;stroke:#dab679;stroke-miterlimit:10;stroke-width:1.1500000000000001px"/><path d="M133.06362,116.69767" style="fill:none;stroke:#dab679;stroke-miterlimit:10;stroke-width:1.1500000000000001px"/><line x1="132.77602" y1="91.64356" x2="132.80576" y2="146.36858" style="fill:none;stroke:#dab679;stroke-miterlimit:10;stroke-width:1.1500000000000001px"/><path d="M166.17963,146.361" style="fill:none;stroke:#dab679;stroke-miterlimit:10;stroke-width:1.1500000000000001px"/><polygon points="166.18 146.368 121.03 146.368 121 91.644 166.18 91.621 166.18 146.368" style="fill:none;stroke:#dab679;stroke-miterlimit:10;stroke-width:1.1500000000000001px"/><line x1="277.12484" y1="146.36858" x2="287.71952" y2="146.35713" style="fill:none;stroke:#dab679;stroke-miterlimit:10;stroke-width:1.1500000000000001px"/><line x1="277.12484" y1="91.56977" x2="287.71952" y2="91.55832" style="fill:none;stroke:#dab679;stroke-miterlimit:10;stroke-width:1.1500000000000001px"/><path d="M253.51472,116.68641" style="fill:none;stroke:#dab679;stroke-miterlimit:10;stroke-width:1.1500000000000001px"/><line x1="253.24199" y1="91.63231" x2="253.24199" y2="146.36858" style="fill:none;stroke:#dab679;stroke-miterlimit:10;stroke-width:1.1500000000000001px"/><line x1="241.4658" y1="91.63231" x2="241.4658" y2="146.36858" style="fill:none;stroke:#dab679;stroke-miterlimit:10;stroke-width:1.1500000000000001px"/><line x1="236.37637" y1="146.36846" x2="258.33142" y2="146.36846" style="fill:none;stroke:#dab679;stroke-miterlimit:10;stroke-width:1.1500000000000001px"/><line x1="241.4658" y1="91.63231" x2="241.4658" y2="146.36096" style="fill:none;stroke:#dab679;stroke-miterlimit:10;stroke-width:1.1500000000000001px"/><line x1="253.51472" y1="122.81514" x2="282.42218" y2="91.63231" style="fill:none;stroke:#dab679;stroke-miterlimit:10;stroke-width:1.1500000000000001px"/><line x1="263.3868" y1="112.16601" x2="281.62102" y2="146.35906" style="fill:none;stroke:#dab679;stroke-miterlimit:10;stroke-width:1.1500000000000001px"/><line x1="236.37637" y1="91.63231" x2="258.33142" y2="91.63231" style="fill:none;stroke:#dab679;stroke-miterlimit:10;stroke-width:1.1500000000000001px"/><line x1="5.08969" y1="0.63151" x2="5.08969" y2="55.31876" style="fill:none;stroke:#dab679;stroke-miterlimit:10;stroke-width:1.1500000000000001px"/><path d="M17.13861,25.68561" style="fill:none;stroke:#dab679;stroke-miterlimit:10;stroke-width:1.1500000000000001px"/><line x1="16.86588" y1="0.63151" x2="16.86588" y2="55.32639" style="fill:none;stroke:#dab679;stroke-miterlimit:10;stroke-width:1.1500000000000001px"/><line x1="0.00026" y1="55.32626" x2="21.95531" y2="55.32626" style="fill:none;stroke:#dab679;stroke-miterlimit:10;stroke-width:1.1500000000000001px"/><polyline points="17.139 31.814 50.542 31.814 50.542 0.609 0 0.632" style="fill:none;stroke:#dab679;stroke-miterlimit:10;stroke-width:1.1500000000000001px"/></svg>