<svg xmlns="http://www.w3.org/2000/svg" viewBox="0 0 181.59853 43.09245"><title>fancy-year-mob-2019</title><line x1="23.46843" y1="0.575" x2="23.49228" y2="21.54539" style="fill:none;stroke:#dab679;stroke-miterlimit:10;stroke-width:1.1500000000000001px"/><line x1="10.00396" y1="21.54539" x2="10.02781" y2="42.51577" style="fill:none;stroke:#dab679;stroke-miterlimit:10;stroke-width:1.1500000000000001px"/><polyline points="0.575 0.575 32.897 0.575 32.921 21.498 0.575 21.498 0.575 21.545 0.599 42.422 32.921 42.422" style="fill:none;stroke:#dab679;stroke-miterlimit:10;stroke-width:1.1500000000000001px"/><line x1="171.55499" y1="0.575" x2="171.57884" y2="42.51577" style="fill:none;stroke:#dab679;stroke-miterlimit:10;stroke-width:1.1500000000000001px"/><polyline points="148.685 42.422 181.023 42.516 180.984 0.575 148.662 0.575 148.662 21.545 171.964 21.545" style="fill:none;stroke:#dab679;stroke-miterlimit:10;stroke-width:1.1500000000000001px"/><line x1="64.4413" y1="0.575" x2="64.46515" y2="42.51577" style="fill:none;stroke:#dab679;stroke-miterlimit:10;stroke-width:1.1500000000000001px"/><rect x="55.01234" y="0.575" width="32.34624" height="41.84693" style="fill:none;stroke:#dab679;stroke-miterlimit:10;stroke-width:1.1500000000000001px"/><line x1="122.95284" y1="0.575" x2="122.97669" y2="42.42804" style="fill:none;stroke:#dab679;stroke-miterlimit:10;stroke-width:1.1500000000000001px"/><line x1="109.44967" y1="42.42193" x2="127.05088" y2="42.42193" style="fill:none;stroke:#dab679;stroke-miterlimit:10;stroke-width:1.1500000000000001px"/><line x1="127.05088" y1="0.575" x2="109.44967" y2="0.575" style="fill:none;stroke:#dab679;stroke-miterlimit:10;stroke-width:1.1500000000000001px"/><line x1="113.52388" y1="0.575" x2="113.54773" y2="42.42804" style="fill:none;stroke:#dab679;stroke-miterlimit:10;stroke-width:1.1500000000000001px"/></svg>