<svg xmlns="http://www.w3.org/2000/svg" viewBox="0 0 185.06895 42.90139"><title>fancy-year-mob-2016</title><line x1="23.41616" y1="0.575" x2="23.43996" y2="21.49751" style="fill:none;stroke:#dab679;stroke-miterlimit:10;stroke-width:1.1500000000000001px"/><line x1="9.98243" y1="21.49751" x2="10.00623" y2="42.42002" style="fill:none;stroke:#dab679;stroke-miterlimit:10;stroke-width:1.1500000000000001px"/><polyline points="0.575 0.575 32.824 0.575 32.847 21.451 0.575 21.451 0.575 21.498 0.599 42.326 32.847 42.326" style="fill:none;stroke:#dab679;stroke-miterlimit:10;stroke-width:1.1500000000000001px"/><line x1="64.29549" y1="0.575" x2="64.31928" y2="42.42002" style="fill:none;stroke:#dab679;stroke-miterlimit:10;stroke-width:1.1500000000000001px"/><rect x="54.88805" y="0.575" width="32.27239" height="41.75139" style="fill:none;stroke:#dab679;stroke-miterlimit:10;stroke-width:1.1500000000000001px"/><line x1="122.67345" y1="0.575" x2="122.69724" y2="42.33249" style="fill:none;stroke:#dab679;stroke-miterlimit:10;stroke-width:1.1500000000000001px"/><line x1="109.20111" y1="42.32639" x2="126.76212" y2="42.32639" style="fill:none;stroke:#dab679;stroke-miterlimit:10;stroke-width:1.1500000000000001px"/><line x1="126.76212" y1="0.575" x2="109.20111" y2="0.575" style="fill:none;stroke:#dab679;stroke-miterlimit:10;stroke-width:1.1500000000000001px"/><line x1="113.26601" y1="0.575" x2="113.2898" y2="42.33249" style="fill:none;stroke:#dab679;stroke-miterlimit:10;stroke-width:1.1500000000000001px"/><polyline points="148.803 6.36 148.803 0.575 181.051 0.575" style="fill:none;stroke:#dab679;stroke-miterlimit:10;stroke-width:1.1500000000000001px"/><line x1="180.98027" y1="0.575" x2="169.64271" y2="42.33249" style="fill:none;stroke:#dab679;stroke-miterlimit:10;stroke-width:1.1500000000000001px"/><line x1="156.14658" y1="42.32639" x2="173.7076" y2="42.32639" style="fill:none;stroke:#dab679;stroke-miterlimit:10;stroke-width:1.1500000000000001px"/><line x1="185.06895" y1="0.575" x2="167.50793" y2="0.575" style="fill:none;stroke:#dab679;stroke-miterlimit:10;stroke-width:1.1500000000000001px"/><line x1="171.57283" y1="0.575" x2="160.23528" y2="42.33249" style="fill:none;stroke:#dab679;stroke-miterlimit:10;stroke-width:1.1500000000000001px"/></svg>