<svg xmlns="http://www.w3.org/2000/svg" viewBox="0 0 181.81175 43.21416"><title>fancy-year-mob-2016</title><line x1="23.41616" y1="0.73929" x2="23.43996" y2="21.6618" style="fill:none;stroke:#dab679;stroke-miterlimit:10;stroke-width:1.1500000000000001px"/><line x1="9.98243" y1="21.6618" x2="10.00623" y2="42.58432" style="fill:none;stroke:#dab679;stroke-miterlimit:10;stroke-width:1.1500000000000001px"/><polyline points="0.575 0.739 32.824 0.739 32.847 21.615 0.575 21.615 0.575 21.662 0.599 42.491 32.847 42.491" style="fill:none;stroke:#dab679;stroke-miterlimit:10;stroke-width:1.1500000000000001px"/><line x1="64.29549" y1="0.73929" x2="64.31928" y2="42.58432" style="fill:none;stroke:#dab679;stroke-miterlimit:10;stroke-width:1.1500000000000001px"/><rect x="54.88805" y="0.73929" width="32.27239" height="41.75139" style="fill:none;stroke:#dab679;stroke-miterlimit:10;stroke-width:1.1500000000000001px"/><line x1="122.67345" y1="0.73929" x2="122.69724" y2="42.49679" style="fill:none;stroke:#dab679;stroke-miterlimit:10;stroke-width:1.1500000000000001px"/><line x1="109.20111" y1="42.49069" x2="126.76212" y2="42.49069" style="fill:none;stroke:#dab679;stroke-miterlimit:10;stroke-width:1.1500000000000001px"/><line x1="126.76212" y1="0.73929" x2="109.20111" y2="0.73929" style="fill:none;stroke:#dab679;stroke-miterlimit:10;stroke-width:1.1500000000000001px"/><line x1="113.26601" y1="0.73929" x2="113.2898" y2="42.49679" style="fill:none;stroke:#dab679;stroke-miterlimit:10;stroke-width:1.1500000000000001px"/><line x1="158.80802" y1="42.47619" x2="158.78434" y2="0.74004" style="fill:none;stroke:#dab679;stroke-miterlimit:10;stroke-width:1.4742419175636883px"/><polyline points="158.808 21.608 181.073 21.608 181.075 42.477 148.841 42.476 148.803 0.739 181.05 0.834" style="fill:none;stroke:#dab679;stroke-miterlimit:10;stroke-width:1.4742419175636883px"/></svg>