<svg xmlns="http://www.w3.org/2000/svg" viewBox="0 0 68.68717 78.6314"><title>fancy-year-2019</title><line x1="18.39111" y1="0.575" x2="18.40967" y2="16.89456" style="fill:none;stroke:#dab679;stroke-miterlimit:10;stroke-width:1.1500000000000001px"/><line x1="7.9128" y1="16.89456" x2="7.93136" y2="33.21412" style="fill:none;stroke:#dab679;stroke-miterlimit:10;stroke-width:1.1500000000000001px"/><polyline points="0.575 0.575 25.729 0.575 25.747 16.858 0.575 16.858 0.575 16.895 0.594 33.141 25.747 33.141" style="fill:none;stroke:#dab679;stroke-miterlimit:10;stroke-width:1.1500000000000001px"/><line x1="50.27698" y1="0.575" x2="50.29554" y2="33.21412" style="fill:none;stroke:#dab679;stroke-miterlimit:10;stroke-width:1.1500000000000001px"/><rect x="42.93918" y="0.575" width="25.17246" height="32.56609" style="fill:none;stroke:#dab679;stroke-miterlimit:10;stroke-width:1.1500000000000001px"/><line x1="16.38031" y1="45.49031" x2="16.39816" y2="78.06115" style="fill:none;stroke:#dab679;stroke-miterlimit:10;stroke-width:1.1500000000000001px"/><line x1="6.27732" y1="78.0564" x2="19.44644" y2="78.0564" style="fill:none;stroke:#dab679;stroke-miterlimit:10;stroke-width:1.1500000000000001px"/><line x1="19.44644" y1="45.49031" x2="6.27732" y2="45.49031" style="fill:none;stroke:#dab679;stroke-miterlimit:10;stroke-width:1.1500000000000001px"/><line x1="9.32562" y1="45.49031" x2="9.34346" y2="78.06115" style="fill:none;stroke:#dab679;stroke-miterlimit:10;stroke-width:1.1500000000000001px"/><line x1="60.30679" y1="45.49264" x2="60.32525" y2="78.04943" style="fill:none;stroke:#dab679;stroke-miterlimit:10;stroke-width:1.1500000000000001px"/><polyline points="60.307 61.771 42.938 61.771 42.938 45.492 68.082 45.493 68.112 78.05 42.956 77.976" style="fill:none;stroke:#dab679;stroke-miterlimit:10;stroke-width:1.1500000000000001px"/></svg>