<svg xmlns="http://www.w3.org/2000/svg" viewBox="0 0 68.68665 78.63615"><title>fancy-year-2018</title><line x1="18.39111" y1="0.575" x2="18.40967" y2="16.89456" style="fill:none;stroke:#dab679;stroke-miterlimit:10;stroke-width:1.1500000000000001px"/><line x1="7.9128" y1="16.89456" x2="7.93136" y2="33.21412" style="fill:none;stroke:#dab679;stroke-miterlimit:10;stroke-width:1.1500000000000001px"/><polyline points="0.575 0.575 25.729 0.575 25.747 16.858 0.575 16.858 0.575 16.895 0.594 33.141 25.747 33.141" style="fill:none;stroke:#dab679;stroke-miterlimit:10;stroke-width:1.1500000000000001px"/><line x1="50.27698" y1="0.575" x2="50.29554" y2="33.21412" style="fill:none;stroke:#dab679;stroke-miterlimit:10;stroke-width:1.1500000000000001px"/><rect x="42.93918" y="0.575" width="25.17246" height="32.56609" style="fill:none;stroke:#dab679;stroke-miterlimit:10;stroke-width:1.1500000000000001px"/><line x1="16.38031" y1="45.49031" x2="16.39816" y2="78.06115" style="fill:none;stroke:#dab679;stroke-miterlimit:10;stroke-width:1.1500000000000001px"/><line x1="6.27732" y1="78.0564" x2="19.44644" y2="78.0564" style="fill:none;stroke:#dab679;stroke-miterlimit:10;stroke-width:1.1500000000000001px"/><line x1="19.44644" y1="45.49031" x2="6.27732" y2="45.49031" style="fill:none;stroke:#dab679;stroke-miterlimit:10;stroke-width:1.1500000000000001px"/><line x1="9.32562" y1="45.49031" x2="9.34346" y2="78.06115" style="fill:none;stroke:#dab679;stroke-miterlimit:10;stroke-width:1.1500000000000001px"/><line x1="65.0398" y1="61.79232" x2="45.99741" y2="61.83216" style="fill:none;stroke:#dab679;stroke-miterlimit:10;stroke-width:1.1500000000000001px"/><polygon points="42.939 78.061 42.939 64.828 45.997 61.791 42.939 58.762 42.939 45.528 68.098 45.528 68.098 58.762 65.04 61.791 68.098 64.828 68.098 78.061 42.939 78.061" style="fill:none;stroke:#dab679;stroke-miterlimit:10;stroke-width:1.1500000000000001px"/></svg>