<?xml version="1.0" encoding="utf-8"?>
<!-- Generator: Adobe Illustrator 21.0.2, SVG Export Plug-In . SVG Version: 6.00 Build 0)  -->
<svg version="1.1" id="Layer_1" xmlns="http://www.w3.org/2000/svg" xmlns:xlink="http://www.w3.org/1999/xlink" x="0px" y="0px"
	 viewBox="0 0 465.3 1216.9" style="enable-background:new 0 0 465.3 1216.9;" xml:space="preserve">
<style type="text/css">
	.st0{fill:none;stroke:#DAB679;stroke-width:1.15;stroke-miterlimit:10;}
	.st1{fill:#DAB679;}
	.st2{fill:none;stroke:#DAB679;stroke-width:1.15;stroke-linejoin:round;}
	.st3{fill:none;stroke:#DAB679;stroke-width:1.0647;stroke-miterlimit:10;}
	.st4{fill:none;stroke:#DAB679;stroke-width:0.75;stroke-linecap:round;stroke-linejoin:round;}
</style>
<title>footer-illus</title>
<path class="st0" d="M300.3,466.7v-86.3c0-7.6,6.2-13.7,13.8-13.8"/>
<line class="st0" x1="314.1" y1="366.6" x2="362.1" y2="366.6"/>
<line class="st0" x1="352.5" y1="376.1" x2="352.5" y2="0"/>
<path class="st0" d="M362,366.6c5.2,0,9.5,4.3,9.5,9.5s-4.3,9.5-9.5,9.5c-5.2,0-9.5-4.3-9.5-9.5"/>
<path class="st0" d="M482.6,691.7"/>
<line class="st0" x1="286.4" y1="494.1" x2="286.4" y2="1216.9"/>
<path class="st0" d="M320.1,475.4c0-9.3-7.5-16.8-16.8-16.8c-3.1,0-6.1,0.9-8.8,2.5"/>
<path class="st0" d="M320.1,514.9c0.2,5.5-4.1,10-9.6,10.2c-5.5,0.2-10-4.1-10.2-9.6c0-0.2,0-0.4,0-0.6v-6.3"/>
<path class="st0" d="M320.1,514.9"/>
<line class="st0" x1="320.1" y1="515.3" x2="320.1" y2="475.4"/>
<path class="st1" d="M172.8,378.6l19-19c1.4-1.4,3.6-1.4,5,0l0,0l0,0c1.4,1.4,1.4,3.6,0,5l0,0l-19,19c-1.4,1.4-3.6,1.4-5,0l0,0l0,0
	C171.4,382.2,171.4,380,172.8,378.6L172.8,378.6L172.8,378.6z"/>
<line class="st0" x1="188.7" y1="391.8" x2="158.2" y2="359.9"/>
<line class="st0" x1="236" y1="441.3" x2="210.1" y2="414.2"/>
<path class="st0" d="M276,443.4l182,174.1c7.5,7.5,7.5,19.7,0,27.3l0,0c-7.5,7.5-19.7,7.5-27.3,0L256.5,462.8"/>
<line class="st0" x1="227.4" y1="396.9" x2="254.6" y2="422.6"/>
<line class="st0" x1="173.1" y1="344.9" x2="205" y2="375.5"/>
<polygon class="st2" points="272.1,438.4 260.8,427.2 256.5,443.2 267.7,454.4 "/>
<polygon class="st2" points="251.6,458.8 240.4,447.6 256.5,443.2 267.7,454.4 "/>
<polygon class="st2" points="260.8,427.2 244.7,431.4 240.4,447.6 256.5,443.2 "/>
<ellipse transform="matrix(0.7071 -0.7071 0.7071 0.7071 -238.2895 311.1968)" class="st1" cx="256.5" cy="443.2" rx="1.9" ry="1.9"/>
<path class="st1" d="M243.9,434.5c1.5,0,3.9-2.4,3.9-3.9l-3.1,0.8L243.9,434.5z"/>
<path class="st1" d="M269.2,435.6c-0.6,2.4,0,4.8,1.6,6.7l1.1-4L269.2,435.6z"/>
<path class="st1" d="M248.9,456c2.3-0.6,4.8,0,6.7,1.6l-4,1.1L248.9,456z"/>
<path class="st2" d="M217.5,385.3"/>
<polygon class="st2" points="217.5,385.3 224.8,411.5 192.2,378.9 217.5,385.3 "/>
<path class="st2" d="M198.6,404.2"/>
<polyline class="st2" points="224.8,411.5 198.6,404.2 198.6,404.2 192.2,378.9 "/>
<line class="st0" x1="295.4" y1="490.8" x2="331.5" y2="527.1"/>
<path class="st0" d="M295.4,490.8L295.4,490.8c-2.8-2.8-2.8-7.3,0-10.1"/>
<line class="st0" x1="295.4" y1="480.7" x2="298.3" y2="477.9"/>
<line class="st0" x1="298.3" y1="484.8" x2="267.7" y2="454.4"/>
<path class="st0" d="M298.3,477.9c1.9-1.9,5-1.9,7,0c1.9,1.9,1.9,5,0,7c-1.9,1.9-5,1.9-7,0"/>
<line class="st0" x1="399.8" y1="578.2" x2="358.4" y2="536.6"/>
<path class="st0" d="M399.8,578.2L399.8,578.2c2.8,2.8,2.8,7.3,0,10.1"/>
<line class="st0" x1="399.8" y1="588.2" x2="396.9" y2="591.1"/>
<line class="st0" x1="397" y1="584.1" x2="457.9" y2="644.9"/>
<path class="st0" d="M397,591.1c-1.9,1.9-5,1.9-7,0c-1.9-1.9-1.9-5,0-7c1.9-1.9,5-1.9,7,0"/>
<path class="st3" d="M77.3,428.6L77.3,428.6c-4.7,4.7-10.9,3.7-15.8,1.2c0,0-13.7-6.3-33.3-25.9C8.8,384.5,2.6,370.9,2.6,370.9
	c-2.6-5.3-3.5-11.1,1.2-15.8l0,0c4.7-4.7,11.8-5.2,15.8-1.2l58.8,58.8C82.5,416.8,82,423.9,77.3,428.6z"/>
<line class="st0" x1="166.9" y1="353.6" x2="182.5" y2="369.2"/>
<line class="st0" x1="166.9" y1="353.6" x2="192.2" y2="378.9"/>
<line class="st0" x1="225.9" y1="412.6" x2="246.3" y2="433"/>
<path class="st0" d="M171.1,338L171.1,338c2.9,3,2.9,7.8,0,10.7l-9.1,9.1c-3,2.9-7.8,2.9-10.7,0l0,0"/>
<line class="st2" x1="217.5" y1="385.3" x2="203.7" y2="390.4"/>
<line class="st2" x1="217.5" y1="385.3" x2="213.6" y2="400.3"/>
<line class="st2" x1="198.6" y1="404.2" x2="203.7" y2="390.4"/>
<line class="st2" x1="198.6" y1="404.2" x2="213.6" y2="400.3"/>
<path class="st1" d="M331.7,527.2l-2.9-2.9c-0.4-0.4-0.4-1.1,0-1.5c0,0,0,0,0,0l2.9-2.9c0.4-0.4,1.1-0.4,1.5,0l2.9,2.9"/>
<rect x="344.7" y="519.1" transform="matrix(0.7071 -0.7071 0.7071 0.7071 -279.2441 403.8043)" class="st0" width="6.2" height="39.8"/>
<rect x="362.5" y="552.1" transform="matrix(0.7071 -0.7071 0.7071 0.7071 -286.0458 420.225)" class="st1" width="3.5" height="6.6"/>
<line class="st0" x1="366.6" y1="557.7" x2="369.2" y2="560.3"/>
<path class="st0" d="M352.6,530.8L341.8,520c-0.9-0.9-2.3-0.9-3.1,0l0,0l-2.7,2.7"/>
<line class="st4" x1="227.7" y1="420.7" x2="224.4" y2="417.4"/>
<line class="st4" x1="238.7" y1="431.7" x2="229.9" y2="422.9"/>
<line class="st4" x1="406.2" y1="599.2" x2="403" y2="595.9"/>
<line class="st4" x1="417.2" y1="610.2" x2="408.4" y2="601.4"/>
<line class="st4" x1="280.8" y1="460.3" x2="277.5" y2="457.1"/>
<line class="st4" x1="291.8" y1="471.4" x2="282.9" y2="462.5"/>
<line class="st4" x1="436.8" y1="616.3" x2="433.5" y2="613.1"/>
<line class="st4" x1="447.8" y1="627.4" x2="438.9" y2="618.5"/>
<path class="st1" d="M462.4,635.4c3.9,3.9,3.9,10.3,0,14.2c-3.9,3.9-10.3,3.9-14.2,0L462.4,635.4z"/>
<path class="st0" d="M300.3,508.5"/>
<path class="st0" d="M319.9,475.4"/>
<line class="st0" x1="117.7" y1="260.8" x2="123.9" y2="354.2"/>
<path class="st0" d="M109.5,290.9"/>
<line class="st0" x1="112.9" y1="294.3" x2="120.4" y2="301.9"/>
<path class="st0" d="M110.9,288.7c-1.4,0-2.6,1.2-2.6,2.6c0,1.8,1.4,3.2,3.2,3.2c0,0,0,0,0,0c2.2,0,4-1.8,4-4c0-2.8-2.3-5-5-5
	c0,0,0,0,0,0c-1.4,0-2.7,0.6-3.7,1.5l-4.6,4.6l-6,6l-4.6,4.6c-0.9,1-1.5,2.3-1.5,3.7c0,2.8,2.3,5,5,5c0,0,0,0,0,0c2.2,0,4-1.8,4-4
	c0-1.8-1.4-3.2-3.2-3.2c0,0,0,0,0,0c-1.4,0-2.6,1.2-2.6,2.6"/>
<path class="st0" d="M109.8,293.7"/>
<path class="st0" d="M98.5,305"/>
<line class="st0" x1="94.3" y1="304.2" x2="109.2" y2="289.4"/>
<line class="st0" x1="122.3" y1="331.3" x2="99.1" y2="308"/>
<line class="st0" x1="108.7" y1="297.1" x2="120.9" y2="309.2"/>
<line class="st0" x1="105.3" y1="300.5" x2="121.4" y2="316.6"/>
<line class="st0" x1="101.9" y1="303.9" x2="121.8" y2="323.9"/>
<path class="st0" d="M111.2,309.2"/>
<polygon class="st0" points="123.5,349.1 79.1,304.7 118,265.8 162.4,310.3 151,337.8 "/>
<polyline class="st0" points="126.3,320.7 143.8,303.1 153.4,312.7 141.7,324.4 "/>
<line class="st0" x1="132.2" y1="314.8" x2="152.1" y2="334.7"/>
<line class="st0" x1="128" y1="318.9" x2="148" y2="338.8"/>
<ellipse transform="matrix(0.1679 -0.9858 0.9858 0.1679 -90.3215 360.9099)" class="st0" cx="168.6" cy="234" rx="1.9" ry="1.9"/>
<ellipse transform="matrix(0.1679 -0.9858 0.9858 0.1679 -100.0178 330.7648)" class="st0" cx="145.9" cy="224.6" rx="1.9" ry="1.9"/>
<path class="st0" d="M39.1,348.9c-2.2-1.6-2.7-4.7-1.1-7c2-2.8,5.9-3.4,8.7-1.4c3.5,2.5,4.3,7.4,1.8,10.9c0,0,0,0,0,0
	c-3.2,4.4-9.3,5.4-13.6,2.2c0,0,0,0,0,0c-5.5-3.9-6.8-10.5-2.8-17.1c9.2-15,32.9-23.2,32-42l0,0l43.6-43.6c18.8,1,27-22.8,42-32
	c6.6-4,13.1-2.7,17.1,2.8c3.2,4.4,2.2,10.5-2.2,13.6c0,0,0,0,0,0c-3.5,2.5-8.4,1.7-10.9-1.8c0,0,0,0,0,0c-2-2.8-1.4-6.7,1.4-8.7
	c2.2-1.6,5.4-1.1,7,1.1"/>
<ellipse transform="matrix(0.9858 -0.1679 0.1679 0.9858 -59.0378 12.9325)" class="st0" cx="47" cy="355.6" rx="1.9" ry="1.9"/>
<ellipse transform="matrix(0.9858 -0.1679 0.1679 0.9858 -55.3512 11.0419)" class="st0" cx="37.6" cy="332.9" rx="1.9" ry="1.9"/>
<ellipse transform="matrix(0.1679 -0.9858 0.9858 0.1679 -316.3091 399.1998)" class="st0" cx="78.3" cy="387" rx="1.9" ry="1.9"/>
<ellipse transform="matrix(0.1679 -0.9858 0.9858 0.1679 -306.6104 429.3584)" class="st0" cx="101" cy="396.3" rx="1.9" ry="1.9"/>
<path class="st0" d="M207.8,272c2.2,1.6,2.7,4.7,1.1,7c-2,2.8-5.9,3.4-8.7,1.4c-3.5-2.5-4.3-7.4-1.8-10.9c0,0,0,0,0,0
	c3.2-4.4,9.3-5.4,13.6-2.2c0,0,0,0,0,0c5.5,3.9,6.8,10.5,2.8,17.1c-9.2,15-32.9,23.2-32,42l0,0l-43.6,43.6c-18.8-1-27,22.8-42,32
	c-6.6,4-13.1,2.7-17.1-2.8c-3.2-4.4-2.2-10.5,2.2-13.6c0,0,0,0,0,0c3.5-2.5,8.4-1.7,10.9,1.8c0,0,0,0,0,0c2,2.8,1.4,6.7-1.4,8.7
	c-2.2,1.6-5.4,1.1-7-1.1"/>
<ellipse transform="matrix(0.9858 -0.1679 0.1679 0.9858 -41.7039 37.3397)" class="st0" cx="200" cy="265.3" rx="1.9" ry="1.9"/>
<ellipse transform="matrix(0.9858 -0.1679 0.1679 0.9858 -45.379 39.2233)" class="st0" cx="209.3" cy="288" rx="1.9" ry="1.9"/>
<ellipse transform="matrix(0.1771 -0.9842 0.9842 0.1771 -289.824 343.1303)" class="st1" cx="60.3" cy="344.9" rx="1" ry="1"/>
<ellipse transform="matrix(0.9842 -0.1771 0.1771 0.9842 -64.7775 21.6815)" class="st1" cx="89" cy="373.6" rx="1" ry="1"/>
<path class="st1" d="M69,365.3C68.9,365.2,68.9,365.2,69,365.3c0-0.1,0.1-0.1,0.1-0.1l0.8,0.8c0,0,0,0.1,0,0.1c0,0,0,0,0,0l-3.1,3.1
	c0,0,0,0-0.1,0c0,0,0,0,0,0c0,0,0,0,0,0c0,0,0,0,0-0.1c0,0,0-0.1,0.1-0.1c0-0.1,0.1-0.1,0.1-0.2c0-0.1,0-0.2,0-0.3
	c0-0.1-0.1-0.2-0.2-0.3l-2.8-2.8c-0.1-0.1-0.2-0.1-0.3-0.2c-0.1,0-0.2,0-0.3,0c-0.1,0-0.2,0-0.2,0.1c-0.1,0-0.1,0.1-0.1,0.1
	c0,0,0,0-0.1,0c0,0,0,0,0,0c0,0,0,0,0,0c0,0,0,0,0-0.1l2.8-2.8c0,0,0.1,0,0.1,0c0,0,0,0,0,0l0.6,0.6c0,0,0,0.1,0,0.1
	c0,0-0.1,0-0.1,0c-0.1,0-0.1,0-0.2-0.1c-0.1,0-0.2,0-0.3,0c-0.1,0-0.3,0-0.4,0.1c-0.2,0.1-0.3,0.2-0.4,0.3c-0.1,0.1-0.2,0.2-0.2,0.3
	c-0.1,0.1-0.1,0.2-0.1,0.3c0,0.1,0,0.2,0,0.3c0,0.1,0.1,0.2,0.1,0.2l1.2,1.2l0,0c0,0,0,0,0,0c0,0,0,0,0,0l0.4-0.4
	c0.1-0.1,0.1-0.2,0.2-0.3c0-0.1,0-0.2,0-0.3c0-0.1,0-0.1-0.1-0.2c0,0,0-0.1-0.1-0.1c0,0,0,0,0-0.1c0,0,0,0,0,0c0,0,0,0,0,0
	c0,0,0,0,0,0l1,1c0,0,0,0,0,0c0,0,0,0,0,0c0,0,0,0,0,0c0,0,0,0-0.1,0c0,0-0.1-0.1-0.1-0.1c-0.1,0-0.1-0.1-0.2-0.1
	c-0.1,0-0.2,0-0.3,0c-0.1,0-0.2,0.1-0.3,0.2l-0.4,0.4c0,0,0,0,0,0c0,0,0,0,0,0l0,0l1.3,1.3c0.1,0.1,0.3,0.2,0.5,0.1
	c0.2-0.1,0.4-0.2,0.6-0.4c0.1-0.1,0.2-0.2,0.2-0.3c0.1-0.1,0.1-0.2,0.1-0.3c0-0.1,0-0.2,0-0.3c0-0.1,0-0.2,0-0.3c0-0.1,0-0.1,0-0.2
	C69,365.3,69,365.3,69,365.3z"/>
<path class="st1" d="M70.9,365l-1-1c0,0,0-0.1,0-0.1c0,0,0.1,0,0.1,0c0,0,0,0,0,0c0.2,0.1,0.4,0.1,0.6,0.2c0.2,0,0.4,0.1,0.6,0
	c0.2,0,0.4-0.1,0.5-0.1c0.2-0.1,0.3-0.2,0.5-0.3c0.1-0.1,0.1-0.2,0.2-0.3c0.1-0.1,0.1-0.2,0.1-0.3c0-0.1,0-0.2-0.1-0.3
	c-0.1-0.1-0.1-0.2-0.2-0.3c-0.1-0.1-0.2-0.2-0.3-0.2c-0.1,0-0.2-0.1-0.4-0.1c-0.1,0-0.3,0-0.4,0.1c-0.1,0-0.3,0.1-0.4,0.1
	c-0.1,0.1-0.3,0.1-0.4,0.2c-0.1,0-0.3,0.1-0.4,0.1c-0.1,0-0.3,0-0.4,0c-0.2,0-0.3,0-0.4-0.1c-0.1,0-0.2-0.1-0.4-0.2
	c-0.1-0.1-0.2-0.1-0.3-0.2c-0.1-0.1-0.3-0.3-0.3-0.5c-0.1-0.2-0.1-0.4-0.1-0.6c0-0.2,0.1-0.5,0.2-0.7c0.1-0.3,0.3-0.5,0.5-0.8
	c0.1-0.1,0.3-0.3,0.5-0.4c0.1-0.1,0.3-0.2,0.4-0.2c0.1,0,0.2-0.1,0.3-0.1c0.1,0,0.1,0,0.1,0c0,0,0.1,0,0.1,0l0.5,0.5c0,0,0,0,0,0
	c0,0,0,0,0,0c0,0-0.1,0-0.1,0c-0.1-0.1-0.3-0.1-0.4-0.1c-0.3-0.1-0.6-0.1-0.9,0.1c-0.2,0.1-0.3,0.2-0.5,0.3
	c-0.2,0.2-0.3,0.4-0.3,0.6c0,0.2,0.1,0.4,0.2,0.6c0.1,0.1,0.2,0.2,0.3,0.2c0.1,0,0.2,0.1,0.4,0c0.2,0,0.3-0.1,0.5-0.1
	c0.2-0.1,0.4-0.1,0.7-0.3c0.2-0.1,0.5-0.2,0.7-0.2c0.2-0.1,0.4-0.1,0.6-0.1c0.2,0,0.4,0.1,0.6,0.1c0.2,0.1,0.4,0.2,0.5,0.4
	c0.2,0.2,0.3,0.4,0.4,0.6c0.1,0.2,0.1,0.4,0.1,0.7c0,0.3-0.1,0.5-0.2,0.7c-0.2,0.3-0.3,0.5-0.6,0.8c-0.2,0.2-0.3,0.3-0.5,0.4
	c-0.2,0.1-0.4,0.2-0.6,0.3c0,0-0.1,0-0.1,0c0,0-0.1,0-0.1,0.1c0,0-0.1,0.1-0.1,0.1c0,0.1,0,0.1,0.1,0.2C71,364.9,71,365,70.9,365
	C71,365,70.9,365,70.9,365z"/>
<path class="st1" d="M74.3,353.9l0.8,0.8c0,0,0,0.1,0,0.1c0,0-0.1,0-0.1,0c0,0-0.1,0-0.1,0c-0.1,0-0.1,0-0.2-0.1c-0.1,0-0.2,0-0.3,0
	c-0.1,0-0.2,0-0.3,0c-0.1,0-0.2,0.1-0.3,0.1c-0.1,0.1-0.2,0.1-0.3,0.2c0,0-0.1,0.1-0.1,0.1c0,0,0,0.1,0,0.1c0,0,0,0.1,0,0.1
	c0,0,0.1,0.1,0.1,0.1l2.9,2.9c0.1,0.1,0.2,0.1,0.3,0.2c0.1,0,0.2,0,0.3,0c0.1,0,0.2,0,0.2-0.1c0.1,0,0.1-0.1,0.1-0.1c0,0,0,0,0.1,0
	c0,0,0,0,0,0c0,0,0,0,0,0c0,0,0,0,0,0.1l-1.8,1.8c0,0,0,0-0.1,0c0,0-0.1,0-0.1,0c0,0,0,0,0,0c0,0,0,0,0-0.1c0,0,0-0.1,0.1-0.1
	c0-0.1,0.1-0.1,0.1-0.2c0-0.1,0-0.2,0-0.3c0-0.1-0.1-0.2-0.2-0.3c0,0-0.1-0.1-0.1-0.1c-0.1-0.1-0.2-0.2-0.3-0.3
	c-0.1-0.1-0.3-0.3-0.4-0.4s-0.3-0.3-0.5-0.5s-0.3-0.3-0.5-0.5s-0.3-0.3-0.4-0.4c-0.1-0.1-0.2-0.2-0.3-0.3c-0.1-0.1-0.2-0.2-0.2-0.2
	c0,0-0.1-0.1-0.1-0.1c0,0-0.1-0.1-0.2-0.1c-0.1,0-0.1,0-0.2,0c-0.1,0-0.1,0.1-0.2,0.1c-0.1,0.1-0.2,0.2-0.2,0.3
	c-0.1,0.1-0.1,0.2-0.1,0.3c0,0.1,0,0.2,0,0.3c0,0.1,0,0.2,0,0.3c0,0.1,0,0.1,0.1,0.2c0,0,0,0.1,0,0.1c0,0,0,0.1,0,0.1
	c0,0-0.1,0-0.1,0l-0.8-0.8c0,0,0-0.1,0-0.1c0,0,0,0,0,0l3.4-3.4C74.2,353.9,74.2,353.9,74.3,353.9z"/>
<path class="st1" d="M77.3,350.8c0.3-0.3,0.6-0.5,1-0.7c0.3-0.1,0.7-0.2,1-0.2c0.3,0,0.7,0.1,1,0.3c0.3,0.2,0.6,0.4,0.9,0.6
	c0.3,0.3,0.5,0.6,0.6,0.9c0.2,0.3,0.2,0.6,0.3,1c0,0.4-0.1,0.7-0.2,1c-0.2,0.4-0.4,0.7-0.7,1l-2,2c0,0,0,0-0.1,0c0,0,0,0,0,0
	c0,0,0,0,0,0c0,0,0,0,0-0.1c0,0,0-0.1,0.1-0.1c0-0.1,0.1-0.1,0.1-0.2c0-0.1,0-0.2,0-0.3c0-0.1-0.1-0.2-0.2-0.3l-2.8-2.8
	c-0.1-0.1-0.2-0.1-0.3-0.2c-0.1,0-0.2,0-0.3,0c-0.1,0-0.2,0-0.2,0.1c-0.1,0-0.1,0.1-0.1,0.1c0,0,0,0-0.1,0c0,0,0,0,0,0c0,0,0,0,0,0
	c0,0,0,0,0-0.1L77.3,350.8z M81,354.6c0.1-0.1,0.2-0.3,0.3-0.5c0-0.2,0-0.4-0.1-0.6c-0.1-0.3-0.2-0.5-0.4-0.7
	c-0.4-0.5-0.9-1-1.4-1.4c-0.2-0.2-0.4-0.3-0.7-0.4c-0.2-0.1-0.4-0.1-0.6-0.1c-0.2,0-0.4,0.1-0.5,0.2c0,0-0.1,0.1-0.1,0.1
	c0,0-0.1,0.1-0.1,0.1c0,0-0.1,0.1-0.1,0.1c0,0-0.1,0.1-0.1,0.1c-0.1,0-0.1,0.1-0.1,0.2c0,0.1,0,0.1,0.1,0.2l2.2,2.2
	c0.2,0.2,0.4,0.4,0.6,0.5c0.1,0.1,0.3,0.2,0.5,0.3c0.1,0,0.3,0.1,0.4,0C80.7,354.7,80.9,354.7,81,354.6z"/>
<ellipse transform="matrix(0.1771 -0.9842 0.9842 0.1771 -112.2068 358.987)" class="st1" cx="158.6" cy="246.6" rx="1" ry="1"/>
<ellipse transform="matrix(0.9842 -0.1771 0.1771 0.9842 -45.8122 37.5381)" class="st1" cx="187.3" cy="275.4" rx="1" ry="1"/>
<path class="st1" d="M167.1,265.6c0-0.1,0-0.1,0-0.1c0,0,0.1,0,0.1,0c0,0,0,0.1,0.1,0.1s0.1,0.2,0.2,0.2c0.1,0.1,0.1,0.2,0.2,0.3
	c0.1,0.1,0.2,0.2,0.2,0.3c0.1,0.1,0.1,0.2,0.2,0.3c0.1,0.1,0.1,0.1,0.1,0.1c0,0,0,0.1,0,0.1c0,0,0,0.1-0.1,0.1l-2.7,2.7l0,0
	c0,0-0.1,0-0.1,0c0,0-0.1,0-0.1-0.1c0-0.2-0.1-0.4-0.1-0.5c0-0.2,0-0.3,0-0.5s0-0.3,0-0.5s0-0.3,0-0.5c0-0.2,0-0.4,0-0.5
	c0-0.2,0-0.4-0.1-0.6c0-0.1-0.1-0.3-0.1-0.4c-0.1-0.1-0.1-0.3-0.2-0.4c-0.1-0.1-0.2-0.2-0.3-0.3c-0.1-0.1-0.2-0.1-0.4-0.2
	c-0.1,0-0.3,0-0.4,0c-0.1,0-0.3,0.1-0.4,0.2c-0.1,0.1-0.2,0.2-0.2,0.3c-0.1,0.1-0.1,0.2-0.1,0.3c0,0.1,0,0.2-0.1,0.3
	c0,0.1,0,0.2,0,0.3c0,0.1,0,0.1-0.1,0.1c0,0-0.1,0-0.1-0.1c0-0.1-0.1-0.2-0.1-0.4c0-0.2,0-0.3,0-0.5c0-0.2,0.1-0.4,0.2-0.5
	c0.1-0.2,0.3-0.4,0.4-0.6c0.2-0.2,0.4-0.3,0.6-0.4c0.2-0.1,0.4-0.1,0.6-0.2c0.2,0,0.4,0,0.6,0.1c0.2,0.1,0.4,0.2,0.6,0.4
	c0.1,0.1,0.2,0.3,0.3,0.5c0.1,0.2,0.1,0.3,0.1,0.5c0,0.2,0,0.3,0,0.5c0,0.2-0.1,0.3-0.1,0.5c-0.1,0.2-0.1,0.3-0.2,0.5
	c-0.1,0.2-0.1,0.3-0.2,0.5c0,0.1-0.1,0.2-0.1,0.3c0,0.1-0.1,0.2-0.1,0.3l0.7-0.7c0.1-0.1,0.1-0.1,0.2-0.2c0.1-0.1,0.1-0.2,0.2-0.3
	c0.1-0.1,0.1-0.2,0.2-0.3c0.1-0.1,0.1-0.2,0.1-0.3c0-0.1,0.1-0.2,0.1-0.3c0-0.1,0-0.2,0-0.3c0-0.1,0-0.2,0-0.3
	C167.1,265.7,167.1,265.6,167.1,265.6z"/>
<path class="st1" d="M167.7,260.8c0.2-0.2,0.5-0.4,0.8-0.6c0.6-0.2,1.2-0.2,1.8,0c0.3,0.1,0.6,0.3,0.8,0.6c0.2,0.2,0.4,0.5,0.5,0.8
	c0.2,0.6,0.2,1.3,0,1.9c-0.3,0.6-0.8,1.1-1.4,1.4c-0.6,0.2-1.2,0.2-1.8,0c-0.3-0.1-0.6-0.3-0.8-0.6c-0.2-0.2-0.4-0.5-0.5-0.8
	c-0.2-0.6-0.2-1.3,0-1.9C167.3,261.3,167.5,261,167.7,260.8z M171,264.2c0.1-0.1,0.2-0.3,0.2-0.5c0-0.2,0-0.4-0.1-0.6
	c-0.1-0.2-0.2-0.4-0.4-0.6c-0.2-0.2-0.4-0.5-0.6-0.7c-0.2-0.2-0.4-0.4-0.7-0.6c-0.2-0.1-0.4-0.3-0.6-0.4c-0.2-0.1-0.4-0.1-0.6-0.1
	c-0.4,0-0.6,0.3-0.7,0.7c0,0.2,0,0.4,0.1,0.6c0.1,0.2,0.2,0.4,0.4,0.6c0.3,0.5,0.8,0.9,1.2,1.2c0.2,0.1,0.4,0.3,0.6,0.4
	c0.2,0.1,0.4,0.1,0.6,0.1C170.7,264.3,170.9,264.3,171,264.2L171,264.2z"/>
<path class="st1" d="M174.9,259.3c0.1,0.1,0.2,0.2,0.3,0.2c0.1,0,0.2,0,0.3,0c0.1,0,0.2-0.1,0.3-0.1c0,0,0.1-0.1,0.1-0.1
	c0,0,0,0,0.1,0c0,0,0,0,0,0c0,0,0,0,0,0c0,0,0,0,0,0.1l-2,2c0,0,0,0-0.1,0c0,0,0,0,0,0c0,0,0,0,0,0c0,0,0,0,0-0.1
	c0,0,0.1-0.1,0.1-0.1c0-0.1,0.1-0.2,0.1-0.3c0-0.1,0-0.2,0-0.3c0-0.1-0.1-0.2-0.2-0.3l-1.5-1.5c-0.1-0.1-0.2-0.1-0.3,0
	c0,0,0,0-0.1,0.1s-0.1,0.1-0.2,0.1c-0.1,0-0.1,0.1-0.2,0.1c0,0-0.1,0-0.1,0.1c0,0-0.1,0-0.1,0c0,0,0-0.1,0-0.1
	c0.1-0.2,0.1-0.4,0.2-0.6c0-0.2,0.1-0.4,0.1-0.6s0.1-0.4,0.1-0.6c0-0.2,0-0.4,0-0.6c0,0,0-0.1,0-0.1c0,0,0.1,0,0.1,0L174.9,259.3z"
	/>
<path class="st1" d="M176.6,253.5C176.6,253.6,176.6,253.6,176.6,253.5C176.6,253.6,176.6,253.6,176.6,253.5c0.2,0,0.4,0,0.6-0.1
	c0.2-0.1,0.3-0.1,0.5-0.1c0.4,0,0.8,0.1,1,0.4c0.4,0.4,0.7,1,0.6,1.6c0,0.3-0.1,0.6-0.2,0.8c-0.1,0.3-0.3,0.5-0.5,0.7
	c-0.2,0.2-0.4,0.3-0.6,0.5c-0.2,0.1-0.4,0.2-0.7,0.3c-0.2,0-0.4,0-0.7,0c-0.2-0.1-0.4-0.2-0.6-0.4c-0.1-0.1-0.2-0.3-0.3-0.4
	c-0.1-0.2-0.1-0.3-0.1-0.5c0-0.2,0-0.4,0-0.5c0-0.2,0.1-0.3,0.1-0.5c0,0,0-0.1,0-0.1c0,0,0,0-0.1,0c-0.1,0-0.3,0.1-0.4,0.1
	c-0.1,0-0.3,0-0.4,0c-0.2,0-0.3-0.1-0.4-0.1c-0.2-0.1-0.3-0.2-0.4-0.3c-0.2-0.2-0.3-0.4-0.4-0.6c-0.1-0.2-0.1-0.5-0.1-0.7
	c0-0.2,0.1-0.5,0.2-0.7c0.1-0.2,0.3-0.5,0.5-0.7c0.1-0.1,0.3-0.3,0.4-0.4c0.1-0.1,0.3-0.2,0.5-0.3c0.2-0.1,0.3-0.1,0.5-0.1
	c0.2,0,0.4,0,0.5,0.1c0.2,0.1,0.3,0.2,0.4,0.4c0.1,0.2,0.2,0.3,0.2,0.5c0,0.2,0.1,0.4,0,0.6C176.7,253.2,176.6,253.3,176.6,253.5z
	 M174.2,252.4c-0.1,0.1-0.1,0.1-0.1,0.2c0,0.1,0,0.2,0,0.3c0,0.1,0,0.2,0.1,0.3c0.1,0.1,0.1,0.2,0.2,0.3c0.1,0.1,0.2,0.2,0.3,0.2
	c0.1,0.1,0.2,0.1,0.4,0.1c0.1,0,0.3,0,0.4,0c0.2,0,0.4,0,0.6-0.1c0,0,0.1,0,0.1,0c0,0,0.1,0,0.1,0c0.1,0,0.1,0,0.1-0.1
	c0,0,0-0.1,0-0.1c0-0.1-0.1-0.3-0.2-0.4c-0.1-0.2-0.2-0.3-0.3-0.4c-0.1-0.1-0.3-0.3-0.4-0.4c-0.1-0.1-0.3-0.1-0.4-0.2
	c-0.1,0-0.3,0-0.4,0C174.4,252.2,174.3,252.3,174.2,252.4L174.2,252.4z M178.5,256.6c0.1-0.1,0.2-0.2,0.2-0.3c0-0.1,0-0.2,0-0.3
	c0-0.1-0.1-0.2-0.1-0.3c-0.1-0.1-0.1-0.2-0.2-0.3c-0.1-0.1-0.3-0.2-0.4-0.3c-0.1-0.1-0.3-0.1-0.5-0.2c-0.2,0-0.3,0-0.5,0
	c-0.2,0-0.4,0-0.5,0.1c-0.1,0-0.1,0-0.2,0c-0.1,0-0.1,0-0.2,0.1c-0.1,0-0.1,0.1-0.1,0.2c0,0.2,0.1,0.4,0.1,0.6
	c0.1,0.2,0.2,0.4,0.4,0.6c0.2,0.2,0.4,0.3,0.6,0.4c0.2,0.1,0.4,0.1,0.5,0.2c0.2,0,0.3,0,0.5,0C178.3,256.8,178.4,256.7,178.5,256.6
	L178.5,256.6z"/>
<line class="st0" x1="165" y1="219.9" x2="213.6" y2="268.5"/>
<line class="st0" x1="32.9" y1="352" x2="81.5" y2="400.5"/>
<path class="st1" d="M28.2,353.5c-1.8,1.8-4.5,2.4-6.9,1.6l56,56c-0.8-2.4-0.2-5.1,1.6-6.9"/>
<rect x="52.9" y="341.3" transform="matrix(0.7071 -0.7071 0.7071 0.7071 -250.5562 149.5216)" class="st1" width="4.7" height="71.8"/>
<path class="st3" d="M241.6,264.3L241.6,264.3c4.7-4.7,3.7-10.9,1.2-15.8c0,0-6.3-13.7-25.9-33.3c-19.4-19.4-32.9-25.5-32.9-25.5
	c-5.3-2.6-11.1-3.5-15.8,1.2l0,0c-4.7,4.7-5.2,11.8-1.2,15.8l58.8,58.8C229.8,269.5,236.9,268.9,241.6,264.3z"/>
<path class="st1" d="M166.5,215.2c1.8-1.8,2.4-4.5,1.6-6.9l56,56c-2.4-0.8-5.1-0.2-6.9,1.6"/>
<rect x="187.9" y="206.3" transform="matrix(0.7071 -0.7071 0.7071 0.7071 -115.5505 205.4429)" class="st1" width="4.7" height="71.8"/>
<line class="st0" x1="58.7" y1="309.7" x2="124.2" y2="375.3"/>
<line class="st0" x1="55.5" y1="312.9" x2="121" y2="378.4"/>
<line class="st0" x1="123" y1="245.4" x2="188.5" y2="310.9"/>
<line class="st0" x1="126.2" y1="242.2" x2="191.7" y2="307.7"/>
<line class="st0" x1="161.2" y1="348" x2="151" y2="337.8"/>
<line class="st0" x1="98.5" y1="285.2" x2="85.8" y2="272.5"/>
</svg>
