<svg xmlns="http://www.w3.org/2000/svg" viewBox="0 0 389.09735 237.15651"><title>how-dist-hands</title><path d="M246.57911,14.82369V.575a13.244,13.244,0,0,0-13.20527,13.20519V5.9808a13.244,13.244,0,0,0-13.20527,13.20512V52.7744h0l-.0003-23.74938A13.244,13.244,0,0,0,206.963,42.23021l.0003,194.92627h52.8211V1.6203A13.2442,13.2442,0,0,0,246.57911,14.82369Z" style="fill:#fff"/><circle cx="243.27781" cy="70.81904" r="24.08057" style="fill:#042a3e;opacity:0.04"/><path d="M246.57921,57.08866l-.00015-42.26314A13.24409,13.24409,0,0,1,259.78432,1.62036h0l.00011,72.94842" style="fill:none;stroke:#dab679;stroke-miterlimit:10;stroke-width:1.1500000000000001px"/><line x1="259.78433" y1="16.18643" x2="253.18178" y2="16.18642" style="fill:none;stroke:#dab679;stroke-miterlimit:10;stroke-width:1.1500000000000001px"/><path d="M246.57921,27.38865" style="fill:none;stroke:#dab679;stroke-miterlimit:10;stroke-width:1.1500000000000001px"/><path d="M220.16856,66.343l-.00015-47.157A13.24409,13.24409,0,0,1,233.37367,5.98081h0l.00011,55.4683" style="fill:none;stroke:#dab679;stroke-miterlimit:10;stroke-width:1.1500000000000001px"/><line x1="233.37368" y1="20.54688" x2="226.77113" y2="20.54687" style="fill:none;stroke:#dab679;stroke-miterlimit:10;stroke-width:1.1500000000000001px"/><path d="M220.16856,31.74911" style="fill:none;stroke:#dab679;stroke-miterlimit:10;stroke-width:1.1500000000000001px"/><path d="M206.96316,237.15651,206.963,42.23021a13.24409,13.24409,0,0,1,13.20526-13.20516h0l.00011,39.28558" style="fill:none;stroke:#dab679;stroke-miterlimit:10;stroke-width:1.1500000000000001px"/><line x1="220.16828" y1="43.59112" x2="213.56573" y2="43.59111" style="fill:none;stroke:#dab679;stroke-miterlimit:10;stroke-width:1.1500000000000001px"/><path d="M206.96316,54.79334" style="fill:none;stroke:#dab679;stroke-miterlimit:10;stroke-width:1.1500000000000001px"/><path d="M233.374,60.9372l-.00015-47.157A13.24409,13.24409,0,0,1,246.57907.575h0l.00011,60.36222" style="fill:none;stroke:#dab679;stroke-miterlimit:10;stroke-width:1.1500000000000001px"/><line x1="246.57908" y1="15.14107" x2="239.97653" y2="15.14106" style="fill:none;stroke:#dab679;stroke-miterlimit:10;stroke-width:1.1500000000000001px"/><path d="M233.374,26.34329" style="fill:none;stroke:#dab679;stroke-miterlimit:10;stroke-width:1.1500000000000001px"/><circle cx="251.47154" cy="54.79334" r="33.83272" style="fill:#fff"/><circle cx="251.47154" cy="54.79334" r="33.83272" style="fill:none;stroke:#dab679;stroke-miterlimit:10;stroke-width:1.19815198284681px"/><circle cx="251.47152" cy="54.79334" r="29.39123" style="fill:none;stroke:#dab679;stroke-miterlimit:10;stroke-width:1.19815198284681px;stroke-dasharray:3.5504257678985596,3.5504257678985596"/><path d="M261.46753,54.81465" style="fill:none;stroke:#dab679;stroke-miterlimit:10;stroke-width:1.19815198284681px"/><line x1="261.46753" y1="54.81465" x2="250.45881" y2="49.81086" style="fill:none;stroke:#dab679;stroke-miterlimit:10;stroke-width:1.19815198284681px"/><polyline points="261.468 54.815 250.459 36.368 250.459 73.219 261.468 54.815" style="fill:none;stroke:#dab679;stroke-miterlimit:10;stroke-width:1.19815198284681px"/><line x1="261.46753" y1="54.81465" x2="250.45881" y2="61.32173" style="fill:none;stroke:#dab679;stroke-miterlimit:10;stroke-width:1.19815198284681px"/><path d="M239.45,54.81465" style="fill:none;stroke:#dab679;stroke-miterlimit:10;stroke-width:1.19815198284681px"/><line x1="239.44995" y1="54.81465" x2="250.45867" y2="49.81086" style="fill:none;stroke:#dab679;stroke-miterlimit:10;stroke-width:1.19815198284681px"/><line x1="250.45867" y1="73.21877" x2="239.44995" y2="54.81465" style="fill:none;stroke:#dab679;stroke-miterlimit:10;stroke-width:1.19815198284681px"/><line x1="239.44995" y1="54.81465" x2="250.45874" y2="36.36791" style="fill:none;stroke:#dab679;stroke-miterlimit:10;stroke-width:1.19815198284681px"/><line x1="239.44995" y1="54.81465" x2="250.45867" y2="61.32173" style="fill:none;stroke:#dab679;stroke-miterlimit:10;stroke-width:1.19815198284681px"/><path d="M206.96316,101.68312" style="fill:none;stroke:#dab679;stroke-miterlimit:10;stroke-width:1.1500000000000001px"/><line x1="278.22425" y1="59.55834" x2="271.64027" y2="59.55834" style="fill:#fff"/><path d="M244.50517,105.54021A24.44725,24.44725,0,0,1,268.95241,81.093" style="fill:#fff"/><path d="M259.78433,237.15651V148.20657c0-2.99519.74947-13.9849,2.18013-16.61632l16.26-29.90713-.00025-56.65h0a13.20678,13.20678,0,0,0-13.168,13.16821l.00022,22.89161-11.02606,5.0886-6.0355,7.135" style="fill:#fff"/><line x1="278.22425" y1="59.55834" x2="271.64027" y2="59.55834" style="fill:none;stroke:#dab679;stroke-miterlimit:10;stroke-width:1.1500000000000001px"/><path d="M244.50517,105.54021A24.44725,24.44725,0,0,1,268.95241,81.093" style="fill:none;stroke:#dab679;stroke-miterlimit:10;stroke-width:1.1500000000000001px"/><path d="M265.05633,81.093l-.00022-22.89161a13.20678,13.20678,0,0,1,13.168-13.16821h0l.00025,56.65-16.26,29.90713c-1.43066,2.63142-2.18013,13.62113-2.18013,16.61632v88.94993" style="fill:none;stroke:#dab679;stroke-miterlimit:10;stroke-width:1.1500000000000001px"/><path d="M349.77312,57.46535V43.21663a13.244,13.244,0,0,0-13.20527,13.20519V48.62246a13.244,13.244,0,0,0-13.20527,13.20512V95.41606h0l-.0003-23.74938A13.244,13.244,0,0,0,310.157,84.87187l.0003,152.28461h52.8211V44.262A13.2442,13.2442,0,0,0,349.77312,57.46535Z" style="fill:#fff"/><circle cx="346.47181" cy="113.4607" r="24.08057" style="fill:#042a3e;opacity:0.04"/><path d="M349.77321,99.73032l-.00015-42.26314A13.24409,13.24409,0,0,1,362.97833,44.262h0l.00011,72.94842" style="fill:none;stroke:#dab679;stroke-miterlimit:10;stroke-width:1.1500000000000001px"/><line x1="362.97834" y1="58.82809" x2="356.37579" y2="58.82808" style="fill:none;stroke:#dab679;stroke-miterlimit:10;stroke-width:1.1500000000000001px"/><path d="M349.77321,70.03031" style="fill:none;stroke:#dab679;stroke-miterlimit:10;stroke-width:1.1500000000000001px"/><path d="M323.36257,108.98468l-.00015-47.157a13.24409,13.24409,0,0,1,13.20526-13.20516h0l.00011,55.4683" style="fill:none;stroke:#dab679;stroke-miterlimit:10;stroke-width:1.1500000000000001px"/><line x1="336.56769" y1="63.18854" x2="329.96514" y2="63.18854" style="fill:none;stroke:#dab679;stroke-miterlimit:10;stroke-width:1.1500000000000001px"/><path d="M323.36257,74.39077" style="fill:none;stroke:#dab679;stroke-miterlimit:10;stroke-width:1.1500000000000001px"/><path d="M310.15717,237.15651,310.157,84.87187a13.24409,13.24409,0,0,1,13.20526-13.20516h0l.00011,39.28558" style="fill:none;stroke:#dab679;stroke-miterlimit:10;stroke-width:1.1500000000000001px"/><line x1="323.36229" y1="86.23278" x2="316.75974" y2="86.23277" style="fill:none;stroke:#dab679;stroke-miterlimit:10;stroke-width:1.1500000000000001px"/><path d="M310.15717,97.435" style="fill:none;stroke:#dab679;stroke-miterlimit:10;stroke-width:1.1500000000000001px"/><path d="M336.568,103.57887l-.00015-47.157a13.24409,13.24409,0,0,1,13.20526-13.20516h0l.00011,60.36222" style="fill:none;stroke:#dab679;stroke-miterlimit:10;stroke-width:1.1500000000000001px"/><line x1="349.77309" y1="57.78273" x2="343.17054" y2="57.78272" style="fill:none;stroke:#dab679;stroke-miterlimit:10;stroke-width:1.1500000000000001px"/><path d="M336.568,68.985" style="fill:none;stroke:#dab679;stroke-miterlimit:10;stroke-width:1.1500000000000001px"/><circle cx="354.66555" cy="97.435" r="33.83272" style="fill:#fff"/><circle cx="354.66555" cy="97.435" r="33.83272" style="fill:none;stroke:#dab679;stroke-miterlimit:10;stroke-width:1.19815198284681px"/><circle cx="354.66558" cy="97.435" r="29.39123" style="fill:none;stroke:#dab679;stroke-miterlimit:10;stroke-width:1.19815198284681px;stroke-dasharray:3.5504257678985596,3.5504257678985596"/><polyline points="341.952 83.793 369.514 83.793 369.514 99.76 351.197 99.76" style="fill:none;stroke:#dab679;stroke-miterlimit:10;stroke-width:1.19815198284681px"/><line x1="351.18879" y1="83.80498" x2="351.2051" y2="112.43231" style="fill:none;stroke:#dab679;stroke-miterlimit:10;stroke-width:1.19815198284681px"/><line x1="341.95267" y1="112.42813" x2="353.99183" y2="112.42813" style="fill:none;stroke:#dab679;stroke-miterlimit:10;stroke-width:1.19815198284681px"/><line x1="344.73941" y1="83.80498" x2="344.75572" y2="112.43231" style="fill:none;stroke:#dab679;stroke-miterlimit:10;stroke-width:1.19815198284681px"/><path d="M310.15717,144.32479" style="fill:none;stroke:#dab679;stroke-miterlimit:10;stroke-width:1.1500000000000001px"/><line x1="381.41826" y1="102.20001" x2="374.83428" y2="102.20001" style="fill:#fff"/><path d="M347.69918,148.18187a24.44725,24.44725,0,0,1,24.44724-24.44725" style="fill:#fff"/><path d="M362.97834,237.15651V190.84823c0-2.99519.74947-13.9849,2.18013-16.61632l16.26-29.90713-.00025-56.65h0a13.20678,13.20678,0,0,0-13.168,13.16821l.00022,22.89161-11.02606,5.0886-6.0355,7.135" style="fill:#fff"/><line x1="381.41826" y1="102.20001" x2="374.83428" y2="102.20001" style="fill:none;stroke:#dab679;stroke-miterlimit:10;stroke-width:1.1500000000000001px"/><path d="M347.69918,148.18187a24.44725,24.44725,0,0,1,24.44724-24.44725" style="fill:none;stroke:#dab679;stroke-miterlimit:10;stroke-width:1.1500000000000001px"/><path d="M368.25034,123.73462l-.00022-22.89161a13.20678,13.20678,0,0,1,13.168-13.16821h0l.00025,56.65-16.26,29.90713c-1.43066,2.63142-2.18013,13.62113-2.18013,16.61632v46.30827" style="fill:none;stroke:#dab679;stroke-miterlimit:10;stroke-width:1.1500000000000001px"/><path d="M40.1911,14.82369V.575A13.244,13.244,0,0,0,26.98583,13.78016V5.9808A13.244,13.244,0,0,0,13.78055,19.18592V52.7744h0L13.78025,29.025A13.244,13.244,0,0,0,.575,42.23021l.0003,194.92627h52.8211V1.6203A13.2442,13.2442,0,0,0,40.1911,14.82369Z" style="fill:#fff"/><circle cx="36.8898" cy="70.81904" r="24.08057" style="fill:#042a3e;opacity:0.04"/><path d="M40.1912,57.08866,40.191,14.82552A13.24409,13.24409,0,0,1,53.39631,1.62036h0l.00011,72.94842" style="fill:none;stroke:#dab679;stroke-miterlimit:10;stroke-width:1.1500000000000001px"/><line x1="53.39632" y1="16.18643" x2="46.79377" y2="16.18642" style="fill:none;stroke:#dab679;stroke-miterlimit:10;stroke-width:1.1500000000000001px"/><path d="M40.1912,27.38865" style="fill:none;stroke:#dab679;stroke-miterlimit:10;stroke-width:1.1500000000000001px"/><path d="M13.78055,66.343,13.7804,19.186A13.24409,13.24409,0,0,1,26.98566,5.98081h0l.00011,55.4683" style="fill:none;stroke:#dab679;stroke-miterlimit:10;stroke-width:1.1500000000000001px"/><line x1="26.98567" y1="20.54688" x2="20.38312" y2="20.54687" style="fill:none;stroke:#dab679;stroke-miterlimit:10;stroke-width:1.1500000000000001px"/><path d="M13.78055,31.74911" style="fill:none;stroke:#dab679;stroke-miterlimit:10;stroke-width:1.1500000000000001px"/><path d="M.57515,237.15651.575,42.23021A13.24409,13.24409,0,0,1,13.78026,29.02505h0l.00011,39.28558" style="fill:none;stroke:#dab679;stroke-miterlimit:10;stroke-width:1.1500000000000001px"/><line x1="13.78027" y1="43.59112" x2="7.17772" y2="43.59111" style="fill:none;stroke:#dab679;stroke-miterlimit:10;stroke-width:1.1500000000000001px"/><path d="M.57515,54.79334" style="fill:none;stroke:#dab679;stroke-miterlimit:10;stroke-width:1.1500000000000001px"/><path d="M26.98595,60.9372l-.00015-47.157A13.24409,13.24409,0,0,1,40.19106.575h0l.00011,60.36222" style="fill:none;stroke:#dab679;stroke-miterlimit:10;stroke-width:1.1500000000000001px"/><line x1="40.19107" y1="15.14107" x2="33.58852" y2="15.14106" style="fill:none;stroke:#dab679;stroke-miterlimit:10;stroke-width:1.1500000000000001px"/><path d="M26.98595,26.34329" style="fill:none;stroke:#dab679;stroke-miterlimit:10;stroke-width:1.1500000000000001px"/><circle cx="45.08353" cy="54.79334" r="33.83272" style="fill:#fff"/><circle cx="45.08353" cy="54.79334" r="33.83272" style="fill:none;stroke:#dab679;stroke-miterlimit:10;stroke-width:1.19815198284681px"/><circle cx="45.08356" cy="54.79334" r="29.39123" style="fill:none;stroke:#dab679;stroke-miterlimit:10;stroke-width:1.19815198284681px;stroke-dasharray:3.5504257678985596,3.5504257678985596"/><polyline points="32.37 41.151 59.932 41.151 59.932 57.119 41.615 57.119" style="fill:none;stroke:#dab679;stroke-miterlimit:10;stroke-width:1.19815198284681px"/><line x1="41.60677" y1="41.16332" x2="41.62308" y2="69.79065" style="fill:none;stroke:#dab679;stroke-miterlimit:10;stroke-width:1.19815198284681px"/><line x1="32.37065" y1="69.78647" x2="44.40981" y2="69.78647" style="fill:none;stroke:#dab679;stroke-miterlimit:10;stroke-width:1.19815198284681px"/><line x1="35.15739" y1="41.16332" x2="35.1737" y2="69.79065" style="fill:none;stroke:#dab679;stroke-miterlimit:10;stroke-width:1.19815198284681px"/><path d="M.57515,101.68312" style="fill:none;stroke:#dab679;stroke-miterlimit:10;stroke-width:1.1500000000000001px"/><line x1="71.83624" y1="59.55834" x2="65.25226" y2="59.55834" style="fill:#fff"/><path d="M38.11716,105.54021A24.44725,24.44725,0,0,1,62.5644,81.093" style="fill:#fff"/><path d="M53.39632,237.15651V148.20657c0-2.99519.74947-13.9849,2.18013-16.61632l16.26-29.90713-.00025-56.65h0a13.20678,13.20678,0,0,0-13.168,13.16821L58.66832,81.093l-11.02606,5.0886-6.0355,7.135" style="fill:#fff"/><line x1="71.83624" y1="59.55834" x2="65.25226" y2="59.55834" style="fill:none;stroke:#dab679;stroke-miterlimit:10;stroke-width:1.1500000000000001px"/><path d="M38.11716,105.54021A24.44725,24.44725,0,0,1,62.5644,81.093" style="fill:none;stroke:#dab679;stroke-miterlimit:10;stroke-width:1.1500000000000001px"/><path d="M58.66832,81.093,58.6681,58.20135a13.20678,13.20678,0,0,1,13.168-13.16821h0l.00025,56.65-16.26,29.90713c-1.43066,2.63142-2.18013,13.62113-2.18013,16.61632v88.94993" style="fill:none;stroke:#dab679;stroke-miterlimit:10;stroke-width:1.1500000000000001px"/><path d="M143.38511,57.46535V43.21663a13.244,13.244,0,0,0-13.20527,13.20519V48.62246a13.244,13.244,0,0,0-13.20527,13.20512V95.41606h0l-.0003-23.74938A13.244,13.244,0,0,0,103.769,84.87187l.0003,152.28461h52.8211V44.262A13.2442,13.2442,0,0,0,143.38511,57.46535Z" style="fill:#fff"/><circle cx="140.0838" cy="113.4607" r="24.08057" style="fill:#042a3e;opacity:0.04"/><path d="M143.3852,99.73032l-.00015-42.26314A13.24409,13.24409,0,0,1,156.59032,44.262h0l.00011,72.94842" style="fill:none;stroke:#dab679;stroke-miterlimit:10;stroke-width:1.1500000000000001px"/><line x1="156.59033" y1="58.82809" x2="149.98778" y2="58.82808" style="fill:none;stroke:#dab679;stroke-miterlimit:10;stroke-width:1.1500000000000001px"/><path d="M143.3852,70.03031" style="fill:none;stroke:#dab679;stroke-miterlimit:10;stroke-width:1.1500000000000001px"/><path d="M116.97455,108.98468l-.00015-47.157a13.24409,13.24409,0,0,1,13.20526-13.20516h0l.00011,55.4683" style="fill:none;stroke:#dab679;stroke-miterlimit:10;stroke-width:1.1500000000000001px"/><line x1="130.17968" y1="63.18854" x2="123.57713" y2="63.18854" style="fill:none;stroke:#dab679;stroke-miterlimit:10;stroke-width:1.1500000000000001px"/><path d="M116.97455,74.39077" style="fill:none;stroke:#dab679;stroke-miterlimit:10;stroke-width:1.1500000000000001px"/><path d="M103.76915,237.15651,103.769,84.87187a13.24409,13.24409,0,0,1,13.20526-13.20516h0l.00011,39.28558" style="fill:none;stroke:#dab679;stroke-miterlimit:10;stroke-width:1.1500000000000001px"/><line x1="116.97428" y1="86.23278" x2="110.37173" y2="86.23277" style="fill:none;stroke:#dab679;stroke-miterlimit:10;stroke-width:1.1500000000000001px"/><path d="M103.76915,97.435" style="fill:none;stroke:#dab679;stroke-miterlimit:10;stroke-width:1.1500000000000001px"/><path d="M130.18,103.57887l-.00015-47.157a13.24409,13.24409,0,0,1,13.20526-13.20516h0l.00011,60.36222" style="fill:none;stroke:#dab679;stroke-miterlimit:10;stroke-width:1.1500000000000001px"/><line x1="143.38508" y1="57.78273" x2="136.78253" y2="57.78272" style="fill:none;stroke:#dab679;stroke-miterlimit:10;stroke-width:1.1500000000000001px"/><path d="M130.18,68.985" style="fill:none;stroke:#dab679;stroke-miterlimit:10;stroke-width:1.1500000000000001px"/><circle cx="148.27754" cy="97.435" r="33.83272" style="fill:#fff"/><circle cx="148.27754" cy="97.435" r="33.83272" style="fill:none;stroke:#dab679;stroke-miterlimit:10;stroke-width:1.19815198284681px"/><circle cx="148.27755" cy="97.435" r="29.39123" style="fill:none;stroke:#dab679;stroke-miterlimit:10;stroke-width:1.19815198284681px;stroke-dasharray:3.5504257678985596,3.5504257678985596"/><polyline points="135.564 83.793 163.126 83.793 163.126 99.76 144.809 99.76" style="fill:none;stroke:#dab679;stroke-miterlimit:10;stroke-width:1.19815198284681px"/><line x1="144.80077" y1="83.80498" x2="144.81709" y2="112.43231" style="fill:none;stroke:#dab679;stroke-miterlimit:10;stroke-width:1.19815198284681px"/><line x1="135.56465" y1="112.42813" x2="147.60382" y2="112.42813" style="fill:none;stroke:#dab679;stroke-miterlimit:10;stroke-width:1.19815198284681px"/><line x1="138.3514" y1="83.80498" x2="138.36771" y2="112.43231" style="fill:none;stroke:#dab679;stroke-miterlimit:10;stroke-width:1.19815198284681px"/><path d="M103.76915,144.32479" style="fill:none;stroke:#dab679;stroke-miterlimit:10;stroke-width:1.1500000000000001px"/><line x1="175.03024" y1="102.20001" x2="168.44627" y2="102.20001" style="fill:#fff"/><path d="M141.31117,148.18187a24.44725,24.44725,0,0,1,24.44724-24.44725" style="fill:#fff"/><path d="M156.59033,237.15651V190.84823c0-2.99519.74947-13.9849,2.18013-16.61632l16.26-29.90713-.00025-56.65h0a13.20678,13.20678,0,0,0-13.168,13.16821l.00022,22.89161-11.02606,5.0886-6.0355,7.135" style="fill:#fff"/><line x1="175.03024" y1="102.20001" x2="168.44627" y2="102.20001" style="fill:none;stroke:#dab679;stroke-miterlimit:10;stroke-width:1.1500000000000001px"/><path d="M141.31117,148.18187a24.44725,24.44725,0,0,1,24.44724-24.44725" style="fill:none;stroke:#dab679;stroke-miterlimit:10;stroke-width:1.1500000000000001px"/><path d="M161.86233,123.73462l-.00022-22.89161a13.20678,13.20678,0,0,1,13.168-13.16821h0l.00025,56.65-16.26,29.90713c-1.43066,2.63142-2.18013,13.62113-2.18013,16.61632v46.30827" style="fill:none;stroke:#dab679;stroke-miterlimit:10;stroke-width:1.1500000000000001px"/></svg>