<?xml version="1.0" encoding="utf-8"?>
<!-- Generator: Adobe Illustrator 21.0.2, SVG Export Plug-In . SVG Version: 6.00 Build 0)  -->
<svg version="1.1" id="Layer_1" xmlns="http://www.w3.org/2000/svg" xmlns:xlink="http://www.w3.org/1999/xlink" x="0px" y="0px"
	 viewBox="0 0 504 374" style="enable-background:new 0 0 504 374;" xml:space="preserve">
<style type="text/css">
	.st0{opacity:5.000000e-02;fill:#DAB679;enable-background:new    ;}
	.st1{fill:none;stroke:#DAB679;stroke-width:1.15;stroke-miterlimit:10;}
	.st2{fill:#FFFFFF;}
	.st3{fill:#DAB679;}
	.st4{opacity:4.000000e-02;fill:#042A3E;enable-background:new    ;}
</style>
<title>how-image5a</title>
<rect x="315" y="0.9" class="st0" width="193.6" height="372.3"/>
<path class="st1" d="M229.2,205.1L229.2,205.1c0-5.1,4.2-9.3,9.3-9.3h28.4c5.1,0,9.3,4.2,9.3,9.3l0,0"/>
<polyline class="st1" points="225.7,373.1 225.7,206.6 279.6,206.6 279.6,373.1 "/>
<path class="st2" d="M381.4,124.9c8.2,0,12.9,6.6,12.9,14.8h29c0-8.2,4.7-14.8,12.9-14.8"/>
<rect x="393.1" y="263.5" class="st2" width="31.4" height="3.1"/>
<path class="st2" d="M418.7,260.2c51.7-115.9,4.5-120.4,4.5-120.4h-28.9c0,0-47.2,4.6,4.5,120.4H418.7z"/>
<path class="st1" d="M418.7,260.2c51.7-115.9,4.5-120.4,4.5-120.4h-28.9c0,0-47.2,4.6,4.5,120.4H418.7z"/>
<path class="st1" d="M398.9,260.2c0,1.8-1.5,3.3-3.3,3.3c0,0,0,0,0,0"/>
<path class="st1" d="M418.7,260.2c0,1.8,1.5,3.3,3.3,3.3c0,0,0,0,0,0"/>
<rect x="393.1" y="263.5" class="st1" width="31.4" height="3.1"/>
<line class="st1" x1="436.2" y1="124.9" x2="381.4" y2="124.9"/>
<path class="st1" d="M381.4,124.9c8.2,0,12.9,6.6,12.9,14.8"/>
<path class="st1" d="M383.8,145.4c-5.6,0.2-10.7-4.6-11.5-10.3c-0.7-4.9,2.7-9.4,7.5-10.1c0,0,0,0,0,0c3.9-0.6,7.5,2.1,8.1,6
	c0.4,3.1-1.7,6-4.8,6.4l0,0c-2.5,0.4-4.8-1.4-5.2-3.9v0c-0.3-2,1.1-3.8,3.1-4.1"/>
<ellipse transform="matrix(0.9898 -0.1423 0.1423 0.9898 -14.6915 55.6224)" class="st3" cx="381.4" cy="130.5" rx="1.7" ry="1.7"/>
<path class="st1" d="M436.2,124.9c-8.2,0-12.9,6.6-12.9,14.8"/>
<path class="st1" d="M436.2,124.9c-8.2,0-12.9,6.6-12.9,14.8"/>
<path class="st1" d="M433.8,145.4c5.6,0.2,10.7-4.6,11.5-10.3c0.7-4.9-2.7-9.4-7.5-10.1c0,0,0,0,0,0c-3.9-0.6-7.5,2.1-8.1,6
	c-0.4,3.1,1.7,6,4.8,6.4l0,0c2.5,0.4,4.8-1.4,5.2-3.9v0c0.3-2-1.1-3.8-3.1-4.1"/>
<ellipse transform="matrix(0.1423 -0.9898 0.9898 0.1423 244.981 543.7309)" class="st3" cx="436.2" cy="130.5" rx="1.7" ry="1.7"/>
<line class="st1" x1="445" y1="163.8" x2="372.7" y2="163.8"/>
<line class="st1" x1="446.3" y1="167.9" x2="371.3" y2="167.9"/>
<polyline class="st1" points="438,207.3 432.7,207.3 432.7,200.7 436.1,200.7 436.1,194.8 427.1,194.8 427.1,207.3 418.2,207.3 
	418.2,200.7 421.6,200.7 421.6,194.8 412.6,194.8 412.6,207.3 403.7,207.3 403.7,200.7 407.1,200.7 407.1,194.8 398.1,194.8 
	398.1,207.3 389.2,207.3 389.2,200.7 392.5,200.7 392.5,194.8 383.6,194.8 383.6,207.3 379.6,207.3 "/>
<rect x="375.5" y="163.8" class="st3" width="66.6" height="4.1"/>
<line class="st1" x1="428.7" y1="287.2" x2="428.7" y2="373.1"/>
<path class="st1" d="M434.4,275.5c-2.2-2.2-5.8-2.2-8,0c-2.8,2.7-2.8,7.2,0,10c0,0,0,0,0,0c3.4,3.4,9,3.4,12.4,0
	c4.3-4.3,4.3-11.3,0-15.6c0,0,0,0,0,0c-2.2-2.1-5.1-3.2-8.1-3.3l-14.1,0l-18.4,0l-14.1,0c-3,0.1-5.9,1.3-8.1,3.3
	c-4.3,4.3-4.3,11.3,0,15.6c0,0,0,0,0,0c3.4,3.4,9,3.4,12.4,0c2.8-2.7,2.8-7.2,0-10c0,0,0,0,0,0c-2.2-2.2-5.8-2.2-8,0"/>
<line class="st1" x1="384.8" y1="273.8" x2="430.6" y2="273.8"/>
<line class="st1" x1="386.3" y1="373.1" x2="386.3" y2="287.1"/>
<line class="st1" x1="418.1" y1="285" x2="418.1" y2="373.1"/>
<line class="st1" x1="407.5" y1="285" x2="407.5" y2="373.1"/>
<line class="st1" x1="396.9" y1="285" x2="396.9" y2="373.1"/>
<circle class="st3" cx="382" cy="276.6" r="2.4"/>
<circle class="st3" cx="432.9" cy="276.6" r="2.4"/>
<polyline class="st1" points="36.9,373.1 36.9,292.9 129.4,292.9 129.4,373.1 "/>
<ellipse transform="matrix(0.9321 -0.3623 0.3623 0.9321 -122.6799 65.8037)" class="st1" cx="114.1" cy="360" rx="2.2" ry="2.2"/>
<ellipse transform="matrix(0.9321 -0.3623 0.3623 0.9321 -126.9762 42.8913)" class="st1" cx="50.9" cy="360" rx="2.2" ry="2.2"/>
<ellipse transform="matrix(0.9321 -0.3623 0.3623 0.9321 -121.1585 53.6826)" class="st1" cx="82.6" cy="349.9" rx="2.2" ry="2.2"/>
<line class="st1" x1="82.6" y1="309" x2="82.6" y2="347.7"/>
<polygon class="st1" points="105.4,308.1 112.9,356.2 82.6,309 52.2,356.2 59.1,308.1 "/>
<line class="st1" x1="59.1" y1="308.1" x2="82.6" y2="347.7"/>
<line class="st1" x1="82.6" y1="347.7" x2="105.4" y2="308.1"/>
<rect x="227.1" y="203.6" class="st3" width="51.1" height="2.9"/>
<rect x="231.3" y="212.5" class="st4" width="42.7" height="160.7"/>
</svg>
