<svg xmlns="http://www.w3.org/2000/svg" viewBox="0 0 504 374"><title>how-image1-01</title><path d="M218.65628,85.39671c.24042.01684.43336.34227.633.6222a.47021.47021,0,0,1-.0145.489,3.3819,3.3819,0,0,1-.50331.6936c-.93282.85515-1.94218,1.55913-2.85007,2.49557-.80377.829-1.61052,1.56137-1.23109,3.31005a3.39911,3.39911,0,0,1-2.40488,3.70386c-.89017.26052-1.20468.75286-1.18115,1.8656a3.14629,3.14629,0,0,1-.35612,1.16627c-.10065.23108-.33157.32313-.46376.18477a4.76372,4.76372,0,0,0-.55724-.52208,3.026,3.026,0,0,0-.42485-.25393c-.20671-.10515-.47371.17292-.4514.46789a2.60506,2.60506,0,0,1-.00658.53336,1.88723,1.88723,0,0,1-.41412,1.05181,6.24663,6.24663,0,0,1-1.5708.64608c-2.77058.89292-5.57193,1.859-8.38791,2.61259-1.89476.501-2.86969,2.49543-3.999,3.99052-1.15463,1.51424-1.572,1.85909-2.933,1.197-2.76193-1.35919-4.325-3.27042-3.522-7.64571.23276-1.26551-.74931-2.29588,1.27959-3.04317a.39012.39012,0,0,0,.14262-.15848.36882.36882,0,0,0-.00478-.47314c-.13927-.10461-.27869-.20677-.38144-.13492-1.53932,1.02875-1.54561.27541-1.324-1.24129.11882-.78726-.25291-1.84827-.76585-2.01785-1.938-.63894-3.87952-1.64876-6.07585-1.18075-1.41971.30473-1.42889-.8266-2.04324-1.1924-.12354-.07376-.11211-.303.02216-.49812a1.00458,1.00458,0,0,1,.2462-.27235c2.61943-1.72837,5.19318-3.49955,7.74232-5.12023a30.723,30.723,0,0,1,3.2601-1.66935.22022.22022,0,0,1,.16827-.02074,14.02885,14.02885,0,0,0,1.98454.63349,3.57641,3.57641,0,0,0,1.56024-.05124c.98192-2.655,2.65491-2.03332,3.88686-2.86713,4.08743-2.80782,7.89259-3.72077,11.17384-1.29959a2.18855,2.18855,0,0,0,1.64543.13863c1.60271-.32909,2.71188-.31,2.871,2.51113.21452,3.45118.89461,3.50215,3.63319,1.76685A2.81335,2.81335,0,0,1,218.65628,85.39671ZM360.772,176.0213a10.32847,10.32847,0,0,0-.03516-4.55867,15.79983,15.79983,0,0,0-2.93076-4.362c-.70969-.86241-1.36191-1.41925-1.98-.24132-.88391,1.63968-2.906,2.57631-4.31338,3.93817a1.585,1.585,0,0,0-.18033,1.80283c1.54376,2.35143,4.52689,3.71809,8.311,3.79507a.45851.45851,0,0,0,.0871-.00545C359.953,176.351,360.74115,176.34023,360.772,176.0213Zm-76.12656,9.7718c-1.20837.93826-2.41168,1.892-3.55206,2.90416-.45053.40257-1.00018.9474-.979,1.47679a30.368,30.368,0,0,0,.57861,3.9254.30627.30627,0,0,1-.21552.33977h0a.30841.30841,0,0,0-.13174.51231c.98367,1.178,1.91507,2.79662,3.0484,3.025,2.51733.50766,2.45782-1.5788,2.79327-2.99814.40021-1.76273.8587-3.50958,1.10739-5.30038a10.13912,10.13912,0,0,0-.16351-3.21906c-.06821-.36739-.48746-.73468-.85162-1.10306a.53783.53783,0,0,0-.578-.12646A5.23713,5.23713,0,0,0,284.64545,185.79311Zm-100.491-9.57726c-3.86234-1.50958-8.01292-2.5614-11.71275-4.13942a2.99924,2.99924,0,0,0-2.90347.03056,1.16572,1.16572,0,0,1-.67593.03627c-.29163-.04732-.32143-.37047-.0573-.59142a1.73283,1.73283,0,0,1,.53725-.33469c2.10291-.6927,2.458-1.27362,1.476-2.77914-1.09383-1.72649-1.969-3.31627-4.874-3.01917a1.60675,1.60675,0,0,1-1.246-.71538c-1.99463-2.54382-4.06754-4.89116-8.62254-4.3889-.55678.06189-1.27907.01067-1.50067-.2883-.811-1.07558-1.65813-.301-2.66193.62711a3.35838,3.35838,0,0,1-.69292.4612c-.28331.15259-.55273.05573-.53061-.18748a1.33278,1.33278,0,0,1,.21236-.69392c.96562-1.3185.8093-1.68655-.82043-.979-2.77206,1.19809-5.129,3.13686-8.40582,2.44633-3.14355-.66641-4.17775-.26395-2.029-3.91545,1.4473-2.48575,1.3071-2.75325-1.34251-2.67075-2.19467.07011-2.35435-.46407-.695-2.5273.41553-.51483.9962-.96288,1.4657-1.46577,1.00639-1.0787.96823-1.74728-.22688-1.73219a4.03208,4.03208,0,0,0-3.62335,1.50523c-1.46455,1.52373-3.57864,1.86481-4.79733,1.00282-1.66953-1.19727-.58945-4.91783,2.23366-8.26732,1.16739-1.40211,4.76115-2.699,6.77322-2.60034a10.25038,10.25038,0,0,0,3.13371-.54665c2.75191-.80806,4.62712.05452,4.94719,2.15047a5.541,5.541,0,0,0,.76419,1.81117c.13107.23062.606.04932.74248-.28386.36707-.89734.73788-1.79768,1.06461-2.692.11041-.30443-.11835-.60732.03563-.8844a5.61169,5.61169,0,0,1,1.36789-1.96478c2.81282-1.70773,5.66856-2.90913,7.74063-6.03964,1.874-2.873,5.56282-2.89053,7.70917-5.82353.40849-.56124,2.50272-1.14583,2.64175-.83971,1.05663,2.24387,3.58876-.12636,5.32011-.1185.25519.00173.62708-.32824.99747-.65849.22739-.20318.25275-.52235.04813-.59772a5.41516,5.41516,0,0,1-.57135-.23945c-.89429-.43486-2.37109-.21307-1.96538-2.09938.06541-.31247-.84485-.562-1.39325-.62753a3.33916,3.33916,0,0,0-.83842.02381c-.32545.0421-.34016-.39207-.02312-.63672a3.89267,3.89267,0,0,1,1.24464-.72884c.805-.2186,1.943-.22635,2.20787.27765.46877.86464,1.02814.60187,1.90028.14808,1.00685-.52629,2.03056-.92884,3.03677-1.35083a3.72985,3.72985,0,0,1,.59422-.18432c.24091-.0573.36871.16881.24344.42877-.13188.27327-.26619.546-.4156.813-.33565.59286-.68732,1.18562-1.041,1.77643-.139.23164-.06982.46851.13979.47836,1.16318.05468,2.3212.11312,3.50368.10387.04391.0003.57161-1.13187.47015-1.206-1.19077-.87725-2.6396-1.54766-.54042-4.07921.05811-.06915-.32632-.53532-.51756-.7993a54.68545,54.68545,0,0,1-3.51613-5.1308c-.56853-1.05461-.75583-2.153-2.62958-.50842-.49774.437-2.14806.20564-2.1451-.20768.0547-2.9317-2.36482-2.56565-3.99863-3.0287-1.54109-.43924-3.292,1.15981-3.59924,3.22061-.24248,1.68436.77769,3.41329-2.19173,3.83664a.61623.61623,0,0,0-.44363.42769,6.10636,6.10636,0,0,1-.36511,1.09275c-.25385.5189-.57156,1.03049-.8837,1.54055-.13934.22729-.40219.3494-.54518.25456-.33495-.22259-.71359-.41979-.77222-.80174a3.273,3.273,0,0,0-2.90884-3.03676,16.62629,16.62629,0,0,1-5.18227-2.59245c-1.08-.69881-.445-2.04272,1.17838-2.99363,1.89517-1.11132,3.85435-1.64274,5.67-2.886,2.29933-1.59533,2.094,1.656,4.26582.17568a.66542.66542,0,0,1,.39769-.11362c.301.00423.62724-.47751.45393-.67615-.13387-.15385-.27078-.304-.41341-.4473a5.52172,5.52172,0,0,0-.48976-.42667c-.19868-.15627.07066-.654.37978-.69945a2.94486,2.94486,0,0,0,.65442-.1682,5.92029,5.92029,0,0,0,1.93047-1.20767c.16322-.9183.16165-1.7991,1.29959-1.77981,1.1171.01915,3.09938.1562,2.984.58808-.49432,1.94365-.26851,2.22332,1.40553.95211.1575-.11808.3679-.03618.58044.04261.14551.0539.155.27646.02087.48147a1.87344,1.87344,0,0,1-.52734.616c-1.01862.51849-2.03828.8863-3.06174,1.3468a4.31124,4.31124,0,0,0-.60753.35167c-.21442.1415-.33545.43127-.24689.58631a.62143.62143,0,0,0,.32423.32938c1.76707.50257,3.53683,1.01676,5.3838,1.39241a24.30566,24.30566,0,0,0,3.43781.27052,1.39711,1.39711,0,0,0,.41737-.062.57341.57341,0,0,0,.38136-.48272,2.49269,2.49269,0,0,0-.027-.73264,8.83474,8.83474,0,0,0-.29848-.88881c-.10081-.263.22813-.67894.48364-.61158.32706.08615.65585.16933.99107.23739a1.57032,1.57032,0,0,0,.98825.01828,4.23925,4.23925,0,0,0,.8931-.63608c.19559-.16544.26784-.454.1469-.58328a2.59677,2.59677,0,0,1-.314-.39049c-.91634-1.43168-3.3111-1.11568-3.20145-3.7341.01453-.24327-.54211-.23159-.81541-.36866-1.54968-.79856-3.008-1.73558-4.61638-2.37615a6.36338,6.36338,0,0,0-6.708.77355c-1.03925.7115-1.22983.56726-.994-.46258.352-1.51581-.62756-1.12841-1.4847-.66677a10.54116,10.54116,0,0,0-1.66837,1.32423.54468.54468,0,0,0-.21461.52123,5.96766,5.96766,0,0,0,.64853,1.3448c.15738.21354.65764.05081.917.18392a3.5755,3.5755,0,0,1,.72765.54231c.11336.099.058.35075-.11823.53559a2.9629,2.9629,0,0,1-.90282.75894,1.83472,1.83472,0,0,1-1.28477-.12845,4.049,4.049,0,0,1-2.68462-3.07913c-.00832-.039-.04565-.0504-.09192-.02762a3.24445,3.24445,0,0,0-1.02216.73228c-.33582.6274-.28795,1.36558-.68187,1.90374a6.40519,6.40519,0,0,1-1.42236,1.20412c-.15768.09976-.303.08716-.34715-.02979-.258-.68856-.19551-1.795-.74158-1.94463-.57733-.15458-1.06213,2.38019-2.50862,2.1193a35.85972,35.85972,0,0,0-3.79834-.18411c-.12711-.01093-.18263-.15255-.23375-.30139a.55139.55139,0,0,1,.21863-.49393,1.80658,1.80658,0,0,1,.51633-.37567c.58257-.18148,1.1179-.18944,1.698-.36322a3.19152,3.19152,0,0,0,.70386-.344.63215.63215,0,0,0,.329-.56016,1.34057,1.34057,0,0,0-.26259-.64361c-.97133-.94145-.99612-2.54092-.08208-4.77146.13245-.32746.17661-.868.019-.88838a22.61173,22.61173,0,0,0-2.69324-.16117,10.58323,10.58323,0,0,1-2.06412.00534c-1.40538-.3572-2.58061-1.076-4.10269-1.19443a4.73269,4.73269,0,0,0-2.01385.90051c-.334.20237-.494.65825-.23439.6709.421.02051.84351.03852,1.27074.04833.162.0011.41966-.15168.55037-.116a1.823,1.823,0,0,1,.40672.19568c.133.0801.04086.36574-.182.56671a2.32257,2.32257,0,0,1-.78513.55884,17.64825,17.64825,0,0,1-3.6694.36533,3.184,3.184,0,0,0-2.74365,1.77389c-.296.53882.43585,1.131.93414,1.4318a1.91406,1.91406,0,0,0,1.60518-.22092c1.6131-.90848,1.86633-.25777,1.80273.866-.01392.25857-.02943.51854-.04448.77737a.73664.73664,0,0,1-.53159.567,3.88442,3.88442,0,0,1-.93227.04771c-2.89334-.375-5.49731-1.21933-8.66785-1.0631-2.87661.14277-6.16638,1.00513-8.68365.45884-2.86283-.622-6.63347-.16855-9.04823-1.22406-2.11345-.92214-5.20078.15021-8.3111,1.00219a15.154,15.154,0,0,0-2.45233,1.07538c-.33127.16418-.602.55207-.45655.65669.33818.24267.67829.48493,1.01316.73133.10725.07413.26283.12153.265.26449a1.55194,1.55194,0,0,1-.06756.42711.98888.98888,0,0,1-.50007.51859,2.20694,2.20694,0,0,1-.73362.25463c-.32752-.00608-.36022-.39648-.705-.364a27.4907,27.4907,0,0,0-2.87.48663,2.929,2.929,0,0,0-.49788.54132,4.713,4.713,0,0,0,1.59851.99205,2.65011,2.65011,0,0,0,.483.07692c.29808.02288-.04369.55726-.4539.706-.28119.10182-.56632.21521-.85773.34724a19.64985,19.64985,0,0,0-2.31246,1.40984.81633.81633,0,0,0-.39141.49964c.00746.62461-.17707,1.51035.32548,1.46621,1.63876-.13666,2.09432.84066,3.03917,1.34668.18022.09612-.10558.511-.46093.6696q-2.46951,1.09819-4.96235,2.18991a6.53632,6.53632,0,0,0-.72129.27325c-.13758.0769-.27491.16218-.41252.25158-.32883.21341-.5027.54761-.31258.60457a.587.587,0,0,0,.26926.01767c3.076-.53932,7.23624-2.968,9.45356-2.06453a3.79161,3.79161,0,0,0,1.362-.85224,8.241,8.241,0,0,1,3.83228-2.25713,2.137,2.137,0,0,0,.673-.22723c3.09964-1.65945,4.64193-1.01546,6.16058-.36,1.69857.7223,4.01746.78051,3.73047,3.56385-.09471,1.01921.73946,1.55025-.17889,3.151-.18036.31759.02467.59282.21561.86889.10094.14539.45706.00032.66094-.27a6.74763,6.74763,0,0,1,.67484-.79312c.16326-.15728.83562-.257.84087-.12565.09075,1.36428-.49379,3.31891.26153,4.07732,1.57868,1.53661.481,3.78521-1.47755,6.40657-3.59427,4.50319-2.50965,6.96745-1.64853,9.55769a7.80509,7.80509,0,0,1,.7547,3.01445c-.09163,2.69582-.24531,5.426.74844,7.59216a1.1616,1.1616,0,0,0,.576.49147c.23074.117.70657-.184.76683-.48431a2.96523,2.96523,0,0,0,.07572-.69678c-.04846-1.08972-.21937-2.11845-.23387-3.21953a1.501,1.501,0,0,1,.30452-.65543.71171.71171,0,0,1,.65019-.34169c.138.04131.25654.09541.28836.202.67619,2.052,2.452,3.84492,1.76618,6.28175-1.00226,3.61678,1.54348,4.395,3.20072,5.89355.96392.85255,2.69589,1.10765,4.89687.86372,1.72038-.18922,2.42432,1.86684,4.00523,2.457,1.46162.53528,2.51282,1.00983,2.40643,2.81316-.1059,2.00037,2.77538,4.05571,4.2345,3.28139,3.07278-1.6519,2.52425.24115,2.54584,1.35773.05991,2.11739-1.75916,4.05592-4.23787,5.19032-3.82651,1.73566-2.86948,4.72829-5.574,6.67628-.09464.065.20575.47656.26852.74741a35.71755,35.71755,0,0,1,1.06007,4.36861c.3313,2.62527.49736,5.2726,3.5285,6.53319,2.16582.89931,1.90669,2.72479.55188,4.92143-3.07335,4.92392-6.04576,9.864-10.86008,14.498a11.66086,11.66086,0,0,0-1.72215,2.55344c-1.14118,1.8195-2.11615,3.65558-3.44451,5.44679-1.12552,1.51056-3.28292,2.98325-3.9217,4.43143-2.33846,5.34225.882,8.30388,8.27181,7.29156a5.37654,5.37654,0,0,0,.595-.123c.40678-.10471.63379-.43707.42813-.61792-.07865-.06924-.16-.13669-.24791-.2003-3.44493-2.50728-3.42238-2.47624,2.22012-5.4744a5.11083,5.11083,0,0,0,1.73566-1.93909c-1.68227-.64494-.30309-1.13393.72508-1.94208,1.39265-1.11034,5.33443-1.43826,3.77428-3.62679-.02525-.03592-.01088-.0869.03764-.12843a2.64875,2.64875,0,0,1,.91039-.524c2.82031-.30154,5.50333-2.59349,8.37169-2.01007a2.77569,2.77569,0,0,0,1.62959-.67274c.93671-1.09076,1.38794-2.61749,2.58418-3.26611,1.32347-.7173,3.26025-.57283,4.91129-.975a7.02119,7.02119,0,0,0,1.90123-1.1615c1.5491-1.04413,3.1002-2.08438,4.59412-3.14821.82314-.58548,2.13834-1.27193,2.2599-1.84283.77194-3.59515,4.42369-4.21556,7.42982-4.597a8.09253,8.09253,0,0,0,6.39783-3.98972,30.05814,30.05814,0,0,1,7.9857-10.15218c2.65816-2.26508,2.24155-3.68564-.61987-4.78668Zm194.09677-68.0571c.261.21736.36884.49412.21359.54872-.13742.0483-.27283.09851-.39993.15539a28.82292,28.82292,0,0,1-3.49756,1.51768,15.66633,15.66633,0,0,1-3.983.65678c-2.44672.07228-2.52991.23784-1.20908,3.29088,1.3909,3.23123-.66373,4.26035-1.07947,6.36678-.01791.07328-.59491-.11606-.67426-.217-1.2562-1.67736-3.07043-3.58256-3.49954-4.96844-.403-1.28527.65393-2.01982,1.07181-2.98663.05322-.131.25076-.15283.28333-.29554.08276-.34514.14615-.70091.20624-1.059.02972-.17913-.21725-.478-.47906-.59259-1.03531-.45406-2.62848-2.22173-2.9567-.90451a4.61454,4.61454,0,0,1-1.27426,2.17787,2.80555,2.80555,0,0,1-1.85751.62869,13.3849,13.3849,0,0,1-3.833-.28093c-4.23169-1.06783-5.15045,1.66487-6.835,3.5966a1.01879,1.01879,0,0,0-.13815.58089.705.705,0,0,0,.40173.54343,3.47269,3.47269,0,0,0,.77557.31206c1.07071.20812,2.09515.30392,3.167.49661a7.84749,7.84749,0,0,1,5.61414,5.04458c.17984.49852.31409.98373.44055,1.46646.08667.33192-.34735.30356-.63641-.04143-.51743-.619-1.03134-1.23729-1.52475-1.8616-.25855-.32871-.49725-.66377-.73-.99956-.22742-.32843-.65405-.45016-.67743-.19221a6.05287,6.05287,0,0,0-.02914.92708c.156,3.2615.0787,6.29736-3.6965,6.604-.91406.07494-.91937,1.56606-1.52682,2.24956-.98956,1.09041.64078,2.10971,1.645,3.32179a5.145,5.145,0,0,1,1.02081,2.71107c.02823.33157-.53333.41209-.97678.54337a.60216.60216,0,0,1-.53687-.23843c-.39255-.44846-.85831-.9292-.88385-1.22513-.19043-1.90579-2.26526-1.63783-2.87473-2.573-1.11526-1.7189-1.568-1.70651-2.88419-1.445-.77457.15314-2.7486-1.56-3.13443-.07532-.10715.38945-.4574.9511-.291,1.12219a6.71161,6.71161,0,0,0,1.84564,1.2989c.4014.19588.79666.00153,1.23093.09332a4.29746,4.29746,0,0,1,.847.33257.70274.70274,0,0,1,.38968.45967c.035.21725.06781.43176-.03555.483-1.57593.76581-.37842,1.80148,1.173,3.17567,3.08633,2.69415,3.582,4.37794,2.54376,6.63855-1.1557,2.39114-2.08615,4.93835-5.98245,4.881-.43048-.00677-.21063,1.35838-.3067,2.07625-.05475.40338-.11346.80675-.17361,1.20909-.04092.2706-.48224.21259-.72192-.09438a12.64578,12.64578,0,0,1-.82941-1.16116,13.22361,13.22361,0,0,1-.75336-1.50526c-.11777-.26222-.46521-.44911-.66714-.359-.369.16444-.74963.32307-.83218.64758a2.51966,2.51966,0,0,0,.25571,2.16119c1.00641,1.05371,2.57626,1.76743,3.59579,2.82507,1.16272,1.20155,2.82312,2.98982,2.74411,3.86235-.13611,1.38206-1.51657,2.26123-2.5329,3.2317-.13312.12659-1.20038-.39832-1.74-.76122-1.05115-.71793-1.99661-1.58966-3.037-2.30751-1.32874-.91682-2.787-1.93883-2.64514.16365a.23046.23046,0,0,1-.03485.119.27621.27621,0,0,0-.00323.235c1.16714,3.00594,3.67487,8.46791,6.92047,10.09587,4.619,2.28346,1.45044,6.44958-1.5748,2.08311-2.94781-4.34026-7.831-11.93475-8.30106-15.00241a.39484.39484,0,0,0-.03558-.11118c-.89908-1.86844-1.74719-3.7142-3.34555-1.48019a3.73247,3.73247,0,0,1-1.47885-.85989,37.91485,37.91485,0,0,0-2.26663-3.04787c-1.09079-1.06973-2.87512-2.77771-3.58932-2.69757a9.19836,9.19836,0,0,0-4.5119,2.03233,12.54384,12.54384,0,0,0-3.05618,3.56812,6.70282,6.70282,0,0,0-.49457,3.0369c-.08389,1.83827-.01367,3.72778-.14059,5.55415-.0166.17372-1.20685.22362-1.35834.04874-2.02716-2.33931-3.99628-4.69753-5.81912-7.10886a24.49489,24.49489,0,0,1-2.2641-3.78957c-.58853-1.19382-.26834-3.297-2.675-2.17757-.11642.05328-1.01624-.89539-1.45233-1.43916a6.62987,6.62987,0,0,0-6.05515-2.75674c-2.34808.23518-4.81317.78638-7.26416-1.57124a1.5467,1.5467,0,0,0-1.20322-.406c-2.36688.9536-4.083-.90071-5.94318-2.32333a4.20652,4.20652,0,0,0-1.50388-.60165.30084.30084,0,0,0-.37659.3902,4.23663,4.23663,0,0,0,.554,1.42706,34.538,34.538,0,0,0,2.39758,2.64313c1.23541,1.36044,2.34613,2.30669,3.79959.86787,1.5983-1.62326,3.222.60129,4.69647,1.41092,1.65277.90356.67526,2.06746.18088,2.7247a15.8416,15.8416,0,0,1-4.03152,4.168,43.58923,43.58923,0,0,1-7.28433,3.08749c-2.476.91425-3.00061.51665-4.28058-1.91417a53.10843,53.10843,0,0,0-3.42535-5.15337c-1.34433-2.02177-2.68515-4.03966-4.00366-6.05739a7.87271,7.87271,0,0,0-1.14938-1.69981,2.13378,2.13378,0,0,0-1.42187-.24915,1.43173,1.43173,0,0,0-.06418,1.09282q4.17412,6.50086,8.76639,12.95435c.54721.75314,1.64362,1.35548,1.88828,2.11044.88489,2.78741,2.49637,2.21114,4.33374,1.70206a32.81179,32.81179,0,0,1,3.79428-.68472.46608.46608,0,0,1,.524.46838,16.015,16.015,0,0,1-.66086,3.96512,11.29329,11.29329,0,0,1-4.56332,5.77917,13.0345,13.0345,0,0,0-4.69107,5.60832c-.56967,1.24393.70078,3.29224,1.11606,4.97548.47891,1.91933,1.38275,3.91495,1.236,5.73344-.09387,1.15442-1.6015,2.25679-2.84467,3.00552-1.9967,1.19562-3.62061,2.31264-2.09076,4.77608.28574.4462.38428,1.43581.14651,1.52692-3.36456,1.1825-3.08569,4.35983-5.05457,6.3862-3.54285,3.57639-8.60257,3.85118-13.73544,4.28384-.83481.07547-2.189-1.13126-2.82144-1.96223a45.74556,45.74556,0,0,1-2.97913-5.02673,18.5896,18.5896,0,0,1-.92609-1.81033c-.86475-2.05714-1.392-4.24336-2.56331-6.15581-1.65459-2.76173-2.25748-5.05661.17018-7.9259,1.49568-1.80167-.35992-4.26727-1.09074-6.35443a5.35545,5.35545,0,0,0-1.82037-2.46152c-2.37724-1.73131-1.91229-3.70605-1.03906-5.88278.85172-2.16528.213-3.00017-2.02933-2.47839-1.42638.33417-2.23752.23209-2.93416-.92384-.9109-1.54753-2.29813-1.36765-3.9836-.91162A63.86683,63.86683,0,0,1,223.035,166.439c-.47218.07793-1.04027-.15-1.4192.0406-4.25648,2.08041-5.37875-1.19148-7.24728-3.05457-.88655-.89838-1.478-2.05743-2.40659-2.89043-1.71082-1.54523-1.915-3.17683-.65948-5.3587.59512-1.05832,1.37625-2.37421,1.23795-3.35635-.54944-4.03291,2.10924-6.45638,4.92024-8.64316,1.273-1.00351,2.419-1.7104,2.93784-3.4337.63789-2.17445,2.57417-3.04985,4.41115-3.64778,2.085-.6851,4.20543-1.2077,6.30783-1.67635,1.56287-.35225,3.15321-.51942,4.72092-.766a.103.103,0,0,1,.11549.08876l.00064.00652.00024.00217a.10424.10424,0,0,0,.11084.09718l.00037,0c.88812-.09312,1.88109-.44823,2.60587-.12306a3.88524,3.88524,0,0,1,1.54086,2.06946c-1.24052,1.60635.14743,1.92482.95575,2.35136a45.64764,45.64764,0,0,0,4.8792,2.21954c.64622.2439,1.74783.46382,2.08183.11069,2.81786-2.99025,5.99727-.79767,9.05542-.44089a27.95175,27.95175,0,0,0,4.58447.344c1.48773-.071,2.93909-3.73116,2.07278-5.0041a1.87784,1.87784,0,0,0-1.32343-.48413c-1.2196-.05463-2.4267.10719-3.647.00233-2.02682-.17984-3.91042-.64072-4.25941-3.47086-.03578-.30576-.51775-.57932-.91907-.8557a.30758.30758,0,0,0-.43056.062l-.01244.0179c-.37991.57335-.92633,1.29189-.81641,1.441,1.01051,1.34734.08582,1.78146-.68456,2.24368-1.25021.74483-1.601-.45123-1.99619-1.31538-1.46036-3.28192-4.05608-5.22332-6.55389-7.2104a1.20059,1.20059,0,0,0-.65443-.18514.35053.35053,0,0,0-.34921.41,1.59888,1.59888,0,0,0,.24652.88644,16.94332,16.94332,0,0,0,3.04915,2.59346c.95718.57822,1.11864,1.10855.56627,2.01649-.84883,1.38882-.958-.19193-1.35544-.465-1.82785-1.27946-3.57246-2.66653-5.3922-3.8687-.39191-.26149-1.10365-.0152-1.6554.11241-.56639.13137-1.13811.63356-1.66241.56821-2.97067-.3678-4.55193,1.978-6.055,4.19293-1.73564,2.507-6.38353,3.41423-8.237,1.26152-1.378-1.64342.63986-3.48016.5105-5.2542a5.73506,5.73506,0,0,1,2.26746-.91565c.76738-.12615,1.57278.30425,2.32356.12776A3.83729,3.83729,0,0,0,229.183,126.011a1.9163,1.9163,0,0,0-1.027-2.83086,2.10809,2.10809,0,0,1-.48677-.35938.40632.40632,0,0,1,.02147-.57421l.024-.02058a1.2537,1.2537,0,0,1,.63083-.331c3.69431-.18359,6.00232-4.259,9.464-4.86134.17738-.0297.15607-1.07674.38742-1.53488a7.92832,7.92832,0,0,1,.91974-1.30657.27363.27363,0,0,1,.43645-.02017,3.353,3.353,0,0,1,.68925.95428c.902,2.25442,2.66936,1.44355,4.11617,1.58084a15.08888,15.08888,0,0,0,3.22551-.349c.25632-.03689.73247-.12252.733-.20751.00169-2.69255,2.25208-2.65413,3.387-3.87877.64708-.70642,2.00294-.44228,3.0161-.69425a1.36377,1.36377,0,0,0,.54854-.37581.421.421,0,0,0,.00717-.5445c-.23119-.28873-.46214-.59759-.68275-.61032a7.91812,7.91812,0,0,0-2.91748.21589c-1.02847.33685-1.907.24978-2.14265-1.08845-.117-.673.4821-1.50333.78886-2.23525.067-.16566.31354-.18717.43034-.337.32474-.41227.63617-.84363.948-1.27351a.44536.44536,0,0,0-.02348-.51241c-.06133-.07806-.11732-.13582-.1564-.125a6.16586,6.16586,0,0,0-2.06284.75093c-.76021.57044-1.29221,1.6601-2.08853,2.12214-1.08026.634-2.1664.78885-.60355,2.54941.60126.66853-1.1945,4.00566-2.40424,4.40309-1.341.43518-2.918,1.40957-3.27859-1.5404-.16891-1.38026-.83313-1.3809-1.74561-.56037-1.22176,1.09656-2.31947.6217-2.84972-.96189-.48347-1.479-.49838-2.80024,1.02457-3.86,2.3607-1.66832,4.35043-4.23924,6.74023-5.43606a25.63747,25.63747,0,0,1,8.8018-2.43594c1.75084-.19675,3.69165.90965,5.56,1.43223,1.79813.49892,3.607.98248,5.42093,1.53173.18073.05611.35083.28758.52185.51031a.45807.45807,0,0,1,.04886.49591c-.09869.158-.19843.3089-.33109.32815-1.08093.18583-2.189.25559-3.26968.453-.25156.04852-.64951.43986-.61618.62164a2.55548,2.55548,0,0,0,.59076,1.01613c1.0618-.692,2.69165,1.21579,3.53229-.66371a2.10676,2.10676,0,0,1,1.62106-1.1634c.89484-.05574,1.86743.37964,1.08133-1.534-.03244-.07756.46924-.40663.87833-.69.14236-.09884.34445.00533.43173.21817,1.0134,2.44488,2.21121.29444,3.24042.44467,1.59988.23875,3.13324-.33418,4.6666-.629a22.71206,22.71206,0,0,1,4.21637-.90631,24.39386,24.39386,0,0,1,4.44562.87613,3.77479,3.77479,0,0,0,.77768.05323c.21176-.00158.27985-.28731.12674-.53257a8.38036,8.38036,0,0,1-.42075-.73811c-.25067-.51162-.71088-1.37235-.60623-1.51843A6.81648,6.81648,0,0,1,287.13,97.1986c.30194-.14862,1.801,1.19816,1.79037,1.4067-.08047,1.6683,2.02689,3.86135.57315,5.17269-.092.077-.04306.35111.00919.62939a.48922.48922,0,0,0,.37991.40507.47812.47812,0,0,0,.39465-.0827c.38226-.42235.58673-1.10473,1.0329-1.4069a5.77551,5.77551,0,0,1,1.81586-.56329c.36624-.08987.75146-.13455,1.10693-.24016.12082-.03593.174-.18153.12552-.35392a1.4025,1.4025,0,0,0-.24823-.562c-.49658-.2815-1.19528-.73435-1.47589-.56242-1.31735.82164-2.00531.10231-2.31784-1.83521a.55637.55637,0,0,1,.10864-.38058c.08206-.13631.26624-.11918.41327.03672,1.59708,1.68027,1.37784-.94186,2.092-.87462,1.09375.104,2.42334,1.16375,3.663,1.7941.217.10875.43417.208.65186.30389.28949.12733.41434-.22509.1875-.52907-.22577-.30324-.45477-.60073-.69681-.87869-.21027-.23708-.5437-.25865-.79691-.4651a2.19509,2.19509,0,0,1-.34735-.38753c-.13727-.1827-.15887-.41931-.04669-.51859a.85354.85354,0,0,1,.28464-.184c2.8248-.91188,5.61951-1.82782,8.41571-2.68193a6.81325,6.81325,0,0,1,1.88242-.09542c.65164.00441,1.56982.39693,1.939.0479,2.29919-2.21729,6.31223-.14268,9.411-.30712.79861-.04481,2.071.06425,2.13235,2.09277a3.45657,3.45657,0,0,0,1.30878.90509c2.66229-.04764,5.99545,1.42359,8.09424.05482.93842-.61946,2.45432-.8603,4.243,1.99118a2.46818,2.46818,0,0,0,1.3685.86687c1.87024-.21912,3.66046-.5624,5.45361-.88634.22522-.041.52634-.07756.54367-.29377a2.429,2.429,0,0,0-.16766-1.59658,7.83493,7.83493,0,0,0-1.83105-1.31039q-.3425-.236-.6835-.4748c-.25656-.17963-.40417-.5267-.26569-.62849a.57523.57523,0,0,1,.36349-.133,23.8465,23.8465,0,0,1,2.8085.22377,6.134,6.134,0,0,1,1.10037.323c.25781.0929.51154.4538.44763.63838a1.96037,1.96037,0,0,0-.13248.66295,2.34331,2.34331,0,0,0,.50922.93059,1.274,1.274,0,0,0,.60083.33629c3.30521.74864,6.6412,1.49363,9.98355,2.21935,1.58609.343,3.16437.65111,4.7464.967.83942.16793,1.70529.37469,2.50555.469,1.89551.22531,3.75949.3886,5.64163.5829.17874.01667.56076.21241.56277.12356.22977-2.16564,3.635-.09513,5.18509-.50185,1.36-.35393,2.6705.84093,4.36542,2.89211C377.54752,105.95327,376.66391,106.83115,378.25122,108.15875Zm-110.03723,21.47a.36368.36368,0,0,0,.0802-.57449,15.8487,15.8487,0,0,0-1.5-1.71072c-.71451-.66156-1.8392-1.00141-2.23883-1.769-.72183-1.3956-1.19427-1.43742-1.826-.37936-.92593,1.52351-1.78659,1.39793-2.88223-.24357-.76022-1.15249-1.52676-.71728-2.09787.17122a14.54327,14.54327,0,0,0-1.42886,2.30044,2.94634,2.94634,0,0,0-.13571,2.062c.162.36809,1.18893.59911,1.70663.46741a12.45062,12.45062,0,0,1,8.07867.217,4.29525,4.29525,0,0,0,.79825.00935.28366.28366,0,0,0,.10513-.0192c.25546-.10144.77237-.30533,1.34061-.53107Zm8.79947-2.91117c-.15482-.23753-.06461-.52577.16959-.54263a6.12177,6.12177,0,0,0,1.09686-.14433,4.67042,4.67042,0,0,0,.99713-.44275.3587.3587,0,0,0,.07217-.50212l-.01718-.02122c-.31491-.46552-.62259-.983-.98535-1.13111a4.16595,4.16595,0,0,0-2.14746-.14975c-.7146.111-1.33347.53566-2.044.68923-1.98416.42695-2.27115,1.383-.77228,3.29384a7.46625,7.46625,0,0,0,2.25784,1.92365c1.19147.61458,1.212.91217.4617,1.76855-1.268,1.43234-1.00641,2.11787.93088,2.87271a14.21794,14.21794,0,0,0,1.91891.50323.327.327,0,0,0,.069.00928c2.10239.053,2.4859-.57031,1.48337-2.548-.7417-1.46915-1.74469-2.83186-2.61969-4.23622-.28766-.45157-.58044-.897-.87149-1.34234Zm128.78317,64.23426c-1.93759-1.21454-3.64746-2.6516-5.52118-3.92365-.83487-.57-1.725-1.08429-2.61432-1.598-.44693-.25876-.82864-.09274-.58093.25267a13.37034,13.37034,0,0,1,1.33228,2.10918c.5256,1.17409,1.971,3.03815-.39206,2.79034a17.40446,17.40446,0,0,1-5.34872-1.94844c-.79184-.41486-1.21262-1.565-1.90082-2.36163a3.51356,3.51356,0,0,0-1.28314-.96288c-2.02316-.07552-4.72989-.6115-5.76141.11551-1.30551.91443-.97287,3.14568-4.79053,1.5437-.13116-.05882-.40076.53812-.57217.846-1.498,2.52017-2.29285,5.443-7.20438,5.742-3.12881.19128-2.58691,2.12263-1.07693,4.90268,1.25757,2.29932,3.69635,3.89584,5.597,5.81708a4.36922,4.36922,0,0,1,1.38647,2.18816c.07291,1.70412,1.44189,2.8839,3.55029,2.59686,2.55875-.34581,5.87442-.49332,6.84918-1.81561,1.26315-1.753,3.92331-1.708,6.13565-2.25311,2.753-.67671,5.43933.203,9.17291,2.65038a4.04415,4.04415,0,0,0,1.49918.48918c1.10785-2.64642,4.76031.3065,6.11685,1.3008,3.51688,2.5567,6.47556,3.92709,8.98547,3.16287a.53878.53878,0,0,1,.19986-.016c5.67407.49078,5.54843-1.90187,5.35239-4.49316-.40738-4.41827-3.297-7.97253-10.10693-11.932-2.99908-1.778-6.10751-3.40227-9.024-5.2029Zm-28.55319-17.867c-.14777-.02905-.23224.11745-.31607.27008-.06995.127.0343.33414.24756.48482a28.36313,28.36313,0,0,0,4.25391,2.79272c2.92114,1.31776,6.07629.58585,8.94,4.16315.57025.7108,4.83374,1.84453,4.856,1.67468.34711-2.85634,2.72867-2.01736,6.28213.32068a6.53383,6.53383,0,0,0,2.20117.76434.8133.8133,0,0,0,.64273-.20634c.114-.07576.08487-.23976-.07028-.40218a3.057,3.057,0,0,0-.65018-.60886c-4.03-2.11722-8.11392-4.87608-11.90805-6.138-4.94559-1.66365-9.709-2.16335-14.47894-3.11505ZM359.49466,127.2103c-.63644.37813-.68378,1.75308-.23331,2.85323,2.00754,4.9622,1.70032,5.77522-2.47986,6.26843a3.76317,3.76317,0,0,0-2.28979,1.61472c-.172.20358.3642,1.2541.83493,1.67836a2.27527,2.27527,0,0,0,1.69968.40555c1.13712-.46745,2.00989-1.22256,3.13034-1.694,3.588-1.52866,3.676-2.69086.64618-7.50545a.93551.93551,0,0,1,.18259-1.20018,12.64724,12.64724,0,0,1,2.23853-.5759.58646.58646,0,0,0,.3-.26147c.06583-.09283.01044-.26738-.13513-.42659a1.42337,1.42337,0,0,0-.384-.3526c-1.22861-.34048-2.921-1.14774-3.51016-.804Zm-1.36783,51.165a11.41443,11.41443,0,0,1-9.32993-3.24986.70307.70307,0,0,0-.5209-.21774c-.80289.072-2.94247.4696-2.956,2.66235-.00641.44807,1.30435,2.01378,6.8923,2.53452a43.82408,43.82408,0,0,0,8.78033.07233.25706.25706,0,0,0,.15161-.065c.37213-.3618,2.27954-2.43877-3.01746-1.73659Zm-13.27042,1.89575c-1.994-.60069-1.96164-.39188-2.32239-2.00134-.29858-1.32259-2.2085-2.79436-2.8757-3.277a.62476.62476,0,0,0-.45535-.12648c-4.58777.84744,3.95,6.32732,6.74908,7.77258,2.87332,1.46811,5.5744-.928,4.08578-.9381s-3.17612-.825-5.18146-1.42967Zm32.08362.32884c.20465-.05667.20084-.27919-.00879-.48361a43.09968,43.09968,0,0,0-7.76556-6.01219c-4.37955-2.63062-1.26514,4.29539-.94855,4.981a.52443.52443,0,0,0,.06778.108c2.33038,2.88481,7.27621,1.78772,8.65509,1.4068Z" style="fill:#042a3e;opacity:0.03999999910593033;isolation:isolate"/><rect x="-3.65795" y="330.27258" width="512.86162" height="49.31561" style="fill:#dab679;opacity:0.05000000074505806;isolation:isolate"/><circle cx="305.49914" cy="195.70559" r="3.47351" transform="translate(-50.14712 123.969) rotate(-21.24002)" style="fill:none;stroke:#dab679;stroke-miterlimit:10;stroke-width:1.149999976158142px"/><circle cx="207.35422" cy="195.7056" r="3.47351" transform="translate(-56.81401 88.41348) rotate(-21.24002)" style="fill:none;stroke:#dab679;stroke-miterlimit:10;stroke-width:1.149999976158142px"/><circle cx="256.35165" cy="181.83636" r="3.47351" transform="translate(-48.46118 105.22194) rotate(-21.24002)" style="fill:none;stroke:#dab679;stroke-miterlimit:10;stroke-width:1.149999976158142px"/><line x1="256.35306" y1="115.85118" x2="256.35306" y2="178.36096" style="fill:none;stroke:#dab679;stroke-miterlimit:10;stroke-width:1.149999976158142px"/><polygon points="292.468 115.852 304.252 191.74 256.353 115.851 208.454 191.74 219.299 115.852 292.468 115.852" style="fill:none;stroke:#dab679;stroke-linejoin:round;stroke-width:1.149999976158142px"/><line x1="219.29945" y1="115.85229" x2="256.35306" y2="178.36096" style="fill:none;stroke:#dab679;stroke-miterlimit:10;stroke-width:1.149999976158142px"/><line x1="256.35306" y1="178.36096" x2="292.46838" y2="115.85229" style="fill:none;stroke:#dab679;stroke-miterlimit:10;stroke-width:1.149999976158142px"/><line x1="362.64667" y1="-5.61289" x2="292.46838" y2="115.85229" style="fill:none;stroke:#dab679;stroke-miterlimit:10;stroke-width:1.149999976158142px"/><line x1="149.12115" y1="-5.61289" x2="219.29945" y2="115.85229" style="fill:none;stroke:#dab679;stroke-miterlimit:10;stroke-width:1.149999976158142px"/><line x1="256.35306" y1="185.0762" x2="256.35306" y2="305.91101" style="fill:none;stroke:#dab679;stroke-miterlimit:10;stroke-width:1.149999976158142px"/><line x1="256.35306" y1="-5.61289" x2="256.35306" y2="115.85118" style="fill:none;stroke:#dab679;stroke-miterlimit:10;stroke-width:1.149999976158142px"/><line x1="302.0256" y1="196.70541" x2="256.35306" y2="196.70541" style="fill:none;stroke:#dab679;stroke-miterlimit:10;stroke-width:1.149999976158142px"/><line x1="256.50308" y1="196.70541" x2="210.83054" y2="196.70541" style="fill:none;stroke:#dab679;stroke-miterlimit:10;stroke-width:1.149999976158142px"/></svg>