<svg xmlns="http://www.w3.org/2000/svg" viewBox="0 0 504 374"><title>how-image3</title><rect x="162.97343" y="1.61134" width="181.60286" height="95.09375" style="fill:#fdfbf8"/><rect x="162.97343" y="96.70509" width="181.60286" height="125.56117" style="fill:none;stroke:#dab679;stroke-miterlimit:10;stroke-width:1.149999976158142px"/><path d="M263.53659,135.51952A25.38581,25.38581,0,0,1,276.932,148.91487" style="fill:none;stroke:#dab679;stroke-miterlimit:10;stroke-width:1.149999976158142px"/><path d="M230.61777,148.91487a25.38575,25.38575,0,0,1,13.39536-13.39536,24.90986,24.90986,0,0,1,9.76172-1.98376h0" style="fill:none;stroke:#dab679;stroke-miterlimit:10;stroke-width:1.149999976158142px"/><path d="M236.01912,199.99226a25.31635,25.31635,0,0,1-5.40135-7.994,24.90973,24.90973,0,0,1-1.98376-9.7617v-23.56" style="fill:none;stroke:#dab679;stroke-miterlimit:10;stroke-width:1.149999976158142px"/><path d="M278.91571,158.67657v23.56a24.91033,24.91033,0,0,1-1.98376,9.7617,25.38585,25.38585,0,0,1-13.39536,13.39536,24.90986,24.90986,0,0,1-9.76172,1.98376h0a24.90986,24.90986,0,0,1-9.76172-1.98376" style="fill:none;stroke:#dab679;stroke-miterlimit:10;stroke-width:1.149999976158142px"/><path d="M266.54276,195.00478a18.07536,18.07536,0,0,1-29.41125-5.74315" style="fill:none;stroke:#dab679;stroke-miterlimit:10;stroke-width:1.149999976158142px"/><path d="M271.83994,158.67664v23.55963a17.96746,17.96746,0,0,1-1.42191,7.02534" style="fill:none;stroke:#dab679;stroke-miterlimit:10;stroke-width:1.149999976158142px"/><path d="M246.74976,142.03339a18.09317,18.09317,0,0,1,23.66827,9.61826" style="fill:none;stroke:#dab679;stroke-miterlimit:10;stroke-width:1.149999976158142px"/><path d="M235.70959,182.23627V158.67664a18.009,18.009,0,0,1,5.29716-12.768" style="fill:none;stroke:#dab679;stroke-miterlimit:10;stroke-width:1.149999976158142px"/><path d="M242.78526,158.67664a10.98951,10.98951,0,0,1,21.979-.03645q0,.01824,0,.03645v11.77982" style="fill:none;stroke:#dab679;stroke-miterlimit:10;stroke-width:1.149999976158142px"/><path d="M264.76428,176.34636v5.88991a10.98951,10.98951,0,0,1-21.979.02565q0-.01282,0-.02565V164.56654" style="fill:none;stroke:#dab679;stroke-miterlimit:10;stroke-width:1.149999976158142px"/><path d="M257.6886,170.45647v11.77982a3.92493,3.92493,0,0,1-2.39183,3.60628" style="fill:none;stroke:#dab679;stroke-miterlimit:10;stroke-width:1.149999976158142px"/><path d="M249.86093,158.67664a3.91384,3.91384,0,1,1,7.82767-.01418v5.90408" style="fill:none;stroke:#dab679;stroke-miterlimit:10;stroke-width:1.149999976158142px"/><path d="M252.25276,185.84254a3.91464,3.91464,0,0,1-2.39183-3.60628V164.56654" style="fill:none;stroke:#dab679;stroke-miterlimit:10;stroke-width:1.149999976158142px"/><line x1="162.97343" y1="118.74672" x2="344.57629" y2="118.74672" style="fill:none;stroke:#dab679;stroke-miterlimit:10;stroke-width:1.149999976158142px"/><line x1="44.11249" y1="203.81366" x2="61.07771" y2="196.10246" style="fill:none;stroke:#dab679;stroke-linecap:round;stroke-linejoin:round;stroke-width:1.149999976158142px"/><polyline points="44.112 203.814 61.078 175.386 61.078 232.176 44.112 203.814" style="fill:none;stroke:#dab679;stroke-linecap:round;stroke-linejoin:round;stroke-width:1.149999976158142px"/><line x1="44.11249" y1="203.81366" x2="61.07771" y2="213.84154" style="fill:none;stroke:#dab679;stroke-linecap:round;stroke-linejoin:round;stroke-width:1.149999976158142px"/><line x1="78.04315" y1="203.81366" x2="61.07792" y2="196.10246" style="fill:none;stroke:#dab679;stroke-linecap:round;stroke-linejoin:round;stroke-width:1.149999976158142px"/><line x1="61.07792" y1="232.17572" x2="78.04315" y2="203.81366" style="fill:none;stroke:#dab679;stroke-linecap:round;stroke-linejoin:round;stroke-width:1.149999976158142px"/><line x1="78.04315" y1="203.81366" x2="61.07782" y2="175.38593" style="fill:none;stroke:#dab679;stroke-linecap:round;stroke-linejoin:round;stroke-width:1.149999976158142px"/><line x1="78.04315" y1="203.81366" x2="61.07792" y2="213.84154" style="fill:none;stroke:#dab679;stroke-linecap:round;stroke-linejoin:round;stroke-width:1.149999976158142px"/><line x1="162.97343" y1="118.74672" x2="127.44876" y2="118.74672" style="fill:none;stroke:#dab679;stroke-miterlimit:10;stroke-width:1.149999976158142px"/><path d="M127.44879,118.74672h0a13.13,13.13,0,0,0-13.09148,13.09148" style="fill:none;stroke:#dab679;stroke-miterlimit:10;stroke-width:1.149999976158142px"/><line x1="114.35729" y1="131.8382" x2="114.35734" y2="212.91112" style="fill:none;stroke:#dab679;stroke-miterlimit:10;stroke-width:1.149999976158142px"/><line x1="123.38348" y1="203.81354" x2="78.04315" y2="203.81366" style="fill:none;stroke:#dab679;stroke-miterlimit:10;stroke-width:1.149999976158142px"/><path d="M114.35734,212.88681a9.049,9.049,0,1,0,9.04893-9.07326" style="fill:none;stroke:#dab679;stroke-miterlimit:10;stroke-width:1.149999976158142px"/><line x1="90.72652" y1="208.35982" x2="86.99486" y2="208.35982" style="fill:none;stroke:#dab679;stroke-linecap:round;stroke-linejoin:round;stroke-width:0.5px"/><line x1="103.29209" y1="208.35982" x2="93.18899" y2="208.35982" style="fill:none;stroke:#dab679;stroke-linecap:round;stroke-linejoin:round;stroke-width:0.5px"/><line x1="118.60711" y1="184.94411" x2="118.60711" y2="188.67577" style="fill:none;stroke:#dab679;stroke-linecap:round;stroke-linejoin:round;stroke-width:0.5px"/><line x1="118.6071" y1="172.37856" x2="118.60711" y2="182.48164" style="fill:none;stroke:#dab679;stroke-linecap:round;stroke-linejoin:round;stroke-width:0.5px"/><line x1="463.43723" y1="203.81366" x2="446.47202" y2="196.10246" style="fill:none;stroke:#dab679;stroke-linecap:round;stroke-linejoin:round;stroke-width:1.149999976158142px"/><polyline points="463.437 203.814 446.472 175.386 446.472 232.176 463.437 203.814" style="fill:none;stroke:#dab679;stroke-linecap:round;stroke-linejoin:round;stroke-width:1.149999976158142px"/><line x1="463.43723" y1="203.81366" x2="446.47202" y2="213.84154" style="fill:none;stroke:#dab679;stroke-linecap:round;stroke-linejoin:round;stroke-width:1.149999976158142px"/><line x1="429.50656" y1="203.81366" x2="446.4718" y2="196.10246" style="fill:none;stroke:#dab679;stroke-linecap:round;stroke-linejoin:round;stroke-width:1.149999976158142px"/><line x1="446.4718" y1="232.17572" x2="429.50656" y2="203.81366" style="fill:none;stroke:#dab679;stroke-linecap:round;stroke-linejoin:round;stroke-width:1.149999976158142px"/><line x1="429.50656" y1="203.81366" x2="446.47189" y2="175.38593" style="fill:none;stroke:#dab679;stroke-linecap:round;stroke-linejoin:round;stroke-width:1.149999976158142px"/><line x1="429.50656" y1="203.81366" x2="446.4718" y2="213.84154" style="fill:none;stroke:#dab679;stroke-linecap:round;stroke-linejoin:round;stroke-width:1.149999976158142px"/><line x1="344.57629" y1="118.74672" x2="380.10095" y2="118.74672" style="fill:none;stroke:#dab679;stroke-miterlimit:10;stroke-width:1.149999976158142px"/><path d="M380.10092,118.74672h0a13.13,13.13,0,0,1,13.09149,13.09148" style="fill:none;stroke:#dab679;stroke-miterlimit:10;stroke-width:1.149999976158142px"/><line x1="393.19244" y1="131.8382" x2="393.19238" y2="212.91112" style="fill:none;stroke:#dab679;stroke-miterlimit:10;stroke-width:1.149999976158142px"/><line x1="384.16623" y1="203.81354" x2="429.50656" y2="203.81366" style="fill:none;stroke:#dab679;stroke-miterlimit:10;stroke-width:1.149999976158142px"/><path d="M393.19238,212.88681a9.049,9.049,0,1,1-9.04892-9.07326" style="fill:none;stroke:#dab679;stroke-miterlimit:10;stroke-width:1.149999976158142px"/><line x1="416.82321" y1="208.35982" x2="420.55487" y2="208.35982" style="fill:none;stroke:#dab679;stroke-linecap:round;stroke-linejoin:round;stroke-width:0.5px"/><line x1="404.25763" y1="208.35982" x2="414.36072" y2="208.35982" style="fill:none;stroke:#dab679;stroke-linecap:round;stroke-linejoin:round;stroke-width:0.5px"/><line x1="388.9426" y1="184.94411" x2="388.9426" y2="188.67577" style="fill:none;stroke:#dab679;stroke-linecap:round;stroke-linejoin:round;stroke-width:0.5px"/><line x1="388.94263" y1="172.37856" x2="388.9426" y2="182.48164" style="fill:none;stroke:#dab679;stroke-linecap:round;stroke-linejoin:round;stroke-width:0.5px"/></svg>