<?xml version="1.0" encoding="utf-8"?>
<!-- Generator: Adobe Illustrator 21.0.2, SVG Export Plug-In . SVG Version: 6.00 Build 0)  -->
<svg version="1.1" id="Layer_1" xmlns="http://www.w3.org/2000/svg" xmlns:xlink="http://www.w3.org/1999/xlink" x="0px" y="0px"
	 viewBox="0 0 504 374" style="enable-background:new 0 0 504 374;" xml:space="preserve">
<style type="text/css">
	.st0{fill:#FFFFFF;}
	.st1{fill:#DAB679;}
	.st2{fill:none;stroke:#DAB679;stroke-width:1.15;stroke-miterlimit:10;}
	.st3{opacity:4.000000e-02;fill:#042A3E;enable-background:new    ;}
	.st4{opacity:5.000000e-02;fill:#DAB679;enable-background:new    ;}
	.st5{opacity:0.15;fill:#DAB679;enable-background:new    ;}
</style>
<rect x="193.5" y="103" class="st0" width="23" height="10.5"/>
<circle class="st0" cx="206.2" cy="93.7" r="19.8"/>
<title>how-image2</title>
<polygon class="st1" points="188.2,269.6 188.2,258.9 178.6,258.9 "/>
<polygon class="st1" points="188.2,229.8 188.2,223 178.6,223 "/>
<polygon class="st1" points="188.2,194.7 188.2,187 178.6,187 "/>
<polygon class="st1" points="188.2,156.9 188.2,151.1 178.6,151.1 "/>
<path class="st2" d="M320.5,273.5l0-96.3c0-14.6,11.8-26.4,26.4-26.4h0l0,268.4"/>
<line class="st2" x1="347" y1="180" x2="333.8" y2="180"/>
<path class="st2" d="M279.3,338c0-27.1,22-49,49-49l0,0"/>
<path class="st0" d="M320.5,279.4v22.4c0,4.4-3.5,7.9-7.9,7.9l0,0H196.1c-4.4,0-7.9-3.5-7.9-7.9l0,0v-22.4"/>
<path class="st3" d="M320.5,185.3v116.6c0,4.4-3.5,7.9-7.9,7.9l0,0h-52.3c3.5,8.7,11.9,14.3,21.3,14.3H312c12.7,0,23-10.3,23-23v0
	v-94.5C335,197.2,329.3,188.8,320.5,185.3z"/>
<path class="st4" d="M320.8,280v21.8c0,4.4-3.5,7.9-7.9,7.9l0,0H196.4c-4.4,0-7.9-3.5-7.9-7.9l0,0V280"/>
<path class="st4" d="M188.5,73.5v-4.3c0-4.4,3.5-7.9,7.9-7.9h116.6c4.4,0,7.9,3.5,7.9,7.9v4.3H188.5z"/>
<line class="st2" x1="254.4" y1="-17.6" x2="254.4" y2="61.1"/>
<line class="st2" x1="188.2" y1="280" x2="320.5" y2="280"/>
<line class="st2" x1="188.2" y1="73.5" x2="320.5" y2="73.5"/>
<circle class="st1" cx="254.4" cy="295" r="6"/>
<circle class="st2" cx="254.4" cy="295" r="8.4"/>
<path class="st1" d="M241.1,66.2h26.5c0.6,0,1.1,0.5,1.1,1.1c0,0,0,0,0,0l0,0c0,0.6-0.5,1.1-1.1,1.1c0,0,0,0,0,0h-26.5
	c-0.6,0-1.1-0.5-1.1-1.1l0,0C240,66.7,240.5,66.2,241.1,66.2z"/>
<circle class="st2" cx="206.2" cy="91.7" r="10.3"/>
<circle class="st2" cx="206.2" cy="89.9" r="4.3"/>
<path class="st2" d="M202.9,93.3c-1.4,1-2.2,2.7-2.2,4.4v2.6"/>
<path class="st2" d="M209.1,93c1.6,1,2.6,2.8,2.6,4.7v2.6"/>
<line class="st2" x1="195.9" y1="105.8" x2="213.4" y2="105.8"/>
<line class="st2" x1="195.9" y1="109.2" x2="207.3" y2="109.2"/>
<path class="st5" d="M279.1,85.7c0.1,0.8,0.1,1.6,0,2.3c0,0.6-0.5,1.2-0.2,1.8c0.1,0.2,0.2,0.5,0.2,0.7c0,0.3-0.1,0.6-0.2,0.8
	c0,0.4,0.2,0.3,0.4,0.6c0.1,0.2,0.1,0.5,0.2,0.7c0.2,0.2,0.5,0.4,0.6,0.7c0.1,0.3,0.2,0.6,0.4,0.9c0.2,0.2,0.4,0.5,0.6,0.8
	c0.2,0.3,0.3,0.7,0.5,0.9c0.2,0.4,0.7,0.3,1,0.5c0.4,0.2,0.5,0.4,0.7,0.6c0.3,0.2,0.7,0.1,1.1,0.1c0.1,0,0.3,0,0.5,0
	c0.1,0,0.2,0.3,0.4,0.3c0.6,0.2,1.2,0.4,1.9,0.5c0.6,0.2,1.3,0.3,2,0.1c0-0.1,0-0.2,0-0.3c0.4-0.1,0.8-0.1,1.2,0
	c-0.2,0.5,0.8,0.9,1,1.2c0.2,0.4,0.1,0.7,0.7,0.7s0.7-0.6,1.3-0.3c0.3,0.2,0.5,0.6,0.7,0.9c0.2,0.2,0.4,0.4,0.5,0.6
	c0.1,0.2,0,0.5,0.2,0.7c0.2,0.2,0.5,0.3,0.8,0.3c0.2,0,0.2,0.1,0.3-0.1c0-0.2,0-0.5,0-0.7c0-0.6,0.5-0.8,0.9-1.2
	c0.4-0.3,0.9-0.5,1.4-0.6c0.5-0.1,1.1-0.1,1.6,0c0.4,0.1,0.9,0.6,1.3,0.2c-0.1-0.2-0.2-0.4-0.3-0.7c0.5-0.2,1.1,0.2,1.4-0.2
	c0.3,0.1,0.5,0.3,0.7,0.4c0.1,0,0.2,0,0.4,0c0.2,0,0.2,0.2,0.3,0.2c0.2,0.1,0.4,0.1,0.6,0c0.4-0.1,0.4-0.2,0.7,0.2
	c0.2,0.2,0.3,0.4,0.3,0.6c0,0.2-0.1,0.5-0.1,0.8c0.3,0.7,0.8,1.3,1.5,1.7c0.9-1.1-0.1-2.1-0.2-3.2c-0.1-0.4-0.1-0.7-0.2-1.1
	c0-0.5,0.2-0.6,0.4-0.9c0.3-0.4,0.6-0.7,1.1-0.9c0.4-0.2,0.8-0.5,1.1-0.8c0.1-0.1,0.2-0.4,0.2-0.5c0.1-0.1,0.3,0,0.4-0.1
	c0.4-0.2,0.2-0.6-0.2-0.5c-0.1-0.2,0.2-0.2,0.2-0.3c0-0.3,0-0.1-0.2-0.3c-0.1-0.1-0.2-0.3-0.2-0.4c0-0.4,0.1-0.2,0.3-0.2
	c0.1,0,0,0.2,0.2,0.2s0.2-0.3,0.3-0.5c0.1-0.2,0.2-0.5,0.3-0.7c0.1-0.3,0.3-0.4,0.5-0.7c0.2-0.2,0.1-0.6,0.2-0.8
	c0.1-0.2,0.2-0.2,0.4-0.3c0.3-0.2,0.8,0,1.1-0.2c0.4-0.2,0.2-0.7,0.2-1.1c0-0.5,0.2-1,0.7-1.3c0.6-0.3,2.1-0.1,1.7-1.1
	c-0.1-0.2-0.2-0.3-0.2-0.6c0-0.2,0-0.5-0.1-0.7c-0.1-0.4-0.7-0.7-1-0.5c-0.1,0.1-0.2,0.4-0.3,0.5c-0.2,0.2-0.3,0.4-0.3,0.6
	c-0.1,0.4-0.1,0.7-0.5,0.9c-0.5,0.2-1.1,0.2-1.6,0.1c-0.6,0-1.1,0.2-1.5,0.6c-0.2,0.2-0.3,0.5-0.5,0.6c-0.5,0.3-1.5-0.1-2,0.1
	c0.3,0.5,0.6,0.8,0,1.2c-0.4,0.2-1.6,0.6-1.8,0.2c-0.2-0.4,0.3-0.8,0.4-1.1c0.1-0.2,0.1-0.4,0.1-0.7c0-0.7-0.6-1-0.9-1.6
	c-0.1-0.1,0-0.2-0.1-0.4c-0.1-0.2-0.3-0.2-0.4-0.3c-0.2-0.2-0.4-0.6-0.6-0.8c-0.3-0.3-0.7-0.2-1.1-0.4c-0.2,0-0.2-0.2-0.4-0.2
	c-0.2-0.1-0.4-0.1-0.6-0.1c-0.4,0-0.8,0-1.1,0c-0.2-0.1-0.4-0.1-0.7-0.2c-0.1,0-0.3,0.1-0.4,0c-0.1,0-0.2-0.3-0.4-0.4
	c-0.3-0.1-0.5-0.1-0.8,0c0-0.1-0.2-0.5-0.3-0.5s-0.2,0.4-0.3,0.4c-0.1,0-0.2-0.2-0.3-0.2c-0.8,0.1-1.5,0.2-2.3,0.2h-15.2
	c0,0.2,0.2,0.3,0.1,0.4c-0.3,0.3-0.7-0.4-0.9,0.1C278.7,84.7,279,85.4,279.1,85.7z"/>
<path class="st2" d="M211.6,253.1h36.7c4.6,0,8.3,3.7,8.3,8.3v0c0,4.6-3.7,8.3-8.3,8.3h-36.7c-4.6,0-8.3-3.7-8.3-8.3v0
	C203.3,256.8,207,253.1,211.6,253.1z"/>
<path class="st1" d="M215.1,262.8l-0.5,1.6h-0.7l1.8-5.2h0.8l1.8,5.2h-0.7l-0.6-1.6H215.1z M216.8,262.3l-0.5-1.5
	c-0.1-0.3-0.2-0.6-0.3-0.9h0c-0.1,0.3-0.2,0.6-0.3,0.9l-0.5,1.5H216.8z"/>
<path class="st1" d="M219.7,259.3v3.1c0,1.2,0.5,1.7,1.2,1.7c0.8,0,1.3-0.5,1.3-1.7v-3.1h0.7v3c0,1.6-0.8,2.2-2,2.2
	c-1.1,0-1.9-0.6-1.9-2.2v-3H219.7z"/>
<path class="st1" d="M227.8,264.3c-0.4,0.2-0.9,0.3-1.4,0.2c-1.3,0.1-2.5-0.9-2.6-2.3c0-0.1,0-0.2,0-0.4c-0.1-1.4,1-2.6,2.4-2.7
	c0.1,0,0.2,0,0.3,0c0.4,0,0.8,0.1,1.2,0.2l-0.2,0.5c-0.3-0.1-0.7-0.2-1-0.2c-1.1-0.1-2,0.8-2,1.8c0,0.1,0,0.2,0,0.3
	c-0.1,1,0.6,2,1.7,2.1c0.1,0,0.2,0,0.3,0c0.4,0,0.7-0.1,1.1-0.2L227.8,264.3z"/>
<path class="st1" d="M230.1,259.8h-1.6v-0.6h3.8v0.6h-1.6v4.6h-0.7V259.8z"/>
<path class="st1" d="M233.8,259.3v5.2h-0.7v-5.2H233.8z"/>
<path class="st1" d="M239.7,261.8c0.2,1.3-0.8,2.5-2.1,2.7c-0.1,0-0.2,0-0.3,0c-1.3,0-2.4-1.1-2.3-2.4l0,0c0-0.1,0-0.1,0-0.2
	c-0.1-1.3,0.8-2.6,2.2-2.7h0c0.1,0,0.1,0,0.2,0c1.3,0,2.3,1.1,2.3,2.4C239.7,261.6,239.7,261.7,239.7,261.8z M235.7,261.9
	c0,1.1,0.6,2.1,1.6,2.1c1.1,0,1.7-1,1.7-2.1c0-1-0.5-2.1-1.6-2.1C236.2,259.7,235.7,260.7,235.7,261.9L235.7,261.9z"/>
<path class="st1" d="M240.8,264.4v-5.2h0.7l1.7,2.6c0.3,0.5,0.7,1.1,0.9,1.7l0,0c-0.1-0.7-0.1-1.3-0.1-2.1v-2.2h0.6v5.2h-0.7
	l-1.6-2.6c-0.4-0.6-0.7-1.1-1-1.7l0,0c0,0.7,0.1,1.3,0.1,2.1v2.2L240.8,264.4z"/>
<circle class="st1" cx="235.6" cy="67.3" r="1.3"/>
<path class="st5" d="M199,118.4c4,0,7.3,3.3,7.3,7.3l0,0V205c0,4-3.3,7.3-7.3,7.3l0,0h-10.8v-93.9H199z"/>
<path class="st5" d="M310,118.4c-4,0-7.3,3.3-7.3,7.3V205c0,4,3.3,7.3,7.3,7.3h10.8v-93.9H310z"/>
<path class="st2" d="M312.6,309.7H196.1c-4.4,0-7.9-3.5-7.9-11.8V65.3c0-0.5,3.5-4.1,7.9-4.1h116.6c4.4,0,7.9,3.5,7.9,7.9v232.7
	C320.5,306.2,317,309.7,312.6,309.7L312.6,309.7L312.6,309.7z"/>
<polyline class="st2" points="222.5,309.7 243.5,332.5 243.5,419.2 "/>
<path class="st0" d="M178,235.4h26.7c6.3,0,11.4,5.1,11.4,11.4l0,0c0,6.3-5.1,11.4-11.4,11.4H178L178,235.4z"/>
<line class="st2" x1="196.9" y1="235.8" x2="196.9" y2="247.1"/>
<line class="st2" x1="177.8" y1="258.3" x2="188.2" y2="269.6"/>
<path class="st2" d="M178,235.4h26.7c6.3,0,11.4,5.1,11.4,11.4l0,0c0,6.3-5.1,11.4-11.4,11.4H178L178,235.4z"/>
<path class="st0" d="M178,200.5h35.9c6.3,0,11.4,5.1,11.4,11.4l0,0c0,6.3-5.1,11.4-11.4,11.4H178V200.5z"/>
<line class="st2" x1="207.6" y1="200.8" x2="207.6" y2="212.1"/>
<line class="st2" x1="177.8" y1="223.3" x2="188.2" y2="229.8"/>
<path class="st2" d="M178,200.5h35.9c6.3,0,11.4,5.1,11.4,11.4l0,0c0,6.3-5.1,11.4-11.4,11.4H178V200.5z"/>
<path class="st0" d="M178,164h26.7c6.3,0,11.4,5.1,11.4,11.4l0,0c0,6.3-5.1,11.4-11.4,11.4H178L178,164z"/>
<line class="st2" x1="192.9" y1="164.4" x2="192.9" y2="175.6"/>
<line class="st2" x1="177.8" y1="186.9" x2="188.2" y2="194.7"/>
<path class="st2" d="M178,164h26.7c6.3,0,11.4,5.1,11.4,11.4l0,0c0,6.3-5.1,11.4-11.4,11.4H178L178,164z"/>
<path class="st0" d="M178,128.2h17.9c6.3,0,11.4,5.1,11.4,11.4l0,0c0,6.3-5.1,11.4-11.4,11.4H178L178,128.2z"/>
<line class="st2" x1="177.8" y1="151.1" x2="188.2" y2="156.9"/>
<path class="st2" d="M178,128.2h17.9c6.3,0,11.4,5.1,11.4,11.4l0,0c0,6.3-5.1,11.4-11.4,11.4H178L178,128.2z"/>
</svg>
