<svg xmlns="http://www.w3.org/2000/svg" viewBox="0 0 84.41838 77.76273"><title>ornament1</title><path d="M74.5571,24.46a6.83331,6.83331,0,0,0-9.03046-3.42441A8.53715,8.53715,0,0,0,61.2493,32.32333a10.66656,10.66656,0,0,0,14.10714,5.3469,13.32991,13.32991,0,0,0,6.68515-17.634c-3.7804-8.3939-12.17943-11.9231-22.04509-8.356C37.48247,19.82436,21.73812,44.40841.00961,43.99059" style="fill:none;stroke:#dab679;stroke-miterlimit:10"/><path d="M.00961,43.99059c21.72851.41783,37.47286-24.16623,59.98689-32.31034,9.86566-3.56711,18.26469-.03791,22.04509,8.356a13.32991,13.32991,0,0,1-6.68515,17.634,10.66656,10.66656,0,0,1-14.10714-5.3469,8.53715,8.53715,0,0,1,4.27735-11.28773A6.83331,6.83331,0,0,1,74.5571,24.46l-3.04082,2.18856s.18551-4.98406-1.57737-6.0184" style="fill:none;stroke:#dab679;stroke-miterlimit:10"/><path d="M47.83355,59.98151a6.3099,6.3099,0,0,0-8.32131-3.2329,7.88651,7.88651,0,0,0-4.043,10.4019,9.86625,9.86625,0,0,0,13.003,5.0551,12.33377,12.33377,0,0,0,6.31641-16.25489s-6.94652-17.86044-39.65554-15.604" style="fill:none;stroke:#dab679;stroke-miterlimit:10"/><circle cx="81.35402" cy="36.75519" r="2.56535" transform="translate(17.623 99.26741) rotate(-68.75999)" style="fill:none;stroke:#dab679;stroke-miterlimit:10"/><circle cx="30.88014" cy="26.7844" r="2.56511" transform="translate(-5.27156 45.86428) rotate(-68.76115)" style="fill:none;stroke:#dab679;stroke-miterlimit:10"/><circle cx="53.21213" cy="17.55208" r="2.56511" transform="translate(17.57577 60.7916) rotate(-68.76115)" style="fill:none;stroke:#dab679;stroke-miterlimit:10"/><circle cx="49.53434" cy="74.69684" r="2.56511" transform="translate(-38.03311 93.8073) rotate(-68.76115)" style="fill:none;stroke:#dab679;stroke-miterlimit:10"/><circle cx="66.04684" cy="49.8554" r="1.39841" transform="translate(14.62428 114.68955) rotate(-88.62795)" style="fill:#dab679"/><circle cx="46.96918" cy="60.3641" r="1.39841" transform="translate(-14.50227 105.87442) rotate(-88.62795)" style="fill:#dab679"/><path d="M59.287,11.93164a10.77493,10.77493,0,0,0,7.22245-9.90349l-5.7365-1.313s3.30383,7.11472,1.38072,9.69367" style="fill:none;stroke:#dab679;stroke-miterlimit:10"/></svg>