<svg xmlns="http://www.w3.org/2000/svg" viewBox="0 0 545.70302 51.36103"><title>ornament-line-navy</title><circle cx="3.13936" cy="14.49857" r="2.56535" transform="translate(-11.51165 12.17219) rotate(-68.75999)" style="fill:none;stroke:#042a3d;stroke-miterlimit:10;stroke-width:1.1500000000000001px"/><circle cx="53.61325" cy="24.46936" r="2.56512" transform="translate(11.38414 65.57692) rotate(-68.76115)" style="fill:none;stroke:#042a3d;stroke-miterlimit:10;stroke-width:1.1500000000000001px"/><circle cx="31.28126" cy="33.70168" r="2.56512" transform="translate(-11.4632 50.64961) rotate(-68.76115)" style="fill:none;stroke:#042a3d;stroke-miterlimit:10;stroke-width:1.1500000000000001px"/><circle cx="18.44654" cy="1.39835" r="1.39841" transform="translate(16.6069 19.80612) rotate(-88.62795)" style="fill:#042a3d"/><circle cx="3.14055" cy="46.81544" r="1.39841" transform="translate(-43.73666 48.83412) rotate(-88.62795)" style="fill:#042a3d"/><path d="M25.20641,39.32212A10.77493,10.77493,0,0,0,17.984,49.22561l5.7365,1.313s-3.30383-7.11472-1.38072-9.69368" style="fill:none;stroke:#042a3d;stroke-miterlimit:10;stroke-width:1.1500000000000001px"/><line x1="84.48379" y1="7.2579" x2="545.70302" y2="7.25786" style="fill:none;stroke:#042a3d;stroke-miterlimit:10;stroke-width:1.1500000000000001px"/><path d="M84.48379,7.26316C62.75527,6.84534,47.01092,31.4294,24.49688,39.57351c-9.86566,3.56711-18.2647.03791-22.0451-8.356a13.32992,13.32992,0,0,1,6.68515-17.634,10.66656,10.66656,0,0,1,14.10715,5.3469,8.53716,8.53716,0,0,1-4.27735,11.28773,6.83331,6.83331,0,0,1-9.03046-3.42441l3.04082-2.18856s-.18551,4.98406,1.57737,6.0184" style="fill:none;stroke:#042a3d;stroke-miterlimit:10;stroke-width:1.1500000000000001px"/></svg>