<svg xmlns="http://www.w3.org/2000/svg" viewBox="0 0 84.42006 77.76261"><title>ornament1-white</title><path d="M74.5571,24.46a6.83331,6.83331,0,0,0-9.03046-3.42441A8.53715,8.53715,0,0,0,61.2493,32.32333a10.66656,10.66656,0,0,0,14.105,5.34786l.00213-.001a13.32991,13.32991,0,0,0,6.6894-17.62455l-.00425-.00945c-3.7804-8.3939-12.17943-11.9231-22.04509-8.356C37.48247,19.82436,21.73812,44.40841.00961,43.99059" transform="translate(0 -0.00003)" style="fill:none;stroke:#fff;stroke-miterlimit:10"/><path d="M.00961,43.99059c21.72851.41783,37.47286-24.16623,59.98689-32.31034,9.86566-3.56711,18.26469-.03791,22.04509,8.356A13.32991,13.32991,0,0,1,75.36589,37.666l-.00945.00425a10.66656,10.66656,0,0,1-14.10618-5.34478l-.001-.00212a8.53715,8.53715,0,0,1,4.27735-11.28773A6.83331,6.83331,0,0,1,74.5571,24.46l-3.04082,2.18856s.18551-4.98406-1.57737-6.0184" transform="translate(0 -0.00003)" style="fill:none;stroke:#fff;stroke-miterlimit:10"/><path d="M47.83355,59.98151a6.3099,6.3099,0,0,0-8.31651-3.235l-.0048.00211a7.88651,7.88651,0,0,0-4.04686,10.39312l.00386.00878a9.86625,9.86625,0,0,0,13.003,5.0551,12.33377,12.33377,0,0,0,6.31641-16.25489s-6.94652-17.86044-39.65554-15.604" transform="translate(0 -0.00003)" style="fill:none;stroke:#fff;stroke-miterlimit:10"/><circle cx="81.35402" cy="36.75519" r="2.56535" transform="translate(17.623 99.26738) rotate(-68.75999)" style="fill:none;stroke:#fff;stroke-miterlimit:10"/><circle cx="30.88014" cy="26.7844" r="2.56511" transform="translate(-5.27155 45.86425) rotate(-68.76115)" style="fill:none;stroke:#fff;stroke-miterlimit:10"/><circle cx="53.21213" cy="17.55208" r="2.56511" transform="translate(17.57577 60.79157) rotate(-68.76115)" style="fill:none;stroke:#fff;stroke-miterlimit:10"/><circle cx="49.53434" cy="74.69684" r="2.56511" transform="translate(-38.03311 93.80726) rotate(-68.76115)" style="fill:none;stroke:#fff;stroke-miterlimit:10"/><circle cx="66.04684" cy="49.85541" r="1.39841" transform="translate(14.62427 114.68952) rotate(-88.62795)" style="fill:#fff"/><circle cx="46.96918" cy="60.36409" r="1.39841" transform="translate(-14.50226 105.87438) rotate(-88.62795)" style="fill:#fff"/><path d="M59.287,11.93164a10.77493,10.77493,0,0,0,7.22245-9.90349l-5.7365-1.313s3.30383,7.11472,1.38072,9.69367" transform="translate(0 -0.00003)" style="fill:none;stroke:#fff;stroke-miterlimit:10"/></svg>