<svg xmlns="http://www.w3.org/2000/svg" viewBox="0 0 545.70468 51.36106"><title>ornament-line-gold</title><circle cx="3.13936" cy="14.49856" r="2.56535" transform="translate(-11.50996 12.17226) rotate(-68.75999)" style="fill:none;stroke:#dab679;stroke-miterlimit:10;stroke-width:1.149999976158142px"/><circle cx="53.61326" cy="24.46936" r="2.56512" transform="translate(11.38582 65.577) rotate(-68.76115)" style="fill:none;stroke:#dab679;stroke-miterlimit:10;stroke-width:1.149999976158142px"/><circle cx="31.28125" cy="33.70168" r="2.56512" transform="translate(-11.46152 50.64967) rotate(-68.76115)" style="fill:none;stroke:#dab679;stroke-miterlimit:10;stroke-width:1.149999976158142px"/><circle cx="18.44654" cy="1.39835" r="1.39841" transform="translate(16.60858 19.80619) rotate(-88.62795)" style="fill:#dab679"/><circle cx="3.14056" cy="46.81544" r="1.39841" transform="translate(-43.73498 48.8342) rotate(-88.62795)" style="fill:#dab679"/><path d="M25.20641,39.32212A10.77493,10.77493,0,0,0,17.984,49.22561l5.7365,1.313s-3.30383-7.11472-1.38072-9.69368" transform="translate(0.00168 0.00007)" style="fill:none;stroke:#dab679;stroke-miterlimit:10;stroke-width:1.149999976158142px"/><line x1="84.48547" y1="7.25797" x2="545.70468" y2="7.25793" style="fill:none;stroke:#dab679;stroke-miterlimit:10;stroke-width:1.149999976158142px"/><path d="M84.48379,7.26316C62.75527,6.84534,47.01092,31.4294,24.49688,39.57351c-9.86566,3.56711-18.2647.03791-22.0451-8.356A13.32992,13.32992,0,0,1,9.1275,13.58776l.00943-.00425a10.66656,10.66656,0,0,1,14.10619,5.34476l.001.00214a8.53716,8.53716,0,0,1-4.27735,11.28773,6.83331,6.83331,0,0,1-9.03046-3.42441l3.04082-2.18856s-.18551,4.98406,1.57737,6.0184" transform="translate(0.00168 0.00007)" style="fill:none;stroke:#dab679;stroke-miterlimit:10;stroke-width:1.149999976158142px"/></svg>