<svg xmlns="http://www.w3.org/2000/svg" viewBox="0 0 158.70365 116.36607"><title>ornament3</title><circle cx="125.76978" cy="57.79895" r="3.38081" transform="translate(7.3576 129.474) rotate(-55.86826)" style="fill:none;stroke:#dab679;stroke-miterlimit:10"/><circle cx="141.31595" cy="112.48531" r="3.38173" transform="translate(-31.07484 166.37926) rotate(-55.87988)" style="fill:none;stroke:#dab679;stroke-miterlimit:10"/><path d="M141.59817,86.33769a12.76722,12.76722,0,0,1-17.67082,3.65411,15.95058,15.95058,0,0,1-4.56192-22.0869,19.92919,19.92919,0,0,1,27.60411-5.70352A24.90524,24.90524,0,0,1,154.10177,96.707c-9.45059,14.37115-25.98737,18.40485-43.1368,8.91364C71.83006,83.95424,50.03416,33.95393,9.823,28.3155" style="fill:none;stroke:#dab679;stroke-miterlimit:10"/><circle cx="53.11848" cy="14.33191" r="1.79492" transform="translate(30.54237 64.50457) rotate(-80.8732)" style="fill:#dab679"/><circle cx="125.76978" cy="57.79895" r="3.38081" transform="translate(7.3576 129.474) rotate(-55.86826)" style="fill:none;stroke:#dab679;stroke-miterlimit:10"/><circle cx="141.31595" cy="112.48531" r="3.38173" transform="translate(-31.07484 166.37926) rotate(-55.87988)" style="fill:none;stroke:#dab679;stroke-miterlimit:10"/><path d="M9.823,28.3155c40.21119,5.63843,62.0071,55.63873,101.142,77.30515,17.14942,9.4912,33.6862,5.4575,43.1368-8.91364a24.90524,24.90524,0,0,0-7.13223-34.50564,19.92919,19.92919,0,0,0-27.60411,5.70352,15.95058,15.95058,0,0,0,4.56192,22.0869,12.76722,12.76722,0,0,0,17.67082-3.65411L136.63358,81.403s-1.1279,9.25-4.68542,10.63832" style="fill:none;stroke:#dab679;stroke-miterlimit:10"/><path d="M92.45022,34.77121a28.08089,28.08089,0,0,1-8.20458,6.2789c-27.65677,14.42553-65.122,7.86637-83.871,29.084" style="fill:none;stroke:#dab679;stroke-miterlimit:10"/><circle cx="91.69341" cy="57.79991" r="1.79488" transform="translate(-0.69533 114.48176) rotate(-63.75544)" style="fill:#dab679"/><circle cx="65.81425" cy="83.99777" r="1.79488" transform="translate(-38.62788 105.88343) rotate(-63.75544)" style="fill:#dab679"/><circle cx="94.73151" cy="37.40486" r="3.38081" transform="translate(10.61603 94.83106) rotate(-55.86826)" style="fill:none;stroke:#dab679;stroke-miterlimit:10"/><path d="M92.45022,34.77121a20.70777,20.70777,0,0,0,2.441-27.70034A16.61275,16.61275,0,0,0,71.61489,3.8802a13.29033,13.29033,0,0,0-2.55247,18.62118,10.63216,10.63216,0,0,0,14.89688,2.042,8.50581,8.50581,0,0,0,1.63358-11.91756,6.80458,6.80458,0,0,0-9.534-1.3069" style="fill:none;stroke:#dab679;stroke-miterlimit:10"/><circle cx="77.36168" cy="12.92142" r="2.61389" transform="translate(7.92493 49.39511) rotate(-37.19438)" style="fill:#dab679"/></svg>