<svg xmlns="http://www.w3.org/2000/svg" xmlns:xlink="http://www.w3.org/1999/xlink" viewBox="0 0 18.02824 24.91503"><defs><clipPath id="a" transform="translate(0.00032 -0.00008)"><rect y="0.0005" width="18.028" height="24.915" style="fill:none"/></clipPath></defs><title>ornament2</title><g style="clip-path:url(#a)"><path d="M2.6184,21.2415a8.42032,8.42032,0,0,1,7.206-8.714,6.75563,6.75563,0,0,1,7.648,5.725,5.40434,5.40434,0,0,1-4.581,6.118,4.32247,4.32247,0,0,1-4.894-3.664,3.459,3.459,0,0,1,2.931-3.916,2.7682,2.7682,0,0,1,3.133,2.346" transform="translate(0.00032 -0.00008)" style="fill:none;stroke:#dab679;stroke-miterlimit:10"/><path d="M13.4563,20.6966a1.30482,1.30482,0,1,1,1.106-1.477,1.306,1.306,0,0,1-1.106,1.477" transform="translate(0.00032 -0.00008)" style="fill:#dab679"/><path d="M2.6184,3.6737a8.41963,8.41963,0,0,0,7.206,8.714,6.75491,6.75491,0,0,0,7.648-5.725,5.40488,5.40488,0,0,0-4.581-6.118,4.32247,4.32247,0,0,0-4.894,3.664,3.45842,3.45842,0,0,0,2.931,3.916,2.766,2.766,0,0,0,3.132-2.345" transform="translate(0.00032 -0.00008)" style="fill:none;stroke:#dab679;stroke-miterlimit:10"/><path d="M13.4563,4.2186a1.30483,1.30483,0,1,0,1.106,1.478,1.306,1.306,0,0,0-1.106-1.478" transform="translate(0.00032 -0.00008)" style="fill:#dab679"/><path d="M1.491,11.1659a1.30483,1.30483,0,1,0,1.106,1.478,1.306,1.306,0,0,0-1.106-1.478" transform="translate(0.00032 -0.00008)" style="fill:#dab679"/></g></svg>