<svg xmlns="http://www.w3.org/2000/svg" viewBox="0 0 335.24664 335.24799"><title>token-image2a</title><path d="M291.00095,130.66054a4.63683,4.63683,0,0,0-4.82333-3.98625l-26.97586.00048a4.65569,4.65569,0,0,0-4.84993,3.98577,3.61654,3.61654,0,0,0,3.06435,4.09494l.0007.00011a2.77089,2.77089,0,0,0,3.13718-2.348,2.09651,2.09651,0,0,0-1.77457-2.371,1.55717,1.55717,0,0,0-1.75778,1.31564,1.10868,1.10868,0,0,0,.14526.71983,1.10905,1.10905,0,1,1,.67767,1.75929c-.01666-.00108-.03207.00516-.04886.00264a2.349,2.349,0,0,1-1.98857-2.65622,2.784,2.784,0,0,1,3.1468-2.35576,3.30429,3.30429,0,0,1,.82245.23311h25.79626a3.3296,3.3296,0,0,1,.82611-.23311,2.78244,2.78244,0,0,1,3.14655,2.35571,2.34557,2.34557,0,0,1-1.98718,2.656l-.00137.0002-.00439-.00024c-.011.00192-.02094.00635-.03207.008a1.10327,1.10327,0,1,1,.68454-1.80075,1.10688,1.10688,0,0,0,.126-.68874,1.55238,1.55238,0,0,0-1.75751-1.31566l-.00006,0a2.094,2.094,0,0,0-1.7746,2.37074l0,.00026a2.77047,2.77047,0,0,0,3.13647,2.34808l.00052-.00008A3.62121,3.62121,0,0,0,291.00095,130.66054Z" style="fill:#0c435b"/><path d="M261.54681,130.84142a3.29563,3.29563,0,0,1,.22247,1.7406,3.99793,3.99793,0,0,1-.0993.46748h22.01361a4.00978,4.00978,0,0,1-.09872-.46748,3.29642,3.29642,0,0,1,.22061-1.7406Z" style="fill:#0c435b"/><path d="M287.39386,124.75785v-2.99616H257.9584v2.99616c0,.02618.00616.05068.00769.07645h29.42007C287.3877,124.80853,287.39386,124.784,287.39386,124.75785Z" style="fill:#0c435b"/><path d="M220.97389,184.10616a4.63683,4.63683,0,0,0-4.82333-3.98625l-26.97586.00047a4.6557,4.6557,0,0,0-4.84993,3.98576,3.61654,3.61654,0,0,0,3.06433,4.09494l.00073.00011a2.77086,2.77086,0,0,0,3.13719-2.348,2.09651,2.09651,0,0,0-1.77457-2.371,1.55717,1.55717,0,0,0-1.7578,1.31564,1.10867,1.10867,0,0,0,.14525.71983,1.10906,1.10906,0,1,1,.67766,1.75929c-.01666-.00108-.03207.00516-.04886.00264a2.349,2.349,0,0,1-1.98857-2.65622,2.784,2.784,0,0,1,3.14677-2.35571,3.30422,3.30422,0,0,1,.82246.23311h25.79626a3.32953,3.32953,0,0,1,.82613-.23311,2.78243,2.78243,0,0,1,3.14655,2.35571,2.34556,2.34556,0,0,1-1.9872,2.656l-.00137.0002-.00439-.00024c-.011.00192-.02094.00635-.03207.008a1.10327,1.10327,0,1,1,.68455-1.80075,1.10688,1.10688,0,0,0,.126-.68874,1.55236,1.55236,0,0,0-1.75751-1.31564h0a2.094,2.094,0,0,0-1.7746,2.37074l0,.00026a2.77046,2.77046,0,0,0,3.13646,2.34808l.00053-.00008A3.62122,3.62122,0,0,0,220.97389,184.10616Z" style="fill:#0c435b"/><path d="M191.51974,184.287a3.29563,3.29563,0,0,1,.22247,1.7406,4.001,4.001,0,0,1-.0993.46748h22.01363a4.00976,4.00976,0,0,1-.09872-.46748,3.29642,3.29642,0,0,1,.22063-1.7406Z" style="fill:#0c435b"/><path d="M217.36682,178.20348v-2.99615H187.93137v2.99615c0,.02618.00616.05067.00771.07645h29.42006C217.36066,178.25417,217.36682,178.22964,217.36682,178.20348Z" style="fill:#0c435b"/><path d="M150.93333,130.66054a4.63682,4.63682,0,0,0-4.82333-3.98625l-26.97586.00048a4.6557,4.6557,0,0,0-4.84993,3.98577,3.61654,3.61654,0,0,0,3.06434,4.09494l.00072.00011a2.77086,2.77086,0,0,0,3.13719-2.348,2.09651,2.09651,0,0,0-1.77457-2.371,1.55717,1.55717,0,0,0-1.7578,1.31564,1.10862,1.10862,0,0,0,.14525.71983,1.10906,1.10906,0,1,1,.67766,1.75929c-.01666-.00108-.03208.00516-.04886.00264a2.349,2.349,0,0,1-1.98857-2.65622,2.784,2.784,0,0,1,3.14678-2.35571,3.30417,3.30417,0,0,1,.82246.23311h25.79626a3.32953,3.32953,0,0,1,.82613-.23311,2.78243,2.78243,0,0,1,3.14655,2.35571,2.34556,2.34556,0,0,1-1.9872,2.656l-.00137.0002-.00439-.00024c-.011.00192-.02094.00635-.03207.008a1.10327,1.10327,0,1,1,.68456-1.80075,1.10688,1.10688,0,0,0,.126-.68874,1.55236,1.55236,0,0,0-1.75751-1.31564h0a2.094,2.094,0,0,0-1.7746,2.37074l0,.00026a2.77046,2.77046,0,0,0,3.13646,2.34808l.00053-.00008A3.62121,3.62121,0,0,0,150.93333,130.66054Z" style="fill:#0c435b"/><path d="M121.47919,130.84142a3.29571,3.29571,0,0,1,.22248,1.7406,4.00257,4.00257,0,0,1-.0993.46748H143.616a4.00978,4.00978,0,0,1-.09872-.46748,3.29643,3.29643,0,0,1,.22063-1.7406Z" style="fill:#0c435b"/><path d="M147.32626,124.75785v-2.99616H117.89081v2.99616c0,.02618.00617.05068.0077.07645h29.42007C147.3201,124.80853,147.32626,124.784,147.32626,124.75785Z" style="fill:#0c435b"/><path d="M80.89278,101.23846a4.63681,4.63681,0,0,0-4.82333-3.98625l-26.97586.00048a4.6557,4.6557,0,0,0-4.84993,3.98577A3.61653,3.61653,0,0,0,47.308,105.3334l.00072.00011a2.77087,2.77087,0,0,0,3.13719-2.348,2.09651,2.09651,0,0,0-1.77457-2.371,1.55717,1.55717,0,0,0-1.75779,1.31565,1.10862,1.10862,0,0,0,.14525.71983,1.10906,1.10906,0,1,1,.67766,1.75929c-.01666-.00108-.03208.00515-.04886.00264A2.349,2.349,0,0,1,45.699,101.7557,2.784,2.784,0,0,1,48.8458,99.4a3.30382,3.30382,0,0,1,.82246.23311H75.46452A3.32956,3.32956,0,0,1,76.29064,99.4a2.78243,2.78243,0,0,1,3.14654,2.35571,2.34557,2.34557,0,0,1-1.9872,2.656l-.00137.0002-.0044-.00024c-.011.00192-.02094.00635-.03208.008a1.10327,1.10327,0,1,1,.68455-1.80075,1.1069,1.1069,0,0,0,.126-.68874,1.55237,1.55237,0,0,0-1.7575-1.31566h-.00006a2.094,2.094,0,0,0-1.7746,2.37075l0,.00025a2.77045,2.77045,0,0,0,3.13647,2.34808l.00053-.00008A3.62121,3.62121,0,0,0,80.89278,101.23846Z" style="fill:#0c435b"/><path d="M51.43864,101.41933a3.29566,3.29566,0,0,1,.22248,1.7406,4.00083,4.00083,0,0,1-.0993.46749H73.57544a4.00993,4.00993,0,0,1-.09873-.46749,3.29641,3.29641,0,0,1,.22062-1.7406Z" style="fill:#0c435b"/><path d="M77.28571,95.33576V92.3396H47.85025v2.99616c0,.02618.00617.05068.0077.07645h29.42C77.27954,95.38645,77.28571,95.36194,77.28571,95.33576Z" style="fill:#0c435b"/><path d="M261.6698,133.04956V281.3501h22.01367V133.04956Zm7.23,142.28723a.72461.72461,0,0,1-1.44922,0V137.33a.72461.72461,0,0,1,1.44922,0Zm4.501,0a.72461.72461,0,0,1-1.44922,0V137.33a.72461.72461,0,0,1,1.44922,0Zm4.501,0a.72461.72461,0,0,1-1.44922,0V137.33a.72461.72461,0,0,1,1.44922,0Z" style="fill:#0c435b"/><path d="M121.60841,133.04956V281.3501h22.01367V133.04956Zm7.23,142.28723a.72461.72461,0,0,1-1.44922,0V137.33a.72461.72461,0,0,1,1.44922,0Zm4.501,0a.72461.72461,0,0,1-1.44922,0V137.33a.72461.72461,0,0,1,1.44922,0Zm4.501,0a.72461.72461,0,0,1-1.44922,0V137.33a.72461.72461,0,0,1,1.44922,0Z" style="fill:#0c435b"/><path d="M51.56179,101.48722V281.3501H73.57546V101.48722Zm7.23,173.84957a.72461.72461,0,0,1-1.44922,0V105.76761a.72461.72461,0,0,1,1.44922,0Zm4.501,0a.72461.72461,0,0,1-1.44922,0V105.76761a.72461.72461,0,0,1,1.44922,0Zm4.501,0a.72461.72461,0,0,1-1.44922,0V105.76761a.72461.72461,0,0,1,1.44922,0Z" style="fill:#0c435b"/><path d="M191.64226,184.287v97.0631h22.01367V184.287Zm7.23,91.04976a.72461.72461,0,0,1-1.44922,0V188.56743a.72461.72461,0,0,1,1.44922,0Zm4.501,0a.72461.72461,0,0,1-1.44922,0V188.56743a.72461.72461,0,0,1,1.44922,0Zm4.501,0a.72461.72461,0,0,1-1.44922,0V188.56743a.72461.72461,0,0,1,1.44922,0Z" style="fill:#0c435b"/></svg>