<svg xmlns="http://www.w3.org/2000/svg" viewBox="0 0 335.24664 335.24799"><title>token-image3a</title><polyline points="136.462 340.712 164.362 292.374 164.362 227.203 131.668 227.203 131.668 283.616 104.317 331.002" style="fill:#0c435b"/><polyline points="200.778 340.712 172.879 292.374 172.879 227.203 205.573 227.203 205.573 283.616 232.924 331.002" style="fill:#0c435b"/><path d="M182.47,63.3446h10.33884a9.60984,9.60984,0,0,1-9.58165,9.58169h5.65919a9.60978,9.60978,0,0,1-9.5816,9.58169H154.93309l17.2325.00022a9.60983,9.60983,0,0,1-9.58165,9.58169L13.18712,92.08963V53.76287h178.8632A9.60994,9.60994,0,0,1,182.47,63.3446Z" style="fill:#042a3e"/><path d="M151.80266,54.39416l30.666.00012a9.60985,9.60985,0,0,0,9.58162-9.58168h0l-52.93118-.0001" style="fill:none;stroke:#dab679;stroke-miterlimit:10;stroke-width:1.149999976158142px"/><line x1="181.48122" y1="44.81259" x2="181.48122" y2="49.60337" style="fill:none;stroke:#dab679;stroke-miterlimit:10;stroke-width:1.149999976158142px"/><path d="M145.08772,73.55761l34.217.00012a9.60985,9.60985,0,0,0,9.58162-9.58168h0L148.63869,63.976" style="fill:none;stroke:#dab679;stroke-miterlimit:10;stroke-width:1.149999976158142px"/><line x1="178.31728" y1="63.97604" x2="178.31729" y2="68.76682" style="fill:none;stroke:#dab679;stroke-miterlimit:10;stroke-width:1.149999976158142px"/><path d="M16.80678,92.08973l145.77714.00014a9.60985,9.60985,0,0,0,9.58162-9.58168h0L143.66,82.50808" style="fill:none;stroke:#dab679;stroke-miterlimit:10;stroke-width:1.149999976158142px"/><line x1="161.59645" y1="82.50818" x2="161.59647" y2="87.29896" style="fill:none;stroke:#dab679;stroke-miterlimit:10;stroke-width:1.149999976158142px"/><path d="M149.01018,63.97583l34.217.00012a9.60985,9.60985,0,0,0,9.58162-9.58168h0l-43.79868-.00009" style="fill:none;stroke:#dab679;stroke-miterlimit:10;stroke-width:1.149999976158142px"/><line x1="182.23972" y1="54.39426" x2="182.23973" y2="59.18505" style="fill:none;stroke:#dab679;stroke-miterlimit:10;stroke-width:1.149999976158142px"/><polygon points="136.771 96.55 136.802 -0.758 200.905 -0.731 200.874 96.578 168.816 109.843 136.771 96.55" style="fill:#0c435b"/><path d="M150.15852,29.00743h.98438l1.59277,4.25684h-1.041l-.28223-.79395h-1.5293l-.27637.79395h-1.041Zm1.001,2.68652-.51758-1.49561-.50586,1.49561Z" style="fill:#dab679"/><path d="M154.1429,29.00743h1.93848a1.328,1.328,0,0,1,1.42676,1.36328c0,.88574-.47168,1.46094-1.77148,1.46094h-.627v1.43262h-.9668Zm1.74316,2.05371a.58642.58642,0,0,0,.64453-.63281.59766.59766,0,0,0-.55524-.63727q-.02168-.00149-.0434-.0014h-.82227v1.27148Z" style="fill:#dab679"/><path d="M159.02083,29.00743h1.93848a1.328,1.328,0,0,1,1.42676,1.36328c0,.88574-.47168,1.46094-1.77148,1.46094h-.627v1.43262h-.9668Zm1.74316,2.05371a.58642.58642,0,0,0,.64453-.63281.59766.59766,0,0,0-.55524-.63727q-.02168-.00149-.0434-.0014h-.82227v1.27148Z" style="fill:#dab679"/><path d="M163.89876,29.00743h1.94434a1.287,1.287,0,0,1,1.42676,1.2998,1.20822,1.20822,0,0,1-1.001,1.31738,1.89959,1.89959,0,0,1,.36816.39111l1.01855,1.24854h-1.15039l-.78809-.97217c-.44336-.54053-.5127-.56934-.7998-.56934h-.05176v1.5415h-.9668Zm1.749,1.94434c.44824,0,.64453-.22461.64453-.5752a.55771.55771,0,0,0-.60449-.58691h-.82227v1.16211Z" style="fill:#dab679"/><path d="M168.74251,31.1417a2.08191,2.08191,0,1,1,0,.19652Q168.73786,31.24,168.74251,31.1417Zm3.18164-.00586c0-.83984-.4375-1.39209-1.09961-1.39209-.65527,0-1.10449.55225-1.10449,1.39209,0,.8457.44922,1.39209,1.10449,1.39209C171.48665,32.52793,171.92415,31.98155,171.92415,31.13584Z" style="fill:#dab679"/><path d="M174.00227,29.00743h1.041l.98926,3.02588,1.001-3.02588h1.041l-1.57031,4.25684h-.93164Z" style="fill:#dab679"/><path d="M179.48177,29.00743h3.01465v.78223h-2.04785V30.693h1.92676v.76514h-1.92676V32.482H182.554v.78223h-3.07227Z" style="fill:#dab679"/><path d="M184.20151,29.00743h1.69727a2.13079,2.13079,0,0,1,0,4.25684h-1.69727ZM185.8812,32.482c.63281,0,1.07031-.53516,1.07031-1.34619,0-.80518-.4375-1.34619-1.07031-1.34619h-.71289V32.482Z" style="fill:#dab679"/><polyline points="164.863 19.475 166.716 21.572 171.791 13.367" style="fill:none;stroke:#dab679;stroke-miterlimit:10;stroke-width:1.149999976158142px"/><path d="M174.89587,47.223a17.08274,17.08274,0,0,1,9.01407,9.01407" style="fill:none;stroke:#dab679;stroke-miterlimit:10;stroke-width:1.149999976158142px"/><path d="M152.744,56.237a17.08277,17.08277,0,0,1,9.014-9.014,16.76258,16.76258,0,0,1,6.56889-1.33493h0" style="fill:none;stroke:#dab679;stroke-miterlimit:10;stroke-width:1.149999976158142px"/><path d="M156.37868,90.60831a17.03607,17.03607,0,0,1-3.6347-5.37937A16.76255,16.76255,0,0,1,151.409,78.66V62.80593" style="fill:none;stroke:#dab679;stroke-miterlimit:10;stroke-width:1.149999976158142px"/><path d="M185.24487,62.80593V78.66a16.76269,16.76269,0,0,1-1.33493,6.56891,17.08274,17.08274,0,0,1-9.01407,9.01407,16.76265,16.76265,0,0,1-6.56889,1.33493h0a16.76267,16.76267,0,0,1-6.569-1.33492" style="fill:none;stroke:#dab679;stroke-miterlimit:10;stroke-width:1.149999976158142px"/><path d="M176.91879,87.2521a12.16335,12.16335,0,0,1-19.79156-3.86471" style="fill:none;stroke:#dab679;stroke-miterlimit:10;stroke-width:1.149999976158142px"/><path d="M180.4834,62.806V78.65985a12.09071,12.09071,0,0,1-.95683,4.72754" style="fill:none;stroke:#dab679;stroke-miterlimit:10;stroke-width:1.149999976158142px"/><path d="M163.59959,51.6063a12.17534,12.17534,0,0,1,15.927,6.47236" style="fill:none;stroke:#dab679;stroke-miterlimit:10;stroke-width:1.149999976158142px"/><path d="M156.17039,78.65985V62.806a12.11873,12.11873,0,0,1,3.56461-8.59191" style="fill:none;stroke:#dab679;stroke-miterlimit:10;stroke-width:1.149999976158142px"/><path d="M160.93178,62.806a7.39512,7.39512,0,1,1,14.79024,0h0v7.92694" style="fill:none;stroke:#dab679;stroke-miterlimit:10;stroke-width:1.149999976158142px"/><path d="M175.722,74.69638v3.96347a7.39512,7.39512,0,1,1-14.79024,0V66.76944" style="fill:none;stroke:#dab679;stroke-miterlimit:10;stroke-width:1.149999976158142px"/><path d="M170.96062,70.73291v7.92694a2.64121,2.64121,0,0,1-1.60951,2.42676" style="fill:none;stroke:#dab679;stroke-miterlimit:10;stroke-width:1.149999976158142px"/><path d="M165.69318,62.806a2.63372,2.63372,0,1,1,5.26744,0v3.96347" style="fill:none;stroke:#dab679;stroke-miterlimit:10;stroke-width:1.149999976158142px"/><path d="M167.30269,81.08661a2.63425,2.63425,0,0,1-1.60951-2.42676V66.76944" style="fill:none;stroke:#dab679;stroke-miterlimit:10;stroke-width:1.149999976158142px"/><path d="M52.08659,53.76291H85.68774c2.1733,0,10.1474-.54381,12.05676-1.58189L119.445,40.38288l41.10508.00019h0a9.58278,9.58278,0,0,1-9.55481,9.55467l-16.61008-.00014-3.69228,8.00046-5.17715,4.37933" style="fill:#042a3e"/><line x1="150.01067" y1="40.38302" x2="150.01067" y2="45.16033" style="fill:none;stroke:#dab679;stroke-miterlimit:10;stroke-width:1.149999976158142px"/><path d="M116.64635,64.84943a17.73882,17.73882,0,0,0,17.73885-17.73879v0" style="fill:none;stroke:#dab679;stroke-miterlimit:10;stroke-width:1.149999976158142px"/><path d="M134.38519,49.9376l16.61009.00016a9.58278,9.58278,0,0,0,9.55481-9.55467h0L119.445,40.38288,97.7445,52.181c-1.90935,1.03808-9.88345,1.58189-12.05676,1.58189H13.1871" style="fill:none;stroke:#dab679;stroke-miterlimit:10;stroke-width:1.149999976158142px"/></svg>