<svg xmlns="http://www.w3.org/2000/svg" viewBox="0 0 335.28253 335.28394"><title>token-image4</title><line x1="45.20526" y1="281.28833" x2="290.08212" y2="281.28833" style="fill:none;stroke:#dab679;stroke-miterlimit:10;stroke-width:1.149999976158142px"/><rect x="97.47681" y="94.2907" width="140.32892" height="203.38303" rx="6.47006" ry="6.47006" style="fill:#0c435b"/><rect x="102.45614" y="110.80853" width="130.37025" height="161.32129" style="fill:#042a3e"/><circle cx="167.64127" cy="284.36313" r="6.90884" style="fill:#042a3e"/><path d="M144.18248,100.332h46.91757a.9915.9915,0,0,1,.9915.9915h0a.9915.9915,0,0,1-.9915.9915H144.18248a.9915.9915,0,0,1-.9915-.9915h0a.9915.9915,0,0,1,.9915-.9915Z" style="fill:#042a3e"/><rect x="141.33566" y="246.81117" width="52.61119" height="13.53999" rx="6.76997" ry="6.76997" style="fill:none;stroke:#dab679;stroke-miterlimit:10;stroke-width:1.149999976158142px"/><path d="M148.11943,251.86812h1.93848a1.328,1.328,0,0,1,1.42676,1.36328c0,.88574-.47168,1.46094-1.77148,1.46094h-.627V256.125h-.9668Zm1.74316,2.05371a.58642.58642,0,0,0,.64453-.63281.59766.59766,0,0,0-.55524-.63727h0q-.02165-.00149-.0434-.0014h-.82227v1.27148Z" style="fill:#dab679"/><path d="M152.99736,251.86812h.9668v2.49072c0,.67334.34473.98389.85645.98389.5293,0,.86328-.31055.86328-.98389v-2.49072h.9668v2.6001a1.83034,1.83034,0,0,1-3.65332,0Z" style="fill:#dab679"/><path d="M158.42021,251.86812h1.94434a1.287,1.287,0,0,1,1.42676,1.2998,1.20822,1.20822,0,0,1-1.001,1.31738,1.89951,1.89951,0,0,1,.36816.39111L162.177,256.125h-1.15039l-.78809-.97217c-.44336-.54053-.5127-.56934-.7998-.56934H159.387v1.5415h-.9668Zm1.749,1.94434c.44824,0,.64453-.22461.64453-.5752a.55776.55776,0,0,0-.60449-.58691H159.387v1.16211Z" style="fill:#dab679"/><path d="M167.07256,255.18159a1.78483,1.78483,0,0,1-1.74316,1.001,1.94751,1.94751,0,0,1-2.06543-2.17432,1.97038,1.97038,0,0,1,2.02441-2.19775,1.70112,1.70112,0,0,1,1.7666,1.168l-.86914.34521a.89408.89408,0,0,0-.91992-.71924c-.65625,0-1.02441.5293-1.02441,1.39209,0,.8457.42578,1.39209,1.09375,1.39209a.93943.93943,0,0,0,.8916-.59229Z" style="fill:#dab679"/><path d="M168.62334,251.86812h.9668v1.68555h1.7373v-1.68555h.96582V256.125h-.96582v-1.78906h-1.7373V256.125h-.9668Z" style="fill:#dab679"/><path d="M175.29521,251.86812h.98438l1.59277,4.25685h-1.041l-.28223-.79395h-1.5293l-.27637.79395h-1.041Zm1.001,2.68652-.51758-1.49561-.50586,1.49561Z" style="fill:#dab679"/><path d="M179.94658,254.70406a.77535.77535,0,0,0,.84067.704l.02261-.00233c.43164,0,.65625-.19531.65625-.43115,0-.86865-2.3418-.32227-2.3418-1.84082a1.32432,1.32432,0,0,1,1.49609-1.32324c1.14453,0,1.65625.55811,1.7373,1.42676h-.93848a.70316.70316,0,0,0-.75171-.651h0l-.01294.00105c-.4082,0-.56348.207-.56348.44287,0,.81689,2.34668.25293,2.34668,1.875,0,.771-.60937,1.27734-1.58789,1.27734-1.19043,0-1.77148-.46045-1.835-1.47852Z" style="fill:#dab679"/><path d="M184.08916,251.86812h3.01465v.78223H185.056v.90332h1.92676v.76514H185.056v1.02393h2.10547v.78224H184.0892Z" style="fill:#dab679"/></svg>