<?xml version="1.0" encoding="utf-8"?>
<!-- Generator: Adobe Illustrator 21.0.2, SVG Export Plug-In . SVG Version: 6.00 Build 0)  -->
<svg version="1.1" id="Layer_1" xmlns="http://www.w3.org/2000/svg" xmlns:xlink="http://www.w3.org/1999/xlink" x="0px" y="0px"
	 viewBox="0 0 88.1 369.1" style="enable-background:new 0 0 88.1 369.1;" xml:space="preserve">
<style type="text/css">
	.st0{fill:none;stroke:#DAB679;stroke-width:1.15;stroke-miterlimit:10;}
	.st1{fill:none;stroke:#DAB679;stroke-width:1.15;stroke-miterlimit:10;stroke-dasharray:4.5622,4.5622;}
	.st2{fill:#DAB679;}
	.st3{fill:none;stroke:#DAB679;stroke-miterlimit:10;}
</style>
<title>token-ornament-top_1</title>
<circle class="st0" cx="44" cy="299.5" r="43.5"/>
<circle class="st1" cx="44" cy="299.5" r="37.8"/>
<path class="st0" d="M30.5,233.9c6.7-0.3,12.5,4.5,13.4,11.1c0.8,5.7-3.1,11-8.8,11.8h0c-4.5,0.7-8.8-2.5-9.4-7.1
	c-0.5-3.6,2-7,5.6-7.5c0,0,0,0,0,0c2.9-0.4,5.6,1.6,6,4.5c0,0,0,0,0,0c0.3,2.3-1.3,4.5-3.6,4.8c0,0,0,0,0,0"/>
<ellipse transform="matrix(0.9898 -0.1423 0.1423 0.9898 -35.28 7.2955)" class="st2" cx="33.4" cy="250.2" rx="2" ry="2"/>
<path class="st0" d="M57.6,233.9c-6.7-0.3-12.5,4.5-13.4,11.1c-0.8,5.7,3.1,11,8.8,11.8h0c4.5,0.7,8.8-2.5,9.4-7.1
	c0.5-3.6-2-7-5.6-7.5c0,0,0,0,0,0c-2.9-0.4-5.6,1.6-6,4.5c0,0,0,0,0,0c-0.3,2.3,1.3,4.5,3.6,4.8c0,0,0,0,0,0"/>
<ellipse transform="matrix(0.1423 -0.9898 0.9898 0.1423 -200.7422 268.8115)" class="st2" cx="54.7" cy="250.2" rx="2" ry="2"/>
<ellipse transform="matrix(0.1423 -0.9898 0.9898 0.1423 -191.6978 242.4381)" class="st2" cx="44" cy="231.8" rx="2" ry="2"/>
<ellipse transform="matrix(0.1423 -0.9898 0.9898 0.1423 -325.6059 358.4671)" class="st2" cx="44" cy="367.1" rx="2" ry="2"/>
<path class="st0" d="M57.6,365.1c-6.7,0.3-12.5-4.5-13.4-11.1c-0.8-5.7,3.1-11,8.8-11.8c0,0,0,0,0,0c4.5-0.7,8.8,2.5,9.4,7.1
	c0.5,3.6-2,7-5.6,7.5c0,0,0,0,0,0c-2.9,0.4-5.6-1.6-6-4.5c-0.3-2.3,1.3-4.5,3.6-4.8"/>
<ellipse transform="matrix(0.9898 -0.1423 0.1423 0.9898 -49.0795 11.3427)" class="st2" cx="54.7" cy="348.7" rx="2" ry="2"/>
<path class="st0" d="M30.5,365.1c6.7,0.3,12.5-4.5,13.4-11.1c0.8-5.7-3.1-11-8.8-11.8c-4.5-0.7-8.8,2.5-9.4,7.1c0,0,0,0,0,0
	c-0.5,3.6,2,7,5.6,7.5c2.9,0.4,5.6-1.6,6-4.5l0,0c0.3-2.3-1.3-4.5-3.6-4.8c0,0,0,0,0,0"/>
<ellipse transform="matrix(0.1423 -0.9898 0.9898 0.1423 -316.5768 332.1063)" class="st2" cx="33.4" cy="348.7" rx="2" ry="2"/>
<polyline class="st0" points="27.7,282 63.1,282 63.1,302.5 39.6,302.5 "/>
<line class="st0" x1="39.6" y1="282" x2="39.6" y2="318.8"/>
<line class="st0" x1="27.7" y1="318.7" x2="43.2" y2="318.7"/>
<line class="st0" x1="31.3" y1="282" x2="31.3" y2="318.8"/>
<line class="st3" x1="44" y1="232.9" x2="44" y2="0"/>
</svg>
