<svg xmlns="http://www.w3.org/2000/svg" viewBox="0 0 335.24664 335.24799"><title>token-image1</title><path d="M126.17617,57.37785c.29008.02032.52291.413.76377.75076a.56735.56735,0,0,1-.01748.59008,4.08031,4.08031,0,0,1-.6073.83692c-1.12556,1.03184-2.34347,1.88127-3.439,3.0112-.96984,1.00026-1.94329,1.884-1.48545,3.994A4.10143,4.10143,0,0,1,118.489,71.03c-1.07409.31435-1.45359.90842-1.42519,2.25107a3.79645,3.79645,0,0,1-.4297,1.40724c-.12144.27882-.4001.38989-.55958.22294a5.74763,5.74763,0,0,0-.67238-.63,3.65188,3.65188,0,0,0-.51264-.3064c-.24942-.12688-.57159.20865-.54467.56456a3.14414,3.14414,0,0,1-.00793.64357,2.27705,2.27705,0,0,1-.49968,1.26914,7.5373,7.5373,0,0,1-1.89536.77957c-3.343,1.07741-6.72322,2.24314-10.121,3.15238-2.28626.60446-3.46262,3.011-4.8253,4.815-1.3932,1.82711-1.89677,2.24321-3.539,1.44432-3.33263-1.64-5.21864-3.94617-4.24972-9.22549.28083-1.527-.90417-2.77026,1.544-3.672a.47074.47074,0,0,0,.17209-.19122.445.445,0,0,0-.00577-.57091c-.168-.12622-.33628-.2495-.46025-.1628-1.85738,1.24131-1.865.33231-1.59763-1.49777.14337-.94992-.30519-2.23016-.9241-2.43479-2.33848-.771-4.68113-1.98944-7.33128-1.42474-1.71306.36769-1.72414-.9974-2.46544-1.43878-.149-.089-.13528-.36567.02673-.601a1.21238,1.21238,0,0,1,.29706-.32862c3.16066-2.08548,6.26619-4.22262,9.342-6.17817a37.07126,37.07126,0,0,1,3.93371-2.01426.26571.26571,0,0,1,.203-.025,16.92775,16.92775,0,0,0,2.3946.76439,4.31541,4.31541,0,0,0,1.88263-.06182c1.18479-3.20359,3.20346-2.45344,4.69-3.45953,4.932-3.388,9.52339-4.48955,13.48263-1.56808a2.64075,2.64075,0,0,0,1.98542.16728c1.93385-.39709,3.27222-.374,3.46421,3.03.25887,4.16428,1.07948,4.22577,4.38391,2.13193A3.39461,3.39461,0,0,1,126.17617,57.37785Zm171.481,109.3501a12.46247,12.46247,0,0,0-.04245-5.5006c-.52689-1.649-2.12155-3.55695-3.53635-5.26324-.85635-1.0406-1.64334-1.71251-2.38913-.29118-1.06653,1.97847-3.50647,3.10863-5.20462,4.75188a1.91254,1.91254,0,0,0-.21759,2.17534c1.86276,2.83728,5.46228,4.48636,10.02832,4.57924a.55465.55465,0,0,0,.1051-.00658C296.66891,167.12573,297.6199,167.11276,297.65714,166.728ZM205.801,178.51862c-1.45805,1.13213-2.91,2.283-4.286,3.50421-.54361.48575-1.20683,1.14317-1.18126,1.78192a36.63847,36.63847,0,0,0,.69818,4.73647.36955.36955,0,0,1-.26006.41h0a.37212.37212,0,0,0-.159.61816c1.18694,1.42145,2.31079,3.37447,3.6783,3.65,3.03748.61256,2.96567-1.905,3.37042-3.61761.48289-2.12694,1.0361-4.23474,1.33618-6.39555a12.23393,12.23393,0,0,0-.1973-3.88419c-.08231-.44328-.58818-.88647-1.02759-1.331a.64894.64894,0,0,0-.69737-.1526A6.31936,6.31936,0,0,0,205.801,178.51862ZM84.54589,166.96217c-4.66039-1.8215-9.66862-3.09067-14.13294-4.99475a3.619,3.619,0,0,0-3.50341.03687,1.40654,1.40654,0,0,1-.8156.04376c-.35187-.05708-.38784-.447-.06913-.71362a2.09076,2.09076,0,0,1,.64826-.40382c2.53742-.83582,2.96593-1.53677,1.78093-3.35338-1.31985-2.08321-2.37581-4.0015-5.88115-3.643a1.93873,1.93873,0,0,1-1.50346-.86319c-2.40679-3.06944-4.908-5.90179-10.40422-5.29578-.67183.07468-1.54336.01286-1.81075-.34787-.97862-1.29781-2.00073-.36314-3.21194.75667a4.05191,4.05191,0,0,1-.83608.55649c-.34184.18411-.66694.06723-.64025-.22623a1.60823,1.60823,0,0,1,.25622-.8373c1.16514-1.59093.97651-2.035-.99-1.18134-3.34483,1.44563-6.1887,3.785-10.14267,2.9518-3.79309-.80412-5.041-.3185-2.44827-4.72447,1.74633-2.99936,1.57716-3.32213-1.61992-3.2226-2.64814.08459-2.84084-.56-.83859-3.0495.50139-.62122,1.202-1.16183,1.76854-1.76863,1.21434-1.30157,1.16829-2.10831-.27377-2.09012a4.8652,4.8652,0,0,0-4.372,1.81625c-1.76717,1.83855-4.31807,2.25011-5.78859,1.21-2.01449-1.44466-.71126-5.934,2.69514-9.97553,1.40859-1.69183,5.74492-3.25661,8.17272-3.13761a12.36878,12.36878,0,0,0,3.78122-.65959c3.3205-.975,5.5832.0658,5.96942,2.59483a6.68588,6.68588,0,0,0,.92211,2.18541c.15815.27827.73128.05949.89589-.34251.4429-1.08275.89035-2.16913,1.28456-3.24822.13324-.36733-.1428-.7328.043-1.06714a6.7711,6.7711,0,0,1,1.65051-2.37074c3.394-2.06059,6.83981-3.51022,9.34-7.28756,2.26121-3.46666,6.71222-3.48777,9.302-7.02679.49291-.67721,3.01984-1.38258,3.1876-1.01321,1.275,2.70751,4.33028-.15246,6.41938-.143.30792.00209.75663-.39606,1.20356-.79455.27437-.24516.305-.63028.05807-.72122a6.53306,6.53306,0,0,1-.68941-.28893c-1.07907-.52471-2.861-.2571-2.37149-2.53316.07893-.377-1.01942-.67814-1.68113-.75719a4.029,4.029,0,0,0-1.01166.02872c-.3927.0508-.41044-.47309-.0279-.76828a4.697,4.697,0,0,1,1.50182-.87943c.97128-.26377,2.34447-.27312,2.66407.335.56564,1.0433,1.24057.72624,2.29293.17868,1.21489-.635,2.45012-1.12075,3.66424-1.62993a4.5,4.5,0,0,1,.717-.2224c.29068-.06914.4449.20369.29374.51736-.15913.32974-.32119.65877-.50147.981-.405.71536-.82932,1.43059-1.25611,2.14347-.16776.2795-.08425.56531.16867.5772,1.40353.066,2.80082.1365,4.22762.12535.053.00036.68972-1.36574.5673-1.45514-1.43682-1.05852-3.185-1.86744-.65211-4.92207.07011-.08344-.39375-.64593-.62452-.96446a65.984,65.984,0,0,1-4.24269-6.19095c-.686-1.27251-.912-2.59785-3.17292-.61347-.60059.52731-2.5919.24813-2.58833-.2506.066-3.53746-2.85347-3.09578-4.82486-3.6545-1.85953-.53-3.97226,1.39944-4.34291,3.886-.29256,2.03238.93841,4.11856-2.64456,4.62937a.74354.74354,0,0,0-.53529.51606,7.36783,7.36783,0,0,1-.44055,1.31854c-.30629.62611-.68966,1.24342-1.06628,1.85885-.16815.27425-.48529.42159-.65782.30716-.40415-.26859-.861-.50653-.93179-.9674A3.94935,3.94935,0,0,0,52.966,92.25166a20.06191,20.06191,0,0,1-6.253-3.12808c-1.3031-.8432-.53693-2.46479,1.42183-3.61218,2.28676-1.34094,4.65075-1.98216,6.84154-3.48224,2.77443-1.925,2.52666,1.99816,5.14725.212a.80291.80291,0,0,1,.47986-.1371c.36325.0051.75684-.57617.54773-.81586-.16153-.18563-.32673-.36676-.49884-.53972a6.66283,6.66283,0,0,0-.591-.51483c-.23974-.18856.08526-.78911.45824-.844a3.553,3.553,0,0,0,.78964-.20295A7.14362,7.14362,0,0,0,63.6386,77.7295c.19694-1.108.195-2.17083,1.56811-2.14755,1.34791.02311,3.73979.18848,3.60058.7096-.59644,2.34525-.324,2.6827,1.696,1.14884.19-.14247.44392-.04366.70037.05141.17558.065.187.33358.02518.581a2.2604,2.2604,0,0,1-.6363.74332c-1.22908.62561-2.45945,1.06942-3.69436,1.62506a5.20218,5.20218,0,0,0-.733.42433c-.25872.17074-.40476.52038-.29789.70745a.74988.74988,0,0,0,.39123.39744c2.1322.60642,4.26765,1.22686,6.49625,1.68013a29.3274,29.3274,0,0,0,4.14814.32642,1.68591,1.68591,0,0,0,.50361-.07476.69189.69189,0,0,0,.46017-.58246,3.00731,3.00731,0,0,0-.03258-.884,10.66053,10.66053,0,0,0-.36015-1.07246c-.12165-.31735.27526-.81923.58358-.73794.39463.104.79138.20432,1.19586.28645a1.89479,1.89479,0,0,0,1.19245.022,5.11551,5.11551,0,0,0,1.07762-.76751c.236-.19962.32318-.54779.17726-.7038a3.13373,3.13373,0,0,1-.37887-.47117c-1.10569-1.7275-3.99525-1.34621-3.863-4.50565.01754-.29354-.65414-.27944-.9839-.44483-1.8699-.96356-3.62953-2.0942-5.57025-2.86713a7.67823,7.67823,0,0,0-8.0941.93336c-1.254.85851-1.48394.68447-1.19939-.55816.42473-1.829-.75725-1.36156-1.79148-.80455a12.71958,12.71958,0,0,0-2.01307,1.59784.65722.65722,0,0,0-.259.62893,7.20126,7.20126,0,0,0,.78254,1.62267c.1899.25766.79352.06132,1.10652.22192a4.31458,4.31458,0,0,1,.878.65436c.13677.1194.07.42322-.14264.64625a3.57476,3.57476,0,0,1-1.08935.91575,2.21385,2.21385,0,0,1-1.55025-.155,4.88569,4.88569,0,0,1-3.23934-3.71535c-.01-.047-.0551-.06081-.11092-.03333a3.91476,3.91476,0,0,0-1.23336.88358c-.40521.757-.34744,1.64774-.82274,2.2971A7.72846,7.72846,0,0,1,50.40985,77.762c-.19028.12037-.36555.10517-.41888-.03595-.31131-.83083-.23592-2.1659-.89481-2.34644-.69662-.18652-1.28159,2.872-3.027,2.55719a43.2671,43.2671,0,0,0-4.58318-.22216c-.15337-.01319-.22038-.18407-.282-.36366a.66532.66532,0,0,1,.2638-.596,2.18,2.18,0,0,1,.623-.45329c.70294-.219,1.34889-.22858,2.0488-.43826a3.85092,3.85092,0,0,0,.8493-.415.76278.76278,0,0,0,.39693-.6759,1.6175,1.6175,0,0,0-.31685-.77659c-1.172-1.136-1.202-3.06593-.09907-5.75735.15981-.39512.21308-1.04734.02293-1.07194a27.28335,27.28335,0,0,0-3.24973-.19448,12.77051,12.77051,0,0,1-2.49061.00644c-1.69577-.431-3.11383-1.29828-4.95042-1.44124a5.71047,5.71047,0,0,0-2.43,1.08657c-.403.24418-.596.79426-.28281.80952.508.02475,1.0178.04649,1.53331.05832.19543.00132.50638-.183.66409-.14a2.19988,2.19988,0,0,1,.49078.23612c.16046.09666.04931.44131-.21959.68381a2.80238,2.80238,0,0,1-.94736.67431,21.29514,21.29514,0,0,1-4.4276.4408,3.84193,3.84193,0,0,0-3.31056,2.14041c-.35719.65016.52592,1.36466,1.12718,1.72765a2.30955,2.30955,0,0,0,1.93685-.26656c1.94641-1.09619,2.252-.311,2.17524,1.04488-.01678.312-.03551.62568-.05366.938a.88885.88885,0,0,1-.64141.68416,4.68692,4.68692,0,0,1-1.12489.05756c-3.49118-.45249-6.63321-1.47129-10.45886-1.28278-3.471.17226-7.4405,1.2128-10.47791.55362-3.45437-.75055-8.00411-.2034-10.91783-1.477-2.55015-1.11268-6.27539.18123-10.02838,1.20924a18.28421,18.28421,0,0,0-2.959,1.29757c-.39972.1981-.72634.66614-.55089.79238.40806.29281.81845.58513,1.2225.88244.12941.08945.31714.14664.31979.31914a1.87264,1.87264,0,0,1-.08152.51536,1.19322,1.19322,0,0,1-.6034.62575,2.66284,2.66284,0,0,1-.8852.30724c-.3952-.00734-.43465-.4784-.85063-.43926a33.17145,33.17145,0,0,0-3.463.58717,3.53435,3.53435,0,0,0-.60075.65317,5.68705,5.68705,0,0,0,1.9288,1.197,3.1967,3.1967,0,0,0,.58275.09281c.35967.02761-.05271.67241-.54768.85184-.33929.12286-.68333.25967-1.035.419a23.70972,23.70972,0,0,0-2.79026,1.70114.985.985,0,0,0-.47229.60287c.009.75367-.21365,1.82242.39274,1.76916,1.97737-.16489,2.52707,1.01437,3.66715,1.62495.21746.116-.1274.61659-.55616.808q-2.97976,1.32508-5.98768,2.64238a7.88845,7.88845,0,0,0-.87032.32971c-.166.09279-.33171.19569-.49776.30356-.39677.25751-.60657.66076-.37716.72949a.70829.70829,0,0,0,.3249.02133c3.71162-.65074,8.73142-3.5813,11.40689-2.49108a4.575,4.575,0,0,0,1.64342-1.02833A9.94362,9.94362,0,0,1-10.107,87.10719a2.57857,2.57857,0,0,0,.812-.27418c3.7401-2.00232,5.60106-1.22526,7.43351-.43441,2.04955.87155,4.84758.94179,4.5013,4.30023-.11428,1.2298.89226,1.87056-.21583,3.80213-.21762.38321.02977.71531.26017,1.04842.1218.17543.5515.00039.79751-.3258a8.14173,8.14173,0,0,1,.81428-.957c.197-.18978,1.00828-.31014,1.01461-.15161.1095,1.64618-.5958,4.00467.31559,4.91979,1.90488,1.85411.58044,4.56733-1.78281,7.7303-4.33691,5.43364-3.02816,8.40707-1.9891,11.53252a9.4179,9.4179,0,0,1,.91066,3.6373c-.11055,3.25283-.296,6.54709.90312,9.16087a1.40152,1.40152,0,0,0,.695.593c.27842.1412.85257-.222.92527-.58438a3.57787,3.57787,0,0,0,.09137-.84073c-.05847-1.31488-.26471-2.55618-.28221-3.88476a1.811,1.811,0,0,1,.36744-.79084.85876.85876,0,0,1,.78453-.41229c.16657.04984.30954.11512.34794.24374.81592,2.476,2.95872,4.63938,2.13116,7.5797-1.20933,4.36409,1.86243,5.30316,3.8621,7.11131,1.16309,1.02872,3.25293,1.33653,5.9087,1.04221,2.07587-.22832,2.92525,2.25256,4.83283,2.96469,1.76363.64589,3.032,1.21849,2.90367,3.39442-.12775,2.41368,3.34885,4.89372,5.10946,3.95941,3.7077-1.99321,3.04581.291,3.07187,1.63828.07231,2.55487-2.12261,4.894-5.1135,6.26276-4.61715,2.09427-3.46236,5.70526-6.72572,8.05573-.11419.07846.24827.575.324.90183a43.09826,43.09826,0,0,1,1.27915,5.27126c.39976,3.16772.60016,6.362,4.25763,7.8831,2.61333,1.08514,2.30067,3.2878.66594,5.93832-3.70835,5.94131-7.29491,11.9021-13.104,17.49358a14.07005,14.07005,0,0,0-2.078,3.081c-1.377,2.19545-2.55337,4.4109-4.1562,6.57222-1.35807,1.82266-3.96124,3.59964-4.732,5.34706-2.82162,6.44608,1.06424,10.01965,9.981,8.7982a6.48966,6.48966,0,0,0,.71791-.14842c.49083-.12634.76475-.52739.51658-.74559-.0949-.08356-.193-.16493-.29914-.24168-4.15675-3.02534-4.12954-2.9879,2.67882-6.60551a6.16668,6.16668,0,0,0,2.09427-2.33975c-2.02987-.77821-.36571-1.36823.87489-2.34335,1.68041-1.33975,6.43665-1.73541,4.55413-4.37616-.03048-.04333-.01313-.10486.04543-.155a3.196,3.196,0,0,1,1.0985-.63223c3.40307-.36383,6.64043-3.12933,10.10148-2.42537a3.34928,3.34928,0,0,0,1.9663-.81174c1.13025-1.31613,1.6747-3.15833,3.11813-3.941,1.59692-.86549,3.9339-.69118,5.92608-1.17645A8.47165,8.47165,0,0,0,50.703,201.371c1.86919-1.25986,3.74077-2.515,5.54336-3.79869.99322-.70645,2.58017-1.53473,2.72684-2.2236.93143-4.338,5.33771-5.08658,8.965-5.54678,3.96969-.50916,6.58967-2.59363,7.71976-4.81407A36.26829,36.26829,0,0,1,85.29367,172.738C88.50127,170.00484,87.99857,168.29074,84.54589,166.96217Zm234.2017-82.11865c.315.26227.445.59622.25772.6621-.16583.05828-.32922.11887-.48254.18749a34.77661,34.77661,0,0,1-4.22025,1.83125,18.90319,18.90319,0,0,1-4.80594.79248c-2.95227.0872-3.05264.287-1.45892,3.97085,1.67831,3.89888-.80084,5.14063-1.30249,7.68229-.02161.08842-.71783-.14-.81357-.26188-1.51578-2.02394-3.70486-4.3228-4.22266-5.995-.48624-1.55084.789-2.43716,1.29324-3.60374.06421-.15805.30258-.18441.34186-.3566.09985-.41645.17633-.84573.24887-1.27775.03586-.21614-.26215-.5768-.57806-.715-1.24921-.54788-3.17163-2.6808-3.56763-1.09141a5.56764,5.56764,0,0,1-1.53754,2.62786,3.38532,3.38532,0,0,1-2.2413.75859,16.1504,16.1504,0,0,1-4.625-.339c-5.10608-1.28848-6.21466,2.00885-8.24731,4.33972a1.22922,1.22922,0,0,0-.16669.70092.85064.85064,0,0,0,.48474.65571,4.18962,4.18962,0,0,0,.93582.37654c1.292.25113,2.528.36673,3.82138.59923a9.469,9.469,0,0,1,6.7742,6.08692c.217.60152.379,1.187.53159,1.76946.10458.4005-.41913.36629-.76791-.05-.62436-.74687-1.24442-1.493-1.83981-2.24626-.312-.39663-.6-.80092-.88089-1.20609-.27441-.3963-.78922-.54317-.81741-.23192a7.30387,7.30387,0,0,0-.03516,1.11863c.18823,3.9354.095,7.59854-4.46024,7.96854-1.10291.09041-1.10934,1.88963-1.84229,2.71436-1.194,1.31572.77319,2.54563,1.98489,4.00816a6.20819,6.20819,0,0,1,1.23175,3.27124c.03406.40008-.64352.49724-1.17862.65563a.72659.72659,0,0,1-.64783-.28771c-.47366-.54113-1.03568-1.12119-1.06647-1.47827-.2298-2.29957-2.73331-1.97625-3.46872-3.1046-1.3457-2.07407-1.892-2.05912-3.48013-1.74359-.9346.18478-3.31656-1.88231-3.7821-.09088-.1293.46992-.55191,1.1476-.35117,1.35406a8.0981,8.0981,0,0,0,2.227,1.56729c.48434.23634.96127.00185,1.48526.11261a5.18432,5.18432,0,0,1,1.022.40127.84794.84794,0,0,1,.47021.55464c.04224.26216.08182.521-.04291.5828-1.90158.924-.4566,2.17372,1.41541,3.83184,3.724,3.25084,4.3222,5.28254,3.0694,8.01023-1.39447,2.88519-2.51718,5.95871-7.21854,5.88956-.51944-.00818-.25415,1.63905-.37006,2.50525-.06607.48672-.1369.97343-.20947,1.45892-.04935.32652-.58188.25652-.87109-.11388a15.25228,15.25228,0,0,1-1.00079-1.40109,15.96049,15.96049,0,0,1-.909-1.81628c-.14212-.31641-.56134-.54192-.805-.43318-.44531.19843-.90451.38983-1.00415.78139a3.04018,3.04018,0,0,0,.30856,2.60774c1.21439,1.27142,3.10861,2.13261,4.33878,3.40881,1.403,1.44983,3.40649,3.6076,3.31113,4.6604-.16422,1.66763-1.82989,2.72844-3.05624,3.89943-.16064.15274-1.44839-.48061-2.09952-.9185-1.26837-.86626-2.40918-1.91814-3.66449-2.7843-1.6033-1.10628-3.36288-2.33945-3.19171.19746a.27789.27789,0,0,1-.04205.14365.33329.33329,0,0,0-.00388.28352c1.40833,3.627,4.43423,10.21758,8.35046,12.18193,5.57346,2.75529,1.75018,7.78221-1.90021,2.51353-3.55695-5.23708-9.4491-14.40077-10.01636-18.10226a.47692.47692,0,0,0-.04294-.13414c-1.08487-2.2545-2.10822-4.48164-4.03683-1.78606a4.50377,4.50377,0,0,1-1.78442-1.03758,45.74748,45.74748,0,0,0-2.735-3.67763c-1.31618-1.29079-3.46921-3.35165-4.331-3.255a11.099,11.099,0,0,0-5.44418,2.45224,15.13517,15.13517,0,0,0-3.68764,4.30534c-.58527.94693-.53976,2.38757-.59674,3.66438-.1012,2.21809-.01648,4.498-.16962,6.70177-.02.20961-1.45621.26982-1.639.05881-2.446-2.82266-4.82205-5.66815-7.02153-8.57771a29.55547,29.55547,0,0,1-2.732-4.57259c-.71013-1.44048-.32381-3.97827-3.22775-2.6275-.14049.06432-1.22624-1.0804-1.75243-1.73654A7.9998,7.9998,0,0,0,216.8504,131.37c-2.83327.28378-5.80769.94885-8.76514-1.89594a1.86633,1.86633,0,0,0-1.45184-.49c-2.85593,1.15063-4.92664-1.08684-7.1712-2.8034a5.07563,5.07563,0,0,0-1.81462-.726.363.363,0,0,0-.45441.47083,5.11218,5.11218,0,0,0,.6684,1.72193,41.68069,41.68069,0,0,0,2.893,3.18928c1.49068,1.64154,2.83092,2.78331,4.5847,1.04721,1.92854-1.95866,3.88774.72554,5.6669,1.70245,1.99426,1.09026.81479,2.49464.21826,3.28769a19.11419,19.11419,0,0,1-4.8645,5.02919,52.59491,52.59491,0,0,1-8.78944,3.7254c-2.98761,1.10313-3.62061.62338-5.16508-2.30969a64.08113,64.08113,0,0,0-4.13315-6.21819c-1.62213-2.43951-3.24-4.87434-4.831-7.309a9.49917,9.49917,0,0,0-1.38687-2.051,2.57465,2.57465,0,0,0-1.71567-.30062,1.72744,1.72744,0,0,0-.07745,1.31862q5.03666,7.8441,10.57782,15.631c.66026.90875,1.98326,1.63556,2.27844,2.54651,1.06776,3.36336,3.01221,2.668,5.22922,2.05376a39.58925,39.58925,0,0,1,4.57828-.82619.56237.56237,0,0,1,.63226.56516,19.324,19.324,0,0,1-.79736,4.78439,13.62664,13.62664,0,0,1-5.50618,6.97327,15.72751,15.72751,0,0,0-5.66032,6.76712c-.68738,1.50095.84561,3.97249,1.3467,6.00352.57788,2.3159,1.66847,4.72388,1.49141,6.91811-.11325,1.393-1.93239,2.72308-3.43245,3.62653-2.40926,1.44266-4.36871,2.79047-2.52275,5.76289.34477.53839.46371,1.73247.17679,1.84241-4.05975,1.42682-3.72324,5.26067-6.099,7.70572-4.27487,4.31535-10.38007,4.6469-16.57352,5.16895-1.00729.09106-2.64136-1.365-3.40443-2.36768a55.20137,55.20137,0,0,1-3.59471-6.06538,22.43005,22.43005,0,0,1-1.11745-2.18439c-1.04343-2.48219-1.67963-5.12015-3.093-7.42773-1.99649-3.33237-2.724-6.10143.20531-9.56355,1.8047-2.17392-.43433-5.149-1.31615-7.6674a6.46215,6.46215,0,0,0-2.19652-2.97012c-2.86847-2.089-2.30745-4.47182-1.25378-7.0983,1.02769-2.61269.257-3.62009-2.44865-2.99049-1.7211.4032-2.69984.28-3.54044-1.11473-1.09912-1.86729-2.773-1.65022-4.80672-1.1a77.06079,77.06079,0,0,1-7.954,1.43306c-.56973.094-1.25522-.181-1.71243.049-5.136,2.51027-6.49016-1.43768-8.74477-3.68571-1.06974-1.084-1.78335-2.48254-2.90387-3.48766-2.06432-1.86452-2.31067-3.83324-.79579-6.46593.7181-1.277,1.6606-2.86476,1.49372-4.04985-.663-4.8662,2.545-7.79041,5.93684-10.429,1.536-1.21085,2.91876-2.06381,3.54485-4.14317.76968-2.62374,3.106-3.68,5.32259-4.40148,2.51581-.82665,5.07439-1.45723,7.61118-2.0227,1.88579-.425,3.80473-.62673,5.69638-.9242a.12427.12427,0,0,1,.13936.10706l.00078.00794.00031.00262a.12576.12576,0,0,0,.13371.11726l.00046,0c1.07164-.11236,2.26978-.54084,3.14432-.14848a4.688,4.688,0,0,1,1.8593,2.49718c-1.49686,1.93827.17792,2.32253,1.15324,2.8372a55.08029,55.08029,0,0,0,5.88737,2.67816c.77975.29428,2.109.55966,2.512.13356,3.40009-3.6081,7.23645-.96247,10.92648-.532a33.7262,33.7262,0,0,0,5.53175.415c1.79514-.08572,3.54636-4.50208,2.501-6.03806a2.26586,2.26586,0,0,0-1.59686-.58416c-1.47159-.06591-2.92812.12933-4.40057.00282-2.44562-.217-4.71841-.77311-5.13956-4.188-.04317-.36893-.62473-.699-1.109-1.0325a.37115.37115,0,0,0-.51953.07478l-.015.02158c-.4584.69182-1.11774,1.55882-.98508,1.73872,1.21933,1.62573.10355,2.14954-.826,2.70727-1.50854.89873-1.93175-.54447-2.40866-1.58718-1.76212-3.96-4.8942-6.30259-7.90813-8.70025a1.44871,1.44871,0,0,0-.78967-.2234.423.423,0,0,0-.42136.49472,1.92918,1.92918,0,0,0,.29745,1.0696,20.44422,20.44422,0,0,0,3.67918,3.12934c1.155.69769,1.34978,1.33761.68329,2.43316-1.02422,1.67578-1.15588-.23157-1.63551-.56111-2.20554-1.54384-4.31064-3.21751-6.50638-4.66807-.47289-.31552-1.3317-.01834-1.99744.13564-.68343.15851-1.37326.76447-2.00591.68561-3.58449-.4438-5.49245,2.38666-7.30612,5.05927-2.09425,3.025-7.70251,4.11966-9.939,1.52216-1.66269-1.983.772-4.19925.616-6.33983a6.92009,6.92009,0,0,1,2.736-1.10484c.92593-.15221,1.89777.36712,2.80367.15417,1.01877-.24015,2.387-.68769,2.87354-1.5374.84218-1.48124.12318-2.754-1.2392-3.41579a2.54365,2.54365,0,0,1-.58736-.43363.49026.49026,0,0,1,.02588-.69285l.02895-.02484a1.51263,1.51263,0,0,1,.76117-.39933c4.45766-.22151,7.24252-5.13893,11.41943-5.86577.214-.03584.18829-1.29922.46747-1.852a9.5657,9.5657,0,0,1,1.10979-1.57654.33016.33016,0,0,1,.52663-.02433,4.04587,4.04587,0,0,1,.83167,1.15145c1.08841,2.72024,3.22092,1.74183,4.96667,1.90749a18.20633,18.20633,0,0,0,3.892-.42112c.30928-.04451.8838-.14784.88449-.25038.002-3.24889,2.71739-3.20253,4.08685-4.6802.78078-.85238,2.41679-.53366,3.6393-.83769a1.64567,1.64567,0,0,0,.66188-.45346.508.508,0,0,0,.00864-.657c-.27895-.34839-.55763-.72107-.82384-.73643a9.554,9.554,0,0,0-3.52029.26049c-1.241.40645-2.301.30138-2.58537-1.31335-.14114-.812.5817-1.814.95184-2.6971.08083-.19988.37831-.22584.51926-.40668.39183-.49745.76761-1.01794,1.14386-1.53664a.53737.53737,0,0,0-.02834-.61828c-.074-.09419-.14157-.16389-.18872-.15078a7.43969,7.43969,0,0,0-2.48906.90608c-.91728.68831-1.55919,2.00311-2.52007,2.56062-1.30347.76494-2.614.95184-.72826,3.07617.72549.80666-1.44128,4.83331-2.901,5.31286-1.61809.52509-3.5209,1.70081-3.956-1.85869-.20383-1.66545-1.00528-1.66622-2.10629-.67616-1.4742,1.32314-2.79872.75015-3.43854-1.16065-.58337-1.78456-.60138-3.37884,1.23625-4.65756,2.8485-2.013,5.24931-5.11515,8.13292-6.55925a30.9347,30.9347,0,0,1,10.62048-2.93923c2.11261-.2374,4.45445,1.09761,6.70886,1.72817,2.16966.602,4.35234,1.18549,6.541,1.84824.218.0677.42334.347.62967.61576a.55273.55273,0,0,1,.059.59838c-.11909.19068-.23943.37272-.39951.396-1.30428.22422-2.64134.30839-3.94528.54661-.30351.05854-.78372.53075-.74348.75008a3.08319,3.08319,0,0,0,.71281,1.22609c1.2812-.835,3.24782,1.467,4.26215-.80084a2.542,2.542,0,0,1,1.956-1.40378c1.07974-.06726,2.25328.45809,1.30473-1.851-.03914-.09358.56619-.49065,1.0598-.83252.17178-.11926.4156.00643.521.26325,1.22282,2.95005,2.66812.35529,3.91.53655,1.93045.28809,3.78064-.40322,5.63083-.75894,1.71315-.338,3.32317-1.08221,5.08755-1.09356,1.70251-.01178,3.56712.70471,5.3642,1.05717a4.55524,4.55524,0,0,0,.93837.06423c.25551-.00191.33765-.34667.15291-.64261a10.11536,10.11536,0,0,1-.50771-.89063c-.30244-.61734-.85776-1.6559-.73151-1.83217a8.22489,8.22489,0,0,1,2.60567-2.56936c.3643-.17933,2.17314,1.44573,2.16031,1.69736-.09711,2.013,2.44572,4.6592.6916,6.24148-.111.093-.052.42365.01109.75943a.59029.59029,0,0,0,.4584.48877.57688.57688,0,0,0,.47618-.09979c.46124-.50962.70795-1.333,1.24631-1.69759a6.96869,6.96869,0,0,1,2.19106-.67968c.44189-.10843.90675-.16235,1.33566-.28978.14578-.04335.20992-.219.15146-.427a1.69206,1.69206,0,0,0-.29951-.67818c-.5992-.33967-1.44228-.88609-1.78085-.67864-1.58954.99141-2.41965.12344-2.79678-2.21441a.6713.6713,0,0,1,.13107-.45922c.099-.16447.32126-.1438.49866.0443,1.92709,2.02746,1.66252-1.13646,2.52422-1.05533,1.31975.12548,2.92407,1.40421,4.41985,2.16481.26186.13122.5239.251.78654.36668.34932.15364.49992-.2716.22624-.63838-.27242-.3659-.54875-.72485-.8408-1.06025-.25374-.28606-.656-.3121-.96158-.5612a2.64855,2.64855,0,0,1-.41913-.46761c-.16565-.22045-.1917-.506-.05634-.62574a1.03,1.03,0,0,1,.34346-.222c3.40846-1.10028,6.78062-2.20547,10.15459-3.236a8.22077,8.22077,0,0,1,2.27138-.11513c.78627.00533,1.8942.479,2.33961.0578,2.77425-2.67542,7.61649-.17214,11.35551-.37055.96362-.05407,2.49889.07753,2.573,2.52519A4.17087,4.17087,0,0,0,249.5688,71.48c3.2124-.05747,7.23427,1.71776,9.76671.06617,1.13229-.74745,2.96143-1.038,5.11975,2.40261a2.97841,2.97841,0,0,0,1.65125,1.046c2.25665-.26439,4.41681-.67859,6.58047-1.06946.27176-.04944.6351-.09358.656-.35447a2.93069,2.93069,0,0,0-.2023-1.92647,9.454,9.454,0,0,0-2.20941-1.58115q-.41327-.28476-.82474-.5729c-.3096-.21675-.48767-.63553-.32059-.75836a.69409.69409,0,0,1,.4386-.16048,28.77409,28.77409,0,0,1,3.38882.27,7.40263,7.40263,0,0,1,1.32773.38977c.31107.11209.61722.54756.54013.77029a2.36537,2.36537,0,0,0-.15988.79993,2.82762,2.82762,0,0,0,.61444,1.12288,1.53719,1.53719,0,0,0,.725.40578c3.98816.90334,8.01346,1.80227,12.04642,2.67794,1.91382.41383,3.81821.78565,5.72714,1.16683,1.01285.20263,2.05768.45211,3.02325.56585,2.28717.27187,4.53632.4689,6.80731.70335.2157.02011.67664.2563.67908.14909.27722-2.6131,4.386-.11478,6.25644-.60553,1.641-.427,3.22232,1.01469,5.26746,3.4897C317.8985,82.18233,316.83231,83.24159,318.74759,84.84352ZM185.974,110.74939a.43882.43882,0,0,0,.09677-.69319,19.12667,19.12667,0,0,0-1.81-2.06419c-.86214-.79825-2.21922-1.20833-2.70143-2.13452-.871-1.684-1.441-1.73443-2.20326-.45775-1.11723,1.8383-2.15572,1.68677-3.47778-.29391-.91731-1.39062-1.84222-.86549-2.53136.20659a17.549,17.549,0,0,0-1.72409,2.77576,3.55514,3.55514,0,0,0-.16373,2.488c.1954.44415,1.43459.72289,2.05928.564a15.0233,15.0233,0,0,1,9.74792.26181,5.18368,5.18368,0,0,0,.9632.01128.34248.34248,0,0,0,.12686-.02316C184.66464,111.2678,185.28838,111.02178,185.974,110.74939Zm10.61763-3.51266c-.18681-.28661-.078-.63441.20464-.65475a7.38747,7.38747,0,0,0,1.32349-.17415,5.63554,5.63554,0,0,0,1.20316-.53423.43283.43283,0,0,0,.08711-.60587l-.02074-.0256c-.38-.56171-.75124-1.18606-1.18893-1.36483a5.02681,5.02681,0,0,0-2.59119-.1807c-.86227.134-1.609.64633-2.46634.83164-2.39413.51516-2.74042,1.66881-.93185,3.97442a9.009,9.009,0,0,0,2.72437,2.32113c1.43765.74157,1.46249,1.10065.5571,2.134-1.52992,1.7283-1.21436,2.55547,1.12323,3.46628a17.15716,17.15716,0,0,0,2.31541.60722.39552.39552,0,0,0,.08327.01119c2.5368.064,2.99956-.68816,1.78987-3.07448-.895-1.7727-2.10519-3.417-3.161-5.11153-.34708-.54491-.70038-1.08248-1.05157-1.61974ZM351.985,184.74362c-2.338-1.4655-4.40112-3.19949-6.662-4.73437-1.00739-.68774-2.08142-1.30833-3.15451-1.92816-.53928-.31223-.99988-.11189-.701.30489a16.1326,16.1326,0,0,1,1.60761,2.545c.63422,1.41667,2.3783,3.66589-.47308,3.3669a21.00119,21.00119,0,0,1-6.45392-2.351c-.95547-.50056-1.46317-1.88841-2.29358-2.84961a4.23943,4.23943,0,0,0-1.54828-1.16183c-2.44122-.09111-5.70721-.73785-6.95184.13936-1.57523,1.10336-1.17389,3.79564-5.78037,1.86266-.15829-.071-.48355.64931-.69037,1.02081-1.80756,3.04089-2.76657,6.56764-8.693,6.92838-3.7753.23079-3.12143,2.5612-1.29944,5.91568,1.51743,2.77441,4.46011,4.70081,6.75351,7.019a5.27214,5.27214,0,0,1,1.673,2.64029c.088,2.05623,1.73984,3.47978,4.28387,3.13344,3.08743-.41725,7.08823-.59525,8.26437-2.19073,1.52414-2.11522,4.73395-2.06085,7.40344-2.71864,3.32187-.81653,6.56323.2449,11.0683,3.198a4.87962,4.87962,0,0,0,1.80893.59026c1.33673-3.19324,5.74393.36986,7.38074,1.56958,4.24356,3.085,7.8136,4.73853,10.84213,3.81644a.65013.65013,0,0,1,.24118-.01935c6.84647.59222,6.69485-2.29482,6.45828-5.42154-.49161-5.33118-3.97827-9.61986-12.19534-14.39742C359.25491,188.87614,355.50421,186.91631,351.985,184.74362Zm-34.45309-21.55878c-.17828-.03506-.28024.14171-.38138.32588-.08438.15331.04138.40318.29874.585a34.2241,34.2241,0,0,0,5.1329,3.36978c3.52472,1.59006,7.33182.70691,10.78726,5.02336.68808.85767,5.83252,2.22566,5.85934,2.02074.41882-3.44652,3.29248-2.43419,7.5802.387a7.884,7.884,0,0,0,2.656.92229.98141.98141,0,0,0,.77554-.249c.13754-.09142.10242-.28931-.08481-.48528a3.68878,3.68878,0,0,0-.78455-.73466c-4.86267-2.5547-9.7905-5.88361-14.36859-7.40623-5.96747-2.00755-11.71512-2.61052-17.47064-3.75888Zm-21.41638-55.3533c-.76794.45626-.82507,2.1153-.28152,3.44277,2.42239,5.9875,2.0517,6.96853-2.99222,7.56363a4.54078,4.54078,0,0,0-2.76291,1.94835c-.20752.24565.43945,1.51324,1.00748,2.02515a2.74546,2.74546,0,0,0,2.05087.48935c1.37207-.564,2.42517-1.47518,3.77713-2.044,4.32941-1.84451,4.43552-3.24683.77966-9.05625a1.12879,1.12879,0,0,1,.22031-1.44817,15.26,15.26,0,0,1,2.70108-.69488.70758.70758,0,0,0,.362-.3155c.07944-.112.01257-.32263-.16306-.51473a1.71739,1.71739,0,0,0-.46332-.42545c-1.48251-.4109-3.52454-1.385-4.23547-.97026Zm-1.65018,61.7368a13.773,13.773,0,0,1-11.25772-3.92134.84837.84837,0,0,0-.62854-.26276c-.96881.08688-3.55045.56664-3.56683,3.21245-.00775.54066,1.57388,2.42987,8.31644,3.05821a52.88021,52.88021,0,0,0,10.59457.08728.31025.31025,0,0,0,.18292-.07846c.44919-.43654,2.75067-2.94266-3.64081-2.09538Zm-16.01242,2.28741c-2.406-.72482-2.367-.47284-2.80228-2.41489-.36029-1.59587-2.66486-3.37173-3.46991-3.95412a.75379.75379,0,0,0-.54944-.1526c-5.53571,1.02252,4.76624,7.6347,8.14365,9.3786,3.467,1.77147,6.72623-1.11975,4.93-1.13193s-3.83224-.9955-6.252-1.72508Zm38.71292.3969c.24692-.06837.24234-.33688-.01059-.58354a52.00582,52.00582,0,0,0-9.37015-7.25446c-5.28448-3.17416-1.52652,5.18294-1.1445,6.01013a.63162.63162,0,0,0,.08179.13026c2.812,3.48094,8.77969,2.15721,10.44348,1.69759Z" style="fill:#0c435b"/><path d="M130.24579,48.42148a7.88322,7.88322,0,0,1,7.86011-7.86012h69.89485a7.88321,7.88321,0,0,0-7.86009,7.8601V194.13a7.88322,7.88322,0,0,1-7.86011,7.86011H122.38564a7.88321,7.88321,0,0,1-7.8601-7.86011l2.65709-2.36484-2.65709-2.30579v-6.1252h15.72025V48.42148" style="fill:#042a3e"/><path d="M184.84889,194.13V183.33418H114.95407v6.1252l2.65709,2.30579L114.95407,194.13a7.88321,7.88321,0,0,0,7.8601,7.86011H192.709" style="fill:none;stroke:#dab679;stroke-miterlimit:10;stroke-width:1.149999976158142px"/><path d="M200.56911,167.5193V194.13a7.88322,7.88322,0,0,1-7.86009,7.86011h0a7.88322,7.88322,0,0,1-7.86011-7.86011h0" style="fill:none;stroke:#dab679;stroke-miterlimit:10;stroke-width:1.149999976158142px"/><path d="M200.56915,48.42146a7.88321,7.88321,0,0,1,7.86011-7.8601h0a7.88321,7.88321,0,0,1,7.86011,7.8601V59.21727H200.56915" style="fill:none;stroke:#dab679;stroke-miterlimit:10;stroke-width:1.149999976158142px"/><line x1="200.56915" y1="169.18951" x2="200.56915" y2="48.42146" style="fill:none;stroke:#dab679;stroke-miterlimit:10;stroke-width:1.149999976158142px"/><path d="M130.67432,48.42148a7.88322,7.88322,0,0,1,7.86011-7.86012h69.89485" style="fill:none;stroke:#dab679;stroke-miterlimit:10;stroke-width:1.149999976158142px"/><line x1="130.67432" y1="48.42148" x2="130.67432" y2="183.33418" style="fill:none;stroke:#dab679;stroke-miterlimit:10;stroke-width:1.149999976158142px"/><line x1="123.528" y1="191.76517" x2="117.61115" y2="191.76517" style="fill:none;stroke:#dab679;stroke-miterlimit:10;stroke-width:1.149999976158142px"/><line x1="128.79501" y1="191.76517" x2="127.90852" y2="191.76517" style="fill:none;stroke:#dab679;stroke-miterlimit:10;stroke-width:1.149999976158142px"/><line x1="142.49535" y1="74.36655" x2="188.64529" y2="74.36655" style="fill:none;stroke:#dab679;stroke-miterlimit:10;stroke-width:1.149999976158142px"/><line x1="142.49535" y1="91.65089" x2="188.64529" y2="91.65089" style="fill:none;stroke:#dab679;stroke-miterlimit:10;stroke-width:1.149999976158142px"/><line x1="142.49535" y1="83.00872" x2="173.46904" y2="83.00872" style="fill:none;stroke:#dab679;stroke-miterlimit:10;stroke-width:1.149999976158142px"/><line x1="142.49535" y1="106.11164" x2="188.64529" y2="106.11164" style="fill:none;stroke:#dab679;stroke-miterlimit:10;stroke-width:1.149999976158142px"/><line x1="142.49535" y1="123.39598" x2="188.64529" y2="123.39598" style="fill:none;stroke:#dab679;stroke-miterlimit:10;stroke-width:1.149999976158142px"/><line x1="142.49535" y1="114.75381" x2="173.46904" y2="114.75381" style="fill:none;stroke:#dab679;stroke-miterlimit:10;stroke-width:1.149999976158142px"/><line x1="142.49535" y1="136.65353" x2="188.64529" y2="136.65353" style="fill:none;stroke:#dab679;stroke-miterlimit:10;stroke-width:1.149999976158142px"/><line x1="142.49535" y1="153.93787" x2="188.64529" y2="153.93787" style="fill:none;stroke:#dab679;stroke-miterlimit:10;stroke-width:1.149999976158142px"/><line x1="142.49535" y1="145.2957" x2="173.46904" y2="145.2957" style="fill:none;stroke:#dab679;stroke-miterlimit:10;stroke-width:1.149999976158142px"/><line x1="143.22733" y1="165.16283" x2="147.51225" y2="170.2039" style="fill:none;stroke:#dab679;stroke-miterlimit:10;stroke-width:1.149999976158142px"/><line x1="147.51225" y1="165.16283" x2="143.22733" y2="170.2039" style="fill:none;stroke:#dab679;stroke-miterlimit:10;stroke-width:1.149999976158142px"/><polyline points="142.495 49.341 156.909 49.341 156.909 55.963 147.33 55.963" style="fill:none;stroke:#dab679;stroke-miterlimit:10;stroke-width:1.149999976158142px"/><line x1="147.32552" y1="49.34792" x2="147.33405" y2="62.58961" style="fill:none;stroke:#dab679;stroke-miterlimit:10;stroke-width:1.149999976158142px"/><line x1="142.49554" y1="62.58742" x2="148.79135" y2="62.58742" style="fill:none;stroke:#dab679;stroke-miterlimit:10;stroke-width:1.149999976158142px"/><line x1="143.95287" y1="49.34792" x2="143.9614" y2="62.58961" style="fill:none;stroke:#dab679;stroke-miterlimit:10;stroke-width:1.149999976158142px"/><line x1="150.01546" y1="167.5193" x2="188.64529" y2="167.5193" style="fill:none;stroke:#dab679;stroke-miterlimit:10;stroke-width:1.149999976158142px"/><line x1="80.30562" y1="167.82414" x2="67.65484" y2="162.07399" style="fill:none;stroke:#dab679;stroke-linecap:round;stroke-linejoin:round"/><polyline points="80.306 167.824 67.655 146.626 67.655 188.973 80.306 167.824" style="fill:none;stroke:#dab679;stroke-linecap:round;stroke-linejoin:round"/><line x1="80.30562" y1="167.82414" x2="67.65484" y2="175.30183" style="fill:none;stroke:#dab679;stroke-linecap:round;stroke-linejoin:round"/><line x1="55.00389" y1="167.82414" x2="67.65468" y2="162.07399" style="fill:none;stroke:#dab679;stroke-linecap:round;stroke-linejoin:round"/><line x1="67.65468" y1="188.97345" x2="55.00389" y2="167.82414" style="fill:none;stroke:#dab679;stroke-linecap:round;stroke-linejoin:round"/><line x1="55.00389" y1="167.82414" x2="67.65476" y2="146.62589" style="fill:none;stroke:#dab679;stroke-linecap:round;stroke-linejoin:round"/><line x1="55.00389" y1="167.82414" x2="67.65468" y2="175.30183" style="fill:none;stroke:#dab679;stroke-linecap:round;stroke-linejoin:round"/><line x1="0.6439" y1="167.82414" x2="55.00389" y2="167.82414" style="fill:none;stroke:#dab679;stroke-linecap:round;stroke-linejoin:round"/><line x1="80.30562" y1="167.82414" x2="130.67432" y2="167.82414" style="fill:none;stroke:#dab679;stroke-linecap:round;stroke-linejoin:round"/><line x1="281.43692" y1="167.82414" x2="268.78613" y2="162.07399" style="fill:none;stroke:#dab679;stroke-linecap:round;stroke-linejoin:round"/><polyline points="281.437 167.824 268.786 146.626 268.786 188.973 281.437 167.824" style="fill:none;stroke:#dab679;stroke-linecap:round;stroke-linejoin:round"/><line x1="281.43692" y1="167.82414" x2="268.78613" y2="175.30183" style="fill:none;stroke:#dab679;stroke-linecap:round;stroke-linejoin:round"/><line x1="256.13519" y1="167.82414" x2="268.78598" y2="162.07399" style="fill:none;stroke:#dab679;stroke-linecap:round;stroke-linejoin:round"/><line x1="268.78598" y1="188.97345" x2="256.13519" y2="167.82414" style="fill:none;stroke:#dab679;stroke-linecap:round;stroke-linejoin:round"/><line x1="256.13519" y1="167.82414" x2="268.78604" y2="146.62589" style="fill:none;stroke:#dab679;stroke-linecap:round;stroke-linejoin:round"/><line x1="256.13519" y1="167.82414" x2="268.78598" y2="175.30183" style="fill:none;stroke:#dab679;stroke-linecap:round;stroke-linejoin:round"/><line x1="200.56915" y1="167.82414" x2="256.13519" y2="167.82414" style="fill:none;stroke:#dab679;stroke-linecap:round;stroke-linejoin:round"/><line x1="281.43692" y1="167.82414" x2="334.4646" y2="167.82414" style="fill:none;stroke:#dab679;stroke-linecap:round;stroke-linejoin:round"/></svg>