<svg xmlns="http://www.w3.org/2000/svg" viewBox="0 0 86.26191 43.34757"><title>token-ornament-line</title><path d="M55.78211,21.69827" style="fill:none;stroke:#dab679;stroke-linecap:round;stroke-linejoin:round"/><line x1="55.78211" y1="21.69827" x2="43.13132" y2="15.94811" style="fill:none;stroke:#dab679;stroke-linecap:round;stroke-linejoin:round"/><polyline points="55.782 21.698 43.131 0.5 43.131 42.848 55.782 21.698" style="fill:none;stroke:#dab679;stroke-linecap:round;stroke-linejoin:round"/><line x1="55.78211" y1="21.69827" x2="43.13132" y2="29.17595" style="fill:none;stroke:#dab679;stroke-linecap:round;stroke-linejoin:round"/><path d="M30.48037,21.69827" style="fill:none;stroke:#dab679;stroke-linecap:round;stroke-linejoin:round"/><line x1="30.48037" y1="21.69827" x2="43.13116" y2="15.94811" style="fill:none;stroke:#dab679;stroke-linecap:round;stroke-linejoin:round"/><line x1="43.13116" y1="42.84757" x2="30.48037" y2="21.69827" style="fill:none;stroke:#dab679;stroke-linecap:round;stroke-linejoin:round"/><line x1="30.48037" y1="21.69827" x2="43.13124" y2="0.5" style="fill:none;stroke:#dab679;stroke-linecap:round;stroke-linejoin:round"/><line x1="30.48037" y1="21.69827" x2="43.13116" y2="29.17595" style="fill:none;stroke:#dab679;stroke-linecap:round;stroke-linejoin:round"/><path d="M85.75388,12.91447a8.42059,8.42059,0,0,1-7.20572,8.71433,6.75522,6.75522,0,0,1-7.648-5.72507,5.40437,5.40437,0,0,1,4.58015-6.11845,4.32334,4.32334,0,0,1,4.8947,3.664,3.45879,3.45879,0,0,1-2.93129,3.91581,2.76694,2.76694,0,0,1-3.13261-2.345" style="fill:none;stroke:#dab679;stroke-miterlimit:10"/><circle cx="75.12243" cy="14.75113" r="1.30497" transform="translate(-1.33471 10.84201) rotate(-8.18244)" style="fill:#dab679"/><path d="M85.75362,30.48241a8.42029,8.42029,0,0,0-7.20546-8.71433A6.75545,6.75545,0,0,0,70.9,27.49314a5.40418,5.40418,0,0,0,4.58,6.11845,4.32349,4.32349,0,0,0,4.89481-3.664,3.45868,3.45868,0,0,0-2.93118-3.91581,2.767,2.767,0,0,0-3.13268,2.345" style="fill:none;stroke:#dab679;stroke-miterlimit:10"/><circle cx="75.12223" cy="28.64573" r="1.30499" transform="translate(36.07425 98.92505) rotate(-81.81589)" style="fill:#dab679"/><path d="M.508,30.48227a8.4206,8.4206,0,0,1,7.20572-8.71434,6.75522,6.75522,0,0,1,7.648,5.72508,5.40437,5.40437,0,0,1-4.58015,6.11846,4.32334,4.32334,0,0,1-4.8947-3.664,3.4588,3.4588,0,0,1,2.93129-3.91581,2.76694,2.76694,0,0,1,3.13261,2.345" style="fill:none;stroke:#dab679;stroke-miterlimit:10"/><circle cx="11.13948" cy="28.6456" r="1.30497" transform="translate(-3.9636 1.87705) rotate(-8.18243)" style="fill:#dab679"/><path d="M.50829,12.9143a8.4203,8.4203,0,0,0,7.20547,8.71434,6.75545,6.75545,0,0,0,7.64814-5.72508,5.40419,5.40419,0,0,0-4.58-6.11846,4.32349,4.32349,0,0,0-4.89481,3.664A3.45868,3.45868,0,0,0,8.8183,17.365,2.767,2.767,0,0,0,11.951,15.02" style="fill:none;stroke:#dab679;stroke-miterlimit:10"/><circle cx="11.13969" cy="14.75098" r="1.30499" transform="translate(-5.04684 23.67735) rotate(-81.8159)" style="fill:#dab679"/></svg>