<svg xmlns="http://www.w3.org/2000/svg" xmlns:xlink="http://www.w3.org/1999/xlink" viewBox="0 0 1363.45218 488.79439" preserveAspectRatio="none"><defs><clipPath id="a"><rect x="88.00895" y="25.80166" width="1156.12579" height="391.77627" style="fill:none"/></clipPath></defs><title>token-map</title><line x1="77.65921" y1="156.39375" x2="1299.04114" y2="156.39375" style="fill:none;stroke:#0b435b;stroke-miterlimit:10;stroke-width:1.1500000000000001px"/><line x1="77.65921" y1="286.98584" x2="1299.04114" y2="286.98584" style="fill:none;stroke:#0b435b;stroke-miterlimit:10;stroke-width:1.1500000000000001px"/><line x1="77.65921" y1="417.57793" x2="1299.04114" y2="417.57793" style="fill:none;stroke:#0b435b;stroke-miterlimit:10;stroke-width:1.1500000000000001px"/><line x1="663.22194" y1="97.34408" x2="663.22194" y2="417.57793" style="fill:none;stroke:#0b435b;stroke-miterlimit:10;stroke-width:1.1500000000000001px"/><path d="M624.45515,25.80166C607.49773,76.293,556.8653,237.9356,556.8653,417.57793" style="fill:none;stroke:#0b435b;stroke-miterlimit:10;stroke-width:1.1500000000000001px"/><path d="M570.04875,25.80166S461.9236,158.216,461.9236,417.57793" style="fill:none;stroke:#0b435b;stroke-miterlimit:10;stroke-width:1.1500000000000001px"/><path d="M518.723,25.80166S366.01361,178.66745,366.01361,417.57793" style="fill:none;stroke:#0b435b;stroke-miterlimit:10;stroke-width:1.1500000000000001px"/><path d="M460.67169,25.80166s-183.84257,154.725-183.84257,391.77627" style="fill:none;stroke:#0b435b;stroke-miterlimit:10;stroke-width:1.1500000000000001px"/><path d="M416.09048,25.80166S174.17457,134.046,174.17457,417.57793" style="fill:none;stroke:#0b435b;stroke-miterlimit:10;stroke-width:1.1500000000000001px"/><path d="M365.37008,25.80166S77.65921,145.20139,77.65921,417.57793" style="fill:none;stroke:#0b435b;stroke-miterlimit:10;stroke-width:1.1500000000000001px"/><path d="M288.28587,25.80166S.575,145.20139.575,417.57793" style="fill:none;stroke:#0b435b;stroke-miterlimit:10;stroke-width:1.1500000000000001px"/><path d="M705.25457,25.80166c16.721,49.52754,65.07969,210.838,65.07969,391.77627" style="fill:none;stroke:#0b435b;stroke-miterlimit:10;stroke-width:1.1500000000000001px"/><path d="M757.15081,25.80166S865.276,158.216,865.276,417.57793" style="fill:none;stroke:#0b435b;stroke-miterlimit:10;stroke-width:1.1500000000000001px"/><path d="M808.47658,25.80166S961.186,178.66745,961.186,417.57793" style="fill:none;stroke:#0b435b;stroke-miterlimit:10;stroke-width:1.1500000000000001px"/><path d="M866.52787,25.80166s183.84257,154.725,183.84257,391.77627" style="fill:none;stroke:#0b435b;stroke-miterlimit:10;stroke-width:1.1500000000000001px"/><path d="M911.10907,25.80166S1153.025,134.046,1153.025,417.57793" style="fill:none;stroke:#0b435b;stroke-miterlimit:10;stroke-width:1.1500000000000001px"/><path d="M973.29829,25.80166s287.71087,119.39974,287.71087,391.77627" style="fill:none;stroke:#0b435b;stroke-miterlimit:10;stroke-width:1.1500000000000001px"/><path d="M1075.1663,25.80166s287.71087,119.39974,287.71087,391.77627" style="fill:none;stroke:#0b435b;stroke-miterlimit:10;stroke-width:1.1500000000000001px"/><line x1="77.65921" y1="25.80166" x2="1299.04114" y2="25.80166" style="fill:none;stroke:#0b435b;stroke-miterlimit:10;stroke-width:1.1500000000000001px"/><g style="clip-path:url(#a)"><path d="M557.9239,17.49419c.79362.05019,1.43755,1.11967,2.10247,2.03884a1.55149,1.55149,0,0,1-.03687,1.61393,11.15783,11.15783,0,0,1-1.6452,2.29985c-3.05881,2.84247-6.37352,5.18786-9.34825,8.298-2.63356,2.75325-5.27915,5.18786-3.98812,10.94929,1.188,5.21334-2.90237,10.77084-7.85226,12.27493-2.93132.87951-3.95811,2.511-3.85558,6.18208a10.382,10.382,0,0,1-1.149,3.85614c-.32691.7647-1.08687,1.07359-1.52608.62a15.71723,15.71723,0,0,0-1.8503-1.71018,9.98634,9.98634,0,0,0-1.40751-.82836c-.68441-.34234-1.55917.58116-1.479,1.55391a8.59719,8.59719,0,0,1-.00978,1.76c-.13905,1.17267-.68027,3.0464-1.34292,3.47979a20.61185,20.61185,0,0,1-5.16852,2.16689c-9.12178,3.00818-18.34343,6.25856-27.61814,8.80788-6.2407,1.69528-9.413,8.298-13.10589,13.25641-3.776,5.02215-5.14529,6.16934-9.65075,4.01514-9.14358-4.423-14.34364-10.69435-11.79179-25.14891.73968-4.18085-2.52375-7.55868,4.15407-10.06977a1.2873,1.2873,0,0,0,.467-.5261,1.217,1.217,0,0,0-.02633-1.56107c-.46184-.342-.92419-.676-1.2616-.43666-5.05612,3.42883-5.09369.94326-4.39652-4.06615.37447-2.60027-.87583-6.09285-2.57205-6.64094-6.409-2.06492-12.83758-5.35352-20.07409-3.7602-4.67762,1.03722-4.73321-2.6955-6.7685-3.88875-.40923-.2406-.37669-.99743.062-1.64409a3.31532,3.31532,0,0,1,.80626-.90413c8.60438-5.76143,17.057-11.66309,25.43192-17.06762a101.37573,101.37573,0,0,1,10.71963-5.581.72662.72662,0,0,1,.55478-.07219c2.95309.96942,4.68,1.76082,6.56228,2.04591,1.67528.25494,5.00021.20393,5.147-.20393,3.18058-8.78235,8.71459-6.76841,12.76086-9.54716,13.424-9.35595,25.95907-12.45336,36.83983-4.53778,1.414.99422,3.569.81577,5.43232.42065,5.28086-1.12169,8.9411-1.08344,9.52913,8.22152.78495,11.38265,3.03009,11.53562,12.02747,5.74867A9.283,9.283,0,0,1,557.9239,17.49419Zm470.9462,295.84713c.53618-4.80543,1.49257-9.73835-.21792-15.04092-1.47131-4.49954-5.86733-9.68735-9.76776-14.32711-2.361-2.82973-4.52548-4.65251-6.53853-.752-2.87989,5.43-9.53106,8.56568-14.1443,13.0907a5.23,5.23,0,0,0-.55475,5.95262c5.14629,7.72419,15.01985,12.167,27.50767,12.33641a1.51486,1.51486,0,0,0,.28728-.01991C1026.17514,314.44742,1028.77542,314.39433,1028.8701,313.34132Zm-250.96667,33.944c-3.96616,3.12289-7.91526,6.29678-11.65537,9.66187-1.47753,1.33838-3.279,3.14842-3.19722,4.89466.188,4.273,1.22494,8.6251,1.99687,12.93922a1.0106,1.0106,0,0,1-.70356,1.12588h0a1.01761,1.01761,0,0,0-.42324,1.69334c3.27206,3.865,6.38141,9.18483,10.126,9.91308,8.31744,1.6188,8.07447-5.2643,9.14963-9.955,1.28116-5.82518,2.75489-11.59935,3.53549-17.51375a33.45578,33.45578,0,0,0-.61141-10.61787c-.23327-1.21067-1.62482-2.41323-2.83464-3.62062a1.77458,1.77458,0,0,0-1.90984-.40439A17.281,17.281,0,0,0,777.90343,347.28532ZM446.11207,317.93c-12.77777-4.89466-26.49648-8.27248-38.73961-13.39659-3.523-1.47861-5.67427-1.65706-9.57956.16571a3.84641,3.84641,0,0,1-2.22949.13477c-.96327-.14959-1.06883-1.21523-.20225-1.95017a5.71749,5.71749,0,0,1,1.76523-1.1163c6.92323-2.3326,8.082-4.25734,4.808-9.203-3.64774-5.6722-6.5708-10.89828-16.14969-9.85306-1.60526.17845-3.20815-1.18541-4.12726-2.3326-6.63827-8.349-13.53042-16.04787-28.54882-14.28885-1.83576.21667-4.22015.06375-4.958-.91773-2.70009-3.5308-5.47781-.956-8.76919,2.12867a11.08134,11.08134,0,0,1-2.276,1.53725c-.93138.50982-1.82252.19621-1.755-.60675a4.39786,4.39786,0,0,1,.68514-2.2944c3.15668-4.372,2.63265-5.583-2.72894-3.21211-9.11982,4.01514-16.85324,10.46489-27.681,8.25974-10.38726-2.12867-13.7907-.77755-6.78233-12.874,4.71992-8.23426,4.25133-9.11377-4.48939-8.78235-7.2399.28042-7.77876-1.47861-2.34959-8.32349,1.35958-1.708,3.26553-3.19937,4.80343-4.86918,3.29657-3.58175,3.15571-5.78691-.78731-5.71047-3.82907.07649-6.96638-.22946-11.92186,5.04763-4.79838,5.06037-11.76631,6.233-15.80676,3.41609-5.53545-3.91318-2.0548-16.21359,7.18536-27.32859,3.82056-4.65251,15.64948-9.01181,22.29061-8.73139,3.04091.14023,6.78632-.81577,10.32771-1.87373,9.062-2.72777,15.26873.07649,16.37166,6.98511a18.28317,18.28317,0,0,0,2.562,5.959c.43762.758,2.00082.14916,2.44351-.95322,1.19108-2.96905,2.39455-5.94811,3.45257-8.90625.35754-1.007-.40406-2.00123.0978-2.919,1.24107-2.25611,2.633-5.39179,4.46953-6.5135,9.24293-5.69768,18.63881-9.72561,25.40579-20.10128,6.11923-9.52168,18.29033-9.66187,25.30683-19.38748,1.33535-1.861,8.23231-3.83669,8.69789-2.82973,3.53655,7.38023,11.83854-.49713,17.55144-.50987.84207,0,2.06171-1.09706,3.27649-2.195.74573-.67549.82231-1.72919.14545-1.9733a17.86621,17.86621,0,0,1-1.89057-.77733c-2.96048-1.41487-7.82835-.65006-6.53182-6.88314.20887-1.03249-2.80021-1.83551-4.61115-2.03944a11.01772,11.01772,0,0,0-2.76591.09729c-1.07291.14618-1.13114-1.28608-.09052-2.1004A12.84434,12.84434,0,0,1,406.077,133.475c2.65113-.73928,6.406-.79029,7.29122.86677,1.56607,2.84247,3.40584,1.963,6.27344.44613,3.31043-1.759,6.67922-3.11015,9.98987-4.525a12.30549,12.30549,0,0,1,1.95657-.62146c.7936-.19445,1.22037.54876.81283,1.40931-.429.90463-.86611,1.8074-1.35315,2.69193-1.09425,1.9637-2.24134,3.9274-3.39521,5.88472-.45358.76742-.21991,1.54743.4719,1.57527,3.83923.15441,7.66149.32137,11.56295.26445.14488,0,1.86079-3.74747,1.52438-3.98966-3.94863-2.868-8.74413-5.04763-1.87432-13.4476.19016-.22946-1.08869-1.759-1.72563-2.6258-4.03611-5.583-8.33636-10.84732-11.71639-16.8509-1.89943-3.467-2.542-7.08707-8.68784-1.6188-1.63258,1.45308-7.08308.72654-7.08256-.63732.115-9.67461-7.86023-8.41271-13.26142-9.90406-5.09477-1.41487-10.83643,3.90044-11.804,10.70709-.7624,5.56309,2.64234,11.245-7.146,12.70827a2.03333,2.03333,0,0,0-1.45424,1.42111,20.14763,20.14763,0,0,1-1.18029,3.61378c-.826,1.71782-1.8629,3.413-2.88138,5.1029-.45473.75306-1.31925,1.16185-1.79316.85213-1.11015-.727-2.36394-1.36918-2.56592-2.62816-.87517-6.01637-4.05409-8.71865-9.66581-9.955-6.59134-1.46587-11.87871-5.12411-17.15717-8.43819-3.579-2.28164-1.51388-6.73017,3.82122-9.90406,6.22843-3.70925,12.681-5.50649,18.64406-9.64913,7.55117-5.3153,6.94624,5.41727,14.07931.48435a2.19558,2.19558,0,0,1,1.30967-.3838c.99341.00722,2.059-1.58959,1.48271-2.24116-.44515-.50464-.90024-.99689-1.37409-1.46667a18.21908,18.21908,0,0,0-1.62554-1.39689c-.65906-.51119.21854-2.15946,1.23747-2.31637a9.71666,9.71666,0,0,0,2.15554-.5696c2.17-.89225,6.22719-3.32687,6.34274-4.02793.518-3.03366.49318-5.93988,4.24833-5.90166,3.68635.03822,10.23011.44613,9.85908,1.87373-1.5876,6.42427-.83628,7.342,4.65893,3.11015.517-.39312,1.2131-.1276,1.91615.12761.48134.17459.51748.90874.07961,1.58819a6.18152,6.18152,0,0,1-1.72623,2.04445c-3.3494,1.73355-6.70569,2.97-10.07232,4.51227a14.22656,14.22656,0,0,0-1.99671,1.17393c-.70432.47168-1.09721,1.43052-.8015,1.94008a2.05061,2.05061,0,0,0,1.07719,1.07957c5.84181,1.6188,11.69279,3.27586,17.79538,4.47406,3.57934.70106,7.52674.63732,11.34931.81577a4.61013,4.61013,0,0,0,1.37575-.21376,1.89207,1.89207,0,0,0,1.24757-1.60131,8.22384,8.22384,0,0,0-.10545-2.4168,29.15015,29.15015,0,0,0-1.00469-2.926c-.33854-.86555.73756-2.24532,1.58216-2.02875,1.08105.277,2.16784.54407,3.27542.76115a5.18146,5.18146,0,0,0,3.26122.03822,13.989,13.989,0,0,0,2.9326-2.11875c.64163-.55026.87361-1.504.47169-1.92786a8.56919,8.56919,0,0,1-1.04476-1.28143c-3.05554-4.70347-10.9501-3.60728-10.64685-12.2494.04252-.803-1.794-.752-2.69876-1.1982-5.13116-2.60027-9.96387-5.65946-15.28518-7.73713-6.1741-2.46009-13.05437-3.6455-22.1164,2.70229-3.4132,2.37087-4.04524,1.89921-3.2901-1.50409,1.12759-5.00941-2.09593-3.70925-4.91378-2.16689a34.78336,34.78336,0,0,0-5.47527,4.40667,1.79726,1.79726,0,0,0-.69652,1.72465,19.69273,19.69273,0,0,0,2.16994,4.42279c.52407.70106,2.17105.153,3.02994.58636a11.79857,11.79857,0,0,1,2.41305,1.77312c.37623.324.19918,1.156-.37811,1.76986a9.77577,9.77577,0,0,1-2.96194,2.52434,6.05394,6.05394,0,0,1-4.24209-.39512,13.36036,13.36036,0,0,1-8.92688-10.09983c-.02832-.12837-.1518-.16528-.30393-.08909-.759.37988-2.94033,1.63955-3.35633,2.43905-1.094,2.07766-.91959,4.51227-2.20732,6.29678a21.13445,21.13445,0,0,1-4.6663,4.00487c-.51809.33269-.99767.29436-1.1461-.09054-.86667-2.26619-.68521-5.91841-2.49032-6.3999-1.9084-.49713-3.45142,7.87736-8.23,7.04885-3.8742-.68832-8.40427-.26768-12.537-.52261-.41964-.03323-.606-.49926-.778-.98923a1.81942,1.81942,0,0,1,.71034-1.63464,5.9616,5.9616,0,0,1,1.69525-1.25109c1.91817-.61184,3.68438-.65006,5.59442-1.23642a10.53071,10.53071,0,0,0,2.31476-1.15071,2.08592,2.08592,0,0,0,1.07291-1.85564,4.42324,4.42324,0,0,0-.88082-2.11776c-3.226-3.08467-3.34356-8.3617-.37745-15.742.42968-1.08344.5633-2.868.04287-2.9317a74.61019,74.61019,0,0,0-8.89014-.47161c-2.23575-.03822-4.867.54809-6.81058.06375-4.64514-1.14719-8.53895-3.49253-13.56381-3.84943-1.53763-.11217-4.06987,1.44013-6.62474,3.01632-1.09757.67519-1.61521,2.183-.75838,2.21891,1.38957.05826,2.78407.10826,4.194.13108.53444,0,1.38133-.50987,1.81339-.39512a6.01553,6.01553,0,0,1,1.34642.63658c.44056.26134.143,1.20588-.58782,1.874a7.66351,7.66351,0,0,1-2.57811,1.86148,58.23364,58.23364,0,0,1-12.09932,1.28742c-3.41376-.14023-7.05951,2.28164-9.01328,5.9144-.96471,1.78451,1.4634,3.722,3.1143,4.70347,1.0693.62458,3.42913.29316,5.29148-.76481,5.30225-3.03366,6.15234-.89225,5.96762,2.817-.04012.85349-.08554,1.71162-.12938,2.566a2.4307,2.4307,0,0,1-1.7413,1.88275,12.81673,12.81673,0,0,1-3.075.17825c-9.55516-1.17267-18.166-3.90044-28.624-3.31408-9.48839.53535-20.32394,3.45431-28.64209,1.708-9.46-1.98844-21.89137-.40791-29.88265-3.83669-6.99409-2.99544-17.157.61184-27.40069,3.49253a50.0008,50.0008,0,0,0-8.06762,3.6031c-1.08939.54913-1.97389,1.83507-1.49176,2.177,1.12128.79315,2.24891,1.58491,3.35932,2.39045.35553.2422.87.39512.88039.86677a5.12109,5.12109,0,0,1-.21338,1.41079A3.263,3.263,0,0,1,170.24,79.6567a7.28163,7.28163,0,0,1-2.41494.85656c-1.08083-.01274-1.19744-1.30016-2.3342-1.18541a90.7081,90.7081,0,0,0-9.459,1.6698,9.66464,9.66464,0,0,0-1.6307,1.79725c1.643,1.18541,3.05543,2.664,5.29656,3.23764a8.74209,8.74209,0,0,0,1.59527.243c.984.06884-.13171,1.83971-1.48189,2.33955-.92552.34225-1.86379.72275-2.82239,1.16491a64.83929,64.83929,0,0,0-7.59862,4.70356,2.69354,2.69354,0,0,0-1.28033,1.65733c.03857,2.06079-.5505,4.98747,1.1067,4.83059,5.40415-.48753,6.92916,2.727,10.05807,4.37557.5968.31314-.337,1.68846-1.5059,2.21969q-8.12377,3.6787-16.32468,7.33668a21.57019,21.57019,0,0,0-2.37384.91773c-.45222.25682-.90346.54126-1.35552.83933-1.08022.71152-1.64646,1.81813-1.01786,2.00181a1.93686,1.93686,0,0,0,.88885.0523c10.13754-1.84825,23.81018-9.955,31.14657-7.02332.44035.17845,3.2234-1.64432,4.475-2.84247,4.13933-3.97692,8.78676-6.85761,12.59445-7.5332a7.05125,7.05125,0,0,0,2.21549-.76481c10.1904-5.54476,15.29369-3.45431,20.31923-1.32564,5.6207,2.34534,13.27335,2.48557,12.38859,11.67583-.28974,3.36508,2.47455,5.09863-.51985,10.40115-.588,1.052.09464,1.9555.73085,2.86214.3363.47746,1.50812-.00916,2.1748-.90569a22.26512,22.26512,0,0,1,2.209-2.632c.53517-.52261,2.75144-.86677,2.77169-.43339.32991,4.49954-1.55514,10.962.954,13.4476,5.2433,5.03489,1.67175,12.47886-4.7321,21.172-11.75893,14.939-8.12506,23.04572-5.22586,31.57318,1.11422,3.13563,2.69452,6.14381,2.55756,9.92954-.2421,8.89711-.68816,17.90887,2.63917,25.0342a3.83266,3.83266,0,0,0,1.91152,1.60878c.764.381,2.32727-.62287,2.51939-1.61517a9.78409,9.78409,0,0,0,.23429-2.30073c-.18424-3.59454-.77116-6.98511-.8436-10.61787a4.95252,4.95252,0,0,1,.99015-2.16941,2.3484,2.3484,0,0,1,2.13771-1.142c.4564.13321.84859.30907.956.66008,2.277,6.75565,8.17662,12.63183,5.968,20.68764-3.2262,11.95625,5.191,14.4673,10.6927,19.37474,3.19957,2.79151,8.92,3.59454,16.17689,2.74051,5.67233-.6628,8.04093,6.10559,13.27047,8.01759,4.83467,1.73355,8.31377,3.27586,8.003,9.22848-.30468,6.60273,9.24816,13.32011,14.04532,10.73257,10.102-5.51923,8.33429.73928,8.43048,4.423.245,6.98511-5.71382,13.42212-13.86718,17.22059-12.58706,5.81244-9.3624,15.66549-18.24271,22.15347-.31082.21667.68955,1.56784.90273,2.46009,1.21374,4.76721,2.96,9.36871,3.59545,14.39086,1.1518,8.65491,1.7589,17.38625,11.78856,21.47793,7.16636,2.919,6.35215,8.94806,1.93095,16.22632-10.03069,16.31555-19.728,32.68211-35.50962,48.08-2.64208,2.53653-3.85018,5.60851-5.6253,8.46372-3.72474,6.02911-6.90069,12.10917-11.24369,18.0491-3.68,5.00936-10.76558,9.9168-12.84089,14.70949-7.59654,17.67946,3.09564,27.37959,27.45636,23.87428a17.743,17.743,0,0,0,1.96042-.41915c1.33985-.35459,2.08147-1.45634,1.39883-2.04843-.261-.22671-.53093-.44744-.82248-.65536-11.42282-8.196-11.34772-8.09408,7.20311-18.1128,2.709-1.47856,6.00892-6.30957,5.68357-6.437-5.56518-2.09045-1.02538-3.73473,2.349-6.42423,4.57037-3.69474,17.5692-4.86485,12.37248-12.05122-.08416-.118-.03784-.2865.12136-.42465a8.73986,8.73986,0,0,1,2.99219-1.74922c9.29912-1.058,18.10064-8.68039,27.57808-6.81944,1.15877.21667,4.42953-1.1982,5.36191-2.25616,3.06637-3.62,4.5211-8.66765,8.45374-10.83454,4.35084-2.39635,10.74463-1.963,16.18335-3.32687,2.16337-.53535,4.21046-2.49831,6.24727-3.875,5.08808-3.47979,10.18277-6.94684,15.08828-10.49042,2.70292-1.95022,7.02719-4.2446,7.41553-6.13107,2.46675-11.87976,14.50207-14.00843,24.41249-15.33407,10.84589-1.46587,17.97176-7.21451,21.02094-13.30737a99.18078,99.18078,0,0,1,26.12254-33.67633C456.98455,326.17708,455.57816,321.4991,446.11207,317.93ZM1085.02753,89.033c.86615.71137,1.228,1.62216.717,1.80579-.45237.16243-.898.33115-1.31608.52164-3.79365,1.72076-7.29122,3.78573-11.50658,5.08585a51.69274,51.69274,0,0,1-13.12737,2.25611c-8.07151.29316-8.3423.8413-3.916,10.88554,4.66159,10.63061-2.09482,14.07218-3.41953,21.0318-.05744.2422-1.96552-.36964-2.2296-.70106-4.1824-5.50649-10.21114-11.75232-11.658-16.31555-1.35836-4.23186,2.11255-6.67916,3.46975-9.87858.17268-.43339.824-.50987.9282-.98148.26537-1.14067.46655-2.316.65687-3.49869.09407-.59171-.72754-1.57244-1.594-1.94459-3.42618-1.47506-8.72255-7.272-9.776-2.91842a15.22571,15.22571,0,0,1-4.15584,7.21451c-1.36275,1.36386-3.66222,2.014-6.11492,2.11593a44.16529,44.16529,0,0,1-12.65356-.8413c-13.98663-3.42883-16.95712,5.60846-22.47235,12.02a3.36168,3.36168,0,0,0-.44287,1.91978,2.32609,2.32609,0,0,0,1.3377,1.7841,11.45753,11.45753,0,0,0,2.566,1.01232c3.53756.6628,6.91988.956,10.46084,1.56784,7.90538,1.33838,15.565,8.10682,18.637,16.51953.60449,1.64088,1.05834,3.23889,1.4864,4.82884.29341,1.09325-1.13934,1.0094-2.10081-.12249-1.72116-2.0308-3.43059-4.05949-5.07262-6.10843-.8605-1.07882-1.65553-2.17905-2.43113-3.28181-.7577-1.07861-2.16819-1.47072-2.23951-.61906a19.97488,19.97488,0,0,0-.07543,3.05962c.58758,10.7581.40041,20.77687-12.04925,21.87305-3.01431.26768-2.99853,5.18786-4.98756,7.45671-3.24073,3.62,2.16143,6.94684,5.502,10.92376a16.97688,16.97688,0,0,1,3.42883,8.92258c.10057,1.0934-1.75053,1.37166-3.21085,1.8147a1.987,1.987,0,0,1-1.77682-.77474c-1.30523-1.471-2.85284-3.04678-2.94367-4.02266-.67092-6.284-7.511-5.35352-9.54286-8.42545-3.71828-5.64673-5.21178-5.59572-9.54885-4.70347-2.55228.52261-9.1041-5.08585-10.344-.17845-.34487,1.28742-1.488,3.14842-.93524,3.70925a22.14471,22.14471,0,0,0,6.11886,4.2446c1.32886.63732,2.62867-.01274,4.06358.28042a14.17788,14.17788,0,0,1,2.80214,1.07836,2.31888,2.31888,0,0,1,1.29609,1.508c.12035.7161.23341,1.42312-.10654,1.59449-5.18282,2.56206-1.2084,5.95262,3.94142,10.45216,10.24373,8.82062,11.917,14.36533,8.54166,21.84757-3.75987,7.91558-6.77309,16.34108-19.63044,16.23906-1.42055-.01274-.66467,4.4868-.96557,6.85761-.17166,1.33221-.35635,2.66442-.5458,3.99338-.12892.89379-1.58644.71221-2.3841-.29528a41.71342,41.71342,0,0,1-2.76266-3.81281,43.63538,43.63538,0,0,1-2.51937-4.94988c-.39447-.86257-1.54506-1.47149-2.20934-1.16965-1.21406.55083-2.46625,1.08277-2.73141,2.15535-.54235,2.00123-.71345,5.46827.892,7.12529,3.34431,3.45431,8.5401,5.77417,11.92769,9.24122,3.86335,3.93866,9.38194,9.8021,9.14066,12.68279-.41821,4.56328-4.95347,7.495-8.28529,10.71983-.43644.42065-3.96961-1.28742-5.75825-2.47283-3.48441-2.34534-6.62348-5.2006-10.07224-7.54594-4.40475-2.99544-9.2392-6.335-8.72419.5991a.75957.75957,0,0,1-.11235.3936.91135.91135,0,0,0-.0054.77536c3.91823,9.89223,12.31476,27.85841,23.06016,33.15747,15.29188,7.43123,4.93,21.24847-5.14966,6.90862-9.82356-14.25517-26.10548-39.20469-27.72524-49.31612a1.303,1.303,0,0,0-.11988-.366c-3.00835-6.145-5.848-12.21625-11.072-4.80927-.14524.21667-3.78513-1.50409-4.89882-2.80425-2.749-3.22485-4.52349-7.11255-7.547-10.006-3.623-3.50532-9.54875-9.101-11.90353-8.82062-5.745.6628-10.69189,3.59454-14.842,6.80666a41.38919,41.38919,0,0,0-10.00432,11.84154c-1.58292,2.60028-1.43181,6.539-1.564,10.03151-.2357,6.06737.03817,12.30041-.33982,18.32951-.05092.57357-3.97707.76481-4.48085.19119-6.741-7.67343-13.291-15.41056-19.35945-23.32618a80.82509,80.82509,0,0,1-7.55527-12.45338c-1.96854-3.92592-.95907-10.8728-8.87506-7.12529-.383.17845-3.37319-2.9317-4.82421-4.7162-5.7217-7.08707-12.70829-9.75109-20.041-8.9608-7.74243.82851-15.86383,2.70229-24.00374-5.02215-.94663-.905-3.09148-1.68254-3.97919-1.3129-7.78837,3.19937-13.49225-2.88074-19.66188-7.5332a13.87976,13.87976,0,0,0-4.9756-1.95157.99268.99268,0,0,0-1.2339,1.29592,13.98006,13.98006,0,0,0,1.85965,4.69632c2.28954,3.11015,5.30511,5.74869,7.97,8.66765,4.1067,4.46127,7.79278,7.55868,12.55646,2.77873,5.23744-5.39179,10.64463,1.912,15.5279,4.55049,5.47361,2.94444,2.27426,6.80666.65768,8.98633-3.79516,5.07311-7.75284,10.43942-13.20912,13.84272-7.15663,4.41031-15.71089,7.189-23.96617,10.35019-8.14934,3.07193-9.8892,1.77177-14.1669-6.2203-3.11282-5.92714-7.57075-11.33167-11.41735-16.92739-4.48093-6.64094-8.95015-13.26915-13.34575-19.89735-1.23932-1.912-2.2161-4.16811-3.83042-5.583-1.08506-.94326-3.16533-.89225-4.69713-.79029-.30588.02548-.768,2.715-.18739,3.60728q13.91813,21.35683,29.2148,42.548c1.82235,2.47283,5.45357,4.43579,6.27761,6.92136,2.98208,9.17752,8.28638,7.24,14.33752,5.51923a108.261,108.261,0,0,1,12.50419-2.34406,1.53771,1.53771,0,0,1,1.7394,1.53373c-.46711,4.47341-.57192,9.09474-2.09191,13.098-2.938,7.59694-7.139,14.17414-14.92784,19.17081-6.76721,4.32108-12.18773,11.42089-15.3532,18.60993-1.8519,4.11715,2.38587,10.84732,3.7937,16.392,1.62309,6.32226,4.64993,12.88677,4.20636,18.89035-.28391,3.81121-5.2338,7.48224-9.31908,9.98055-6.5615,3.98966-11.8948,7.71165-6.79193,15.80573.95276,1.46587,1.30009,4.72894.51752,5.03489-11.07519,3.97692-10.084,14.45456-16.53526,21.18473-11.61,11.87976-28.29879,12.89951-45.22535,14.44182-2.75282.26768-7.24818-3.68377-9.3534-6.41149-3.95054-5.23882-6.75887-10.962-9.94215-16.51953a61.33234,61.33234,0,0,1-3.09614-5.95262c-2.89924-6.76839-4.6878-13.97021-8.5954-20.25425-5.52115-9.07556-7.56173-16.63423.38441-26.15592,4.89483-5.97815-1.283-14.07218-3.741-20.94258a17.67131,17.67131,0,0,0-6.06145-8.08129c-7.88261-5.65947-6.39259-12.1857-3.55992-19.38748,2.76192-7.16356.63575-9.90406-6.75131-8.1323-4.699,1.13445-7.37767.81577-9.70212-2.9827-3.04015-5.08585-7.61336-4.46127-13.16454-2.919-7.04757,1.963-14.42379,2.84247-21.724,4.06615-1.55625.26768-3.43579-.47161-4.68184.16571-13.99807,6.95963-17.77424-3.81121-23.98118-9.9168-2.94531-2.94444-4.92259-6.75565-8.00532-9.48342-5.67949-5.06037-6.38957-10.43942-2.29578-17.66672,1.94-3.50532,4.488-7.86462,4.00969-11.10221-1.903-13.29463,6.81529-21.35044,16.04155-28.6287,4.178-3.33961,7.94329-5.69768,9.61685-11.39542,2.05617-7.189,8.42553-10.12073,14.4734-12.1347,6.86431-2.30712,13.84915-4.07889,20.77566-5.6722,5.14892-1.1972,10.39264-1.78432,15.5599-2.63281a.33981.33981,0,0,1,.38535.31176l.00087.00717a.34391.34391,0,0,0,.36907.31807c2.92836-.32711,6.19677-1.521,8.59551-.46428,2.297,1.007,5.53735,6.24582,5.13042,6.79392-4.05732,5.328.52948,6.34779,3.20612,7.73713a150.622,150.622,0,0,0,16.14888,7.21451c2.13773.79029,5.77749,1.49135,6.87163.31868,9.2309-9.92954,19.77059-2.766,29.86915-1.65706,5.05028.56083,10.17575,1.3129,15.1345,1.03249,4.90728-.26768,9.61435-12.37689,6.72744-16.55775-.73738-1.0707-2.917-1.51683-4.37753-1.56784-4.02536-.153-8.00465.40791-12.03353.08923-6.69168-.54809-12.917-2.0267-14.13184-11.35715-.12488-1.00807-1.72125-1.89993-3.05166-2.80288a1.015,1.015,0,0,0-1.45988.27338c-1.24071,1.90031-3.02763,4.2834-2.66156,4.77287,3.36439,4.423.32293,5.87613-2.20862,7.41849-4.10854,2.48557-5.29254-1.45308-6.616-4.29561-4.89189-10.79632-13.50005-17.14411-21.78616-23.64482a3.96154,3.96154,0,0,0-2.16352-.59627,1.15675,1.15675,0,0,0-1.14307,1.36066,5.2757,5.2757,0,0,0,.83321,2.91938c3.14885,3.09741,6.40954,6.284,10.11884,8.4892,3.17121,1.88647,3.7158,3.63276,1.91352,6.64094-2.76974,4.6015-3.16511-.61184-4.48276-1.50409-6.0597-4.18085-11.84718-8.71861-17.87838-12.64457-1.29895-.854-3.64193-.02548-5.45955.40791-1.86591.44613-3.74111,2.11593-5.47257,1.912-9.81018-1.14719-14.97519,6.6282-19.88528,13.97021-5.67086,8.31075-20.98661,11.40816-27.15051,4.34656-4.5834-5.39179,2.03349-11.49738,1.567-17.348-.03922-.53535,4.82488-2.6258,7.46115-3.07193,2.5292-.43339,5.19633.96874,7.66962.36964,2.78143-.67558,6.51462-1.92474,7.82934-4.25734,2.27558-4.06615.28589-7.5332-3.45182-9.3177a6.95538,6.95538,0,0,1-1.61417-1.17491,1.34068,1.34068,0,0,1,.13666-1.96359,4.1366,4.1366,0,0,1,2.07406-1.1061c12.18555-.68832,19.70991-14.18688,31.11841-16.25185.58463-.102.49087-3.55627,1.244-5.07311a26.15919,26.15919,0,0,1,3.00556-4.33169.90289.90289,0,0,1,1.43965-.0763,11.06343,11.06343,0,0,1,2.29556,3.13331c3.02664,7.41849,8.84,4.70347,13.61692,5.12411,3.51908.29316,7.08968-.73928,10.635-1.22368.84491-.12744,2.41407-.42065,2.41405-.70106-.0546-8.88432,7.37155-8.80783,11.08909-12.874,2.11931-2.34534,6.599-1.50409,9.93632-2.35813a4.5,4.5,0,0,0,1.80156-1.25228,1.38911,1.38911,0,0,0,.01148-1.79679c-.76924-.94754-1.53825-1.96147-2.26642-1.99855-3.23333-.16571-6.60474-.2422-9.62161.77755-3.386,1.13445-6.28668.86677-7.09416-3.54354-.401-2.21789,1.55712-4.97114,2.55294-7.393.2173-.54809,1.03033-.62458,1.4124-1.12171,1.06228-1.36756,2.08024-2.79784,3.0995-4.22323a1.46953,1.46953,0,0,0-.08892-1.6902c-.20411-.25619-.39015-.44554-.51886-.40883-2.30478.70106-4.8459,1.03249-6.78968,2.52384-2.4956,1.89921-4.22659,5.50649-6.84383,7.04885-3.55023,2.11593-7.13053,2.65128-1.93449,8.42545,1.99881,2.19242-3.85181,13.24367-7.83454,14.582-4.415,1.46587-9.5966,4.7162-10.85236-5.00941-.58821-4.55049-2.77982-4.53775-5.77226-1.81-4.00677,3.6455-7.63936,2.10319-9.42432-3.11015-1.6283-4.86918-1.707-9.22848,3.29437-12.75928,7.75206-5.5575,14.25983-14.08492,22.11844-18.08732,9.12417-4.7162,19.18325-7.07433,28.98779-8.23426,5.77263-.68832,12.20122,2.919,18.37767,4.6015,5.9442,1.60606,11.92361,3.16115,17.921,4.93292.59752.18109,1.16406.941,1.73326,1.67216a1.51151,1.51151,0,0,1,.17233,1.63521c-.32215.52365-.64781,1.02367-1.08511,1.09015-3.56246.63732-7.21715.89225-10.77844,1.56784-.82891.16571-2.13328,1.46587-2.01922,2.06492a8.43155,8.43155,0,0,0,1.97192,3.33961c3.48806-2.30712,8.90845,3.95144,11.64023-2.2689a6.95146,6.95146,0,0,1,5.32281-3.875c2.95138-.20393,6.17017,1.21094,3.53362-5.08585-.10877-.25519,1.5392-1.35219,2.88265-2.29621.46755-.3293,1.13662.0099,1.42944.71022,3.39844,8.04443,7.30266.92213,10.702,1.3948,5.28423.752,10.33086-1.17267,15.38372-2.17968,4.67842-.956,9.06732-3.02092,13.89192-3.08467,4.65541-.06375,9.76751,1.861,14.68822,2.79151a12.45642,12.45642,0,0,0,2.56722.15826c.69867-.00995.91692-.95424.40624-1.76008a27.65953,27.65953,0,0,1-1.40481-2.42606c-.83849-1.68254-2.37622-4.51227-2.03422-4.99662,2.06243-2.766,4.24307-5.65946,7.07774-7.07433.99291-.49713,5.9693,3.91318,5.93887,4.6015-.22828,5.50649,6.77419,12.69553,2.00675,17.05488-.30173.25626-.13423,1.15947.04438,2.0765a1.61418,1.61418,0,0,0,1.26257,1.32808c.53418.03188,1.03756.02445,1.30029-.2817,1.25188-1.40213,1.91123-3.65824,3.37669-4.66525,1.67038-1.14719,3.94611-1.36386,5.979-1.89921,1.20638-.3047,2.47654-.46077,3.647-.81717.39783-.12124.57-.60286.40627-1.1706a4.62758,4.62758,0,0,0-.83158-1.849c-1.64482-.91773-3.96035-2.39635-4.88239-1.82277-4.32831,2.74051-6.61436.38238-7.6889-6.00363a1.83574,1.83574,0,0,1,.34993-1.25819c.26775-.45159.87585-.39919,1.36443.11192,5.30722,5.50851,4.52521-3.13853,6.88306-2.93262,3.61124.31868,8.022,3.78573,12.12632,5.83792.71848.354,1.43727.67676,2.15763.98813.95808.41368,1.36207-.752.60684-1.74989-.7517-.99553-1.514-1.972-2.31882-2.88374-.69915-.77755-1.79974-.8413-2.63988-1.51683a7.24331,7.24331,0,0,1-1.15478-1.27094c-.457-.59975-.53354-1.38-.16564-1.71008a2.81646,2.81646,0,0,1,.93509-.61352c9.30025-3.07193,18.50112-6.1566,27.70829-9.03729,1.84008-.57357,4.09205-.34416,6.20907-.3569,2.15018,0,5.18864,1.27463,6.39888.1147,7.53679-7.36749,20.82444-.61184,31.04533-1.22368,2.63409-.16571,6.83476.16571,7.08266,6.85761.00677.25494,3.30712,2.9827,4.33862,2.95718,8.78338-.21667,19.81422,4.56328,26.70875,0,3.0825-2.06492,8.079-2.89348,14.04469,6.47523.76233,1.1982,3.59689,2.9317,4.53481,2.82973,6.16606-.76481,12.06541-1.93748,17.97476-3.0464.7422-.14023,1.735-.26768,1.78733-.98148.12663-1.59332.46837-3.8877-.58884-5.2643-1.35406-1.759-4.00161-2.89348-6.071-4.28282q-1.13536-.77105-2.26592-1.55136c-.85059-.587-1.34533-1.72887-.8907-2.06783a1.89808,1.89808,0,0,1,1.19639-.447,78.6863,78.6863,0,0,1,9.27187.67558,20.24149,20.24149,0,0,1,3.638,1.04125c.8527.30076,1.698,1.48591,1.49123,2.09639a6.46789,6.46789,0,0,0-.42236,2.19041c-.011.67558.95424,2.10319,1.701,3.05919a4.20373,4.20373,0,0,0,1.99,1.09618c10.92249,2.39635,21.94649,4.78,32.99105,7.09981,5.24106,1.09618,10.45563,2.07766,15.68269,3.08467,2.77346.53535,5.63515,1.1982,8.27768,1.49135,6.25936.70106,12.41344,1.1982,18.62795,1.79725.59017.051,1.855.68832,1.85971.39512.7097-7.15082,11.99168-.39512,17.09734-1.77177,4.4796-1.1982,8.83035,2.715,14.46869,9.4452C1082.65638,81.77151,1079.76048,84.68789,1085.02753,89.033Zm-362.596,73.30091a1.2,1.2,0,0,0,.2518-1.89735,52.30222,52.30222,0,0,0-4.9876-5.61112c-2.37234-2.16689-6.09093-3.26312-7.42669-5.78691-2.41287-4.58876-3.97271-4.7162-6.03342-1.21094-3.02109,5.04763-5.86371,4.65251-9.51558-.73928-2.53418-3.78573-5.05366-2.3326-6.91829.61184-1.59315,2.49831-3.54235,4.831-4.66324,7.62242-.80576,1.9757-1.25294,4.98388-.40168,6.80666.54259,1.21094,3.93633,1.95022,5.64163,1.50409,8.70906-2.34534,17.434-3.05919,26.661.53535a14.17558,14.17558,0,0,0,2.63409.013.93642.93642,0,0,0,.34649-.06568C718.86063,163.77573,720.56171,163.09143,722.43157,162.33387Zm28.96939-9.80226c-.51618-.78028-.225-1.73338.54748-1.79424a20.20038,20.20038,0,0,0,3.61593-.50074,15.41156,15.41156,0,0,0,3.28022-1.48317,1.18359,1.18359,0,0,0,.16982-1.728c-1.04948-1.529-2.07622-3.22943-3.27647-3.71017a13.7462,13.7462,0,0,0-7.08907-.44613c-2.35544.38238-4.38788,1.79725-6.72894,2.31986-6.53732,1.45308-7.46289,4.61424-2.47463,10.88554a24.63551,24.63551,0,0,0,7.49284,6.29678c3.94508,2.00123,4.01964,2.9827,1.5629,5.82518-4.15169,4.75447-3.27339,7.01058,3.13568,9.45794a46.91683,46.91683,0,0,0,6.34282,1.61758,1.081,1.081,0,0,0,.2279.029c6.93822.128,8.1897-1.93738,4.83759-8.44049-2.48014-4.831-5.82-9.305-8.7385-13.9192C753.34732,155.45774,752.37125,153.99437,751.401,152.53161ZM1177.76564,361.5997c-6.42032-3.96418-12.09427-8.66765-18.30518-12.823-2.7675-1.862-5.71591-3.53915-8.66186-5.21423-1.48047-.84382-2.73627-.28748-1.9112.84669a44.11361,44.11361,0,0,1,4.44312,6.9296c1.76049,3.86222,6.57142,9.98055-1.23132,9.21574-5.13207-.50987-12.07032-3.44157-17.692-6.30952-2.622-1.35112-4.03608-5.13685-6.32465-7.74992-1.00751-1.17267-3.44479-3.12289-4.25531-3.14842-6.67728-.20393-15.62024-1.912-19.00758.50987-4.28716,3.0464-3.13981,10.40115-15.77216,5.2006-.43413-.19119-1.3103,1.78451-1.869,2.80425-4.88661,8.349-7.44377,18.01083-23.643,19.10706-10.31948.70106-8.48827,7.06159-3.44386,16.20085,4.20082,7.55868,12.28339,12.772,18.59771,19.0688,2.24827,2.23063,4.53341,5.16233,4.62364,7.189.27864,5.62125,4.82209,9.48342,11.77242,8.4892,8.435-1.1982,19.37208-1.759,22.55876-6.14381,4.12868-5.81244,12.907-5.72321,20.1947-7.57146,9.06873-2.29438,17.952.54809,30.32592,8.54016,1.33957.86677,4.8761,1.79725,4.95756,1.58058,3.59627-8.75687,15.71389.905,20.212,4.15537,11.66131,8.35746,21.45436,12.813,29.7189,10.23538a1.77859,1.77859,0,0,1,.65914-.05739c18.733,1.49262,18.26494-6.39935,17.56015-14.94515-1.443-14.56931-11.0568-26.23235-33.6152-39.1446C1197.722,372.76565,1187.42926,367.47583,1177.76564,361.5997Zm-94.61256-58.31541c-.48819-.09258-.76368.3927-1.03686.89821-.22794.42077.12066,1.10176.82772,1.59412,4.65094,3.22745,9.24574,6.95969,14.09852,9.11975,9.66792,4.28282,20.06228,1.79725,29.59123,13.53682,1.89742,2.3326,15.99047,5.97815,16.06,5.41727,1.08148-9.43246,8.95837-6.71743,20.73558.91773a21.55914,21.55914,0,0,0,7.28,2.47283,2.68367,2.68367,0,0,0,2.11612-.69523c.37441-.25253.27471-.793-.2409-1.32544a10.08721,10.08721,0,0,0-2.159-1.99447c-13.3445-6.89588-26.88145-15.90769-39.42867-19.98658C1114.64146,307.86031,1098.91306,306.31795,1083.15308,303.28429Zm-59.58852-150.97c-2.09153,1.26189-2.217,5.7997-.70609,9.41967,6.73492,16.32829,5.73941,19.01784-8.04236,20.7386-3.43631.44613-5.57167,3.07193-7.51925,5.379-.563.67558,1.22973,4.12989,2.79246,5.51923,1.26133,1.109,4.45637,1.78451,5.61729,1.30016,3.74153-1.56784,6.60444-4.07889,10.29092-5.65946,11.8048-5.12411,12.069-8.9608,1.96438-24.77927-.85233-1.33838-.42419-3.44157.57568-3.96418,2.05818-1.0707,4.94116-1.26189,7.37336-1.95022a1.9348,1.9348,0,0,0,.98417-.86945c.21518-.30782.02844-.88248-.45543-1.40454a4.69747,4.69747,0,0,0-1.27483-1.15484C1031.103,153.79291,1025.501,151.1671,1023.56456,152.3143Zm-3.36991,168.85338c-16.48386,2.2831-27.9496-7.63244-30.85743-10.51468a2.32,2.32,0,0,0-1.72362-.70685c-2.64762.25553-9.69835,1.61525-9.6942,8.85071-.01117,1.47861,4.34884,6.61546,22.79831,8.20878,16.6856,1.43519,27.07874.28486,28.97292.0424a.84848.84848,0,0,0,.49877-.21795C1031.40964,325.62812,1037.65678,318.73236,1020.19465,321.16767Zm-43.74433,6.55172c-6.59281-1.93748-6.4813-1.24916-7.70766-6.55172-1.01479-4.35733-7.34958-9.17081-9.56178-10.74846a2.06148,2.06148,0,0,0-1.50527-.40714c-15.11872,2.8987,13.17474,20.78921,22.44277,25.49545,9.51357,4.78,18.37243-3.18663,13.46038-3.18663S983.08069,329.66961,976.45032,327.71939Zm105.86957.36809c.674-.19155.65648-.92571-.03977-1.59552a142.21464,142.21464,0,0,0-25.75733-19.66415c-14.50942-8.582-4.07843,14.20129-3.0185,16.45625a1.72921,1.72921,0,0,0,.226.35469C1061.48409,333.10561,1077.7787,329.37517,1082.31989,328.08749Z" style="fill:#0b435b"/></g></svg>