<svg xmlns="http://www.w3.org/2000/svg" viewBox="0 0 49.38347 74.855"><title>finance-box2-icon</title><polygon points="14.466 50.122 14.466 46.861 36.542 46.861 34.917 44.155 34.917 27.515 45.335 27.515 48.25 29.572 48.25 50.122 14.466 50.122" style="fill:#042a3e;opacity:0.03999999910593033;isolation:isolate"/><path d="M34.91715,43.38779A3.483,3.483,0,0,0,38.39,46.8606h0a3.483,3.483,0,0,0,3.4728-3.47279V30.98774" style="fill:none;stroke:#dab679;stroke-miterlimit:10;stroke-width:1.149999976158142px"/><path d="M.575,43.38765a3.483,3.483,0,0,0,3.47282,3.47282h0L38.39,46.8606" style="fill:none;stroke:#dab679;stroke-miterlimit:10;stroke-width:1.149999976158142px"/><polyline points="0.575 43.388 0.575 0.575 34.917 0.575 34.917 43.388" style="fill:none;stroke:#dab679;stroke-miterlimit:10;stroke-width:1.149999976158142px"/><path d="M41.86276,30.98775A3.483,3.483,0,0,1,45.33559,27.515h0a3.483,3.483,0,0,1,3.47278,3.47277L48.80847,74.28,14.4663,74.27986l0-27.41936" style="fill:none;stroke:#dab679;stroke-miterlimit:10;stroke-width:1.149999976158142px"/><line x1="45.3356" y1="27.51495" x2="34.91716" y2="27.51491" style="fill:none;stroke:#dab679;stroke-miterlimit:10;stroke-width:1.149999976158142px"/><polyline points="43.276 50.122 43.276 68.307 20.586 68.307 20.586 50.122" style="fill:none;stroke:#dab679;stroke-miterlimit:10;stroke-width:1.149999976158142px"/><path d="M20.58662,64.88165a3.42549,3.42549,0,0,1,3.42549,3.42549h0" style="fill:none;stroke:#dab679;stroke-miterlimit:10;stroke-width:1.149999976158142px"/><path d="M39.85037,68.30708a3.42549,3.42549,0,0,1,3.42549-3.42549h0" style="fill:none;stroke:#dab679;stroke-miterlimit:10;stroke-width:1.149999976158142px"/><polyline points="6.401 41.208 6.401 5.294 29.09 5.294 29.09 41.208" style="fill:none;stroke:#dab679;stroke-miterlimit:10;stroke-width:1.149999976158142px"/><path d="M29.09069,8.719A3.42549,3.42549,0,0,1,25.6652,5.29351h0" style="fill:none;stroke:#dab679;stroke-miterlimit:10;stroke-width:1.149999976158142px"/><path d="M9.8269,5.29359A3.42549,3.42549,0,0,1,6.40141,8.71908h0" style="fill:none;stroke:#dab679;stroke-miterlimit:10;stroke-width:1.149999976158142px"/><polyline points="22.329 29.107 22.329 19.869 17.384 19.869 17.384 28.35 12.439 28.35 12.439 19.274" style="fill:none;stroke:#dab679;stroke-miterlimit:10;stroke-width:1.149999976158142px"/><line x1="9.86388" y1="25.40687" x2="25.62823" y2="25.40687" style="fill:none;stroke:#dab679;stroke-miterlimit:10;stroke-width:1.149999976158142px"/><line x1="9.86388" y1="22.97393" x2="25.62823" y2="22.97393" style="fill:none;stroke:#dab679;stroke-miterlimit:10;stroke-width:1.149999976158142px"/></svg>