<svg xmlns="http://www.w3.org/2000/svg" xmlns:xlink="http://www.w3.org/1999/xlink" viewBox="0 0 43.4595 105.31619"><defs><clipPath id="a"><rect x="10.2668" y="25.50699" width="26.0102" height="26.0099" style="fill:none"/></clipPath></defs><title>finance-box1-icon</title><path d="M.575,29.85709a18.272,18.272,0,1,0,18.271-18.272A18.27138,18.27138,0,0,0,.575,29.85709" style="fill:#fdfbf8"/><path d="M.575,29.85709a18.272,18.272,0,1,0,18.271-18.272A18.27138,18.27138,0,0,0,.575,29.85709" style="fill:#fdfbf8"/><path d="M21.489,8.27069V.57569a7.15245,7.15245,0,0,1,7.132,7.132v-4.213a7.15374,7.15374,0,0,1,7.132,7.132v5.313a7.1531,7.1531,0,0,1,7.132,7.132v82.244H14.357V1.13969a7.15354,7.15354,0,0,1,7.132,7.131" style="fill:#fff"/><g style="opacity:0.039993301033973694"><g style="clip-path:url(#a)"><path d="M10.2664,38.51189a13.0055,13.0055,0,1,0,13.006-13.005,13.00517,13.00517,0,0,0-13.006,13.005" style="fill:#042a3e"/></g></g><path d="M21.489,31.09639V8.27139a7.1531,7.1531,0,0,0-7.132-7.132v39.397" style="fill:none;stroke:#dab679;stroke-miterlimit:10;stroke-width:1.149999976158142px"/><line x1="14.3572" y1="9.00649" x2="17.9222" y2="9.00649" style="fill:none;stroke:#dab679;stroke-miterlimit:10;stroke-width:1.149999976158142px"/><path d="M35.7527,36.09439v-25.468a7.1531,7.1531,0,0,0-7.132-7.132v29.957" style="fill:none;stroke:#dab679;stroke-miterlimit:10;stroke-width:1.149999976158142px"/><line x1="28.6209" y1="11.36149" x2="32.1859" y2="11.36149" style="fill:none;stroke:#dab679;stroke-miterlimit:10;stroke-width:1.149999976158142px"/><path d="M42.8845,105.31609v-82.244a7.1531,7.1531,0,0,0-7.132-7.132v21.217" style="fill:none;stroke:#dab679;stroke-miterlimit:10;stroke-width:1.149999976158142px"/><line x1="35.7527" y1="23.80679" x2="39.3177" y2="23.80679" style="fill:none;stroke:#dab679;stroke-miterlimit:10;stroke-width:1.149999976158142px"/><path d="M28.6209,33.175V7.707A7.15245,7.15245,0,0,0,21.4889.575v32.6" style="fill:none;stroke:#dab679;stroke-miterlimit:10;stroke-width:1.149999976158142px"/><line x1="21.489" y1="8.44209" x2="25.054" y2="8.44209" style="fill:none;stroke:#dab679;stroke-miterlimit:10;stroke-width:1.149999976158142px"/><path d="M.575,29.85709a18.272,18.272,0,1,0,18.271-18.272A18.27138,18.27138,0,0,0,.575,29.85709" style="fill:#fff"/><circle cx="18.8465" cy="29.85684" r="18.27175" style="fill:none;stroke:#dab679;stroke-miterlimit:10;stroke-width:1.149999976158142px"/><line x1="4.3982" y1="32.43029" x2="7.9542" y2="32.43029" style="fill:#fff"/><path d="M22.6092,57.26339a13.20276,13.20276,0,0,0-13.203-13.203" style="fill:#fff"/><path d="M14.3572,105.31609v-25.01c0-1.617-.404-7.553-1.178-8.974l-8.781-16.152v-30.594a7.13218,7.13218,0,0,1,7.112,7.111v12.363l5.954,2.749,3.26,3.853" style="fill:#fff"/><line x1="4.3982" y1="32.43029" x2="7.9542" y2="32.43029" style="fill:none;stroke:#dab679;stroke-miterlimit:10;stroke-width:1.149999976158142px"/><path d="M22.6092,57.26339a13.20276,13.20276,0,0,0-13.203-13.203" style="fill:none;stroke:#dab679;stroke-miterlimit:10;stroke-width:1.149999976158142px"/><path d="M11.5105,44.06019v-12.363a7.133,7.133,0,0,0-7.112-7.112v30.595l8.781,16.152c.773,1.421,1.178,7.356,1.178,8.974v25.01" style="fill:none;stroke:#dab679;stroke-miterlimit:10;stroke-width:1.149999976158142px"/></svg>