<svg xmlns="http://www.w3.org/2000/svg" viewBox="0 0 65.472 93.72677"><title>finance-box3-icon</title><path d="M.57505,45.48248a32.161,32.161,0,1,1,64.3219-.11394q.0001.057,0,.11394" style="fill:none;stroke:#dab679;stroke-miterlimit:10;stroke-width:1.149999976158142px"/><path d="M32.73605,13.32153A31.033,31.033,0,0,1,54.03272,38.14127" style="fill:none;stroke:#dab679;stroke-miterlimit:10;stroke-width:1.149999976158142px"/><path d="M.57505,45.48248a10.7134,10.7134,0,1,1,21.4268,0" style="fill:none;stroke:#dab679;stroke-miterlimit:10;stroke-width:1.149999976158142px"/><path d="M22.00185,45.48248a10.7134,10.7134,0,0,1,21.4268,0" style="fill:none;stroke:#dab679;stroke-miterlimit:10;stroke-width:1.149999976158142px"/><path d="M43.42865,45.48248a10.7134,10.7134,0,0,1,21.4268,0" style="fill:none;stroke:#dab679;stroke-miterlimit:10;stroke-width:1.149999976158142px"/><line x1="32.736" y1="13.32153" x2="32.736" y2="7.91074" style="fill:none;stroke:#dab679;stroke-miterlimit:10;stroke-width:1.149999976158142px"/><line x1="32.71525" y1="13.32153" x2="32.71525" y2="93.72677" style="fill:none;stroke:#dab679;stroke-miterlimit:10;stroke-width:1.149999976158142px"/><path d="M49.79315,4.5431a1.13078,1.13078,0,0,1-2.26156.00257V4.5431a9.13708,9.13708,0,0,1,1.13078-2.45454A9.13708,9.13708,0,0,1,49.79315,4.5431Z" style="fill:#dab679"/><path d="M40.70734,9.59736a1.13078,1.13078,0,0,1-2.26156.00257V9.59736a9.13708,9.13708,0,0,1,1.13078-2.45454A9.13708,9.13708,0,0,1,40.70734,9.59736Z" style="fill:#dab679"/><path d="M18.3253,11.85072a1.13078,1.13078,0,0,1-2.26156,0,9.137,9.137,0,0,1,1.13078-2.45454A9.13708,9.13708,0,0,1,18.3253,11.85072Z" style="fill:#dab679"/><path d="M57.46965,15.96846a1.13078,1.13078,0,0,1-2.26156.00257v-.00257a9.13708,9.13708,0,0,1,1.13078-2.45454A9.13708,9.13708,0,0,1,57.46965,15.96846Z" style="fill:#dab679"/><path d="M25.98187,2.45454a1.13078,1.13078,0,1,1-2.26156,0A9.137,9.137,0,0,1,24.85105,0,9.13708,9.13708,0,0,1,25.98187,2.45454Z" style="fill:#dab679"/><path d="M33.5599,13.32153A31.033,31.033,0,0,0,12.26318,38.14127" style="fill:none;stroke:#dab679;stroke-miterlimit:10;stroke-width:1.149999976158142px"/></svg>