<svg xmlns="http://www.w3.org/2000/svg" viewBox="0 0 79.51534 237.15824"><title>how-dist-hand3</title><path d="M40.19112,14.82538V.57669A13.244,13.244,0,0,0,26.98584,13.78188V5.98249A13.244,13.244,0,0,0,13.78057,19.18761V52.77609h0l-.00031-23.74938A13.244,13.244,0,0,0,.575,42.2319L.57531,237.15817H53.3964V1.622A13.24421,13.24421,0,0,0,40.19112,14.82538Z" style="fill:#fff"/><circle cx="36.88982" cy="70.82073" r="24.08057" style="fill:#042a3e;opacity:0.03999999910593033;isolation:isolate"/><path d="M40.19121,57.09035l-.00015-42.26314A13.24409,13.24409,0,0,1,53.39633,1.622h0l.00012,72.94842" style="fill:none;stroke:#dab679;stroke-miterlimit:10;stroke-width:1.149999976158142px"/><line x1="53.39633" y1="16.18812" x2="46.79378" y2="16.18811" style="fill:none;stroke:#dab679;stroke-miterlimit:10;stroke-width:1.149999976158142px"/><path d="M40.19121,27.39034" style="fill:none;stroke:#dab679;stroke-miterlimit:10;stroke-width:1.149999976158142px"/><path d="M13.78057,66.34469l-.00015-47.157A13.24409,13.24409,0,0,1,26.98568,5.9825h0l.00011,55.4683" style="fill:none;stroke:#dab679;stroke-miterlimit:10;stroke-width:1.149999976158142px"/><line x1="26.98568" y1="20.54857" x2="20.38314" y2="20.54856" style="fill:none;stroke:#dab679;stroke-miterlimit:10;stroke-width:1.149999976158142px"/><path d="M13.78057,31.7508" style="fill:none;stroke:#dab679;stroke-miterlimit:10;stroke-width:1.149999976158142px"/><path d="M.57517,237.1582.575,42.2319A13.24409,13.24409,0,0,1,13.78026,29.02674h0l.00011,39.28558" style="fill:none;stroke:#dab679;stroke-miterlimit:10;stroke-width:1.149999976158142px"/><line x1="13.78028" y1="43.59281" x2="7.17774" y2="43.5928" style="fill:none;stroke:#dab679;stroke-miterlimit:10;stroke-width:1.149999976158142px"/><path d="M.57517,54.795" style="fill:none;stroke:#dab679;stroke-miterlimit:10;stroke-width:1.149999976158142px"/><path d="M26.986,60.93889l-.00015-47.157A13.24409,13.24409,0,0,1,40.19107.57669h0l.00011,60.36222" style="fill:none;stroke:#dab679;stroke-miterlimit:10;stroke-width:1.149999976158142px"/><line x1="40.19109" y1="15.14276" x2="33.58853" y2="15.14275" style="fill:none;stroke:#dab679;stroke-miterlimit:10;stroke-width:1.149999976158142px"/><path d="M26.986,26.345" style="fill:none;stroke:#dab679;stroke-miterlimit:10;stroke-width:1.149999976158142px"/><circle cx="45.08354" cy="54.79503" r="33.83272" style="fill:#fff"/><circle cx="45.08354" cy="54.79503" r="33.83272" style="fill:none;stroke:#dab679;stroke-miterlimit:10;stroke-width:1.19815194606781px"/><circle cx="45.08353" cy="54.79503" r="29.39123" style="fill:none;stroke:#dab679;stroke-miterlimit:10;stroke-width:1.19815194606781px;stroke-dasharray:3.5504257678985596,3.5504257678985596"/><path d="M55.07953,54.81634" style="fill:none;stroke:#dab679;stroke-miterlimit:10;stroke-width:1.19815194606781px"/><line x1="55.07953" y1="54.81634" x2="44.07082" y2="49.81255" style="fill:none;stroke:#dab679;stroke-miterlimit:10;stroke-width:1.19815194606781px"/><polyline points="55.08 54.817 44.071 36.37 44.071 73.221 55.08 54.817" style="fill:none;stroke:#dab679;stroke-miterlimit:10;stroke-width:1.19815194606781px"/><line x1="55.07953" y1="54.81634" x2="44.07082" y2="61.32342" style="fill:none;stroke:#dab679;stroke-miterlimit:10;stroke-width:1.19815194606781px"/><path d="M33.062,54.81634" style="fill:none;stroke:#dab679;stroke-miterlimit:10;stroke-width:1.19815194606781px"/><line x1="33.06195" y1="54.81634" x2="44.07067" y2="49.81255" style="fill:none;stroke:#dab679;stroke-miterlimit:10;stroke-width:1.19815194606781px"/><line x1="44.07067" y1="73.22046" x2="33.06195" y2="54.81634" style="fill:none;stroke:#dab679;stroke-miterlimit:10;stroke-width:1.19815194606781px"/><line x1="33.06195" y1="54.81634" x2="44.07074" y2="36.3696" style="fill:none;stroke:#dab679;stroke-miterlimit:10;stroke-width:1.19815194606781px"/><line x1="33.06195" y1="54.81634" x2="44.07067" y2="61.32342" style="fill:none;stroke:#dab679;stroke-miterlimit:10;stroke-width:1.19815194606781px"/><path d="M.57517,101.68481" style="fill:none;stroke:#dab679;stroke-miterlimit:10;stroke-width:1.149999976158142px"/><line x1="71.83625" y1="59.56003" x2="65.25226" y2="59.56003" style="fill:none"/><path d="M38.11718,105.54189a24.44725,24.44725,0,0,1,24.44725-24.4472" style="fill:#fff"/><path d="M53.39633,237.1582V148.20826c0-2.99519.74948-13.98489,2.18015-16.61632l16.26-29.90713-.00024-56.65h0A13.20677,13.20677,0,0,0,58.66825,58.203l.00021,22.89161L47.6424,86.18323l-6.03551,7.135" style="fill:#fff"/><line x1="71.83625" y1="59.56003" x2="65.25226" y2="59.56003" style="fill:none;stroke:#dab679;stroke-miterlimit:10;stroke-width:1.149999976158142px"/><path d="M38.11718,105.54189a24.44725,24.44725,0,0,1,24.44725-24.4472" style="fill:none;stroke:#dab679;stroke-miterlimit:10;stroke-width:1.149999976158142px"/><path d="M58.66834,81.09469l-.00021-22.89161a13.20677,13.20677,0,0,1,13.168-13.16821h0l.00024,56.65-16.26,29.90714c-1.43066,2.63142-2.18011,13.62112-2.18011,16.61632v88.94992" style="fill:none;stroke:#dab679;stroke-miterlimit:10;stroke-width:1.149999976158142px"/></svg>