<?xml version="1.0" encoding="utf-8"?>
<!-- Generator: Adobe Illustrator 21.0.2, SVG Export Plug-In . SVG Version: 6.00 Build 0)  -->
<svg version="1.1" id="Layer_1" xmlns="http://www.w3.org/2000/svg" xmlns:xlink="http://www.w3.org/1999/xlink" x="0px" y="0px"
	 viewBox="0 0 54.6 104.3" style="enable-background:new 0 0 54.6 104.3;" xml:space="preserve">
<style type="text/css">
	.st0{fill:#FFFFFF;}
	.st1{fill:none;stroke:#DAB679;stroke-width:1.15;stroke-miterlimit:10;}
	.st2{fill:#DAB679;}
</style>
<path class="st0" d="M17,11.4c0-6-3.4-10.8-9.4-10.8h39.9c-6,0-9.4,4.8-9.4,10.8h-0.1H17"/>
<title>how-vase</title>
<rect x="15.9" y="101.5" class="st0" width="22.9" height="2.2"/>
<path class="st0" d="M34.5,99.1c37.7-84.4,3.3-87.7,3.3-87.7h-21c0,0-34.4,3.3,3.3,87.7L34.5,99.1z"/>
<path class="st1" d="M34.5,99.1c37.7-84.4,3.3-87.7,3.3-87.7h-21c0,0-34.4,3.3,3.3,87.7L34.5,99.1z"/>
<path class="st1" d="M20.1,99.1c0,1.3-1.1,2.4-2.4,2.4h0l0,0"/>
<path class="st1" d="M34.5,99.1c0,1.3,1.1,2.4,2.4,2.4l0,0l0,0"/>
<rect x="15.9" y="101.5" class="st1" width="22.9" height="2.2"/>
<line class="st1" x1="47.3" y1="0.6" x2="7.3" y2="0.6"/>
<path class="st1" d="M7.3,0.6c6,0,9.4,4.8,9.4,10.8"/>
<path class="st1" d="M9.1,15.5C5,15.7,1.3,12.1,0.8,8C0.2,4.4,2.7,1.1,6.2,0.6l0,0c2.8-0.4,5.5,1.6,5.9,4.4c0.3,2.3-1.2,4.4-3.5,4.7
	l0,0c-1.8,0.3-3.5-1-3.8-2.8c-0.2-1.4,0.8-2.8,2.2-3"/>
<ellipse transform="matrix(0.9898 -0.1423 0.1423 0.9898 -0.5871 1.0949)" class="st2" cx="7.4" cy="4.7" rx="1.3" ry="1.3"/>
<path class="st1" d="M47.3,0.6c-6,0-9.4,4.8-9.4,10.8"/>
<path class="st1" d="M45.5,15.5c4.1,0.2,7.8-3.4,8.4-7.5c0.5-3.5-1.9-6.8-5.5-7.3c0,0,0,0,0,0c-2.8-0.4-5.5,1.6-5.9,4.4
	c-0.3,2.3,1.2,4.4,3.5,4.7l0,0c1.8,0.3,3.5-1,3.8-2.8c0.2-1.4-0.8-2.8-2.2-3"/>
<ellipse transform="matrix(0.1423 -0.9898 0.9898 0.1423 35.9394 50.7778)" class="st2" cx="47.3" cy="4.7" rx="1.3" ry="1.3"/>
<line class="st1" x1="53.6" y1="28.9" x2="1" y2="28.9"/>
<line class="st1" x1="54.6" y1="31.9" x2="0" y2="31.9"/>
<polyline class="st1" points="48.6,60.5 44.7,60.5 44.7,55.8 47.2,55.8 47.2,51.5 40.6,51.5 40.6,60.5 34.1,60.5 34.1,55.8 
	36.6,55.8 36.6,51.5 30.1,51.5 30.1,60.5 23.6,60.5 23.6,55.8 26,55.8 26,51.5 19.5,51.5 19.5,60.5 13,60.5 13,55.8 15.4,55.8 
	15.4,51.5 8.9,51.5 8.9,60.5 6.1,60.5 "/>
<rect x="3" y="28.9" class="st2" width="48.5" height="3"/>
<path class="st1" d="M101.1,95.1l14.4,0"/>
</svg>
