<svg xmlns="http://www.w3.org/2000/svg" viewBox="0 0 79.51534 194.5165"><title>how-dist-hand2</title><path d="M40.19112,14.82532V.5766A13.244,13.244,0,0,0,26.98584,13.78179V5.98243A13.244,13.244,0,0,0,13.78057,19.18755V52.776h0l-.0003-23.74938A13.244,13.244,0,0,0,.575,42.23184L.5753,194.51645H53.3964V1.622A13.2442,13.2442,0,0,0,40.19112,14.82532Z" style="fill:#fff"/><circle cx="36.8898" cy="70.82067" r="24.08057" style="fill:#042a3e;opacity:0.03999999910593033;isolation:isolate"/><path d="M40.1912,57.0903,40.191,14.82715A13.24408,13.24408,0,0,1,53.39632,1.622h0l.00011,72.94842" style="fill:none;stroke:#dab679;stroke-miterlimit:10;stroke-width:1.149999976158142px"/><line x1="53.39633" y1="16.18806" x2="46.79378" y2="16.18805" style="fill:none;stroke:#dab679;stroke-miterlimit:10;stroke-width:1.149999976158142px"/><path d="M40.1912,27.39028" style="fill:none;stroke:#dab679;stroke-miterlimit:10;stroke-width:1.149999976158142px"/><path d="M13.78055,66.34465l-.00015-47.157A13.24409,13.24409,0,0,1,26.98566,5.98249h0l.00011,55.4683" style="fill:none;stroke:#dab679;stroke-miterlimit:10;stroke-width:1.149999976158142px"/><line x1="26.98569" y1="20.54851" x2="20.38314" y2="20.54851" style="fill:none;stroke:#dab679;stroke-miterlimit:10;stroke-width:1.149999976158142px"/><path d="M13.78055,31.75074" style="fill:none;stroke:#dab679;stroke-miterlimit:10;stroke-width:1.149999976158142px"/><path d="M.57515,194.51648.575,42.23184A13.24409,13.24409,0,0,1,13.78026,29.02668h0l.00011,39.28558" style="fill:none;stroke:#dab679;stroke-miterlimit:10;stroke-width:1.149999976158142px"/><line x1="13.78028" y1="43.59275" x2="7.17773" y2="43.59275" style="fill:none;stroke:#dab679;stroke-miterlimit:10;stroke-width:1.149999976158142px"/><path d="M.57515,54.795" style="fill:none;stroke:#dab679;stroke-miterlimit:10;stroke-width:1.149999976158142px"/><path d="M26.986,60.93885l-.00015-47.157A13.24408,13.24408,0,0,1,40.1911.57669h0l.00011,60.36222" style="fill:none;stroke:#dab679;stroke-miterlimit:10;stroke-width:1.149999976158142px"/><line x1="40.19109" y1="15.1427" x2="33.58853" y2="15.14269" style="fill:none;stroke:#dab679;stroke-miterlimit:10;stroke-width:1.149999976158142px"/><path d="M26.986,26.345" style="fill:none;stroke:#dab679;stroke-miterlimit:10;stroke-width:1.149999976158142px"/><circle cx="45.08354" cy="54.79497" r="33.83272" style="fill:#fff"/><circle cx="45.08354" cy="54.79497" r="33.83272" style="fill:none;stroke:#dab679;stroke-miterlimit:10;stroke-width:1.19815194606781px"/><circle cx="45.08356" cy="54.79497" r="29.39123" style="fill:none;stroke:#dab679;stroke-miterlimit:10;stroke-width:1.19815194606781px;stroke-dasharray:3.5504257678985596,3.5504257678985596"/><polyline points="32.37 41.153 59.932 41.153 59.932 57.12 41.615 57.12" style="fill:none;stroke:#dab679;stroke-miterlimit:10;stroke-width:1.19815194606781px"/><line x1="41.60677" y1="41.16495" x2="41.6231" y2="69.79228" style="fill:none;stroke:#dab679;stroke-miterlimit:10;stroke-width:1.19815194606781px"/><line x1="32.37065" y1="69.7881" x2="44.40982" y2="69.7881" style="fill:none;stroke:#dab679;stroke-miterlimit:10;stroke-width:1.19815194606781px"/><line x1="35.1574" y1="41.16495" x2="35.17371" y2="69.79228" style="fill:none;stroke:#dab679;stroke-miterlimit:10;stroke-width:1.19815194606781px"/><path d="M.57515,101.68476" style="fill:none;stroke:#dab679;stroke-miterlimit:10;stroke-width:1.149999976158142px"/><line x1="71.83625" y1="59.55998" x2="65.25228" y2="59.55998" style="fill:none"/><path d="M38.11718,105.54184A24.44726,24.44726,0,0,1,62.56441,81.09459" style="fill:#fff"/><path d="M53.39633,194.51648V148.20821c0-2.99519.74947-13.98489,2.18013-16.61632l16.26-29.90713-.00024-56.65h0A13.20678,13.20678,0,0,0,58.66822,58.203l.00021,22.89161L47.64237,86.18318l-6.03551,7.135" style="fill:#fff"/><line x1="71.83625" y1="59.55998" x2="65.25228" y2="59.55998" style="fill:none;stroke:#dab679;stroke-miterlimit:10;stroke-width:1.149999976158142px"/><path d="M38.11718,105.54184A24.44726,24.44726,0,0,1,62.56441,81.09459" style="fill:none;stroke:#dab679;stroke-miterlimit:10;stroke-width:1.149999976158142px"/><path d="M58.66834,81.09459,58.66812,58.203a13.20678,13.20678,0,0,1,13.168-13.16821h0l.00024,56.65-16.26,29.90713c-1.43066,2.63142-2.18013,13.62112-2.18013,16.61632V194.5165" style="fill:none;stroke:#dab679;stroke-miterlimit:10;stroke-width:1.149999976158142px"/></svg>