<svg xmlns="http://www.w3.org/2000/svg" viewBox="0 0 62.84318 65.4175"><title>how-diamond</title><polygon points="0.788 32.245 31.421 64.581 62.055 32.245 48.258 17.368 14.585 17.368 0.788 32.245" style="fill:#fff"/><polygon points="0.788 32.245 31.421 64.581 62.055 32.245 48.258 17.368 14.585 17.368 0.788 32.245" style="fill:none;stroke:#dab679;stroke-miterlimit:10;stroke-width:1.149999976158142px"/><polyline points="31.421 64.581 19.948 32.245 31.421 17.368" style="fill:none;stroke:#dab679;stroke-miterlimit:10;stroke-width:1.149999976158142px"/><polyline points="31.421 17.368 42.895 32.245 31.421 64.581" style="fill:none;stroke:#dab679;stroke-miterlimit:10;stroke-width:1.149999976158142px"/><line x1="11.4863" y1="11.43863" x2="6.06838" y2="0.25061" style="fill:none;stroke:#dab679;stroke-miterlimit:10;stroke-width:1.149999976158142px"/><line x1="15.84534" y1="11.15271" x2="15.14812" y2="7.54758" style="fill:none;stroke:#dab679;stroke-miterlimit:10;stroke-width:1.149999976158142px"/><line x1="8.55908" y1="14.68124" x2="2.97449" y2="8.19602" style="fill:none;stroke:#dab679;stroke-miterlimit:10;stroke-width:1.149999976158142px"/><line x1="50.89333" y1="11.43863" x2="56.31125" y2="0.25061" style="fill:none;stroke:#dab679;stroke-miterlimit:10;stroke-width:1.149999976158142px"/><line x1="46.53429" y1="11.15271" x2="47.23151" y2="7.54758" style="fill:none;stroke:#dab679;stroke-miterlimit:10;stroke-width:1.149999976158142px"/><line x1="53.82054" y1="14.68124" x2="59.40514" y2="8.19602" style="fill:none;stroke:#dab679;stroke-miterlimit:10;stroke-width:1.149999976158142px"/><line x1="31.42134" y1="38.702" x2="31.42134" y2="45.57382" style="fill:none;stroke:#dab679;stroke-miterlimit:10;stroke-width:1.149999976158142px"/><line x1="47.4599" y1="39.01733" x2="44.58548" y2="45.2591" style="fill:none;stroke:#dab679;stroke-miterlimit:10;stroke-width:1.149999976158142px"/><line x1="15.84534" y1="39.01733" x2="18.71976" y2="45.2591" style="fill:none;stroke:#dab679;stroke-miterlimit:10;stroke-width:1.149999976158142px"/><line x1="51.653" y1="21.02939" x2="42.89505" y2="32.24521" style="fill:none;stroke:#dab679;stroke-miterlimit:10;stroke-width:1.149999976158142px"/><line x1="11.18967" y1="21.02939" x2="19.94762" y2="32.24521" style="fill:none;stroke:#dab679;stroke-miterlimit:10;stroke-width:1.149999976158142px"/><line x1="62.05469" y1="32.24521" x2="0.78797" y2="32.24521" style="fill:none;stroke:#dab679;stroke-miterlimit:10;stroke-width:1.149999976158142px"/></svg>