<?xml version="1.0" encoding="utf-8"?>
<!-- Generator: Adobe Illustrator 21.0.2, SVG Export Plug-In . SVG Version: 6.00 Build 0)  -->
<svg version="1.1" id="Layer_1" xmlns="http://www.w3.org/2000/svg" xmlns:xlink="http://www.w3.org/1999/xlink" x="0px" y="0px"
	 viewBox="0 0 70.2 83.4" style="enable-background:new 0 0 70.2 83.4;" xml:space="preserve">
<style type="text/css">
	.st0{fill:#FFFFFF;}
	.st1{fill:#DAB679;}
	.st2{fill:none;stroke:#DAB679;stroke-width:1.15;stroke-miterlimit:10;}
</style>
<path class="st0" d="M28.3,9.7V2.1c0-0.8,0.7-1.5,1.5-1.5h6.6c0.8,0,1.5,0.7,1.5,1.5l0,0v7.6"/>
<title>how-watch</title>
<path class="st0" d="M11.4,65.8l3.7,11.8c0.5,1.7,2.1,2.8,3.8,2.8h9.4v0.7c0,0.8,0.7,1.5,1.5,1.5h6.6c0.8,0,1.5-0.7,1.5-1.5v-0.7
	h9.4c1.7,0,3.3-1.1,3.8-2.8L55,65.8"/>
<circle class="st0" cx="33.2" cy="41.8" r="32.6"/>
<circle class="st1" cx="33.2" cy="41.8" r="2.1"/>
<circle class="st2" cx="33.2" cy="41.8" r="27.7"/>
<circle class="st2" cx="33.2" cy="41.8" r="32.6"/>
<line class="st2" x1="33.2" y1="23.1" x2="33.2" y2="45.7"/>
<line class="st2" x1="39.8" y1="48.4" x2="30.6" y2="39.3"/>
<path class="st1" d="M65.4,47.6h2.1c1.5,0,2.7-1.2,2.7-2.7v-6.2c0-1.5-1.2-2.7-2.7-2.7c0,0,0,0,0,0h-2.1"/>
<path class="st1" d="M64,31.8l0.7-0.3l0,0c0.6-0.3,0.9-1.1,0.6-1.7l-1.2-2.6c-0.3-0.6-1.1-0.9-1.7-0.6l0,0l-0.7,0.3"/>
<path class="st1" d="M64,52.5l0.7,0.3l0,0c0.6,0.3,0.9,1,0.7,1.7l-1.2,2.6c-0.3,0.6-1,0.9-1.7,0.7l0,0l0,0l-0.7-0.3"/>
<line class="st2" x1="21.3" y1="2.8" x2="21.3" y2="11.4"/>
<path class="st2" d="M28.3,9.7V2.1c0-0.8,0.7-1.5,1.5-1.5h6.6c0.8,0,1.5,0.7,1.5,1.5l0,0v7.6"/>
<path class="st2" d="M11.4,17.5l3.7-11.8c0.5-1.7,2.1-2.8,3.8-2.8h9.4"/>
<path class="st2" d="M55,17.5L51.2,5.6c-0.5-1.7-2.1-2.8-3.8-2.8H38"/>
<line class="st2" x1="44.9" y1="2.8" x2="44.9" y2="11.4"/>
<line class="st2" x1="45" y1="80.6" x2="45" y2="72"/>
<path class="st2" d="M38,73.7v7.6c0,0.8-0.7,1.5-1.5,1.5h-6.6c-0.8,0-1.5-0.7-1.5-1.5v-7.6"/>
<path class="st2" d="M55,66l-3.7,11.8c-0.5,1.7-2.1,2.8-3.8,2.8H38"/>
<path class="st2" d="M11.4,66l3.7,11.8c0.5,1.7,2.1,2.8,3.8,2.8h9.4"/>
<line class="st2" x1="21.5" y1="80.6" x2="21.5" y2="72"/>
<circle class="st2" cx="17.6" cy="50.9" r="5.2"/>
<circle class="st1" cx="17.6" cy="50.9" r="0.9"/>
<line class="st2" x1="17.6" y1="47.7" x2="17.6" y2="50.9"/>
<circle class="st2" cx="48.7" cy="50.9" r="5.2"/>
<circle class="st1" cx="48.7" cy="50.9" r="0.9"/>
<line class="st2" x1="48.7" y1="50.9" x2="48.7" y2="54"/>
<circle class="st2" cx="33.2" cy="58" r="5.2"/>
<circle class="st1" cx="33.2" cy="58" r="0.9"/>
<line class="st2" x1="35.2" y1="56.2" x2="33.2" y2="58"/>
</svg>
