<svg xmlns="http://www.w3.org/2000/svg" viewBox="0 0 79.51533 237.15821"><title>how-dist-hand1</title><path d="M40.1911,14.82538V.57669A13.244,13.244,0,0,0,26.98583,13.78185V5.98249A13.244,13.244,0,0,0,13.78055,19.18761V52.77608h0l-.0003-23.7494A13.244,13.244,0,0,0,.575,42.2319L.5753,237.15816H53.3964V1.622A13.2442,13.2442,0,0,0,40.1911,14.82538Z" style="fill:#fff"/><circle cx="36.8898" cy="70.82073" r="24.08057" style="fill:#042a3e;opacity:0.03999999910593033;isolation:isolate"/><path d="M40.1912,57.09035,40.191,14.82721A13.24409,13.24409,0,0,1,53.39631,1.622h0l.00011,72.94842" style="fill:none;stroke:#dab679;stroke-miterlimit:10;stroke-width:1.149999976158142px"/><line x1="53.39632" y1="16.18812" x2="46.79377" y2="16.18811" style="fill:none;stroke:#dab679;stroke-miterlimit:10;stroke-width:1.149999976158142px"/><path d="M40.1912,27.39034" style="fill:none;stroke:#dab679;stroke-miterlimit:10;stroke-width:1.149999976158142px"/><path d="M13.78055,66.34469l-.00015-47.157A13.24409,13.24409,0,0,1,26.98566,5.9825h0l.00011,55.4683" style="fill:none;stroke:#dab679;stroke-miterlimit:10;stroke-width:1.149999976158142px"/><line x1="26.98567" y1="20.54857" x2="20.38312" y2="20.54856" style="fill:none;stroke:#dab679;stroke-miterlimit:10;stroke-width:1.149999976158142px"/><path d="M13.78055,31.7508" style="fill:none;stroke:#dab679;stroke-miterlimit:10;stroke-width:1.149999976158142px"/><path d="M.57515,237.1582.575,42.2319A13.24409,13.24409,0,0,1,13.78026,29.02674h0l.00011,39.28558" style="fill:none;stroke:#dab679;stroke-miterlimit:10;stroke-width:1.149999976158142px"/><line x1="13.78027" y1="43.59281" x2="7.17772" y2="43.5928" style="fill:none;stroke:#dab679;stroke-miterlimit:10;stroke-width:1.149999976158142px"/><path d="M.57515,54.795" style="fill:none;stroke:#dab679;stroke-miterlimit:10;stroke-width:1.149999976158142px"/><path d="M26.986,60.93888l-.00015-47.157A13.24409,13.24409,0,0,1,40.19106.57669h0l.00011,60.36222" style="fill:none;stroke:#dab679;stroke-miterlimit:10;stroke-width:1.149999976158142px"/><line x1="40.19107" y1="15.14276" x2="33.58852" y2="15.14275" style="fill:none;stroke:#dab679;stroke-miterlimit:10;stroke-width:1.149999976158142px"/><path d="M26.986,26.345" style="fill:none;stroke:#dab679;stroke-miterlimit:10;stroke-width:1.149999976158142px"/><circle cx="45.08353" cy="54.79502" r="33.83272" style="fill:#fff"/><circle cx="45.08353" cy="54.79502" r="33.83272" style="fill:none;stroke:#dab679;stroke-miterlimit:10;stroke-width:1.19815194606781px"/><circle cx="45.08356" cy="54.79503" r="29.39123" style="fill:none;stroke:#dab679;stroke-miterlimit:10;stroke-width:1.19815194606781px;stroke-dasharray:3.5504257678985596,3.5504257678985596"/><polyline points="32.37 41.153 59.932 41.153 59.932 57.121 41.615 57.121" style="fill:none;stroke:#dab679;stroke-miterlimit:10;stroke-width:1.19815194606781px"/><line x1="41.60677" y1="41.165" x2="41.62308" y2="69.79234" style="fill:none;stroke:#dab679;stroke-miterlimit:10;stroke-width:1.19815194606781px"/><line x1="32.37065" y1="69.78815" x2="44.40981" y2="69.78815" style="fill:none;stroke:#dab679;stroke-miterlimit:10;stroke-width:1.19815194606781px"/><line x1="35.15739" y1="41.165" x2="35.1737" y2="69.79234" style="fill:none;stroke:#dab679;stroke-miterlimit:10;stroke-width:1.19815194606781px"/><path d="M.57515,101.68481" style="fill:none;stroke:#dab679;stroke-miterlimit:10;stroke-width:1.149999976158142px"/><line x1="71.83624" y1="59.56002" x2="65.25226" y2="59.56002" style="fill:none"/><path d="M38.11716,105.54189A24.44725,24.44725,0,0,1,62.5644,81.09469" style="fill:#fff"/><path d="M53.39632,237.1582V148.20826c0-2.99519.74947-13.98489,2.18013-16.61632l16.26-29.90713-.00025-56.65h0A13.20678,13.20678,0,0,0,58.6682,58.203l.00012,22.89167-11.02606,5.0886-6.0355,7.135" style="fill:#fff"/><line x1="71.83624" y1="59.56002" x2="65.25226" y2="59.56002" style="fill:none;stroke:#dab679;stroke-miterlimit:10;stroke-width:1.149999976158142px"/><path d="M38.11716,105.54189A24.44725,24.44725,0,0,1,62.5644,81.09469" style="fill:none;stroke:#dab679;stroke-miterlimit:10;stroke-width:1.149999976158142px"/><path d="M58.66832,81.09469,58.6681,58.203a13.20678,13.20678,0,0,1,13.168-13.16821h0l.00025,56.65-16.26,29.90713c-1.43066,2.63142-2.18013,13.62112-2.18013,16.61632v88.94994" style="fill:none;stroke:#dab679;stroke-miterlimit:10;stroke-width:1.149999976158142px"/></svg>