<svg xmlns="http://www.w3.org/2000/svg" viewBox="0 0 137.03271 298.3329"><title>how3-code</title><g style="opacity:0.5"><path d="M6.231,166.79972c0,3.12256-1.15869,4.84619-3.19336,4.84619-1.79443,0-3.00928-1.68115-3.0376-4.71924,0-3.08008,1.32813-4.77588,3.19336-4.77588C5.12891,162.15077,6.231,163.87489,6.231,166.79972Zm-4.98779.14111c0,2.38818.73486,3.74463,1.86523,3.74463,1.27148,0,1.87939-1.48389,1.87939-3.82959,0-2.26074-.57959-3.74414-1.86523-3.74414-1.08789,0-1.87939,1.3281-1.87939,3.82908Z" style="fill:#dab679"/><path d="M2.82568,180.62831H2.79736l-1.59668.8623-.24023-.94678,2.00684-1.07373H4.02686v9.18408H2.82568Z" style="fill:#dab679"/><path d="M6.231,218.29091c0,3.12256-1.15869,4.84619-3.19336,4.84619-1.79443,0-3.00928-1.68115-3.0376-4.71924,0-3.08008,1.32813-4.77588,3.19336-4.77588C5.12891,213.642,6.231,215.36611,6.231,218.29091Zm-4.98779.14111c0,2.38818.73486,3.74463,1.86523,3.74463,1.27148,0,1.87939-1.48389,1.87939-3.82959,0-2.26074-.57959-3.74414-1.86523-3.74414C2.03467,214.60293,1.24316,215.93105,1.24316,218.432Z" style="fill:#dab679"/><path d="M2.82568,232.12051H2.79736l-1.59668.86182-.24023-.94678,2.00684-1.07373H4.02686v9.18408H2.82568Z" style="fill:#dab679"/><path d="M38.93164,170.494c0,3.12256-1.15869,4.84619-3.19336,4.84619-1.79443,0-3.00928-1.68115-3.0376-4.71924,0-3.08008,1.32813-4.77588,3.19336-4.77588C37.82956,165.84511,38.93164,167.56923,38.93164,170.494Zm-4.98779.14111c0,2.38818.73486,3.74463,1.86523,3.74463,1.27148,0,1.87939-1.48389,1.87939-3.82959,0-2.26074-.57959-3.74414-1.86523-3.74414C34.73535,166.80605,33.94385,168.13417,33.94385,170.63514Z" style="fill:#dab679"/><path d="M38.93164,187.91542c0,3.12256-1.15869,4.84619-3.19336,4.84619-1.79443,0-3.00928-1.68115-3.0376-4.71924,0-3.08008,1.32813-4.77588,3.19336-4.77588C37.82956,183.26649,38.93164,184.99062,38.93164,187.91542Zm-4.98779.14111c0,2.38818.73486,3.74463,1.86523,3.74463,1.27148,0,1.87939-1.48389,1.87939-3.82959,0-2.26074-.57959-3.74414-1.86523-3.74414C34.73535,184.22744,33.94385,185.55556,33.94385,188.05653Z" style="fill:#dab679"/><path d="M38.93164,222.75773c0,3.12256-1.15869,4.84619-3.19336,4.84619-1.79443,0-3.00928-1.68115-3.0376-4.71924,0-3.08008,1.32813-4.77588,3.19336-4.77588C37.82956,218.10879,38.93164,219.83291,38.93164,222.75773Zm-4.98779.14111c0,2.38818.73486,3.74463,1.86523,3.74463,1.27148,0,1.87939-1.48389,1.87939-3.82959,0-2.26074-.57959-3.74414-1.86523-3.74414-1.08789,0-1.87939,1.32811-1.87939,3.82909Z" style="fill:#dab679"/><path d="M35.52637,202.00186H35.498l-1.59668.86182-.24023-.94678,2.00684-1.07373h1.05959v9.18408H35.52638Z" style="fill:#dab679"/><path d="M104.33255,179.84853c0,3.12256-1.15869,4.84619-3.19336,4.84619-1.79443,0-3.00928-1.68115-3.0376-4.71924,0-3.08008,1.32813-4.77588,3.19336-4.77588C103.23047,175.1996,104.33255,176.92372,104.33255,179.84853Zm-4.98779.14111c0,2.38818.73486,3.74463,1.86523,3.74463,1.27148,0,1.87939-1.48389,1.87939-3.82959,0-2.26074-.57959-3.74414-1.86523-3.74414-1.08792,0-1.87943,1.32812-1.87943,3.8291Z" style="fill:#dab679"/><path d="M100.92725,159.35h-.02832l-1.59668.8623-.24023-.94678,2.00684-1.07373h1.05957v9.18409h-1.20117Z" style="fill:#dab679"/><path d="M104.33255,197.01259c0,3.12256-1.15869,4.84619-3.19336,4.84619-1.79443,0-3.00928-1.68115-3.0376-4.71924,0-3.08008,1.32813-4.77588,3.19336-4.77588C103.23047,192.36366,104.33255,194.08779,104.33255,197.01259Zm-4.98779.14111c0,2.38818.73486,3.74463,1.86523,3.74463,1.27148,0,1.87939-1.48389,1.87939-3.82959,0-2.26074-.57959-3.74414-1.86523-3.74414-1.08792,0-1.87943,1.32812-1.87943,3.82912Z" style="fill:#dab679"/><path d="M100.92725,210.8412h-.02832l-1.59668.8623-.24023-.94678,2.00684-1.07373h1.05957v9.18408h-1.20117Z" style="fill:#dab679"/><path d="M104.33255,259.31436c0,3.12256-1.15869,4.84619-3.19336,4.84619-1.79443,0-3.00928-1.68115-3.0376-4.71924,0-3.08008,1.32813-4.77588,3.19336-4.77588C103.23047,254.66542,104.33255,256.38954,104.33255,259.31436Zm-4.98779.14111c0,2.38818.73486,3.74463,1.86523,3.74463,1.27148,0,1.87939-1.48389,1.87939-3.82959,0-2.26074-.57959-3.74414-1.86523-3.74414-1.08792,0-1.87943,1.32812-1.87943,3.82909Z" style="fill:#dab679"/><path d="M100.92725,238.81581h-.02832l-1.59668.8623-.24023-.94678,2.00684-1.07373h1.05957v9.18412h-1.20117Z" style="fill:#dab679"/><path d="M104.33255,276.47842c0,3.12256-1.15869,4.84619-3.19336,4.84619-1.79443,0-3.00928-1.68115-3.0376-4.71924,0-3.08008,1.32813-4.77588,3.19336-4.77588C103.23047,271.82948,104.33255,273.55361,104.33255,276.47842Zm-4.98779.14111c0,2.38818.73486,3.74463,1.86523,3.74463,1.27148,0,1.87939-1.48389,1.87939-3.82959,0-2.26074-.57959-3.74414-1.86523-3.74414-1.08792,0-1.87943,1.32813-1.87943,3.82909Z" style="fill:#dab679"/><path d="M100.92725,290.307h-.02832l-1.59668.8623-.24023-.94678,2.00684-1.07373h1.05957v9.18408h-1.20117Z" style="fill:#dab679"/><path d="M137.03271,164.809c0,3.12256-1.15869,4.84619-3.19336,4.84619-1.79443,0-3.00928-1.68115-3.0376-4.71924,0-3.08008,1.32813-4.77588,3.19336-4.77588C135.93066,160.16005,137.03271,161.88417,137.03271,164.809Zm-4.98779.14111c0,2.38818.73486,3.74463,1.86523,3.74463,1.27148,0,1.87939-1.48389,1.87939-3.82959,0-2.26074-.57959-3.74414-1.86523-3.74414-1.08789,0-1.87939,1.32813-1.87939,3.82911Z" style="fill:#dab679"/><path d="M133.62744,179.6332h-.02832l-1.59668.8623-.24023-.94678L133.769,178.475h1.05957v9.18408h-1.20117Z" style="fill:#dab679"/><path d="M137.03271,219.28652c0,3.12256-1.15869,4.84619-3.19336,4.84619-1.79443,0-3.00928-1.68115-3.0376-4.71924,0-3.08008,1.32813-4.77588,3.19336-4.77588C135.93066,214.63759,137.03271,216.36173,137.03271,219.28652Zm-4.98779.14111c0,2.38818.73486,3.74463,1.86523,3.74463,1.27148,0,1.87939-1.48389,1.87939-3.82959,0-2.26074-.57959-3.74414-1.86523-3.74414C132.83643,215.59853,132.04492,216.92666,132.04492,219.42763Z" style="fill:#dab679"/><path d="M133.62744,197.79237h-.02832l-1.59668.8623-.24023-.94678,2.00684-1.07373h1.05957v9.18408h-1.20117Z" style="fill:#dab679"/><path d="M137.03271,237.44521c0,3.12256-1.15869,4.84619-3.19336,4.84619-1.79443,0-3.00928-1.68115-3.0376-4.71924,0-3.08008,1.32813-4.77588,3.19336-4.77588C135.93066,232.79628,137.03271,234.5204,137.03271,237.44521Zm-4.98779.14111c0,2.38818.73486,3.74463,1.86523,3.74463,1.27148,0,1.87939-1.48389,1.87939-3.82959,0-2.26074-.57959-3.74414-1.86523-3.74414C132.83643,233.75723,132.04492,235.08534,132.04492,237.58633Z" style="fill:#dab679"/><path d="M133.62744,252.26943h-.02832l-1.59668.8623-.24023-.94678,2.00684-1.07373h1.05957v9.18408h-1.20117Z" style="fill:#dab679"/><path d="M71.63184,235.20741c0,3.12256-1.15869,4.84619-3.19336,4.84619-1.79443,0-3.00928-1.68115-3.0376-4.71924,0-3.08008,1.32813-4.77588,3.19336-4.77588C70.52979,230.5585,71.63184,232.28262,71.63184,235.20741Zm-4.98779.14111c0,2.38818.73486,3.74463,1.86523,3.74463,1.27148,0,1.87939-1.48389,1.87939-3.82959,0-2.26074-.57959-3.74414-1.86523-3.74414C67.43556,231.51943,66.644,232.84756,66.644,235.34853Z" style="fill:#dab679"/><path d="M71.63184,158.81772c0,3.12256-1.15869,4.84619-3.19336,4.84619-1.79443,0-3.00928-1.68115-3.0376-4.71924,0-3.08008,1.32813-4.77588,3.19336-4.77588C70.52979,154.16884,71.63184,155.893,71.63184,158.81772Zm-4.98779.14111c0,2.38818.73486,3.74463,1.86523,3.74463,1.27148,0,1.87939-1.48389,1.87939-3.82959,0-2.26074-.57959-3.74414-1.86523-3.74414-1.08788.00005-1.87939,1.32817-1.87939,3.82915Z" style="fill:#dab679"/><path d="M71.63184,175.21621c0,3.12256-1.15869,4.84619-3.19336,4.84619-1.79443,0-3.00928-1.68115-3.0376-4.71924,0-3.08008,1.32813-4.77588,3.19336-4.77588C70.52979,170.56728,71.63184,172.2914,71.63184,175.21621Zm-4.98779.14111c0,2.38818.73486,3.74463,1.86523,3.74463,1.27148,0,1.87939-1.48389,1.87939-3.82959,0-2.26074-.57959-3.74414-1.86523-3.74414C67.43556,171.52821,66.644,172.85634,66.644,175.35732Z" style="fill:#dab679"/><path d="M71.63184,269.53456c0,3.12256-1.15869,4.84619-3.19336,4.84619-1.79443,0-3.00928-1.68115-3.0376-4.71924,0-3.08008,1.32813-4.77588,3.19336-4.77588C70.52979,264.88564,71.63184,266.60973,71.63184,269.53456Zm-4.98779.14111c0,2.38818.73486,3.74463,1.86523,3.74463,1.27148,0,1.87939-1.48389,1.87939-3.82959,0-2.26074-.57959-3.74414-1.86523-3.74414-1.08788,0-1.87939,1.32815-1.87939,3.82915Z" style="fill:#dab679"/><path d="M68.22656,249.037h-.02832l-1.59668.86182-.24023-.94678,2.00684-1.07373h1.05957v9.18408H68.22656Z" style="fill:#dab679"/><path d="M68.22656,188.74989h-.02832l-1.59668.8623-.24023-.94678,2.00684-1.07373h1.05957v9.18408H68.22656Z" style="fill:#dab679"/></g><g style="opacity:0.5"><path d="M6.231,12.63093c0,3.12256-1.15869,4.84619-3.19336,4.84619C1.24316,17.47712.02832,15.796,0,12.75788,0,9.6778,1.32813,7.982,3.19336,7.982,5.12891,7.982,6.231,9.7061,6.231,12.63093ZM1.24316,12.772c0,2.38818.73486,3.74463,1.86523,3.74463,1.27148,0,1.87939-1.48389,1.87939-3.82959,0-2.26074-.57959-3.74414-1.86523-3.74414-1.08789,0-1.87939,1.3281-1.87939,3.82908Z" style="fill:#dab679"/><path d="M2.82568,26.45952H2.79736l-1.59668.8623L.96045,26.375l2.00684-1.07373H4.02686v9.18408H2.82568Z" style="fill:#dab679"/><path d="M6.231,64.12212c0,3.12256-1.15869,4.84619-3.19336,4.84619-1.79443,0-3.00928-1.68115-3.0376-4.71924,0-3.08008,1.32813-4.77588,3.19336-4.77588C5.12891,59.47319,6.231,61.19731,6.231,64.12212Zm-4.98779.14111c0,2.38818.73486,3.74463,1.86523,3.74463,1.27148,0,1.87939-1.48389,1.87939-3.82959,0-2.26074-.57959-3.74414-1.86523-3.74414C2.03467,60.43413,1.24316,61.76226,1.24316,64.26323Z" style="fill:#dab679"/><path d="M2.82568,77.95171H2.79736l-1.59668.86182-.24023-.94678L2.96729,76.793H4.02686V85.9771H2.82568Z" style="fill:#dab679"/><path d="M38.93164,16.32524c0,3.12256-1.15869,4.84619-3.19336,4.84619-1.79443,0-3.00928-1.68115-3.0376-4.71924,0-3.08008,1.32813-4.77588,3.19336-4.77588C37.82956,11.67632,38.93164,13.40044,38.93164,16.32524Zm-4.98779.14111c0,2.38818.73486,3.74463,1.86523,3.74463,1.27148,0,1.87939-1.48389,1.87939-3.82959,0-2.26074-.57959-3.74414-1.86523-3.74414C34.73535,12.63726,33.94385,13.96538,33.94385,16.46635Z" style="fill:#dab679"/><path d="M38.93164,33.74663c0,3.12256-1.15869,4.84619-3.19336,4.84619-1.79443,0-3.00928-1.68115-3.0376-4.71924,0-3.08008,1.32813-4.77588,3.19336-4.77588C37.82956,29.0977,38.93164,30.82183,38.93164,33.74663Zm-4.98779.14111c0,2.38818.73486,3.74463,1.86523,3.74463,1.27148,0,1.87939-1.48389,1.87939-3.82959,0-2.26074-.57959-3.74414-1.86523-3.74414C34.73535,30.05864,33.94385,31.38677,33.94385,33.88774Z" style="fill:#dab679"/><path d="M38.93164,68.58893c0,3.12256-1.15869,4.84619-3.19336,4.84619-1.79443,0-3.00928-1.68115-3.0376-4.71924,0-3.08008,1.32813-4.77588,3.19336-4.77588C37.82956,63.94,38.93164,65.66411,38.93164,68.58893ZM33.94385,68.73c0,2.38818.73486,3.74463,1.86523,3.74463,1.27148,0,1.87939-1.48389,1.87939-3.82959,0-2.26074-.57959-3.74414-1.86523-3.74414-1.08789,0-1.87939,1.32811-1.87939,3.82909Z" style="fill:#dab679"/><path d="M35.52637,47.83306H35.498l-1.59668.86182-.24023-.94678L35.668,46.67437h1.05959v9.18408H35.52638Z" style="fill:#dab679"/><path d="M104.33255,25.67974c0,3.12256-1.15869,4.84619-3.19336,4.84619-1.79443,0-3.00928-1.68115-3.0376-4.71924,0-3.08008,1.32813-4.77588,3.19336-4.77588C103.23047,21.03081,104.33255,22.75493,104.33255,25.67974Zm-4.98779.14111c0,2.38818.73486,3.74463,1.86523,3.74463,1.27148,0,1.87939-1.48389,1.87939-3.82959,0-2.26074-.57959-3.74414-1.86523-3.74414-1.08792,0-1.87943,1.32812-1.87943,3.8291Z" style="fill:#dab679"/><path d="M100.92725,5.1812h-.02832l-1.59668.8623L99.062,5.09672,101.06885,4.023h1.05957v9.18409h-1.20117Z" style="fill:#dab679"/><path d="M104.33255,42.8438c0,3.12256-1.15869,4.84619-3.19336,4.84619-1.79443,0-3.00928-1.68115-3.0376-4.71924,0-3.08008,1.32813-4.77588,3.19336-4.77588C103.23047,38.19487,104.33255,39.919,104.33255,42.8438Zm-4.98779.14111c0,2.38818.73486,3.74463,1.86523,3.74463,1.27148,0,1.87939-1.48389,1.87939-3.82959,0-2.26074-.57959-3.74414-1.86523-3.74414-1.08792,0-1.87943,1.32812-1.87943,3.82912Z" style="fill:#dab679"/><path d="M100.92725,56.67241h-.02832l-1.59668.8623-.24023-.94678,2.00684-1.07373h1.05957v9.18408h-1.20117Z" style="fill:#dab679"/><path d="M104.33255,105.14556c0,3.12256-1.15869,4.84619-3.19336,4.84619-1.79443,0-3.00928-1.68115-3.0376-4.71924,0-3.08008,1.32813-4.77588,3.19336-4.77588C103.23047,100.49663,104.33255,102.22075,104.33255,105.14556Zm-4.98779.14111c0,2.38818.73486,3.74463,1.86523,3.74463,1.27148,0,1.87939-1.48389,1.87939-3.82959,0-2.26074-.57959-3.74414-1.86523-3.74414-1.08792,0-1.87943,1.32812-1.87943,3.82909Z" style="fill:#dab679"/><path d="M100.92725,84.647h-.02832l-1.59668.8623-.24023-.94678,2.00684-1.07373h1.05957v9.18412h-1.20117Z" style="fill:#dab679"/><path d="M104.33255,122.30962c0,3.12256-1.15869,4.84619-3.19336,4.84619-1.79443,0-3.00928-1.68115-3.0376-4.71924,0-3.08008,1.32813-4.77588,3.19336-4.77588C103.23047,117.66069,104.33255,119.38481,104.33255,122.30962Zm-4.98779.14111c0,2.38818.73486,3.74463,1.86523,3.74463,1.27148,0,1.87939-1.48389,1.87939-3.82959,0-2.26074-.57959-3.74414-1.86523-3.74414-1.08792,0-1.87943,1.32813-1.87943,3.82909Z" style="fill:#dab679"/><path d="M100.92725,136.13823h-.02832l-1.59668.8623-.24023-.94678,2.00684-1.07373h1.05957v9.18408h-1.20117Z" style="fill:#dab679"/><path d="M137.03271,10.64018c0,3.12256-1.15869,4.84619-3.19336,4.84619-1.79443,0-3.00928-1.68115-3.0376-4.71924,0-3.08008,1.32813-4.77588,3.19336-4.77588C135.93066,5.99126,137.03271,7.71538,137.03271,10.64018Zm-4.98779.14111c0,2.38818.73486,3.74463,1.86523,3.74463,1.27148,0,1.87939-1.48389,1.87939-3.82959,0-2.26074-.57959-3.74414-1.86523-3.74414-1.08789,0-1.87939,1.32813-1.87939,3.82911Z" style="fill:#dab679"/><path d="M133.62744,25.4644h-.02832l-1.59668.8623-.24023-.94678,2.00684-1.07373h1.05957v9.18408h-1.20117Z" style="fill:#dab679"/><path d="M137.03271,65.11772c0,3.12256-1.15869,4.84619-3.19336,4.84619-1.79443,0-3.00928-1.68115-3.0376-4.71924,0-3.08008,1.32813-4.77588,3.19336-4.77588C135.93066,60.4688,137.03271,62.19293,137.03271,65.11772Zm-4.98779.14111c0,2.38818.73486,3.74463,1.86523,3.74463,1.27148,0,1.87939-1.48389,1.87939-3.82959,0-2.26074-.57959-3.74414-1.86523-3.74414C132.83643,61.42974,132.04492,62.75786,132.04492,65.25883Z" style="fill:#dab679"/><path d="M133.62744,43.62358h-.02832l-1.59668.8623-.24023-.94678,2.00684-1.07373h1.05957v9.18408h-1.20117Z" style="fill:#dab679"/><path d="M137.03271,83.27642c0,3.12256-1.15869,4.84619-3.19336,4.84619-1.79443,0-3.00928-1.68115-3.0376-4.71924,0-3.08008,1.32813-4.77588,3.19336-4.77588C135.93066,78.62749,137.03271,80.35161,137.03271,83.27642Zm-4.98779.14111c0,2.38818.73486,3.74463,1.86523,3.74463,1.27148,0,1.87939-1.48389,1.87939-3.82959,0-2.26074-.57959-3.74414-1.86523-3.74414C132.83643,79.58843,132.04492,80.91655,132.04492,83.41753Z" style="fill:#dab679"/><path d="M133.62744,98.10063h-.02832l-1.59668.8623-.24023-.94678,2.00684-1.07373h1.05957v9.18408h-1.20117Z" style="fill:#dab679"/><path d="M71.63184,81.03862c0,3.12256-1.15869,4.84619-3.19336,4.84619-1.79443,0-3.00928-1.68115-3.0376-4.71924,0-3.08008,1.32813-4.77588,3.19336-4.77588C70.52979,76.3897,71.63184,78.11382,71.63184,81.03862Zm-4.98779.14111c0,2.38818.73486,3.74463,1.86523,3.74463,1.27148,0,1.87939-1.48389,1.87939-3.82959,0-2.26074-.57959-3.74414-1.86523-3.74414C67.43556,77.35063,66.644,78.67876,66.644,81.17973Z" style="fill:#dab679"/><path d="M71.63184,4.64893c0,3.12256-1.15869,4.84619-3.19336,4.84619-1.79443,0-3.00928-1.68115-3.0376-4.71924C65.40088,1.6958,66.729,0,68.59424,0,70.52979.00005,71.63184,1.72417,71.63184,4.64893ZM66.644,4.79c0,2.38818.73486,3.74463,1.86523,3.74463,1.27148,0,1.87939-1.48389,1.87939-3.82959,0-2.26074-.57959-3.74414-1.86523-3.74414C67.43556.961,66.644,2.28911,66.644,4.79009Z" style="fill:#dab679"/><path d="M71.63184,21.04741c0,3.12256-1.15869,4.84619-3.19336,4.84619-1.79443,0-3.00928-1.68115-3.0376-4.71924,0-3.08008,1.32813-4.77588,3.19336-4.77588C70.52979,16.39849,71.63184,18.12261,71.63184,21.04741Zm-4.98779.14111c0,2.38818.73486,3.74463,1.86523,3.74463,1.27148,0,1.87939-1.48389,1.87939-3.82959,0-2.26074-.57959-3.74414-1.86523-3.74414C67.43556,17.35942,66.644,18.68755,66.644,21.18852Z" style="fill:#dab679"/><path d="M71.63184,115.36577c0,3.12256-1.15869,4.84619-3.19336,4.84619-1.79443,0-3.00928-1.68115-3.0376-4.71924,0-3.08008,1.32813-4.77588,3.19336-4.77588C70.52979,110.71685,71.63184,112.44093,71.63184,115.36577Zm-4.98779.14111c0,2.38818.73486,3.74463,1.86523,3.74463,1.27148,0,1.87939-1.48389,1.87939-3.82959,0-2.26074-.57959-3.74414-1.86523-3.74414-1.08788,0-1.87939,1.32815-1.87939,3.82915Z" style="fill:#dab679"/><path d="M68.22656,94.86821h-.02832L66.60156,95.73l-.24023-.94678,2.00684-1.07373h1.05957v9.18408H68.22656Z" style="fill:#dab679"/><path d="M68.22656,34.5811h-.02832l-1.59668.8623-.24023-.94678,2.00684-1.07373h1.05957V42.607H68.22656Z" style="fill:#dab679"/></g></svg>