<svg xmlns="http://www.w3.org/2000/svg" viewBox="0 0 104.48064 67.16126"><title>how3-card</title><path d="M21.67744,8.762H96.7709a7.13474,7.13474,0,0,1,7.13474,7.13474V59.45152a7.13474,7.13474,0,0,1-7.13474,7.13474H21.67746A7.13475,7.13475,0,0,1,14.5427,59.4515V15.89671A7.13474,7.13474,0,0,1,21.67744,8.762Z" style="fill:#fff"/><path d="M21.67744,8.762H96.7709a7.13474,7.13474,0,0,1,7.13474,7.13474V59.45152a7.13474,7.13474,0,0,1-7.13474,7.13474H21.67746A7.13475,7.13475,0,0,1,14.5427,59.4515V15.89671A7.13474,7.13474,0,0,1,21.67744,8.762Z" style="fill:none;stroke:#dab679;stroke-miterlimit:10;stroke-width:1.149999976158142px"/><circle cx="20.031" cy="15.78819" r="1.74783" style="fill:#dab679"/><line x1="66.9313" y1="28.75505" x2="59.22421" y2="25.25197" style="fill:none;stroke:#dab679;stroke-linecap:round;stroke-linejoin:round;stroke-width:1.149999976158142px"/><polyline points="66.932 28.755 59.225 15.841 59.225 41.64 66.932 28.755" style="fill:none;stroke:#dab679;stroke-linecap:round;stroke-linejoin:round;stroke-width:1.149999976158142px"/><line x1="66.9313" y1="28.75505" x2="59.22421" y2="33.31059" style="fill:none;stroke:#dab679;stroke-linecap:round;stroke-linejoin:round;stroke-width:1.149999976158142px"/><line x1="51.51702" y1="28.75505" x2="59.22412" y2="25.25197" style="fill:none;stroke:#dab679;stroke-linecap:round;stroke-linejoin:round;stroke-width:1.149999976158142px"/><line x1="59.22412" y1="41.63957" x2="51.51702" y2="28.75505" style="fill:none;stroke:#dab679;stroke-linecap:round;stroke-linejoin:round;stroke-width:1.149999976158142px"/><line x1="51.51702" y1="28.75505" x2="59.22418" y2="15.84074" style="fill:none;stroke:#dab679;stroke-linecap:round;stroke-linejoin:round;stroke-width:1.149999976158142px"/><line x1="51.51702" y1="28.75505" x2="59.22412" y2="33.31059" style="fill:none;stroke:#dab679;stroke-linecap:round;stroke-linejoin:round;stroke-width:1.149999976158142px"/><path d="M14.44053,20.99891a10.48918,10.48918,0,1,1,5.99271-5.2099" style="fill:none;stroke:#dab679;stroke-miterlimit:10;stroke-width:1.149999976158142px"/><line x1="20.29138" y1="49.70219" x2="25.03331" y2="49.70219" style="fill:none;stroke:#dab679;stroke-miterlimit:10;stroke-width:1.149999976158142px"/><line x1="28.41622" y1="49.70219" x2="41.28302" y2="49.70219" style="fill:none;stroke:#dab679;stroke-miterlimit:10;stroke-width:1.149999976158142px"/><line x1="44.66592" y1="49.70219" x2="49.40786" y2="49.70219" style="fill:none;stroke:#dab679;stroke-miterlimit:10;stroke-width:1.149999976158142px"/><line x1="52.79077" y1="49.70219" x2="73.78241" y2="49.70219" style="fill:none;stroke:#dab679;stroke-miterlimit:10;stroke-width:1.149999976158142px"/><line x1="77.16531" y1="49.70219" x2="81.90725" y2="49.70219" style="fill:none;stroke:#dab679;stroke-miterlimit:10;stroke-width:1.149999976158142px"/><line x1="85.29019" y1="49.70219" x2="98.15695" y2="49.70219" style="fill:none;stroke:#dab679;stroke-miterlimit:10;stroke-width:1.149999976158142px"/><line x1="20.29138" y1="56.77888" x2="25.03331" y2="56.77888" style="fill:none;stroke:#dab679;stroke-miterlimit:10;stroke-width:1.149999976158142px"/><line x1="28.41622" y1="56.77888" x2="49.40786" y2="56.77888" style="fill:none;stroke:#dab679;stroke-miterlimit:10;stroke-width:1.149999976158142px"/><line x1="52.79077" y1="56.77888" x2="57.53271" y2="56.77888" style="fill:none;stroke:#dab679;stroke-miterlimit:10;stroke-width:1.149999976158142px"/><line x1="60.91561" y1="56.77888" x2="65.65756" y2="56.77888" style="fill:none;stroke:#dab679;stroke-miterlimit:10;stroke-width:1.149999976158142px"/><line x1="69.04046" y1="56.77888" x2="73.78241" y2="56.77888" style="fill:none;stroke:#dab679;stroke-miterlimit:10;stroke-width:1.149999976158142px"/><line x1="77.16531" y1="56.77888" x2="90.0321" y2="56.77888" style="fill:none;stroke:#dab679;stroke-miterlimit:10;stroke-width:1.149999976158142px"/><line x1="93.41503" y1="56.77888" x2="98.15695" y2="56.77888" style="fill:none;stroke:#dab679;stroke-miterlimit:10;stroke-width:1.149999976158142px"/></svg>