<svg xmlns="http://www.w3.org/2000/svg" viewBox="0 0 148.31027 95.54376"><title>how4-pig</title><path d="M36.33759,74.09835,29.7964,94.96876H23.38049s-3.62-29.0095-5.93606-48.66487S33.1718,11.35409,52.39416,11.35409h51.01675q1.38642,0,2.74715.10777V11.0831A10.33115,10.33115,0,0,1,116.48922.75195l.00533,13.15923a35.26152,35.26152,0,0,1,20.05824,21.35394h11.18249v18.8943a6.7667,6.7667,0,0,1-6.7667,6.7667h-5.84327a35.05716,35.05716,0,0,1-31.71438,20.32751H98.98545L94.70732,94.96876H88.2914L86.34112,81.25363H34.741" style="fill:#fff"/><polygon points="34.395 82.804 36.16 94.969 42.576 94.969 46.41 81.254 34.741 81.254 34.395 82.804" style="fill:none;stroke:#dab679;stroke-miterlimit:10;stroke-width:1.1500000000000001px"/><polygon points="34.395 82.804 36.16 94.969 42.576 94.969 46.41 81.254 34.741 81.254 34.395 82.804" style="fill:#dab679"/><path d="M137.54621,53.77084a34.63316,34.63316,0,0,1-2.41865,7.15888" style="fill:none;stroke:#dab679;stroke-miterlimit:10;stroke-width:1.1500000000000001px"/><path d="M36.33759,74.09835,29.7964,94.96876H23.38049s-3.62-29.0095-5.93606-48.66487S33.1718,11.35409,52.39416,11.35409h51.01675q1.38642,0,2.74715.10777V11.0831A10.33115,10.33115,0,0,1,116.48922.75195l.00533,13.15923a35.26152,35.26152,0,0,1,20.05824,21.35394h11.18249v18.8943a6.7667,6.7667,0,0,1-6.7667,6.7667h-5.84327a35.05716,35.05716,0,0,1-31.71438,20.32751H98.98545L94.70732,94.96876H88.2914L86.34112,81.25363H34.741" style="fill:none;stroke:#dab679;stroke-miterlimit:10;stroke-width:1.1500000000000001px"/><path d="M105.84623,11.46186l.24141-2.49946,1.22495-2.96451,1.847-2.15974,1.98725-1.3375L111.14509,0a9.63858,9.63858,0,0,0-9.63858,9.63858v1.72273Z" style="fill:#dab679"/><polygon points="99.306 82.804 101.071 94.969 107.487 94.969 111.32 81.254 99.652 81.254 99.306 82.804" style="fill:none;stroke:#dab679;stroke-miterlimit:10;stroke-width:1.1500000000000001px"/><polygon points="99.306 82.804 101.071 94.969 107.487 94.969 111.32 81.254 99.652 81.254 99.306 82.804" style="fill:#dab679"/><line x1="98.98545" y1="81.25363" x2="101.31379" y2="74.09835" style="fill:none;stroke:#dab679;stroke-miterlimit:10;stroke-width:1.1500000000000001px"/><circle cx="124.29821" cy="31.31858" r="2.50782" style="fill:#dab679"/><circle cx="112.67354" cy="54.71741" r="10.74643" style="fill:#042a3e;opacity:0.04"/><path d="M13.82139,29.72128" style="fill:none;stroke:#dab679;stroke-miterlimit:10;stroke-width:1.1500000000000001px"/><path d="M19.36953,32.10415s-7.82247-.36213-7.981-6.47814c-.03649-1.40744,1.08924-3.31757,2.43289-3.31757" style="fill:none;stroke:#dab679;stroke-miterlimit:10;stroke-width:1.1500000000000001px"/><path d="M8.27325,32.10415s7.82247-.36213,7.981-6.47814c.03649-1.40744-1.08924-3.31757-2.43289-3.31757" style="fill:none;stroke:#dab679;stroke-miterlimit:10;stroke-width:1.1500000000000001px"/><rect x="48.39648" y="15.69478" width="51.15082" height="3.86959" rx="1.93479" ry="1.93479" style="fill:#dab679"/><circle cx="17.60518" cy="58.37192" r="17.60518" style="fill:#dab679"/><path d="M25.35963,58.38693" style="fill:none;stroke:#fff;stroke-linecap:round;stroke-linejoin:round;stroke-width:1.1500000000000001px"/><line x1="25.35963" y1="58.38693" x2="17.60522" y2="54.86233" style="fill:none;stroke:#fff;stroke-linecap:round;stroke-linejoin:round;stroke-width:1.1500000000000001px"/><polyline points="25.36 58.387 17.605 45.393 17.605 71.351 25.36 58.387" style="fill:none;stroke:#fff;stroke-linecap:round;stroke-linejoin:round;stroke-width:1.1500000000000001px"/><line x1="25.35963" y1="58.38693" x2="17.60522" y2="62.97042" style="fill:none;stroke:#fff;stroke-linecap:round;stroke-linejoin:round;stroke-width:1.1500000000000001px"/><path d="M9.85072,58.38693" style="fill:none;stroke:#fff;stroke-linecap:round;stroke-linejoin:round;stroke-width:1.1500000000000001px"/><line x1="9.85072" y1="58.38693" x2="17.60513" y2="54.86233" style="fill:none;stroke:#fff;stroke-linecap:round;stroke-linejoin:round;stroke-width:1.1500000000000001px"/><line x1="17.60513" y1="71.35053" x2="9.85072" y2="58.38693" style="fill:none;stroke:#fff;stroke-linecap:round;stroke-linejoin:round;stroke-width:1.1500000000000001px"/><line x1="9.85072" y1="58.38693" x2="17.60518" y2="45.39331" style="fill:none;stroke:#fff;stroke-linecap:round;stroke-linejoin:round;stroke-width:1.1500000000000001px"/><line x1="9.85072" y1="58.38693" x2="17.60513" y2="62.97042" style="fill:none;stroke:#fff;stroke-linecap:round;stroke-linejoin:round;stroke-width:1.1500000000000001px"/></svg>