<?xml version="1.0" encoding="utf-8"?>
<!-- Generator: Adobe Illustrator 21.0.2, SVG Export Plug-In . SVG Version: 6.00 Build 0)  -->
<svg version="1.1" id="Layer_1" xmlns="http://www.w3.org/2000/svg" xmlns:xlink="http://www.w3.org/1999/xlink" x="0px" y="0px"
	 viewBox="0 0 106.7 132.2" style="enable-background:new 0 0 106.7 132.2;" xml:space="preserve">
<style type="text/css">
	.st0{opacity:4.000000e-02;fill:#042A3E;}
	.st1{fill:#FFFFFF;}
	.st2{fill:#DAB679;}
	.st3{fill:none;stroke:#DAB679;stroke-width:1.15;stroke-miterlimit:10;}
	.st4{fill:#FDFBF8;}
</style>
<g>
	<circle class="st0" cx="38.9" cy="79" r="38.2"/>
</g>
<title>how5-mallet</title>
<path class="st1" d="M64.4,44.2L9.5,128.5c-1.6,2.2-4.6,2.8-6.8,1.2l0,0c-2.2-1.6-2.8-4.6-1.2-6.8l60.1-80.6"/>
<path class="st2" d="M56.7,46.2l5.6,3.9c0.4,0.3,0.5,0.8,0.2,1.3v0c-0.3,0.4-0.8,0.5-1.3,0.2l-5.6-3.9c-0.4-0.3-0.5-0.8-0.2-1.3v0
	C55.8,46,56.3,45.9,56.7,46.2z"/>
<path class="st3" d="M64.4,44.2L9.5,128.5c-1.6,2.2-4.6,2.8-6.8,1.2l0,0c-2.2-1.6-2.8-4.6-1.2-6.8l60.1-80.6"/>
<path class="st3" d="M65.2,44.8"/>
<rect x="58.1" y="6.9" transform="matrix(0.5719 -0.8203 0.8203 0.5719 5.4099 71.9701)" class="st3" width="27.1" height="47.7"/>
<path class="st3" d="M38.2,26.4L38.2,26.4c-1.4-1-1.3-2.7-0.8-4.3c0,0,1.3-4.2,6-11c4.7-6.7,8.1-9.3,8.1-9.3
	c1.4-1.1,2.9-1.7,4.3-0.8l0,0c1.4,1,1.7,2.9,0.8,4.3L42.4,25.6C41.5,27,39.6,27.4,38.2,26.4z"/>
<path class="st2" d="M44.9,24.9c0.5,0.4,0.8,1,0.7,1.7L58.6,7.8c-0.8,0.5-1.9,0.1-2.3-0.7c-0.2-0.3-0.2-0.7-0.2-1.1L43.1,24.8
	C43.6,24.5,44.3,24.5,44.9,24.9z"/>
<path class="st3" d="M87.4,60.7L87.4,60.7c1.4,1,3,0.3,4.3-0.8c0,0,3.5-2.7,8.2-9.5c4.7-6.7,5.9-10.9,5.9-10.9
	c0.5-1.6,0.6-3.3-0.8-4.3l0,0c-1.4-1-3.3-0.6-4.3,0.8L86.6,56.4C85.7,57.8,86,59.7,87.4,60.7z"/>
<path class="st2" d="M86.5,53.9c-0.5-0.4-1.2-0.4-1.8-0.1l13.1-18.7c-0.1,0.9,0.5,1.8,1.5,1.9c0.4,0.1,0.7,0,1.1-0.2L87.2,55.6
	C87.3,54.9,87,54.3,86.5,53.9z"/>
<path class="st3" d="M66.8,44L66.8,44c-0.6,0.9-1.8,1.1-2.7,0.5l-2.7-1.9c-0.9-0.6-1.1-1.8-0.5-2.7l0,0"/>
<ellipse transform="matrix(0.5719 -0.8203 0.8203 0.5719 19.7333 73.9058)" class="st3" cx="80.7" cy="18" rx="1.8" ry="1.8"/>
<path class="st2" d="M5.2,131c-0.9,1.3-2.6,1.6-3.9,0.7c-1.3-0.9-1.6-2.6-0.7-3.9l0,0"/>
<circle class="st4" cx="38.9" cy="78.3" r="9.1"/>
<circle class="st3" cx="38.9" cy="78.3" r="9.1"/>
<circle class="st2" cx="38.9" cy="78.3" r="3.3"/>
</svg>
