<svg xmlns="http://www.w3.org/2000/svg" viewBox="0 0 90.51294 102.25344"><title>how5-sold</title><rect x="0.575" y="52.46092" width="89.36294" height="49.21752" rx="7.13475" ry="7.13475" style="fill:#fff"/><rect x="0.575" y="52.46092" width="89.36294" height="49.21752" rx="7.13475" ry="7.13475" style="fill:none;stroke:#dab679;stroke-miterlimit:10;stroke-width:1.1500000000000001px"/><circle cx="45.25647" cy="59.48715" r="1.74784" style="fill:#dab679"/><line x1="45.25647" x2="45.25647" y2="57.73931" style="fill:none;stroke:#dab679;stroke-miterlimit:10;stroke-width:1.1500000000000001px"/><path d="M16.07072,85.74177v-3.668c0-.11621.041-.18359.12354-.20117.08252-.0166.144.02246.18555.11914a9.49821,9.49821,0,0,0,.80859,1.49414,5.07319,5.07319,0,0,0,.96875,1.08691,3.81988,3.81988,0,0,0,1.16943.66406,4.2229,4.2229,0,0,0,1.42188.22656,2.7173,2.7173,0,0,0,.84473-.12891,1.86844,1.86844,0,0,0,.70605-.40625,1.98655,1.98655,0,0,0,.48438-.71094,2.70678,2.70678,0,0,0,.18018-1.041,2.31149,2.31149,0,0,0-.21143-1.01465,2.67809,2.67809,0,0,0-.56641-.77832,3.96682,3.96682,0,0,0-.80908-.59277q-.45337-.252-.92725-.458-.52515-.22705-1.03564-.47363a8.25057,8.25057,0,0,1-.97363-.55664,5.12663,5.12663,0,0,1-.8501-.71094,3.87228,3.87228,0,0,1-.6543-.92773,4.59335,4.59335,0,0,1-.36572-.92676,3.71846,3.71846,0,0,1-.12891-.97949,4.47169,4.47169,0,0,1,.25781-1.47363,3.56364,3.56364,0,0,1,.84473-1.33887,4.396,4.396,0,0,1,1.53027-.97363,6.288,6.288,0,0,1,2.32324-.376A7.20081,7.20081,0,0,1,22.912,71.734a6.90378,6.90378,0,0,1,1.06641.30957,3.7355,3.7355,0,0,1,.6543.31934,2.87794,2.87794,0,0,1,.25781.17969.26916.26916,0,0,1,.12354.2168v1.875a.17319.17319,0,0,1-.041.11914.14262.14262,0,0,1-.09277.05078.17764.17764,0,0,1-.103-.02051.18043.18043,0,0,1-.08252-.09766,7.90714,7.90714,0,0,0-.46387-.92187,3.14362,3.14362,0,0,0-1.66895-1.3916,4.01293,4.01293,0,0,0-1.41162-.22168,2.51461,2.51461,0,0,0-1.66943.50488,1.70184,1.70184,0,0,0-.59766,1.37109,2.11548,2.11548,0,0,0,.165.86523,1.92043,1.92043,0,0,0,.56152.69531,5.5683,5.5683,0,0,0,1.05615.64941q.65918.32373,1.65918.72656a11.60786,11.60786,0,0,1,1.71045.84473,5.4726,5.4726,0,0,1,1.24121,1.01465,3.8248,3.8248,0,0,1,.75244,1.27246,4.86248,4.86248,0,0,1,.25244,1.62793,4.44582,4.44582,0,0,1-.32471,1.7002,3.70213,3.70213,0,0,1-.99414,1.38574,4.80218,4.80218,0,0,1-1.68994.93262,7.61455,7.61455,0,0,1-2.40088.33984,6.94724,6.94724,0,0,1-1.73633-.2207q-.85986-.22266-1.66406-.49023-.11279-.041-.24707-.082a.88006.88006,0,0,0-.25781-.041.41132.41132,0,0,0-.36035.15918,2.18476,2.18476,0,0,0-.21631.39746.16941.16941,0,0,1-.19092.123C16.1132,85.91365,16.07072,85.85213,16.07072,85.74177Z" style="fill:#dab679"/><path d="M36.60588,71.59529a7.59653,7.59653,0,0,1,1.97852.252,7.17488,7.17488,0,0,1,1.73584.71582,6.73973,6.73973,0,0,1,1.4375,1.11816,6.84008,6.84008,0,0,1,1.082,1.44824,7.30876,7.30876,0,0,1,.68506,1.71484,7.53317,7.53317,0,0,1,.24219,1.92188,7.08768,7.08768,0,0,1-.2627,1.93262,7.28126,7.28126,0,0,1-.7417,1.74121,7.44582,7.44582,0,0,1-2.66895,2.6377,7.55154,7.55154,0,0,1-3.79687,1.00391,7.33459,7.33459,0,0,1-2.89014-.55566,6.88188,6.88188,0,0,1-2.26172-1.52539,6.95831,6.95831,0,0,1-1.47852-2.27148,7.37131,7.37131,0,0,1-.53076-2.80859,7.0858,7.0858,0,0,1,.2627-1.93164A7.37221,7.37221,0,0,1,32.809,72.5992a7.55154,7.55154,0,0,1,3.79688-1.00391Zm-.1543,13.87891a2.24074,2.24074,0,0,0,1.47314-.52051,3.96857,3.96857,0,0,0,1.0459-1.42187,8.37762,8.37762,0,0,0,.62354-2.10742,16.29884,16.29884,0,0,0,0-5.167,8.393,8.393,0,0,0-.62354-2.1123,3.97719,3.97719,0,0,0-1.0459-1.42187,2.3456,2.3456,0,0,0-2.94678,0,3.97719,3.97719,0,0,0-1.0459,1.42188,8.393,8.393,0,0,0-.62354,2.1123,16.29884,16.29884,0,0,0,0,5.167,8.37762,8.37762,0,0,0,.62354,2.10742,3.96857,3.96857,0,0,0,1.0459,1.42188A2.24111,2.24111,0,0,0,36.45158,85.4742Z" style="fill:#dab679"/><path d="M57.07951,82.54744c.0415-.10937.10645-.15918.1958-.14941.08936.01074.13428.07129.13428.18066v3.01953c0,.12988-.07227.19531-.21631.19531H46.66252a.22662.22662,0,0,1-.1543-.0459.1565.1565,0,0,1-.05664-.10352.13962.13962,0,0,1,.041-.1084.26223.26223,0,0,1,.13916-.07227c.08252-.01367.21289-.042.3916-.08691a1.854,1.854,0,0,0,.541-.24219,1.71441,1.71441,0,0,0,.479-.47461,1.3528,1.3528,0,0,0,.20605-.78223V73.80037a1.36106,1.36106,0,0,0-.20605-.77832,1.62332,1.62332,0,0,0-.479-.47363,2.023,2.023,0,0,0-.541-.24219c-.17871-.04785-.30908-.0791-.3916-.09277a.19784.19784,0,0,1-.13916-.06738.14375.14375,0,0,1,.01563-.21582.22178.22178,0,0,1,.1543-.04687h6.57373a.224.224,0,0,1,.15479.04688.14375.14375,0,0,1,.01563.21582.19982.19982,0,0,1-.13916.06738c-.08252.01367-.21338.04492-.3916.09277a2.00949,2.00949,0,0,0-.541.24219,1.6119,1.6119,0,0,0-.479.47363,1.3573,1.3573,0,0,0-.20605.77832v10.623a.97615.97615,0,0,0,.06689.39648.44841.44841,0,0,0,.25732.22656,1.84708,1.84708,0,0,0,.53613.10352q.345.0249.90137.02539a3.82916,3.82916,0,0,0,1.18994-.16992,3.88093,3.88093,0,0,0,.917-.42773,3.19854,3.19854,0,0,0,.67529-.57715,5.32594,5.32594,0,0,0,.46338-.60742,3.55675,3.55675,0,0,0,.28369-.52051Q57.03825,82.64119,57.07951,82.54744Z" style="fill:#dab679"/><path d="M67.26994,71.88338a7.86908,7.86908,0,0,1,3.04492.53613,5.81047,5.81047,0,0,1,2.11719,1.46289A5.90375,5.90375,0,0,1,73.66838,76.067a8.80782,8.80782,0,0,1,.40186,2.69922A8.59389,8.59389,0,0,1,73.643,81.5074a6.19947,6.19947,0,0,1-1.29346,2.23047,6.07193,6.07193,0,0,1-2.17383,1.50488,7.87575,7.87575,0,0,1-3.0708.55078H59.913a.22662.22662,0,0,1-.1543-.0459.1565.1565,0,0,1-.05664-.10352.13962.13962,0,0,1,.041-.1084.26223.26223,0,0,1,.13916-.07227c.08252-.01367.21289-.042.3916-.08691a1.854,1.854,0,0,0,.541-.24219,1.71441,1.71441,0,0,0,.479-.47461,1.3528,1.3528,0,0,0,.20605-.78223V73.80037a1.36106,1.36106,0,0,0-.20605-.77832,1.62332,1.62332,0,0,0-.479-.47363,2.023,2.023,0,0,0-.541-.24219c-.17871-.04785-.30908-.0791-.3916-.09277a.19784.19784,0,0,1-.13916-.06738.14375.14375,0,0,1,.01563-.21582.22179.22179,0,0,1,.1543-.04687Zm-.165,13.28125a2.0633,2.0633,0,0,0,1.37061-.47363,3.49022,3.49022,0,0,0,.93262-1.31348,7.77667,7.77667,0,0,0,.53076-1.999,18.17842,18.17842,0,0,0,.16455-2.54,17.935,17.935,0,0,0-.15967-2.499,8.03955,8.03955,0,0,0-.49951-1.94727,3.48254,3.48254,0,0,0-.88135-1.29785,2.22227,2.22227,0,0,0-1.293-.55176q-.12378-.01025-.33984-.01465c-.14453-.00391-.29883-.00684-.46387-.01074-.165-.00293-.32617-.00488-.48437-.00488h-.3916a.70851.70851,0,0,0-.50488.1748.60905.60905,0,0,0-.18506.46387v7.707a15.32064,15.32064,0,0,0,.10791,1.97852,4.30474,4.30474,0,0,0,.36572,1.334,1.69958,1.69958,0,0,0,.68018.75781A2.12118,2.12118,0,0,0,67.1049,85.16463Z" style="fill:#dab679"/></svg>