<svg xmlns="http://www.w3.org/2000/svg" viewBox="0 0 78.47119 106.80088"><title>token4-diamond</title><line x1="13.09054" y1="95.39867" x2="63.85018" y2="95.39873" style="fill:none;stroke:#dab679;stroke-miterlimit:10;stroke-width:1.149999976158142px"/><line x1="13.09054" y1="100.81226" x2="63.85018" y2="100.8123" style="fill:none;stroke:#dab679;stroke-miterlimit:10;stroke-width:1.149999976158142px"/><line x1="19.84339" y1="106.22583" x2="56.53998" y2="106.22588" style="fill:none;stroke:#dab679;stroke-miterlimit:10;stroke-width:1.149999976158142px"/><polygon points="77.683 40.407 39.235 80.992 0.788 40.407 18.104 21.736 60.367 21.736 77.683 40.407" style="fill:none;stroke:#dab679;stroke-miterlimit:10;stroke-width:1.149999976158142px"/><line x1="77.68328" y1="40.40682" x2="0.7878" y2="40.40682" style="fill:none;stroke:#dab679;stroke-miterlimit:10;stroke-width:1.149999976158142px"/><polyline points="39.235 80.992 24.835 40.407 39.235 21.736" style="fill:none;stroke:#dab679;stroke-miterlimit:10;stroke-width:1.149999976158142px"/><polyline points="39.235 21.736 53.636 40.407 39.235 80.992" style="fill:none;stroke:#dab679;stroke-miterlimit:10;stroke-width:1.149999976158142px"/><line x1="14.21521" y1="14.29262" x2="7.41521" y2="0.25061" style="fill:none;stroke:#dab679;stroke-miterlimit:10;stroke-width:1.149999976158142px"/><line x1="19.68621" y1="13.93378" x2="18.81113" y2="9.409" style="fill:none;stroke:#dab679;stroke-miterlimit:10;stroke-width:1.149999976158142px"/><line x1="10.54126" y1="18.3624" x2="3.53209" y2="10.22283" style="fill:none;stroke:#dab679;stroke-miterlimit:10;stroke-width:1.149999976158142px"/><line x1="63.6747" y1="14.29262" x2="70.47471" y2="0.25061" style="fill:none;stroke:#dab679;stroke-miterlimit:10;stroke-width:1.149999976158142px"/><line x1="58.20369" y1="13.93378" x2="59.07879" y2="9.409" style="fill:none;stroke:#dab679;stroke-miterlimit:10;stroke-width:1.149999976158142px"/><line x1="67.34864" y1="18.3624" x2="74.35784" y2="10.22283" style="fill:none;stroke:#dab679;stroke-miterlimit:10;stroke-width:1.149999976158142px"/><line x1="39.23554" y1="48.5107" x2="39.23554" y2="57.13547" style="fill:none;stroke:#dab679;stroke-miterlimit:10;stroke-width:1.149999976158142px"/><line x1="59.36544" y1="48.90648" x2="55.75779" y2="56.74046" style="fill:none;stroke:#dab679;stroke-miterlimit:10;stroke-width:1.149999976158142px"/><line x1="19.68621" y1="48.90648" x2="23.29387" y2="56.74046" style="fill:none;stroke:#dab679;stroke-miterlimit:10;stroke-width:1.149999976158142px"/><line x1="64.62816" y1="26.32994" x2="53.63613" y2="40.40682" style="fill:none;stroke:#dab679;stroke-miterlimit:10;stroke-width:1.149999976158142px"/><line x1="13.84292" y1="26.32994" x2="24.83497" y2="40.40682" style="fill:none;stroke:#dab679;stroke-miterlimit:10;stroke-width:1.149999976158142px"/></svg>