<svg xmlns="http://www.w3.org/2000/svg" viewBox="0 0 70.19359 105.8516"><title>token4-watch</title><line x1="8.34861" y1="94.44939" x2="59.10826" y2="94.44945" style="fill:none;stroke:#dab679;stroke-miterlimit:10;stroke-width:1.149999976158142px"/><line x1="8.34861" y1="99.86298" x2="59.10826" y2="99.86303" style="fill:none;stroke:#dab679;stroke-miterlimit:10;stroke-width:1.149999976158142px"/><line x1="15.10147" y1="105.27656" x2="51.79806" y2="105.2766" style="fill:none;stroke:#dab679;stroke-miterlimit:10;stroke-width:1.149999976158142px"/><circle cx="33.16515" cy="41.81694" r="2.10666" style="fill:#dab679"/><circle cx="33.16515" cy="41.81694" r="27.73318" style="fill:none;stroke:#dab679;stroke-miterlimit:10;stroke-width:1.149999976158142px"/><circle cx="33.16515" cy="41.81694" r="32.59015" style="fill:none;stroke:#dab679;stroke-miterlimit:10;stroke-width:1.149999976158142px"/><line x1="33.16515" y1="23.10726" x2="33.16515" y2="45.72173" style="fill:none;stroke:#dab679;stroke-miterlimit:10;stroke-width:1.149999976158142px"/><line x1="39.75035" y1="48.40218" x2="30.6205" y2="39.2723" style="fill:none;stroke:#dab679;stroke-miterlimit:10;stroke-width:1.149999976158142px"/><path d="M65.35378,47.64766h2.09058a2.75731,2.75731,0,0,0,2.74924-2.74924v-6.163a2.74922,2.74922,0,0,0-2.74924-2.74924H65.35381" style="fill:#dab679"/><path d="M63.99376,31.77022l.71646-.32388h0A1.28228,1.28228,0,0,0,65.3467,29.752l-1.18747-2.61646a1.28306,1.28306,0,0,0-1.69589-.64h0l-.716.3237" style="fill:#dab679"/><path d="M63.95439,52.5371l.72235.32043h0a1.29153,1.29153,0,0,1,.65894,1.69434l-1.15854,2.629a1.28014,1.28014,0,0,1-1.68851.653l-.00406-.0018h0l-.72189-.32022" style="fill:#dab679"/><line x1="21.2824" y1="2.84026" x2="21.2824" y2="11.43114" style="fill:none;stroke:#dab679;stroke-miterlimit:10;stroke-width:1.149999976158142px"/><path d="M28.31462,9.69106V2.10625A1.53127,1.53127,0,0,1,29.84587.575h6.63855a1.53127,1.53127,0,0,1,1.53125,1.53125h0V9.69106" style="fill:none;stroke:#dab679;stroke-miterlimit:10;stroke-width:1.149999976158142px"/><path d="M11.37825,17.45629,15.1082,5.63652a4,4,0,0,1,3.81458-2.79623h9.39185" style="fill:none;stroke:#dab679;stroke-miterlimit:10;stroke-width:1.149999976158142px"/><path d="M54.95208,17.45629,51.22213,5.63652a4,4,0,0,0-3.81458-2.79623H38.0157" style="fill:none;stroke:#dab679;stroke-miterlimit:10;stroke-width:1.149999976158142px"/><line x1="44.85485" y1="2.84026" x2="44.85485" y2="11.43114" style="fill:none;stroke:#dab679;stroke-miterlimit:10;stroke-width:1.149999976158142px"/><line x1="45.04793" y1="80.58245" x2="45.04793" y2="71.99156" style="fill:none;stroke:#dab679;stroke-miterlimit:10;stroke-width:1.149999976158142px"/><path d="M38.0157,73.73165v7.58484a1.53127,1.53127,0,0,1-1.53125,1.53125H29.8459a1.53127,1.53127,0,0,1-1.53125-1.53125V73.73165" style="fill:none;stroke:#dab679;stroke-miterlimit:10;stroke-width:1.149999976158142px"/><path d="M54.952,65.96642,51.22213,77.78621a4,4,0,0,1-3.81458,2.79626H38.0157" style="fill:none;stroke:#dab679;stroke-miterlimit:10;stroke-width:1.149999976158142px"/><path d="M11.37822,65.96639l3.73,11.81979a4,4,0,0,0,3.81458,2.79626h9.39185" style="fill:none;stroke:#dab679;stroke-miterlimit:10;stroke-width:1.149999976158142px"/><line x1="21.47545" y1="80.58245" x2="21.47545" y2="71.99156" style="fill:none;stroke:#dab679;stroke-miterlimit:10;stroke-width:1.149999976158142px"/><circle cx="17.58568" cy="50.87334" r="5.15161" style="fill:none;stroke:#dab679;stroke-miterlimit:10;stroke-width:1.149999976158142px"/><circle cx="17.58568" cy="50.87334" r="0.87851" style="fill:#dab679"/><line x1="17.58568" y1="47.71962" x2="17.58568" y2="50.87334" style="fill:none;stroke:#dab679;stroke-miterlimit:10;stroke-width:1.149999976158142px"/><circle cx="48.74459" cy="50.87334" r="5.15161" style="fill:none;stroke:#dab679;stroke-miterlimit:10;stroke-width:1.149999976158142px"/><circle cx="48.74459" cy="50.87334" r="0.87851" style="fill:#dab679"/><line x1="48.74459" y1="50.86318" x2="48.74459" y2="54.01689" style="fill:none;stroke:#dab679;stroke-miterlimit:10;stroke-width:1.149999976158142px"/><circle cx="33.16515" cy="57.99599" r="5.15161" style="fill:none;stroke:#dab679;stroke-miterlimit:10;stroke-width:1.149999976158142px"/><circle cx="33.16515" cy="57.99599" r="0.87851" style="fill:#dab679"/><line x1="35.18569" y1="56.21089" x2="33.16515" y2="57.99599" style="fill:none;stroke:#dab679;stroke-miterlimit:10;stroke-width:1.149999976158142px"/></svg>