<svg xmlns="http://www.w3.org/2000/svg" viewBox="0 0 50.75964 111.62931"><title>token4-vase</title><path d="M31.40377,85.02124c32.28984-72.33334,2.8367-75.18111,2.8367-75.18111h-18.012s-29.45314,2.84777,2.83669,75.18111Z" style="fill:none;stroke:#dab679;stroke-miterlimit:10;stroke-width:1.149999976158142px"/><path d="M19.06515,85.02124a2.0753,2.0753,0,0,1-2.0753,2.0753h0" style="fill:none;stroke:#dab679;stroke-miterlimit:10;stroke-width:1.149999976158142px"/><path d="M31.40377,85.02124a2.0753,2.0753,0,0,0,2.0753,2.0753h0" style="fill:none;stroke:#dab679;stroke-miterlimit:10;stroke-width:1.149999976158142px"/><rect x="15.43463" y="87.09654" width="19.59967" height="1.92587" style="fill:none;stroke:#dab679;stroke-miterlimit:10;stroke-width:1.149999976158142px"/><line x1="42.35008" y1="0.57505" x2="8.11885" y2="0.57505" style="fill:none;stroke:#dab679;stroke-miterlimit:10;stroke-width:1.149999976158142px"/><path d="M8.11889.575c5.117,0,8.06018,4.14812,8.06018,9.26509" style="fill:none;stroke:#dab679;stroke-miterlimit:10;stroke-width:1.149999976158142px"/><path d="M9.62811,13.359c-3.519.15275-6.64894-2.89319-7.16087-6.45352A5.55111,5.55111,0,0,1,7.17173.62078h0a4.44089,4.44089,0,0,1,5.02775,3.7636,3.5527,3.5527,0,0,1-3.01086,4.0222h0a2.84221,2.84221,0,0,1-3.21773-2.4087,2.27375,2.27375,0,0,1,1.927-2.5742" style="fill:none;stroke:#dab679;stroke-miterlimit:10;stroke-width:1.149999976158142px"/><circle cx="8.13197" cy="4.06952" r="1.07235" transform="translate(-0.49645 1.19894) rotate(-8.18325)" style="fill:#dab679"/><path d="M42.35008.575c-5.117,0-8.06018,4.14812-8.06018,9.26509" style="fill:none;stroke:#dab679;stroke-miterlimit:10;stroke-width:1.149999976158142px"/><path d="M40.8408,13.359c3.519.15275,6.64894-2.89319,7.16089-6.45352A5.5511,5.5511,0,0,0,43.29722.62079h0a4.44089,4.44089,0,0,0-5.02773,3.7636,3.55271,3.55271,0,0,0,3.01086,4.0222h0a2.84219,2.84219,0,0,0,3.21772-2.4087,2.27375,2.27375,0,0,0-1.927-2.5742" style="fill:none;stroke:#dab679;stroke-miterlimit:10;stroke-width:1.149999976158142px"/><circle cx="42.35063" cy="4.06907" r="1.07235" transform="translate(32.29481 45.40929) rotate(-81.81674)" style="fill:#dab679"/><line x1="47.78899" y1="24.85745" x2="2.67994" y2="24.85745" style="fill:none;stroke:#dab679;stroke-miterlimit:10;stroke-width:1.149999976158142px"/><line x1="48.64705" y1="27.40021" x2="1.82189" y2="27.40021" style="fill:none;stroke:#dab679;stroke-miterlimit:10;stroke-width:1.149999976158142px"/><polyline points="43.46 51.986 40.154 51.986 40.154 47.909 42.273 47.909 42.273 44.207 36.663 44.207 36.663 51.986 31.085 51.986 31.085 47.909 33.205 47.909 33.205 44.207 27.595 44.207 27.595 51.986 22.017 51.986 22.017 47.909 24.136 47.909 24.136 44.207 18.526 44.207 18.526 51.986 12.948 51.986 12.948 47.909 15.068 47.909 15.068 44.207 9.457 44.207 9.457 51.986 7.009 51.986" style="fill:none;stroke:#dab679;stroke-miterlimit:10;stroke-width:1.149999976158142px"/><rect x="4.42604" y="24.85745" width="41.5745" height="2.54277" style="fill:#dab679"/><line y1="100.2271" x2="50.75964" y2="100.22716" style="fill:none;stroke:#dab679;stroke-miterlimit:10;stroke-width:1.149999976158142px"/><line y1="105.64069" x2="50.75964" y2="105.64073" style="fill:none;stroke:#dab679;stroke-miterlimit:10;stroke-width:1.149999976158142px"/><line x1="6.75285" y1="111.05426" x2="43.44945" y2="111.05431" style="fill:none;stroke:#dab679;stroke-miterlimit:10;stroke-width:1.149999976158142px"/></svg>