<svg xmlns="http://www.w3.org/2000/svg" viewBox="0 0 99.32439 125.36462"><title>token3-frame</title><path d="M42.0728,10.77159a3.92226,3.92226,0,0,1,4.61394-3.95246,3.9866,3.9866,0,0,1,6.82433-.00006,3.92223,3.92223,0,0,1,4.61388,3.95241v.00006l25.04781.00006a4.01308,4.01308,0,1,1,8.02615-.01046v.01046h1.625V12.4374a4.00973,4.00973,0,0,1,.08615,8.019q-.04308.00046-.08615,0V56.31989c.01646-.00023.03174-.00487.04825-.00487a3.92223,3.92223,0,0,1,3.95251,4.61388,3.98815,3.98815,0,0,1,.00023,6.82449,3.92237,3.92237,0,0,1-3.95235,4.614c-.01669,0-.032-.0047-.04865-.00491v36.86423a4.00973,4.00973,0,0,1,.08615,8.019q-.04308.00046-.08615,0v1.68578H91.19684a4.01116,4.01116,0,0,1-8.02225,0H58.16013a3.92005,3.92005,0,0,1-4.61189,3.9325,3.9866,3.9866,0,0,1-6.82433.00006,3.92005,3.92005,0,0,1-4.61189-3.93256H17.06029a4.01116,4.01116,0,0,1-8.02225,0H7.37388v-1.68221a4.01308,4.01308,0,1,1-.01046-8.02615h.01046V72.25172A3.93337,3.93337,0,0,1,2.501,67.754a3.98632,3.98632,0,0,1-.00023-6.82443,3.971,3.971,0,0,1,4.87313-4.49774V20.46a4.01308,4.01308,0,0,1,0-8.02615V10.77159H9.03611a4.01308,4.01308,0,1,1,8.02615-.01523q0,.00761,0,.01523Z" style="fill:#042a3e"/><path d="M42.0728,10.77159a3.92226,3.92226,0,0,1,4.61394-3.95246,3.9866,3.9866,0,0,1,6.82433-.00006,3.92223,3.92223,0,0,1,4.61388,3.95241v.00006l25.04781.00006a4.01308,4.01308,0,1,1,8.02615-.01046v.01046h1.625V12.4374a4.00973,4.00973,0,0,1,.08615,8.019q-.04308.00046-.08615,0V56.31989c.01646-.00023.03174-.00487.04825-.00487a3.92223,3.92223,0,0,1,3.95251,4.61388,3.98815,3.98815,0,0,1,.00023,6.82449,3.92237,3.92237,0,0,1-3.95235,4.614c-.01669,0-.032-.0047-.04865-.00491v36.86423a4.00973,4.00973,0,0,1,.08615,8.019q-.04308.00046-.08615,0v1.68578H91.19684a4.01116,4.01116,0,0,1-8.02225,0H58.16013a3.92005,3.92005,0,0,1-4.61189,3.9325,3.9866,3.9866,0,0,1-6.82433.00006,3.92005,3.92005,0,0,1-4.61189-3.93256H17.06029a4.01116,4.01116,0,0,1-8.02225,0H7.37388v-1.68221a4.01308,4.01308,0,1,1-.01046-8.02615h.01046V72.25172A3.93337,3.93337,0,0,1,2.501,67.754a3.98632,3.98632,0,0,1-.00023-6.82443,3.971,3.971,0,0,1,4.87313-4.49774V20.46a4.01308,4.01308,0,0,1,0-8.02615V10.77159H9.03611a4.01308,4.01308,0,1,1,8.02615-.01523q0,.00761,0,.01523Z" style="fill:none;stroke:#dab679;stroke-miterlimit:10;stroke-width:1.149999976158142px"/><rect x="13.27258" y="16.2792" width="73.76683" height="97.14555" style="fill:none;stroke:#dab679;stroke-miterlimit:10;stroke-width:1.149999976158142px"/><line x1="41.89513" y1="0.40511" x2="32.15244" y2="10.77159" style="fill:none;stroke:#dab679;stroke-miterlimit:10;stroke-width:1.149999976158142px"/><rect x="40.60219" y="111.25701" width="19.1075" height="4.31461" style="fill:#dab679"/><path d="M33.1859,45.309A16.7334,16.7334,0,0,1,49.87024,28.62466h0A16.73341,16.73341,0,0,1,66.5546,45.309V78.03774" style="fill:none;stroke:#dab679;stroke-miterlimit:10;stroke-width:1.149999976158142px"/><path d="M55.4727,41.37324v17.3036a9.15577,9.15577,0,0,1-9.12894,9.12894h0a9.15577,9.15577,0,0,1-9.12894-9.12894V41.37324Z" style="fill:none;stroke:#dab679;stroke-miterlimit:10;stroke-width:1.149999976158142px"/><path d="M55.47254,71.50955c9.77788,2.53941,17.05237,12.4673,17.05237,23.011V113.4248" style="fill:none;stroke:#dab679;stroke-miterlimit:10;stroke-width:1.149999976158142px"/><path d="M27.05791,113.42474V94.5205c0-9.484,5.8858-18.66087,14.185-22.05661" style="fill:none;stroke:#dab679;stroke-miterlimit:10;stroke-width:1.149999976158142px"/><polyline points="55.472 102.539 55.472 71.51 55.472 45.428" style="fill:none;stroke:#dab679;stroke-miterlimit:10;stroke-width:1.149999976158142px"/><polyline points="41.243 66.236 41.243 71.85 41.243 79.218" style="fill:none;stroke:#dab679;stroke-miterlimit:10;stroke-width:1.149999976158142px"/><line x1="33.1859" y1="45.30903" x2="33.1859" y2="78.03774" style="fill:none;stroke:#dab679;stroke-miterlimit:10;stroke-width:1.149999976158142px"/><line x1="68.15958" y1="10.77155" x2="57.86815" y2="0.40511" style="fill:none;stroke:#dab679;stroke-miterlimit:10;stroke-width:1.149999976158142px"/></svg>