<svg xmlns="http://www.w3.org/2000/svg" viewBox="0 0 111.13158 150.9497"><title>what-art-big</title><path d="M47.06285,22.64395a4.394,4.394,0,0,1,5.16886-4.42784,4.46606,4.46606,0,0,1,7.64512-.00006,4.39394,4.39394,0,0,1,5.1688,4.42777v.00006l28.06039.00006a4.49574,4.49574,0,1,1,8.99148,0H103.918V24.5101a4.492,4.492,0,1,1,0,8.9835V73.67045c.01844-.00025.03555-.00545.05406-.00545a4.39393,4.39393,0,0,1,4.4279,5.1688,4.46627,4.46627,0,0,1,.00025,7.64531,4.3941,4.3941,0,0,1-4.42771,5.169c-.0187,0-.03587-.00526-.0545-.00551v41.298a4.492,4.492,0,1,1,0,8.9835v1.88853h-1.82275a4.4936,4.4936,0,0,1-8.98711,0H65.085a4.39154,4.39154,0,0,1-5.16658,4.40547,4.46606,4.46606,0,0,1-7.64512.00006,4.39153,4.39153,0,0,1-5.16658-4.40553H19.042a4.4936,4.4936,0,0,1-8.98711,0H8.19058V141.9281a4.49574,4.49574,0,1,1,0-8.99149V91.5185a4.40645,4.40645,0,0,1-5.459-5.03863,4.46628,4.46628,0,0,1-.00025-7.64524,4.44856,4.44856,0,0,1,5.45924-5.03869V33.49759a4.49574,4.49574,0,0,1,0-8.99149V22.64395h1.86216a4.49574,4.49574,0,1,1,8.99148,0Z" style="fill:none;stroke:#dab679;stroke-miterlimit:10;stroke-width:1.1500000000000001px"/><rect x="1.70343" y="41.90925" width="108.82958" height="82.639" transform="translate(139.34701 27.1106) rotate(90.00004)" style="fill:none;stroke:#dab679;stroke-miterlimit:10;stroke-width:1.1500000000000001px"/><polyline points="76.287 22.644 56.118 1.772 35.949 22.644" style="fill:none;stroke:#dab679;stroke-miterlimit:10;stroke-width:1.1500000000000001px"/><circle cx="56.11828" cy="1.7715" r="1.7715" style="fill:#dab679"/><rect x="45.41537" y="135.21509" width="21.40561" height="4.83353" style="fill:#dab679"/><path d="M37.10709,61.33531a18.746,18.746,0,0,1,18.691-18.69105h0a18.746,18.746,0,0,1,18.691,18.69105V98.00043" style="fill:none;stroke:#dab679;stroke-miterlimit:10;stroke-width:1.1500000000000001px"/><path d="M62.0744,56.92615V76.31092a10.257,10.257,0,0,1-10.2269,10.2269h0a10.257,10.257,0,0,1-10.2269-10.2269V56.92616Z" style="fill:none;stroke:#dab679;stroke-miterlimit:10;stroke-width:1.1500000000000001px"/><path d="M62.07421,90.68707c10.95389,2.84483,19.10331,13.96679,19.10331,25.77856v21.17793" style="fill:none;stroke:#dab679;stroke-miterlimit:10;stroke-width:1.1500000000000001px"/><path d="M30.24207,137.64353V116.46562c0-10.62469,6.59371-20.90528,15.89113-24.70944" style="fill:none;stroke:#dab679;stroke-miterlimit:10;stroke-width:1.1500000000000001px"/><polyline points="62.074 125.448 62.074 90.687 62.074 61.468" style="fill:none;stroke:#dab679;stroke-miterlimit:10;stroke-width:1.1500000000000001px"/><polyline points="46.133 84.779 46.133 91.069 46.133 99.323" style="fill:none;stroke:#dab679;stroke-miterlimit:10;stroke-width:1.1500000000000001px"/><line x1="37.10709" y1="61.33531" x2="37.10709" y2="98.00043" style="fill:none;stroke:#dab679;stroke-miterlimit:10;stroke-width:1.1500000000000001px"/></svg>