<svg xmlns="http://www.w3.org/2000/svg" viewBox="0 0 100 70"><title>rm-icon-060518</title><rect x="30.32472" y="16.91397" width="25.92028" height="11.95999" transform="translate(57.70347 69.68944) rotate(-135.00009)" style="fill:none;stroke:#dab679;stroke-miterlimit:10;stroke-width:1.1500000000000001px"/><path d="M61.72105,28.45941h0c-1.17158-1.17157-3.79518-1.878-4.96676-.70647l-8.61043,8.61043c-1.17158,1.17158-.4651,3.79517.70648,4.96675h0Z" style="fill:none;stroke:#dab679;stroke-miterlimit:10;stroke-width:1.1500000000000001px"/><path d="M24.84863,17.32855h0c1.17158,1.17157,3.79518,1.878,4.96676.70647L38.42582,9.4246c1.17158-1.17158.4651-3.79517-.70648-4.96675h0Z" style="fill:none;stroke:#dab679;stroke-miterlimit:10;stroke-width:1.1500000000000001px"/><line x1="24.61325" y1="47.66611" x2="18.67497" y2="41.72785" style="fill:none;stroke:#dab679;stroke-miterlimit:10;stroke-width:1.1500000000000001px"/><line x1="27.62054" y1="44.65882" x2="21.68226" y2="38.72056" style="fill:none;stroke:#dab679;stroke-miterlimit:10;stroke-width:1.1500000000000001px"/><path d="M1.518,61.35725a2.45151,2.45151,0,0,0,3.467,3.46688" style="fill:#dab679"/><path d="M37.89459,25.93168,2.23088,60.01281a1.67008,1.67008,0,0,0,0,2.36185l1.73555,1.73555a1.67009,1.67009,0,0,0,2.36186,0l34.08114-35.6637" style="fill:none;stroke:#dab679;stroke-miterlimit:10;stroke-width:1.1500000000000001px"/><path d="M68.35583,55.49813V53.14857a2.308,2.308,0,0,0-2.30127-2.30127H47.81745a2.308,2.308,0,0,0-2.30127,2.30127v2.34956Z" style="fill:none;stroke:#dab679;stroke-miterlimit:10;stroke-width:1.1500000000000001px"/></svg>