<svg xmlns="http://www.w3.org/2000/svg" viewBox="0 0 100 70"><title>rm-icon-081518</title><rect x="4.86721" y="6.93409" width="79.46106" height="56.13182" rx="1.78568" ry="1.78568" style="fill:none;stroke:#dab679;stroke-miterlimit:10;stroke-width:1.1500000000000001px"/><polygon points="26.578 33.738 44.598 52.76 62.618 33.738 54.502 24.987 34.694 24.987 26.578 33.738" style="fill:none"/><polygon points="26.578 33.738 44.598 52.76 62.618 33.738 54.502 24.987 34.694 24.987 26.578 33.738" style="fill:none;stroke:#dab679;stroke-miterlimit:10;stroke-width:1.1500000000000001px"/><polyline points="44.598 52.76 37.848 33.738 44.598 24.987" style="fill:none;stroke:#dab679;stroke-miterlimit:10;stroke-width:1.1500000000000001px"/><polyline points="44.598 24.987 51.347 33.738 44.598 52.76" style="fill:none;stroke:#dab679;stroke-miterlimit:10;stroke-width:1.1500000000000001px"/><line x1="32.87098" y1="21.49879" x2="29.68389" y2="14.91744" style="fill:none;stroke:#dab679;stroke-miterlimit:10;stroke-width:1.1500000000000001px"/><line x1="35.43518" y1="21.3306" x2="35.02504" y2="19.20988" style="fill:none;stroke:#dab679;stroke-miterlimit:10;stroke-width:1.1500000000000001px"/><line x1="31.14904" y1="23.40625" x2="27.86391" y2="19.59132" style="fill:none;stroke:#dab679;stroke-miterlimit:10;stroke-width:1.1500000000000001px"/><line x1="56.05213" y1="21.49879" x2="59.23922" y2="14.91744" style="fill:none;stroke:#dab679;stroke-miterlimit:10;stroke-width:1.1500000000000001px"/><line x1="53.48792" y1="21.3306" x2="53.89807" y2="19.20988" style="fill:none;stroke:#dab679;stroke-miterlimit:10;stroke-width:1.1500000000000001px"/><line x1="57.77406" y1="23.40625" x2="61.05919" y2="19.59132" style="fill:none;stroke:#dab679;stroke-miterlimit:10;stroke-width:1.1500000000000001px"/><line x1="44.59774" y1="37.53645" x2="44.59774" y2="41.57879" style="fill:none;stroke:#dab679;stroke-miterlimit:10;stroke-width:1.1500000000000001px"/><line x1="54.03242" y1="37.72195" x2="52.34155" y2="41.39366" style="fill:none;stroke:#dab679;stroke-miterlimit:10;stroke-width:1.1500000000000001px"/><line x1="35.43518" y1="37.72195" x2="37.12605" y2="41.39366" style="fill:none;stroke:#dab679;stroke-miterlimit:10;stroke-width:1.1500000000000001px"/><line x1="56.499" y1="27.14055" x2="51.34714" y2="33.73824" style="fill:none;stroke:#dab679;stroke-miterlimit:10;stroke-width:1.1500000000000001px"/><line x1="32.69648" y1="27.14055" x2="37.84834" y2="33.73824" style="fill:none;stroke:#dab679;stroke-miterlimit:10;stroke-width:1.1500000000000001px"/><line x1="62.61779" y1="33.73824" x2="26.57769" y2="33.73824" style="fill:none;stroke:#dab679;stroke-miterlimit:10;stroke-width:1.1500000000000001px"/><line x1="1.4" y1="42.88473" x2="87.79549" y2="42.88473" style="fill:none;stroke:#dab679;stroke-linecap:round;stroke-linejoin:round;stroke-width:2.5px"/></svg>