<svg xmlns="http://www.w3.org/2000/svg" viewBox="0 0 100 70"><title>rm-icon-120117</title><line x1="38.26423" y1="20.61722" x2="38.25712" y2="63.0487" style="fill:none;stroke:#dab679;stroke-linecap:round;stroke-linejoin:round;stroke-width:1.1500000000000001px"/><path d="M42.066,12.887a3.74141,3.74141,0,0,0-5.29055-.00237,4.67509,4.67509,0,0,0-.00293,6.61207,5.84546,5.84546,0,0,0,8.26589.00371,7.3046,7.3046,0,0,0,.00458-10.33187A8.10612,8.10612,0,0,0,39.69057,6.9652l-9.3697-.0042L18.0666,6.9555,8.6969,6.9513A8.106,8.106,0,0,0,3.34257,9.14988,7.3046,7.3046,0,0,0,3.338,19.48175a5.84546,5.84546,0,0,0,8.26589.00371,4.67509,4.67509,0,0,0,.00293-6.61207A3.74141,3.74141,0,0,0,6.31626,12.871" style="fill:none;stroke:#dab679;stroke-linecap:round;stroke-linejoin:round;stroke-width:1.1500000000000001px"/><line x1="9.14569" y1="11.75954" x2="39.52873" y2="11.77316" style="fill:none;stroke:#dab679;stroke-linecap:round;stroke-linejoin:round;stroke-width:1.1500000000000001px"/><line x1="10.09" y1="63.04798" x2="10.11114" y2="20.56912" style="fill:none;stroke:#dab679;stroke-linecap:round;stroke-linejoin:round;stroke-width:1.1500000000000001px"/><line x1="31.22659" y1="19.17874" x2="31.21522" y2="63.04852" style="fill:none;stroke:#dab679;stroke-linecap:round;stroke-linejoin:round;stroke-width:1.1500000000000001px"/><line x1="24.18831" y1="19.17558" x2="24.17356" y2="63.04834" style="fill:none;stroke:#dab679;stroke-linecap:round;stroke-linejoin:round;stroke-width:1.1500000000000001px"/><line x1="17.15004" y1="19.17243" x2="17.1318" y2="63.04816" style="fill:none;stroke:#dab679;stroke-linecap:round;stroke-linejoin:round;stroke-width:1.1500000000000001px"/></svg>