<svg xmlns="http://www.w3.org/2000/svg" xmlns:xlink="http://www.w3.org/1999/xlink" viewBox="0 0 100 70"><defs><clipPath id="a"><rect x="19.73712" y="-3.57315" width="36.46171" height="25.36299" style="fill:none"/></clipPath></defs><title>rm-icon-011519</title><path d="M16.10721,52.58975l-3.56777,11.3834H9.04S7.06554,48.15042,5.80226,37.42975,14.38048,18.367,24.865,18.367h27.8262q.7562,0,1.49838.05878v-.20659a5.635,5.635,0,0,1,5.63495-5.63495l.00291,7.17747A19.23278,19.23278,0,0,1,70.76785,31.40884h6.09929V41.71441a3.69078,3.69078,0,0,1-3.69078,3.69078H69.98925A19.12132,19.12132,0,0,1,52.69119,56.49247H50.2774L47.944,63.97315H44.44451l-1.06374-7.48068H15.23637" style="fill:#fff"/><polygon points="15.048 57.338 16.011 63.973 19.51 63.973 21.601 56.492 15.236 56.492 15.048 57.338" style="fill:none;stroke:#dab679;stroke-miterlimit:10;stroke-width:1.1500000000000001px"/><path d="M71.3097,41.50246a18.89005,18.89005,0,0,1-1.31921,3.90468" style="fill:none;stroke:#dab679;stroke-miterlimit:10;stroke-width:1.1500000000000001px"/><path d="M16.10721,52.58975l-3.56777,11.3834H9.04S7.06554,48.15042,5.80226,37.42975,14.38048,18.367,24.865,18.367h27.8262q.7562,0,1.49838.05878v-.20659a5.635,5.635,0,0,1,5.63495-5.63495l.00291,7.17747A19.23278,19.23278,0,0,1,70.76785,31.40884h6.09929V41.71441a3.69078,3.69078,0,0,1-3.69078,3.69078H69.98925A19.12132,19.12132,0,0,1,52.69119,56.49247H50.2774L47.944,63.97315H44.44451l-1.06374-7.48068H15.23637" style="fill:none;stroke:#dab679;stroke-miterlimit:10;stroke-width:1.1500000000000001px"/><polygon points="50.452 57.338 51.415 63.973 54.915 63.973 57.005 56.492 50.641 56.492 50.452 57.338" style="fill:none;stroke:#dab679;stroke-miterlimit:10;stroke-width:1.1500000000000001px"/><line x1="50.2774" y1="56.49247" x2="51.54735" y2="52.58975" style="fill:none;stroke:#dab679;stroke-miterlimit:10;stroke-width:1.1500000000000001px"/><circle cx="64.0838" cy="29.25627" r="1.36785" style="fill:#dab679"/><path d="M6.85227,29.68475s-4.26663-.19752-4.35311-3.53339c-.0199-.76766.59411-1.80951,1.327-1.80951" style="fill:none;stroke:#dab679;stroke-miterlimit:10;stroke-width:1.1500000000000001px"/><path d="M.8,29.68475s4.26663-.19752,4.35311-3.53339c.0199-.76766-.59411-1.80951-1.327-1.80951" style="fill:none;stroke:#dab679;stroke-miterlimit:10;stroke-width:1.1500000000000001px"/><rect x="22.68452" y="20.73454" width="27.89933" height="2.1106" rx="1.0553" ry="1.0553" style="fill:#dab679"/><g style="clip-path:url(#a)"><circle cx="36.63418" cy="16.6301" r="11.63999" style="fill:#fdfbf8"/><circle cx="36.63418" cy="16.6301" r="11.63999" style="fill:none;stroke:#dab679;stroke-miterlimit:10;stroke-width:1.1500000000000001px"/><polyline points="32.26 11.937 41.743 11.937 41.743 17.43 35.441 17.43" style="fill:none;stroke:#dab679;stroke-miterlimit:10;stroke-width:1.1500000000000001px"/><line x1="35.43802" y1="11.94075" x2="35.44363" y2="21.78984" style="fill:none;stroke:#dab679;stroke-miterlimit:10;stroke-width:1.1500000000000001px"/><line x1="32.26037" y1="21.7884" x2="36.40239" y2="21.7884" style="fill:none;stroke:#dab679;stroke-miterlimit:10;stroke-width:1.1500000000000001px"/><line x1="33.21914" y1="11.94075" x2="33.22475" y2="21.78984" style="fill:none;stroke:#dab679;stroke-miterlimit:10;stroke-width:1.1500000000000001px"/></g></svg>