<svg xmlns="http://www.w3.org/2000/svg" viewBox="0 0 100 70"><title>rm-icon-050118</title><path d="M19.59786,63.9535C40.98972,16.033,21.47715,14.14635,21.47715,14.14635H9.54429S-9.96828,16.033,11.42358,63.9535Z" style="fill:none;stroke:#dab679;stroke-miterlimit:10;stroke-width:1.1500000000000001px"/><path d="M19.59786,63.9535C40.98972,16.033,21.47715,14.14635,21.47715,14.14635H9.54429S-9.96828,16.033,11.42358,63.9535" style="fill:none;stroke:#dab679;stroke-miterlimit:10;stroke-width:1.1500000000000001px"/><rect x="9.01838" y="63.9535" width="12.98468" height="2.65075" style="fill:none;stroke:#dab679;stroke-miterlimit:10;stroke-width:1.1500000000000001px"/><line x1="26.84973" y1="8.00827" x2="4.17171" y2="8.00827" style="fill:none;stroke:#dab679;stroke-miterlimit:10;stroke-width:1.1500000000000001px"/><path d="M4.17171,8.00827c3.39,0,5.33982,2.74811,5.33982,6.13808" style="fill:none;stroke:#dab679;stroke-miterlimit:10;stroke-width:1.1500000000000001px"/><path d="M5.17159,16.4776a4.89235,4.89235,0,0,1-4.744-4.27543A3.67758,3.67758,0,0,1,3.54425,8.0386,2.94207,2.94207,0,0,1,6.87511,10.532a2.35365,2.35365,0,0,1-1.99469,2.66469A1.88292,1.88292,0,0,1,2.74866,11.6009a1.50634,1.50634,0,0,1,1.2766-1.7054" style="fill:none;stroke:#dab679;stroke-miterlimit:10;stroke-width:1.1500000000000001px"/><circle cx="4.1804" cy="10.32333" r="0.71043" transform="matrix(0.98982, -0.14234, 0.14234, 0.98982, -1.42685, 0.70015)" style="fill:#dab679"/><path d="M26.84973,8.00827c-3.39,0-5.33982,2.74811-5.33982,6.13808" style="fill:none;stroke:#dab679;stroke-miterlimit:10;stroke-width:1.1500000000000001px"/><path d="M25.84985,16.4776a4.89235,4.89235,0,0,0,4.744-4.27543A3.67758,3.67758,0,0,0,27.47719,8.0386,2.94207,2.94207,0,0,0,24.14633,10.532,2.35365,2.35365,0,0,0,26.141,13.19665a1.88292,1.88292,0,0,0,2.13175-1.59576,1.50634,1.50634,0,0,0-1.2766-1.7054" style="fill:none;stroke:#dab679;stroke-miterlimit:10;stroke-width:1.1500000000000001px"/><circle cx="26.84973" cy="10.32333" r="0.71042" transform="translate(12.80973 35.43025) rotate(-81.81674)" style="fill:#dab679"/><line x1="31.02144" y1="25.77982" y2="25.77982" style="fill:none;stroke:#dab679;stroke-miterlimit:10;stroke-width:1.1500000000000001px"/><polyline points="27.585 42.068 25.395 42.068 25.395 39.367 26.799 39.367 26.799 36.914 23.082 36.914 23.082 42.068 19.387 42.068 19.387 39.367 20.791 39.367 20.791 36.914 17.074 36.914 17.074 42.068 13.379 42.068 13.379 39.367 14.783 39.367 14.783 36.914 11.066 36.914 11.066 42.068 7.371 42.068 7.371 39.367 8.775 39.367 8.775 36.914 5.058 36.914 5.058 42.068 3.437 42.068" style="fill:none;stroke:#dab679;stroke-miterlimit:10;stroke-width:1.1500000000000001px"/><circle cx="26.61942" cy="11.67613" r="8.28038" style="fill:#dab679"/><polyline points="24.636 12.879 26.107 14.545 30.139 8.027" style="fill:none;stroke:#fff;stroke-miterlimit:10"/></svg>