<svg xmlns="http://www.w3.org/2000/svg" viewBox="0 0 100 70"><title>rm-icon-100117</title><path d="M24.48684,11.49A17.08276,17.08276,0,0,1,33.50091,20.504" style="fill:none;stroke:#dab679;stroke-linecap:round;stroke-linejoin:round;stroke-width:1.1500000000000001px"/><path d="M2.33493,20.504A17.08276,17.08276,0,0,1,11.349,11.49,16.76255,16.76255,0,0,1,17.9179,10.155h0" style="fill:none;stroke:#dab679;stroke-linecap:round;stroke-linejoin:round;stroke-width:1.1500000000000001px"/><path d="M5.96963,54.87533A17.03592,17.03592,0,0,1,2.33493,49.496,16.76256,16.76256,0,0,1,1,42.92705V27.07295" style="fill:none;stroke:#dab679;stroke-linecap:round;stroke-linejoin:round;stroke-width:1.1500000000000001px"/><path d="M34.83583,27.07295V42.92705A16.76256,16.76256,0,0,1,33.50091,49.496,17.08276,17.08276,0,0,1,24.48684,58.51a16.76255,16.76255,0,0,1-6.5689,1.33493h0A16.76255,16.76255,0,0,1,11.349,58.51" style="fill:none;stroke:#dab679;stroke-linecap:round;stroke-linejoin:round;stroke-width:1.1500000000000001px"/><path d="M26.50976,51.51911A12.16336,12.16336,0,0,1,6.71819,47.6544" style="fill:none;stroke:#dab679;stroke-linecap:round;stroke-linejoin:round;stroke-width:1.1500000000000001px"/><path d="M30.07436,27.073V42.92686a12.09064,12.09064,0,0,1-.95683,4.72754" style="fill:none;stroke:#dab679;stroke-linecap:round;stroke-linejoin:round;stroke-width:1.1500000000000001px"/><path d="M13.19055,15.87331a12.17534,12.17534,0,0,1,15.927,6.47236" style="fill:none;stroke:#dab679;stroke-linecap:round;stroke-linejoin:round;stroke-width:1.1500000000000001px"/><path d="M5.76135,42.92686V27.073A12.11871,12.11871,0,0,1,9.326,18.48108" style="fill:none;stroke:#dab679;stroke-linecap:round;stroke-linejoin:round;stroke-width:1.1500000000000001px"/><path d="M10.52274,27.073a7.39511,7.39511,0,1,1,14.79023,0v7.92694" style="fill:none;stroke:#dab679;stroke-linecap:round;stroke-linejoin:round;stroke-width:1.1500000000000001px"/><path d="M25.313,38.96339v3.96347a7.39511,7.39511,0,1,1-14.79023,0V31.03646" style="fill:none;stroke:#dab679;stroke-linecap:round;stroke-linejoin:round;stroke-width:1.1500000000000001px"/><path d="M20.55158,34.99992v7.92694a2.6412,2.6412,0,0,1-1.60952,2.42676" style="fill:none;stroke:#dab679;stroke-linecap:round;stroke-linejoin:round;stroke-width:1.1500000000000001px"/><path d="M15.28414,27.073a2.63372,2.63372,0,1,1,5.26744,0v3.96347" style="fill:none;stroke:#dab679;stroke-linecap:round;stroke-linejoin:round;stroke-width:1.1500000000000001px"/><path d="M16.89366,45.35362a2.63426,2.63426,0,0,1-1.60952-2.42676V31.03646" style="fill:none;stroke:#dab679;stroke-linecap:round;stroke-linejoin:round;stroke-width:1.1500000000000001px"/></svg>