<svg xmlns="http://www.w3.org/2000/svg" viewBox="0 0 100 70"><title>rm-icon-090118</title><path d="M20.50716,60.02082V53.32258H63.87321V57.123l-1.64858,1.43061,1.64858,1.46726a4.89112,4.89112,0,0,1-4.87678,4.87678H15.63037" style="fill:none;stroke:#dab679;stroke-miterlimit:10;stroke-width:1.1500000000000001px"/><path d="M10.75357,9.97918A4.89112,4.89112,0,0,0,5.87679,5.1024h0A4.89112,4.89112,0,0,0,1,9.97918v6.69824h9.75357" style="fill:none;stroke:#dab679;stroke-miterlimit:10;stroke-width:1.1500000000000001px"/><path d="M10.75357,9.97918l0,50.04164a4.89112,4.89112,0,0,0,4.87678,4.87678h0a4.89112,4.89112,0,0,0,4.87678-4.87678h0" style="fill:none;stroke:#dab679;stroke-miterlimit:10;stroke-width:1.1500000000000001px"/><path d="M54.11963,9.97919A4.89113,4.89113,0,0,0,49.24285,5.1024H5.87679" style="fill:none;stroke:#dab679;stroke-miterlimit:10;stroke-width:1.1500000000000001px"/><line x1="19.88995" y1="15.79751" x2="46.19017" y2="15.79751" style="fill:none;stroke:#dab679;stroke-miterlimit:10;stroke-width:1.1500000000000001px"/><line x1="19.88995" y1="26.52154" x2="46.19017" y2="26.52154" style="fill:none;stroke:#dab679;stroke-miterlimit:10;stroke-width:1.1500000000000001px"/><line x1="19.88995" y1="21.15952" x2="39.10749" y2="21.15952" style="fill:none;stroke:#dab679;stroke-miterlimit:10;stroke-width:1.1500000000000001px"/><line x1="19.88995" y1="35.49368" x2="46.19017" y2="35.49368" style="fill:none;stroke:#dab679;stroke-miterlimit:10;stroke-width:1.1500000000000001px"/><line x1="19.88995" y1="46.21771" x2="46.19017" y2="46.21771" style="fill:none;stroke:#dab679;stroke-miterlimit:10;stroke-width:1.1500000000000001px"/><line x1="19.88995" y1="40.85569" x2="39.10749" y2="40.85569" style="fill:none;stroke:#dab679;stroke-miterlimit:10;stroke-width:1.1500000000000001px"/><line x1="54.11963" y1="9.97919" x2="54.11963" y2="53.32258" style="fill:none;stroke:#dab679;stroke-miterlimit:10;stroke-width:1.1500000000000001px"/><line x1="58.55354" y1="58.55356" x2="62.22463" y2="58.55356" style="fill:none;stroke:#dab679;stroke-miterlimit:10;stroke-width:1.1500000000000001px"/><line x1="55.28564" y1="58.55356" x2="55.83566" y2="58.55356" style="fill:none;stroke:#dab679;stroke-miterlimit:10;stroke-width:1.1500000000000001px"/></svg>