<svg xmlns="http://www.w3.org/2000/svg" viewBox="0 0 100 70"><title>rm-icon-110117</title><rect x="11.45184" y="17.7768" width="66.84255" height="40.13381" rx="5.14075" ry="5.14075" style="fill:none;stroke:#dab679;stroke-linecap:round;stroke-linejoin:round;stroke-width:1.1500000000000001px"/><rect x="11.45184" y="17.7768" width="66.84255" height="40.13381" rx="5.14075" ry="5.14075" style="fill:none;stroke:#dab679;stroke-linecap:round;stroke-linejoin:round;stroke-width:1.1500000000000001px"/><ellipse cx="15.55703" cy="22.65346" rx="1.30737" ry="1.21311" style="fill:none;stroke:#dab679;stroke-linecap:round;stroke-linejoin:round;stroke-width:1.1500000000000001px"/><line x1="50.63798" y1="31.65331" x2="44.87315" y2="29.22194" style="fill:none;stroke:#dab679;stroke-linecap:round;stroke-linejoin:round;stroke-width:1.1500000000000001px"/><polyline points="50.638 31.653 44.873 22.69 44.873 40.596 50.638 31.653" style="fill:none;stroke:#dab679;stroke-linecap:round;stroke-linejoin:round;stroke-width:1.1500000000000001px"/><line x1="50.63798" y1="31.65331" x2="44.87315" y2="34.81514" style="fill:none;stroke:#dab679;stroke-linecap:round;stroke-linejoin:round;stroke-width:1.1500000000000001px"/><line x1="39.10826" y1="31.65331" x2="44.87308" y2="29.22194" style="fill:none;stroke:#dab679;stroke-linecap:round;stroke-linejoin:round;stroke-width:1.1500000000000001px"/><line x1="44.87308" y1="40.59599" x2="39.10826" y2="31.65331" style="fill:none;stroke:#dab679;stroke-linecap:round;stroke-linejoin:round;stroke-width:1.1500000000000001px"/><line x1="39.10826" y1="31.65331" x2="44.87312" y2="22.68993" style="fill:none;stroke:#dab679;stroke-linecap:round;stroke-linejoin:round;stroke-width:1.1500000000000001px"/><line x1="39.10826" y1="31.65331" x2="44.87308" y2="34.81514" style="fill:none;stroke:#dab679;stroke-linecap:round;stroke-linejoin:round;stroke-width:1.1500000000000001px"/><path d="M11.37543,26.27a8.3941,8.3941,0,0,1-2.52649.38553A7.58191,7.58191,0,0,1,1,19.37248a7.58191,7.58191,0,0,1,7.84894-7.28309,7.58191,7.58191,0,0,1,7.84894,7.28309,6.83093,6.83093,0,0,1-.84,3.28155" style="fill:none;stroke:#dab679;stroke-linecap:round;stroke-linejoin:round;stroke-width:1.1500000000000001px"/><line x1="15.75179" y1="46.19198" x2="19.29871" y2="46.19198" style="fill:none;stroke:#dab679;stroke-linecap:round;stroke-linejoin:round;stroke-width:1.1500000000000001px"/><line x1="21.82909" y1="46.19198" x2="31.45331" y2="46.19198" style="fill:none;stroke:#dab679;stroke-linecap:round;stroke-linejoin:round;stroke-width:1.1500000000000001px"/><line x1="33.9837" y1="46.19198" x2="37.53062" y2="46.19198" style="fill:none;stroke:#dab679;stroke-linecap:round;stroke-linejoin:round;stroke-width:1.1500000000000001px"/><line x1="40.06101" y1="46.19198" x2="55.76253" y2="46.19198" style="fill:none;stroke:#dab679;stroke-linecap:round;stroke-linejoin:round;stroke-width:1.1500000000000001px"/><line x1="58.29292" y1="46.19198" x2="61.83984" y2="46.19198" style="fill:none;stroke:#dab679;stroke-linecap:round;stroke-linejoin:round;stroke-width:1.1500000000000001px"/><line x1="64.37022" y1="46.19198" x2="73.99445" y2="46.19198" style="fill:none;stroke:#dab679;stroke-linecap:round;stroke-linejoin:round;stroke-width:1.1500000000000001px"/><line x1="15.75179" y1="51.10366" x2="19.29871" y2="51.10366" style="fill:none;stroke:#dab679;stroke-linecap:round;stroke-linejoin:round;stroke-width:1.1500000000000001px"/><line x1="21.82909" y1="51.10366" x2="37.53062" y2="51.10366" style="fill:none;stroke:#dab679;stroke-linecap:round;stroke-linejoin:round;stroke-width:1.1500000000000001px"/><line x1="40.06101" y1="51.10366" x2="43.60792" y2="51.10366" style="fill:none;stroke:#dab679;stroke-linecap:round;stroke-linejoin:round;stroke-width:1.1500000000000001px"/><line x1="46.13831" y1="51.10366" x2="49.68523" y2="51.10366" style="fill:none;stroke:#dab679;stroke-linecap:round;stroke-linejoin:round;stroke-width:1.1500000000000001px"/><line x1="52.21562" y1="51.10366" x2="55.76253" y2="51.10366" style="fill:none;stroke:#dab679;stroke-linecap:round;stroke-linejoin:round;stroke-width:1.1500000000000001px"/><line x1="58.29292" y1="51.10366" x2="67.91714" y2="51.10366" style="fill:none;stroke:#dab679;stroke-linecap:round;stroke-linejoin:round;stroke-width:1.1500000000000001px"/><line x1="70.44753" y1="51.10366" x2="73.99445" y2="51.10366" style="fill:none;stroke:#dab679;stroke-linecap:round;stroke-linejoin:round;stroke-width:1.1500000000000001px"/></svg>