<svg xmlns="http://www.w3.org/2000/svg" viewBox="0 0 100 70"><title>rm-icon-060117</title><line x1="41.14382" y1="29.60809" x2="68.74863" y2="29.60809" style="fill:none;stroke:#dab679;stroke-miterlimit:10;stroke-width:1.1500000000000001px"/><line x1="41.14382" y1="23.20299" x2="68.74863" y2="23.20299" style="fill:none;stroke:#dab679;stroke-miterlimit:10;stroke-width:1.1500000000000001px"/><line x1="41.14382" y1="36.0132" x2="68.74863" y2="36.0132" style="fill:none;stroke:#dab679;stroke-miterlimit:10;stroke-width:1.1500000000000001px"/><line x1="41.14382" y1="42.4183" x2="68.74863" y2="42.4183" style="fill:none;stroke:#dab679;stroke-miterlimit:10;stroke-width:1.1500000000000001px"/><polyline points="13.112 23.194 34.478 23.194 34.478 32.844 20.279 32.844" style="fill:none;stroke:#dab679;stroke-miterlimit:10;stroke-width:1.1500000000000001px"/><line x1="20.27261" y1="23.20299" x2="20.28525" y2="42.50235" style="fill:none;stroke:#dab679;stroke-miterlimit:10;stroke-width:1.1500000000000001px"/><line x1="13.11273" y1="42.49916" x2="22.44554" y2="42.49916" style="fill:none;stroke:#dab679;stroke-miterlimit:10;stroke-width:1.1500000000000001px"/><line x1="15.27302" y1="23.20299" x2="15.28567" y2="42.50235" style="fill:none;stroke:#dab679;stroke-miterlimit:10;stroke-width:1.1500000000000001px"/><line x1="13.11243" y1="48.8234" x2="68.74863" y2="48.8234" style="fill:none;stroke:#dab679;stroke-miterlimit:10;stroke-width:1.1500000000000001px"/><line x1="1.2" y1="56.34459" x2="80.66106" y2="56.34459" style="fill:none;stroke:#dab679;stroke-miterlimit:10;stroke-width:1.1500000000000001px"/><line x1="1.2" y1="15.60431" x2="80.66106" y2="15.60431" style="fill:none;stroke:#dab679;stroke-miterlimit:10;stroke-width:1.1500000000000001px"/><rect x="1.2" y="6.93409" width="79.46106" height="56.13182" rx="1.78568" ry="1.78568" style="fill:none;stroke:#dab679;stroke-miterlimit:10;stroke-width:1.1500000000000001px"/><circle cx="64.96628" cy="11.5712" r="1.35903" style="fill:#dab679"/><circle cx="69.89299" cy="11.5712" r="1.35903" style="fill:#dab679"/><circle cx="74.8197" cy="11.5712" r="1.35903" style="fill:#dab679"/><rect x="5.59305" y="10.32141" width="35.33748" height="2.49957" rx="1.24978" ry="1.24978" style="fill:#dab679"/></svg>