<svg xmlns="http://www.w3.org/2000/svg" viewBox="0 0 100 70"><title>rm-icon-011418</title><path d="M21.71711,30.29665,21.717,8.19536a6.92593,6.92593,0,0,1,6.90563-6.90557h0l.00006,38.148" style="fill:none;stroke:#dab679;stroke-miterlimit:10;stroke-width:1.1500000000000001px"/><line x1="28.62267" y1="8.90704" x2="25.16989" y2="8.90703" style="fill:none;stroke:#dab679;stroke-miterlimit:10;stroke-width:1.1500000000000001px"/><path d="M7.90578,35.13617,7.9057,10.47563a6.92593,6.92593,0,0,1,6.90563-6.90557h0l.00006,29.00687" style="fill:none;stroke:#dab679;stroke-miterlimit:10;stroke-width:1.1500000000000001px"/><line x1="14.81134" y1="11.18731" x2="11.35857" y2="11.18731" style="fill:none;stroke:#dab679;stroke-miterlimit:10;stroke-width:1.1500000000000001px"/><path d="M1.00008,69.25688,1,22.5265a6.92593,6.92593,0,0,1,6.90563-6.90557h0L7.9057,36.16512" style="fill:none;stroke:#dab679;stroke-miterlimit:10;stroke-width:1.1500000000000001px"/><line x1="7.90564" y1="23.23818" x2="4.45286" y2="23.23818" style="fill:none;stroke:#dab679;stroke-miterlimit:10;stroke-width:1.1500000000000001px"/><path d="M14.81148,32.30923,14.81141,7.64869A6.92593,6.92593,0,0,1,21.717.74312h0l.00006,31.56612" style="fill:none;stroke:#dab679;stroke-miterlimit:10;stroke-width:1.1500000000000001px"/><line x1="21.71704" y1="8.36037" x2="18.26427" y2="8.36037" style="fill:none;stroke:#dab679;stroke-miterlimit:10;stroke-width:1.1500000000000001px"/><circle cx="24.27553" cy="29.09633" r="17.69266" style="fill:#fff"/><circle cx="24.27553" cy="29.09633" r="17.69266" style="fill:none;stroke:#dab679;stroke-miterlimit:10;stroke-width:1.1500000000000001px"/><polyline points="17.627 21.962 32.04 21.962 32.04 30.312 22.462 30.312" style="fill:none;stroke:#dab679;stroke-miterlimit:10;stroke-width:1.1500000000000001px"/><line x1="22.45738" y1="21.96857" x2="22.46591" y2="36.93909" style="fill:none;stroke:#dab679;stroke-miterlimit:10;stroke-width:1.1500000000000001px"/><line x1="17.62739" y1="36.9369" x2="23.92321" y2="36.9369" style="fill:none;stroke:#dab679;stroke-miterlimit:10;stroke-width:1.1500000000000001px"/><line x1="19.0847" y1="21.96857" x2="19.09323" y2="36.93909" style="fill:none;stroke:#dab679;stroke-miterlimit:10;stroke-width:1.1500000000000001px"/><path d="M20.6325,55.63414A12.78457,12.78457,0,0,1,33.41707,42.84958" style="fill:#fff"/><path d="M29.76276,69.25688,38.26583,53.6171,38.2657,23.99228h0a6.90642,6.90642,0,0,0-6.88617,6.88625l.00011,11.97105-5.766,2.66106-3.15624,3.73123" style="fill:#fff"/><line x1="38.26574" y1="31.58816" x2="34.82268" y2="31.58816" style="fill:none;stroke:#dab679;stroke-miterlimit:10;stroke-width:1.1500000000000001px"/><path d="M20.6325,55.63414A12.78457,12.78457,0,0,1,33.41707,42.84958" style="fill:none;stroke:#dab679;stroke-miterlimit:10;stroke-width:1.1500000000000001px"/><path d="M31.37964,42.84958l-.00011-11.97105a6.90642,6.90642,0,0,1,6.88617-6.88625h0l.00013,29.62482L29.76276,69.25688" style="fill:none;stroke:#dab679;stroke-miterlimit:10;stroke-width:1.1500000000000001px"/></svg>